<svg xmlns="http://www.w3.org/2000/svg" width="141" height="140" viewBox="0 0 141 140">
  <path fill="#EE350F" fill-rule="evenodd" d="M0 70C0 53.1761488 5.9351074 37.7385162 15.8257578 25.6666667L124.174242 25.6666667 46.886533 136.094164C19.5839221 126.547002 0 100.560536 0 70zM129.916933 33.7866337C136.316332 44.3520969 140 56.745865 140 70 140 108.659932 108.659932 140 70 140 65.368347 140 60.8417578 139.550169 56.4615372 138.691811L129.916933 33.7866337zM25.0542491 16.3333333C37.2143113 6.138509 52.8902929 0 70 0 87.1097071 0 102.785689 6.138509 114.945751 16.3333333L25.0542491 16.3333333 25.0542491 16.3333333z" transform="translate(.5)"/>
</svg>
