<?xml version="1.0" encoding="UTF-8" standalone="no"?>
<!DOCTYPE svg PUBLIC "-//W3C//DTD SVG 1.1//EN" "http://www.w3.org/Graphics/SVG/1.1/DTD/svg11.dtd">
<svg version="1.1" xmlns="http://www.w3.org/2000/svg" xmlns:xl="http://www.w3.org/1999/xlink" xmlns:dc="http://purl.org/dc/elements/1.1/" viewBox="40.000004 210.00002 1920 1580" width="1920" height="1580">
  <defs/>
  <metadata> Produced by OmniGraffle 7.18.5\n2021-04-09 07:42:27 +0000</metadata>
  <g id="Canvas_1" stroke-opacity="1" fill="none" fill-opacity="1" stroke="none" stroke-dasharray="none">
    <title>Canvas 1</title>
    <g id="Canvas_1_Layer_1">
      <title>Layer 1</title>
      <g id="Group_2">
        <title>layer1</title>
        <g id="Graphic_5">
          <title>rect4187</title>
          <path d="M 429.65115 270.00002 L 1570.3488 270.00002 C 1752.4102 270.00002 1900 417.58987 1900 599.6512 L 1900 1400.3489 C 1900 1582.4102 1752.4102 1730 1570.3488 1730 L 429.65115 1730 C 247.58985 1730 100 1582.4102 100 1400.3489 L 100 599.6512 C 100 417.58987 247.58985 270.00002 429.65115 270.00002 Z" fill="white"/>
          <path d="M 429.65115 270.00002 L 1570.3488 270.00002 C 1752.4102 270.00002 1900 417.58987 1900 599.6512 L 1900 1400.3489 C 1900 1582.4102 1752.4102 1730 1570.3488 1730 L 429.65115 1730 C 247.58985 1730 100 1582.4102 100 1400.3489 L 100 599.6512 C 100 417.58987 247.58985 270.00002 429.65115 270.00002 Z" stroke="black" stroke-linecap="round" stroke-linejoin="round" stroke-width="119.99999"/>
        </g>
        <g id="Group_3">
          <title>layer9</title>
          <g id="Graphic_4">
            <title>path8979-3</title>
            <path d="M 655.76524 478.0921 C 553.92 478.0921 481.0623 556.3849 480.85795 645.5657 L 480.85795 645.5915 L 480.85795 645.6162 C 480.8644 672.5859 488.16213 701.0493 499.56387 726.7223 C 507.79655 745.2597 518.0322 762.3018 530.5048 775.954 C 456.3781 801.3142 369.53506 843.0525 325.64062 925.3546 L 323.2753 929.7901 L 323.2753 1196.2129 L 988.2552 1196.2129 L 988.2552 929.7901 L 985.8899 925.3546 C 942.6268 844.2363 857.6629 802.556 784.2527 777.09065 C 820.0895 740.6488 830.661 693.613 830.6725 645.6162 L 830.6725 645.5915 L 830.6725 645.5657 C 830.4682 556.3849 757.6105 478.0921 655.76524 478.0921 Z M 586.2276 573.0557 C 590.93526 573.06754 596.10385 573.2248 601.8018 573.5606 C 647.2003 576.2365 662.47956 584.4084 674.2243 592.15884 C 685.96906 599.9093 694.2486 607.28716 725.2872 608.192 L 725.2964 608.192 L 725.3067 608.192 C 749.494 607.2873 761.1261 602.97495 769.4678 598.0901 C 772.8479 596.1107 775.6862 594.05296 778.5946 592.08815 C 786.2822 608.566 790.4104 626.7814 790.4571 645.633 C 790.441 699.314 781.2124 736.9071 731.992 767.6698 L 736.8068 803.9607 C 747.0516 807.0718 757.6414 810.4855 768.3895 814.2287 C 769.89055 820.4908 771.6248 828.7039 772.7914 837.4352 C 774.0134 846.5826 774.494 856.1 773.7406 863.2461 C 772.9872 870.3922 770.7685 874.2499 770.3789 874.6395 C 745.3614 899.657 700.9531 914.2472 655.9093 914.2472 C 610.8656 914.2472 566.4573 899.657 541.43975 874.6395 C 541.0502 874.2499 538.83144 870.3922 538.07804 863.2461 C 537.32465 856.1 537.80527 846.5826 539.0273 837.4352 C 540.2002 828.6557 541.9483 820.3942 543.455 814.1199 C 554.0958 810.4195 564.5791 807.0417 574.72465 803.9607 L 577.5949 765.0745 C 575.25783 762.0773 572.87656 760.0917 570.0344 757.9595 C 559.0493 749.7181 545.7275 731.5879 536.3175 710.3997 C 526.9109 689.219 521.0831 665.009 521.0743 645.62855 C 521.13274 622.3934 527.3856 600.1221 538.8702 580.88434 C 540.92513 580.11946 543.092 579.3111 545.5274 578.51006 C 554.0919 575.69316 565.82816 573.0044 586.22804 573.0557 Z M 499.27887 831.3245 C 499.24273 831.5881 499.202 831.8453 499.16666 832.1099 C 497.6805 843.2342 496.8072 855.3429 498.085 867.4628 C 499.36275 879.5827 502.5607 892.6316 513.00395 903.0748 C 548.65016 938.7211 602.5972 954.462 655.9089 954.462 C 709.2205 954.462 763.1676 938.7211 798.8138 903.0748 C 809.257 892.6316 812.455 879.5827 813.7327 867.4628 C 815.0105 855.3428 814.1372 843.2342 812.6511 832.1099 C 812.6218 831.8907 812.5878 831.6777 812.558 831.4591 C 866.7524 855.2255 919.1356 889.2624 948.0404 940.0817 L 948.0404 1155.9981 L 851.8122 1155.9981 L 851.8122 1003.7565 L 811.5975 1003.7565 L 811.5975 1155.9981 L 499.0713 1155.9981 L 499.0713 1003.7565 L 458.8565 1003.7565 L 458.8565 1155.9981 L 363.49008 1155.9981 L 363.49008 940.0817 C 392.44937 889.1665 444.9755 855.0968 499.27887 831.3245 Z" fill="black"/>
          </g>
        </g>
      </g>
    </g>
  </g>
</svg>
