<?xml version="1.0" encoding="UTF-8" standalone="no"?>
<!DOCTYPE svg PUBLIC "-//W3C//DTD SVG 1.1//EN" "http://www.w3.org/Graphics/SVG/1.1/DTD/svg11.dtd">
<svg version="1.1" xmlns="http://www.w3.org/2000/svg" xmlns:xl="http://www.w3.org/1999/xlink" xmlns:dc="http://purl.org/dc/elements/1.1/" viewBox="40.000004 210.00002 1920 1580" width="1920" height="1580">
  <defs/>
  <metadata> Produced by OmniGraffle 7.18.5\n2021-04-09 07:31:41 +0000</metadata>
  <g id="Canvas_1" stroke-opacity="1" fill="none" fill-opacity="1" stroke="none" stroke-dasharray="none">
    <title>Canvas 1</title>
    <g id="Canvas_1_Layer_1">
      <title>Layer 1</title>
      <g id="Group_2">
        <title>layer1</title>
        <g id="Graphic_6">
          <title>rect4187</title>
          <path d="M 429.65115 270.00002 L 1570.3488 270.00002 C 1752.4102 270.00002 1900 417.58987 1900 599.6512 L 1900 1400.3489 C 1900 1582.4102 1752.4102 1730 1570.3488 1730 L 429.65115 1730 C 247.58985 1730 100 1582.4102 100 1400.3489 L 100 599.6512 C 100 417.58987 247.58985 270.00002 429.65115 270.00002 Z" fill="white"/>
          <path d="M 429.65115 270.00002 L 1570.3488 270.00002 C 1752.4102 270.00002 1900 417.58987 1900 599.6512 L 1900 1400.3489 C 1900 1582.4102 1752.4102 1730 1570.3488 1730 L 429.65115 1730 C 247.58985 1730 100 1582.4102 100 1400.3489 L 100 599.6512 C 100 417.58987 247.58985 270.00002 429.65115 270.00002 Z" stroke="black" stroke-linecap="round" stroke-linejoin="round" stroke-width="119.99999"/>
        </g>
        <g id="Group_3">
          <title>g4165</title>
          <g id="Group_4">
            <title>layer6-6</title>
            <g id="Graphic_5">
              <title>path4170</title>
              <path d="M 502.7908 430.8679 C 502.7618 454.03584 502.7972 477.2043 502.85684 500.37214 C 483.0986 505.9619 465.04375 513.76264 447.9934 523.31845 L 398.1602 474.08455 L 304.9795 567.8046 L 354.809 617.0299 C 345.1835 634.2823 337.6671 652.6165 332.42164 671.6598 L 261.83503 671.7882 L 261.83503 803.7815 L 333.1591 803.5246 C 339.6814 829.3851 353.87625 852.6334 368.01397 873.4215 L 368.01397 759.5656 L 305.66807 759.7894 L 305.66807 715.54175 L 367.7033 715.4292 L 371.18526 697.7884 C 376.26333 672.0618 386.3201 647.5373 400.7689 625.5935 L 410.65335 610.5822 L 367.06857 567.5245 L 398.4366 535.97426 L 442.10086 579.11385 L 456.96056 569.1976 C 479.6685 554.21576 504.50555 544.173 529.27285 538.9425 L 546.7804 535.3077 L 546.62384 474.7022 L 591.68846 474.7022 L 591.3399 534.9922 L 609.14096 534.9922 L 709.58514 534.9922 C 698.49325 521.7523 652.5268 504.5234 635.3772 499.7227 L 635.7747 430.86913 C 586.68165 430.8679 548.19284 430.87163 502.7908 430.8679 Z M 627.50094 557.1435 L 627.6807 626.6453 C 607.9218 632.2351 589.86685 640.03475 572.81604 649.5916 L 522.98163 600.3577 L 429.80095 694.07775 L 479.6317 743.3031 C 470.00573 760.5564 462.4885 778.89 457.2431 797.9342 L 386.6577 798.0614 L 386.6577 930.0546 L 457.98056 929.799 C 463.5946 949.3717 471.3773 967.2448 480.91463 984.1182 L 429.8841 1034.9493 L 524.10314 1127.5492 L 574.9502 1076.9381 C 592.36714 1086.6093 610.8811 1094.1181 630.0754 1099.3438 L 630.1086 1171.1755 C 675.4393 1171.5724 723.7028 1171.3679 762.4442 1171.3639 L 762.4442 1098.6822 C 782.2178 1093.1067 800.3291 1085.2499 817.3835 1075.698 L 868.189 1125.7905 L 961.4308 1032.1878 L 910.519 982.0158 C 920.1666 964.717 927.6842 946.3522 932.9357 927.2881 L 1002.0534 926.8613 L 1002.0534 794.9952 L 932.1603 795.4209 C 926.5419 775.8294 918.8718 758.0771 909.2078 741.0919 L 957.5 692.6762 L 863.3336 599.91865 L 815.1038 648.31356 C 797.7583 638.721 779.3196 631.2297 760.2 625.9971 L 760.5962 557.1435 L 627.5011 557.1435 Z M 671.4465 600.97656 L 716.5111 600.97656 L 716.1638 661.2678 L 733.9636 664.7607 C 759.80785 669.8322 784.5787 679.8765 806.611 694.2367 L 821.5294 703.961 L 863.6197 661.72764 L 895.3155 692.9501 L 853.1665 735.2067 L 863.3078 750.1765 C 878.1889 772.6396 888.0599 796.9212 893.6326 821.925 L 897.2992 839.4655 L 958.2154 839.0949 L 958.2154 883.2973 L 897.6392 883.6704 L 894.1597 901.2109 C 889.0501 926.9664 879.0153 951.49 864.5418 973.4718 L 854.6463 988.504 L 899.267 1032.4764 L 867.9039 1063.9606 L 823.2784 1019.9613 L 808.4443 1029.8164 C 785.7293 1044.661 761.0892 1054.9407 736.2299 1060.0054 L 718.6062 1063.5252 L 718.6062 1127.5308 C 706.5577 1127.5602 693.4141 1127.5415 673.91575 1127.5139 L 673.8876 1063.9878 L 656.18435 1060.5303 C 630.304 1055.4765 605.57396 1045.4784 583.5798 1031.058 L 568.7054 1021.3056 L 523.9074 1065.8969 L 492.2067 1034.7393 L 537.0671 990.0538 L 526.8304 975.0229 C 511.9354 952.609 502.0817 928.3017 496.4995 903.327 L 492.83657 885.8402 L 430.49067 886.0628 L 430.49067 841.8164 L 492.5259 841.7027 L 496.00786 824.0643 C 501.08597 798.33745 511.1429 773.8116 525.5915 751.86815 L 535.47595 736.8556 L 491.88995 693.7979 L 523.258 662.2477 L 566.92346 705.3873 L 581.78316 695.47224 C 604.5199 680.588 628.6475 670.712 654.09545 665.2184 L 671.6042 661.5836 L 671.44645 600.9768 Z M 694.71935 762.03365 C 640.46225 762.03365 596.0082 806.4889 596.0082 860.7461 C 596.0082 915.0032 640.46225 959.456 694.71935 959.456 C 748.9765 959.456 793.4306 915.0032 793.4306 860.7461 C 793.4306 806.4889 748.9765 762.03365 694.71935 762.03365 Z M 694.71935 805.8667 C 725.2874 805.8667 749.5975 830.1781 749.5975 860.7461 C 749.5975 891.314 725.2874 915.623 694.71935 915.623 C 664.1513 915.623 639.84245 891.314 639.84245 860.7461 C 639.84245 830.1781 664.1513 805.8667 694.71935 805.8667 Z" fill="black"/>
            </g>
          </g>
        </g>
      </g>
    </g>
  </g>
</svg>
