<svg width="32" height="32" viewBox="0 0 512 512"><path fill="#FF473E" d="M349.164 318.915s.842-1.244 2.518-3.433c.927-1.132 1.662-2.397 2.568-3.849c.445-.758.936-1.417 1.456-2.337l1.628-2.765a106.887 106.887 0 0 0 6.794-13.979c2.1-5.414 3.932-11.49 4.998-18.019a87.18 87.18 0 0 0 .918-20.539c-.041-.883-.209-1.781-.296-2.67l-.131-1.337l-.062-.669c-.015-.745.013.924.003.707l-.015-.115l-.03-.229l-.06-.459l-.483-3.699l-.11-.932c-.02-.14-.033-.346-.06-.432l-.078-.267l-.299-1.066l-.554-2.184l-.722-2.638c-.198-.889-.533-1.748-.825-2.616c-.301-.866-.517-1.755-.865-2.608c-1.289-3.447-2.842-6.81-4.557-10.124c-1.856-3.246-3.837-6.447-6.113-9.493c-2.338-2.992-4.826-5.911-7.6-8.587a81.367 81.367 0 0 0-8.999-7.291c-1.44-.946-.46-.306-.809-.537l-.106-.076l-.213-.152l-.426-.304l-.852-.608l-1.703-1.217l-.851-.608l-.213-.152l-.299-.23l-.602-.465l-2.396-1.878l-2.363-1.912l-.585-.483l-.504-.458l-1.003-.918c-1.331-1.23-2.672-2.444-3.967-3.7l-3.742-3.906c-1.259-1.284-2.353-2.721-3.519-4.08l-1.712-2.068c-.566-.691-1.077-1.428-1.614-2.14c-1.056-1.44-2.126-2.862-3.113-4.337c-3.961-5.903-7.262-12.137-9.996-18.492c-1.266-3.226-2.534-6.413-3.473-9.69c-.476-1.634-1.048-3.225-1.406-4.876l-1.13-4.898c-1.271-6.54-2.083-13.031-2.1-19.364c-.124-3.161.118-6.277.258-9.333l.034-.572l.018-.286l.009-.143c-.001.102.032-1.419.026-.828l.131-.915l.261-1.821l.26-1.809c.093-.63.149-1.099.304-2c.262-1.611.56-3.201.856-4.771c.152-.778.294-1.579.46-2.322l.549-2.098c.364-1.391.736-2.764 1.119-4.117c.405-1.349.892-2.666 1.334-3.974c.475-1.3.853-2.607 1.408-3.85l1.582-3.695l.786-1.807l.881-1.746a3794.14 3794.14 0 0 1 1.766-3.403a91.604 91.604 0 0 1 16.266-21.593c5.671-5.573 11.267-9.53 15.974-12.417c2.385-1.417 4.52-2.611 6.466-3.501c1.912-.932 3.541-1.676 4.919-2.179c2.727-1.043 4.173-1.532 4.173-1.532a6.56 6.56 0 0 1 7.247 10.281l-.408.508s-.863 1.077-2.466 2.97c-.836.898-1.721 2.18-2.815 3.56c-1.126 1.343-2.218 3.085-3.511 4.879c-2.458 3.727-5.206 8.27-7.648 13.633c-2.405 5.381-4.539 11.534-5.84 18.244c-.604 3.369-1.168 6.817-1.338 10.401c-.046.894-.14 1.78-.157 2.684c.012.91.009 1.818-.004 2.726l-.019 1.363c.019.421.07.795.099 1.192c.065.784.131 1.563.159 2.339c.002.291.067 1.026.11 1.602l.142 1.822l.142 1.834l.072.921c-.007.667.018-.777.022-.599l.016.087l.033.175l.064.349c.346 1.859.548 3.735 1.061 5.575c.734 3.718 2.028 7.343 3.346 10.926a82.366 82.366 0 0 0 5.109 10.357l1.57 2.45c.488.834 1.081 1.611 1.661 2.392l.841 1.188c.268.404.559.793.882 1.162l1.836 2.271a81.574 81.574 0 0 0 8.273 8.262l2.291 1.819l.568.458l.282.229l.241.156c.32.21.639.418.945.643l.914.678l.225.174l.115.089l.22.141l.88.566l1.76 1.132l.88.566l.44.283l.22.141l.11.071c-.277-.182.775.507-.593-.39a119.187 119.187 0 0 1 17.396 13.16a115.811 115.811 0 0 1 14.374 16.206c1.024 1.477 2.047 2.951 3.029 4.446c.507.737.978 1.496 1.421 2.272l1.353 2.308c1.87 3.032 3.337 6.274 4.869 9.436c1.366 3.247 2.759 6.454 3.772 9.778c.521 1.654 1.137 3.267 1.541 4.941l1.248 4.977c.405 1.651.658 3.331.978 4.982c.293 1.658.586 3.305.737 4.965l.521 4.931c.048.391.072.835.089 1.3l.058 1.361l.096 2.705l.069 2.682l.013.667c.005.225-.013.332-.018.504l-.05.937l-.242 3.722l-.03.462l-.015.231l-.008.115c-.004-.14.016 1.606 0 .937l-.122 1.167l-.25 2.317c-.2 1.537-.337 3.059-.608 4.562c-1.978 12.051-6.015 22.916-11.084 31.95a88.807 88.807 0 0 1-17.109 21.819a212.722 212.722 0 0 1-4.459 3.838c-1.453 1.195-2.953 2.236-4.345 3.255c-1.364 1.047-2.824 1.881-4.16 2.712c-1.354.813-2.589 1.625-3.865 2.265c-2.552 1.278-4.715 2.424-6.893 3.278c-2.1.86-3.878 1.621-5.165 1.89c-2.654.747-4.121 1.069-4.121 1.069a6.878 6.878 0 0 1-8.192-5.243a6.919 6.919 0 0 1 1.028-5.323zm-118.415 5.33a6.877 6.877 0 0 0 8.192 5.243s1.467-.322 4.121-1.069c1.287-.27 3.065-1.03 5.165-1.89c2.178-.854 4.341-1.999 6.893-3.278c1.277-.64 2.511-1.452 3.865-2.265c1.336-.832 2.796-1.666 4.16-2.712c1.391-1.019 2.892-2.061 4.345-3.255a212.722 212.722 0 0 0 4.459-3.838a88.854 88.854 0 0 0 17.109-21.819c5.068-9.034 9.106-19.899 11.084-31.95c.27-1.503.408-3.026.608-4.562l.25-2.317l.122-1.167c.016.668-.004-1.078 0-.937l.008-.115l.015-.231l.03-.462l.242-3.722l.05-.937c.005-.172.023-.279.018-.504l-.013-.667l-.069-2.682l-.096-2.705l-.058-1.361a16.157 16.157 0 0 0-.089-1.3l-.521-4.931c-.151-1.66-.444-3.307-.737-4.965c-.32-1.651-.574-3.331-.978-4.982l-1.248-4.977c-.404-1.674-1.019-3.287-1.541-4.941c-1.013-3.324-2.406-6.531-3.772-9.778c-1.532-3.162-2.999-6.404-4.869-9.436l-1.353-2.308a32.32 32.32 0 0 0-1.421-2.272c-.983-1.495-2.006-2.969-3.029-4.446a115.868 115.868 0 0 0-14.374-16.206c-1.339-1.227-2.728-2.403-4.112-3.583c-1.363-1.206-2.827-2.291-4.28-3.388c-1.462-1.086-2.887-2.222-4.426-3.202l-2.281-1.507l-1.147-.742l-.574-.37l-.287-.184l-.144-.092c.266.175-.797-.521.559.369l-3.521-2.264l-.88-.566l-.22-.141l-.115-.089l-.225-.174l-.914-.678c-.306-.224-.625-.433-.945-.643l-.241-.156l-.282-.229l-.568-.458l-2.291-1.819a81.472 81.472 0 0 1-8.273-8.262l-1.836-2.271a11.066 11.066 0 0 1-.882-1.162l-.841-1.188c-.58-.781-1.173-1.558-1.662-2.392l-1.57-2.45a82.572 82.572 0 0 1-5.109-10.357c-1.318-3.584-2.612-7.208-3.346-10.926c-.514-1.84-.716-3.716-1.061-5.575l-.064-.349l-.033-.175l-.016-.087c-.004-.178-.029 1.266-.022.599l-.072-.921l-.142-1.834l-.142-1.822c-.043-.576-.108-1.312-.11-1.602c-.028-.775-.094-1.555-.159-2.339c-.029-.398-.08-.772-.099-1.192l.019-1.363c.014-.908.016-1.816.004-2.726c.017-.904.111-1.79.157-2.684c.17-3.584.734-7.032 1.338-10.401c1.301-6.71 3.436-12.864 5.84-18.244c2.442-5.363 5.189-9.907 7.648-13.633c1.293-1.794 2.385-3.537 3.511-4.879c1.094-1.38 1.979-2.663 2.815-3.56a158.701 158.701 0 0 0 2.466-2.97l.408-.508a6.56 6.56 0 0 0-7.247-10.281s-1.447.489-4.173 1.532c-1.378.504-3.006 1.247-4.919 2.179c-1.946.89-4.081 2.083-6.466 3.501c-4.708 2.887-10.304 6.844-15.974 12.417a91.625 91.625 0 0 0-16.266 21.593l-1.765 3.403l-.881 1.746l-.786 1.807l-1.582 3.695c-.555 1.243-.933 2.55-1.408 3.85c-.442 1.308-.929 2.625-1.334 3.974a214.378 214.378 0 0 0-1.119 4.117l-.549 2.098c-.166.743-.308 1.544-.46 2.322c-.296 1.569-.594 3.16-.856 4.771c-.154.9-.211 1.37-.304 2l-.26 1.809l-.261 1.821l-.131.915c.006-.59-.027.93-.026.828l-.009.143l-.018.286l-.034.572c-.141 3.056-.383 6.172-.258 9.333c.017 6.333.829 12.823 2.1 19.364l1.13 4.898c.358 1.651.93 3.242 1.406 4.876c.939 3.277 2.207 6.464 3.473 9.69c2.734 6.354 6.035 12.589 9.996 18.492c.987 1.476 2.057 2.898 3.113 4.337c.537.712 1.048 1.449 1.614 2.14l1.712 2.068c1.166 1.359 2.26 2.795 3.519 4.08l3.742 3.906c1.296 1.256 2.637 2.47 3.968 3.7l1.003.918l.504.458l.585.483l2.363 1.912l2.396 1.878l.602.465l.299.23l.213.152l.851.608l3.406 2.433c1.429.939.438.292.776.515l.073.055l.146.109l.292.218l.584.432l1.182.841c.815.522 1.529 1.185 2.29 1.779c1.556 1.151 2.895 2.556 4.359 3.802c2.774 2.676 5.261 5.595 7.6 8.587c2.277 3.045 4.258 6.247 6.113 9.493c1.715 3.314 3.268 6.676 4.557 10.124c.348.854.564 1.743.865 2.608c.292.868.628 1.728.825 2.616l.722 2.638l.554 2.184l.299 1.066l.078.267c.027.086.039.292.06.432l.11.932l.483 3.699l.06.459l.03.229l.015.115c.009.217-.018-1.452-.003-.707l.062.669l.131 1.337c.087.89.255 1.787.296 2.67a87.18 87.18 0 0 1-.918 20.539c-1.066 6.529-2.898 12.605-4.998 18.019a106.76 106.76 0 0 1-6.794 13.979l-1.628 2.765c-.52.92-1.011 1.579-1.456 2.337c-.906 1.452-1.642 2.717-2.568 3.849c-1.676 2.189-2.518 3.433-2.518 3.433a6.864 6.864 0 0 0-1.029 5.324zm-117.392 0a6.877 6.877 0 0 0 8.192 5.243s1.467-.322 4.121-1.069c1.287-.27 3.065-1.03 5.165-1.89c2.178-.854 4.341-1.999 6.893-3.278c1.277-.64 2.511-1.452 3.865-2.265c1.336-.832 2.796-1.666 4.16-2.712c1.391-1.019 2.892-2.061 4.345-3.255a212.722 212.722 0 0 0 4.459-3.838a88.854 88.854 0 0 0 17.109-21.819c5.068-9.034 9.106-19.899 11.084-31.95c.27-1.503.407-3.026.608-4.562l.25-2.317l.122-1.167c.016.668-.004-1.078 0-.937l.008-.115l.015-.231l.03-.462l.242-3.722l.05-.937c.005-.172.023-.279.018-.504l-.013-.667l-.069-2.682l-.096-2.705l-.058-1.361a16.157 16.157 0 0 0-.089-1.3l-.521-4.931c-.151-1.66-.444-3.307-.737-4.965c-.32-1.651-.574-3.331-.978-4.982l-1.248-4.977c-.404-1.674-1.019-3.287-1.541-4.941c-1.013-3.324-2.406-6.531-3.772-9.778c-1.532-3.162-2.999-6.404-4.869-9.436l-1.353-2.308a32.32 32.32 0 0 0-1.421-2.272c-.983-1.495-2.006-2.969-3.029-4.446a115.868 115.868 0 0 0-14.374-16.206c-1.339-1.227-2.728-2.403-4.112-3.583c-1.363-1.206-2.827-2.291-4.28-3.388c-1.462-1.086-2.887-2.222-4.426-3.202l-2.281-1.507l-1.147-.742l-.574-.37l-.287-.184l-.144-.092c.266.175-.797-.521.559.369l-3.521-2.264l-.88-.566l-.22-.141l-.115-.089l-.225-.174l-.914-.678c-.306-.224-.625-.433-.945-.643l-.241-.156l-.282-.229l-.568-.458l-2.291-1.819a81.472 81.472 0 0 1-8.273-8.262l-1.836-2.271a11.066 11.066 0 0 1-.882-1.162l-.841-1.188c-.58-.781-1.173-1.558-1.662-2.392l-1.57-2.45a82.572 82.572 0 0 1-5.109-10.357c-1.318-3.584-2.612-7.208-3.346-10.926c-.514-1.84-.716-3.716-1.061-5.575l-.064-.349l-.033-.175l-.016-.087c-.004-.178-.029 1.266-.022.599l-.072-.921l-.142-1.834l-.142-1.822c-.043-.576-.108-1.312-.11-1.602c-.028-.775-.094-1.555-.159-2.339c-.029-.398-.08-.772-.099-1.192l.019-1.363c.014-.908.016-1.816.004-2.726c.017-.904.111-1.79.157-2.684c.17-3.584.734-7.032 1.338-10.401c1.301-6.71 3.436-12.864 5.84-18.244c2.442-5.363 5.189-9.907 7.648-13.633c1.293-1.794 2.385-3.537 3.511-4.879c1.094-1.38 1.979-2.663 2.815-3.56a158.701 158.701 0 0 0 2.466-2.97l.408-.508a6.56 6.56 0 0 0-7.247-10.281s-1.447.489-4.173 1.532c-1.378.504-3.006 1.247-4.919 2.179c-1.946.89-4.081 2.083-6.466 3.501c-4.708 2.887-10.304 6.844-15.974 12.417a91.625 91.625 0 0 0-16.266 21.593l-1.765 3.403l-.881 1.746l-.786 1.807l-1.582 3.695c-.555 1.243-.933 2.55-1.408 3.85c-.442 1.308-.929 2.625-1.334 3.974a214.378 214.378 0 0 0-1.119 4.117l-.549 2.098c-.166.743-.308 1.544-.46 2.322c-.296 1.569-.594 3.16-.856 4.771c-.154.9-.211 1.37-.304 2l-.26 1.809l-.261 1.821l-.131.915c.006-.59-.027.93-.026.828l-.009.143l-.018.286l-.034.572c-.14 3.056-.383 6.172-.258 9.333c.017 6.333.829 12.823 2.1 19.364l1.13 4.898c.358 1.651.93 3.242 1.406 4.876c.939 3.277 2.207 6.464 3.473 9.69c2.734 6.354 6.035 12.589 9.996 18.492c.987 1.476 2.057 2.898 3.113 4.337c.537.712 1.048 1.449 1.614 2.14l1.712 2.068c1.166 1.359 2.26 2.795 3.519 4.08l3.742 3.906c1.296 1.256 2.637 2.47 3.968 3.7l1.003.918l.504.458l.585.483l2.363 1.912l2.396 1.878l.602.465l.299.23l.213.152l.851.608l3.406 2.433c1.429.939.438.292.776.515l.073.055l.146.109l.292.218l.584.432l1.182.841c.815.522 1.529 1.185 2.29 1.779c1.556 1.151 2.895 2.556 4.359 3.802c2.774 2.676 5.261 5.595 7.6 8.587c2.277 3.045 4.258 6.247 6.113 9.493c1.715 3.314 3.268 6.676 4.557 10.124c.348.854.564 1.743.865 2.608c.292.868.628 1.728.825 2.616l.722 2.638l.554 2.184l.299 1.066l.078.267c.027.086.039.292.06.432l.11.932l.483 3.699l.06.459l.03.229l.015.115c.009.217-.018-1.452-.003-.707l.062.669l.131 1.337c.087.89.255 1.787.296 2.67a87.18 87.18 0 0 1-.918 20.539c-1.066 6.529-2.898 12.605-4.998 18.019a106.76 106.76 0 0 1-6.794 13.979l-1.628 2.765c-.52.92-1.011 1.579-1.456 2.337c-.906 1.452-1.642 2.717-2.568 3.849c-1.676 2.189-2.518 3.433-2.518 3.433a6.864 6.864 0 0 0-1.029 5.324zm-42.814-83.381a7.961 7.961 0 0 0-11.031-2.252l-1.885 1.245l-2.298 1.541c-.898.562-1.999 1.418-3.241 2.371c-1.218.954-2.689 2.013-4.119 3.222c-1.44 1.217-3.039 2.529-4.703 4.035c-3.317 3.024-7.087 6.628-10.919 11.142c-1.982 2.2-3.897 4.698-5.908 7.337l-2.909 4.212c-1.019 1.426-1.894 3.002-2.877 4.562c-3.83 6.307-7.303 13.697-10.054 22.115l-1.015 3.198c-.321 1.082-.587 2.191-.865 3.308l-.817 3.39l-.641 3.488c-.201 1.176-.442 2.361-.605 3.562l-.432 3.644l-.21 1.849l-.052.465l-.026.233c.026 1.702 0 .582.003 1.011l-.049.768l-.196 3.095l-.198 3.135c-.013.115-.012.28-.005.466l.014.529l.031 1.063l.086 2.141c.137 2.835.242 5.923.629 8.464l.512 4.039l.273 2.042c.11.677.267 1.342.4 2.017l.859 4.068c.314 1.356.543 2.765.967 4.092c2.838 10.905 7.43 21.744 13.466 31.938c6.017 10.219 13.418 19.845 21.825 28.688c16.836 17.711 37.521 32.389 60.158 44.003c11.337 5.783 23.19 10.791 35.379 15.129l4.592 1.582l2.303.791l2.321.717l9.33 2.847l9.449 2.519c3.161.831 6.353 1.498 9.542 2.251c3.188.773 6.4 1.39 9.624 1.993c3.222.615 6.449 1.251 9.697 1.723c3.245.496 6.493 1.06 9.754 1.492l9.808 1.172c3.275.366 6.559.6 9.844.902c1.643.131 3.286.311 4.931.399l4.939.253c3.294.147 6.59.378 9.885.398l10.418.176l9.082-.163l2.27-.043c.359-.002.784-.021 1.221-.043l1.287-.06l5.147-.247l5.143-.258c1.722-.079 3.31-.258 4.97-.39c3.285-.302 6.57-.537 9.845-.903l9.809-1.169c3.264-.412 6.51-.991 9.756-1.482c3.248-.473 6.475-1.11 9.698-1.725c3.223-.61 6.441-1.201 9.627-1.981c3.19-.754 6.382-1.422 9.543-2.253l9.453-2.509l9.331-2.849l2.321-.718l2.303-.791l4.593-1.583c12.194-4.328 24.052-9.335 35.391-15.119c22.645-11.609 43.34-26.288 60.183-44.006c8.409-8.849 15.814-18.478 21.835-28.701c6.036-10.201 10.63-21.046 13.47-31.958c2.863-10.902 3.979-21.816 3.562-31.998l-.179-3.788l-.048-.936c-.009-.348.003.449-.023-.839l-.026-.19l-.052-.379l-.206-1.511l-.408-2.992l-.128-.864l-.156-.975l-.32-1.935l-.668-3.794l-.819-3.391c-.278-1.117-.536-2.228-.862-3.31l-1.018-3.2c-2.761-8.419-6.232-15.814-10.068-22.121c-.985-1.56-1.861-3.136-2.882-4.562l-2.913-4.211c-2.014-2.638-3.927-5.139-5.913-7.336c-3.837-4.512-7.608-8.115-10.929-11.137c-1.665-1.505-3.267-2.815-4.707-4.033c-1.441-1.218-2.845-2.203-4.046-3.141c-2.393-1.885-4.379-3.119-5.655-4.017l-1.966-1.317c-2.659-1.772-6.256-1.832-9.01.135a7.92 7.92 0 0 0-1.843 11.049l.26.364l1.252 1.753c.82 1.154 2.09 2.816 3.585 5.072c1.547 2.214 3.318 5.02 5.318 8.288c.93 1.681 2.018 3.417 2.995 5.354l1.553 2.951c.54 1.003.988 2.088 1.506 3.164c1.067 2.138 1.91 4.5 2.937 6.864l1.327 3.71c.483 1.244.79 2.573 1.207 3.881c1.481 5.296 2.728 10.968 3.14 16.968l.158 2.255c.04.756.01 1.523.04 2.284l.055 2.296l-.125 2.019l-.106 2.127l-.224 3.012l-.113 1.521l-.028.382l-.014.191c-.024-1.161-.023-.237-.035-.457l-.111.593l-.431 2.376a75.44 75.44 0 0 1-6.12 19.034c-5.914 12.613-16.129 24.844-29.614 35.681c-13.486 10.844-30.13 20.283-48.629 27.843a285.457 285.457 0 0 1-29.04 9.912a301.462 301.462 0 0 1-31.006 7.128a368.188 368.188 0 0 1-32.29 4.298c-2.725.254-5.47.385-8.206.588c-1.353.081-2.774.215-4.072.266l-3.919.168l-3.92.179l-.98.046c-.319.017-.65.032-1.048.033l-2.27.028l-9.082.121l-7.746-.107c-2.761.013-5.506-.18-8.257-.281c-2.75-.118-5.501-.208-8.235-.43c-2.736-.204-5.481-.335-8.206-.589a370.724 370.724 0 0 1-32.297-4.275c-10.6-1.858-20.98-4.237-31.013-7.123a282.718 282.718 0 0 1-29.051-9.902c-18.507-7.556-35.159-16.996-48.653-27.847c-13.493-10.846-23.714-23.089-29.628-35.716c-.45-.773-.698-1.584-1.052-2.373l-1.004-2.373c-.163-.395-.353-.786-.496-1.184l-.394-1.197l-.809-2.384c-.641-1.691-.865-2.899-1.287-4.271l-.302-1.009l-.162-.505l-.083-.253a1.155 1.155 0 0 1-.071-.317l-.454-3.109l-.448-3.069l-.111-.761c-.001.302-.037-.945-.009.63l-.014-.148l-.029-.296l-.117-1.184l-.248-2.36c-.069-.784-.065-1.561-.106-2.339l-.097-2.326l.057-2.297c.029-.762-.008-1.531.036-2.286l.161-2.256c.422-6.002 1.666-11.678 3.154-16.974c.419-1.308.727-2.637 1.212-3.881l1.331-3.71c1.03-2.363 1.87-4.727 2.942-6.863c.519-1.076.967-2.16 1.509-3.163l1.556-2.95c.976-1.939 2.069-3.672 3-5.352c.969-1.656 1.976-3.128 2.832-4.537c.861-1.423 1.691-2.553 2.417-3.667c.731-1.088 1.356-2.051 2.053-2.954L69 251.772l1.332-1.825c1.892-2.607 2.093-6.236.211-9.083z"/></svg>