<svg xmlns="http://www.w3.org/2000/svg" xmlns:xlink="http://www.w3.org/1999/xlink" aria-hidden="true" role="img" class="iconify iconify--fa6-solid" width="36" height="32" preserveAspectRatio="xMidYMid meet" viewBox="0 0 576 512"><path fill="currentColor" d="M80 144c0-35.3 28.7-64 64-64s64 28.7 64 64s-28.7 64-64 64s-64-28.7-64-64zm204.4 32c-14.5 64.1-71.9 112-140.4 112C64.47 288 0 223.5 0 144C0 64.47 64.47 0 144 0c68.5 0 125.9 47.87 140.4 112h71.8c8.8-9.8 21.6-16 35.8-16h104c26.5 0 48 21.5 48 48s-21.5 48-48 48H392c-14.2 0-27-6.2-35.8-16h-71.8zM144 48c-53.02 0-96 42.98-96 96c0 53 42.98 96 96 96c53 0 96-43 96-96c0-53.02-43-96-96-96zm280 216v8h96c13.3 0 24 10.7 24 24s-10.7 24-24 24H280c-13.3 0-24-10.7-24-24s10.7-24 24-24h96v-8c0-13.3 10.7-24 24-24s24 10.7 24 24zM288 464V352h224v112c0 26.5-21.5 48-48 48H336c-26.5 0-48-21.5-48-48zM176 320c26.5 0 48 21.5 48 48s-21.5 48-48 48h-16c0 17.7-14.3 32-32 32H64c-17.67 0-32-14.3-32-32v-80c0-8.8 7.16-16 16-16h128zm16 48c0-8.8-7.2-16-16-16h-16v32h16c8.8 0 16-7.2 16-16zm8 96c13.3 0 24 10.7 24 24s-10.7 24-24 24H24c-13.25 0-24-10.7-24-24s10.75-24 24-24h176z"></path></svg>