<?xml version="1.0" encoding="UTF-8" standalone="no"?>
<!DOCTYPE svg PUBLIC "-//W3C//DTD SVG 1.1//EN" "http://www.w3.org/Graphics/SVG/1.1/DTD/svg11.dtd">
<svg version="1.1" xmlns="http://www.w3.org/2000/svg" xmlns:xl="http://www.w3.org/1999/xlink" xmlns:dc="http://purl.org/dc/elements/1.1/" viewBox="-894 -133 1920 1580" width="1920" height="1580">
  <defs/>
  <metadata> Produced by OmniGraffle 7.18.5\n2021-04-09 07:25:53 +0000</metadata>
  <g id="Canvas_1" stroke-opacity="1" fill="none" fill-opacity="1" stroke="none" stroke-dasharray="none">
    <title>Canvas 1</title>
    <g id="Canvas_1_Layer_1">
      <title>Layer 1</title>
      <g id="Graphic_3">
        <title>rect4187</title>
        <path d="M -472.6628 -23 L 604.6628 -23 C 776.6096 -23 916 116.39042 916 288.33722 L 916 1025.6628 C 916 1197.6096 776.6096 1337 604.6628 1337 L -472.6628 1337 C -644.6096 1337 -784 1197.6096 -784 1025.6628 L -784 288.33722 C -784 116.39042 -644.6096 -23 -472.6628 -23 Z" fill="white"/>
        <path d="M -472.6628 -23 L 604.6628 -23 C 776.6096 -23 916 116.39042 916 288.33722 L 916 1025.6628 C 916 1197.6096 776.6096 1337 604.6628 1337 L -472.6628 1337 C -644.6096 1337 -784 1197.6096 -784 1025.6628 L -784 288.33722 C -784 116.39042 -644.6096 -23 -472.6628 -23 Z" stroke="black" stroke-linecap="round" stroke-linejoin="round" stroke-width="220"/>
      </g>
    </g>
  </g>
</svg>
