<?xml version="1.0" encoding="UTF-8" standalone="no"?>
<!DOCTYPE svg PUBLIC "-//W3C//DTD SVG 1.1//EN" "http://www.w3.org/Graphics/SVG/1.1/DTD/svg11.dtd">
<svg version="1.1" xmlns="http://www.w3.org/2000/svg" xmlns:xl="http://www.w3.org/1999/xlink" xmlns:dc="http://purl.org/dc/elements/1.1/" viewBox="98.41749 98.97955 1851.7283 1849.2777" width="1851.7283" height="1849.2777">
  <defs/>
  <metadata> Produced by OmniGraffle 7.18.5\n2021-04-09 07:36:12 +0000</metadata>
  <g id="Canvas_1" stroke-opacity="1" fill="none" fill-opacity="1" stroke="none" stroke-dasharray="none">
    <title>Canvas 1</title>
    <g id="Canvas_1_Layer_1">
      <title>Layer 1</title>
      <g id="Group_2">
        <title>layer1</title>
        <g id="Group_3">
          <title>layer1-6</title>
          <g id="Graphic_4">
            <title>path4481</title>
            <path d="M 1015.0432 99.00216 C 599.2095 95.90607 209.09827 411.14635 121.60561 817.2473 C 37.220146 1173.9655 188.3103 1571.8715 490.9178 1779.8322 C 784.6393 1990.202 1203.2472 2006.6887 1508.7831 1811.3059 C 1816.007 1623.1699 1996.9227 1247.4784 1939.5968 889.9861 C 1887.1027 519.40317 1591.0739 197.09992 1223.4673 120.92637 C 1155.1216 105.67811 1085.0524 98.53775 1015.0432 99.00216 Z M 1037.1232 388.8835 C 1342.6822 387.916 1623.3623 640.799 1654.5065 944.9998 C 1694.2614 1235.7616 1506.8039 1539.914 1224.9695 1627.3302 C 949.893 1720.9387 618.1968 1601.4779 474.8942 1346.3211 C 316.32957 1081.5955 383.79476 704.356 635.0591 520.5642 C 749.0056 432.64484 893.261 385.57456 1037.1232 388.8835 Z" fill="black"/>
          </g>
        </g>
      </g>
    </g>
  </g>
</svg>
