<?xml version="1.0" encoding="UTF-8" standalone="no"?>
<svg
   xmlns:dc="http://purl.org/dc/elements/1.1/"
   xmlns:cc="http://creativecommons.org/ns#"
   xmlns:rdf="http://www.w3.org/1999/02/22-rdf-syntax-ns#"
   xmlns:svg="http://www.w3.org/2000/svg"
   xmlns="http://www.w3.org/2000/svg"
   version="1.1"
   id="svg3891"
   height="2048"
   width="2048">
  <defs
     id="defs3893" />
  <metadata
     id="metadata3896">
    <rdf:RDF>
      <cc:Work
         rdf:about="">
        <dc:format>image/svg+xml</dc:format>
        <dc:type
           rdf:resource="http://purl.org/dc/dcmitype/StillImage" />
        <dc:title></dc:title>
      </cc:Work>
    </rdf:RDF>
  </metadata>
  <g
     transform="translate(0,995.63783)"
     id="layer1">
    <g
       id="layer1-6"
       transform="matrix(96.752895,0,0,96.752895,55.328158,-100816.34)">
      <path
         id="rect3092"
         transform="matrix(0.01033561,0,0,0.01033561,-0.57185015,1031.7077)"
         d="M 1024.0215 99.355469 C 1004.6981 99.338537 985.37559 106.50458 971.04102 120.90625 L 120.9375 971.01758 C 92.26835 999.68546 92.401149 1048.3126 121.07031 1076.9805 L 971.04102 1926.9453 C 999.71017 1955.6229 1048.3348 1955.7486 1077.0039 1926.9453 L 1927.1094 1076.8457 C 1955.7785 1048.1778 1955.6458 999.54874 1926.9746 970.88086 L 1077.002 120.90625 C 1062.6674 106.57231 1043.3449 99.372401 1024.0215 99.355469 z M 1023.957 225.40039 L 1822.6172 1024.0664 L 1023.957 1822.7227 L 225.29688 1024.0664 L 1023.957 225.40039 z M 1002.1543 555.2207 C 1002.1543 555.23038 992.49703 557.05859 992.49219 557.05859 C 992.48222 557.05859 984.58393 562.38086 984.57812 562.38086 C 984.56816 562.39053 979.08101 570.50781 979.07617 570.50781 C 979.07617 570.51749 977.21676 580.18359 977.21289 580.18359 L 977.21289 977.03516 L 580.1875 977.03516 L 580.12109 976.95703 C 580.12109 976.96671 570.50288 979.08594 570.49805 979.08594 C 570.48808 979.09561 562.59078 984.4082 562.58594 984.4082 L 562.59375 984.31055 C 562.58378 984.32022 557.09663 992.4375 557.0918 992.4375 C 557.08183 992.4375 555.23043 1002.1133 555.22656 1002.1133 L 555.22656 1045.584 C 555.22656 1045.584 557.07483 1055.3659 557.14062 1055.4336 C 557.14062 1055.4433 562.61914 1063.3672 562.61914 1063.3672 C 562.6292 1063.3769 570.57619 1068.6895 570.57812 1068.6895 C 570.58809 1068.6991 580.23441 1070.8164 580.23828 1070.8164 L 977.2168 1070.8164 L 977.2168 1467.6016 L 977.1543 1467.543 C 977.1543 1467.5526 979.07029 1477.3926 979.06836 1477.3926 C 979.06836 1477.4023 984.54492 1485.3262 984.54492 1485.3262 C 984.55498 1485.3358 992.50392 1490.6465 992.50586 1490.6465 C 992.50586 1490.6465 1002.0964 1492.6786 1002.168 1492.7754 L 1045.6289 1492.7656 C 1045.6399 1492.7656 1055.4752 1490.7344 1055.4805 1490.7344 C 1055.4805 1490.7344 1063.3887 1485.4141 1063.3945 1485.4141 C 1063.4045 1485.4044 1068.8653 1477.4785 1068.8711 1477.4785 C 1068.8711 1477.4785 1070.7578 1467.6582 1070.7617 1467.6582 L 1070.7617 1070.8555 L 1467.6406 1070.8555 C 1467.6517 1070.8651 1477.4873 1068.8242 1477.4922 1068.8242 C 1477.5022 1068.8242 1485.4014 1063.502 1485.4062 1063.502 C 1485.4162 1063.4923 1490.877 1055.5684 1490.8828 1055.5684 C 1490.8828 1055.5684 1492.7686 1045.748 1492.7734 1045.748 L 1492.7734 1002.2871 C 1492.7734 1002.2774 1490.8955 992.70808 1490.8984 992.61133 C 1490.8885 992.60165 1485.4486 984.48438 1485.3809 984.48438 C 1485.3709 984.4747 1477.4228 979.16406 1477.4199 979.16406 C 1477.4199 979.17374 1467.6005 977.03411 1467.5957 977.13086 L 1070.7578 977.13086 L 1070.7578 580.28906 C 1070.7578 580.27939 1068.8799 570.71199 1068.8828 570.61523 C 1068.8728 570.60556 1063.4336 562.48633 1063.4336 562.48633 C 1063.4236 562.47665 1055.4765 557.16602 1055.4746 557.16602 C 1055.4646 557.16602 1045.6272 555.23047 1045.623 555.23047 L 1002.1543 555.2207 z "
         style="color:#000000;font-style:normal;font-variant:normal;font-weight:normal;font-stretch:normal;font-size:medium;line-height:normal;font-family:sans-serif;text-indent:0;text-align:start;text-decoration:none;text-decoration-line:none;text-decoration-style:solid;text-decoration-color:#000000;letter-spacing:normal;word-spacing:normal;text-transform:none;direction:ltr;block-progression:tb;writing-mode:lr-tb;baseline-shift:baseline;text-anchor:start;white-space:normal;clip-rule:nonzero;display:inline;overflow:visible;visibility:visible;opacity:1;isolation:auto;mix-blend-mode:normal;color-interpolation:sRGB;color-interpolation-filters:linearRGB;solid-color:#000000;solid-opacity:1;fill:#000000;fill-opacity:1;fill-rule:nonzero;stroke:none;stroke-width:1.14980412;stroke-linecap:butt;stroke-linejoin:miter;stroke-miterlimit:4;stroke-dasharray:none;stroke-dashoffset:0;stroke-opacity:1;color-rendering:auto;image-rendering:auto;shape-rendering:auto;text-rendering:auto;enable-background:accumulate" />
    </g>
  </g>
</svg>
