<?xml version="1.0" encoding="UTF-8" standalone="no"?>
<svg
   xmlns:dc="http://purl.org/dc/elements/1.1/"
   xmlns:cc="http://creativecommons.org/ns#"
   xmlns:rdf="http://www.w3.org/1999/02/22-rdf-syntax-ns#"
   xmlns:svg="http://www.w3.org/2000/svg"
   xmlns="http://www.w3.org/2000/svg"
   version="1.1"
   id="svg3891"
   height="2048"
   width="2048">
  <defs
     id="defs3893" />
  <metadata
     id="metadata3896">
    <rdf:RDF>
      <cc:Work
         rdf:about="">
        <dc:format>image/svg+xml</dc:format>
        <dc:type
           rdf:resource="http://purl.org/dc/dcmitype/StillImage" />
        <dc:title></dc:title>
      </cc:Work>
    </rdf:RDF>
  </metadata>
  <g
     transform="translate(0,995.63783)"
     id="layer1">
    <g
       id="layer1-6"
       transform="matrix(96.752895,0,0,96.752895,55.328158,-100816.34)">
      <path
         id="rect3092"
         transform="matrix(0.01033561,0,0,0.01033561,-0.57185015,1031.7077)"
         d="M 1024.0215 99.355469 C 1004.6981 99.338537 985.37559 106.50458 971.04102 120.90625 L 120.9375 971.01758 C 92.26835 999.68546 92.401149 1048.3126 121.07031 1076.9805 L 971.04102 1926.9453 C 999.71017 1955.6229 1048.3348 1955.7486 1077.0039 1926.9453 L 1927.1094 1076.8457 C 1955.7785 1048.1778 1955.6458 999.54874 1926.9746 970.88086 L 1077.002 120.90625 C 1062.6674 106.57231 1043.3449 99.372401 1024.0215 99.355469 z M 1023.957 225.40039 L 1822.6172 1024.0664 L 1023.957 1822.7227 L 225.29688 1024.0664 L 1023.957 225.40039 z M 725.68555 669.78711 C 725.67179 669.78783 716.07376 671.625 716.06641 671.625 C 716.0564 671.625 707.92153 677.13867 707.91602 677.13867 L 677.18359 707.87695 C 677.1736 707.87695 671.57302 716.10247 671.57031 716.19922 C 671.57031 716.20889 669.83331 725.67969 669.83398 725.67969 C 669.83329 725.68936 671.70169 735.06445 671.70508 735.06445 C 671.70508 735.07413 677.04264 743.38672 677.04883 743.38672 L 957.75586 1024.0859 L 677.18359 1304.6602 L 677.18359 1304.5723 C 677.18359 1304.5819 671.57302 1312.8926 671.57031 1312.8926 C 671.57031 1312.9023 669.83398 1322.375 669.83398 1322.375 C 669.83398 1322.3944 671.70227 1331.7598 671.70508 1331.7598 C 671.70508 1331.7598 677.04351 1339.9833 677.04883 1340.0801 L 707.7832 1370.8086 C 707.79321 1370.8183 716.19382 1376.3242 716.20117 1376.3242 C 716.21117 1376.3242 725.54637 1378.1621 725.55469 1378.1621 C 725.56469 1378.1621 735.03347 1376.4219 735.04102 1376.4219 C 735.05101 1376.4219 743.32066 1370.8086 743.32617 1370.8086 L 1023.9023 1090.2266 L 1304.5391 1370.8672 C 1304.5491 1370.8769 1312.9512 1376.3828 1312.957 1376.3828 C 1312.9671 1376.3828 1322.3028 1378.2207 1322.3105 1378.2207 C 1322.3206 1378.2207 1331.7911 1376.4785 1331.7988 1376.4785 C 1331.8089 1376.4785 1340.0743 1370.8672 1340.0801 1370.8672 L 1370.8145 1340.1387 C 1370.8244 1340.129 1376.2901 1332.0117 1376.2949 1332.0117 C 1376.2949 1332.002 1378.166 1322.4327 1378.166 1322.3359 C 1378.166 1322.3263 1376.2968 1312.9512 1376.293 1312.9512 C 1376.293 1312.9512 1370.8212 1304.5332 1370.8145 1304.5332 L 1090.209 1023.9219 L 1370.8164 743.31836 C 1370.8264 743.31836 1376.2901 735.19141 1376.2949 735.19141 C 1376.2949 735.18173 1378.166 725.61328 1378.166 725.61328 C 1378.166 725.59393 1376.2978 716.22852 1376.2949 716.22852 C 1376.2949 716.21884 1370.6894 707.90625 1370.6836 707.90625 L 1339.9492 677.16797 C 1339.9393 677.16797 1331.8056 671.6543 1331.7988 671.6543 C 1331.7889 671.6543 1322.454 669.81445 1322.4453 669.81445 C 1322.4353 669.81445 1312.8329 671.6543 1312.8262 671.6543 C 1312.8162 671.6543 1304.6806 677.16797 1304.6758 677.16797 L 1024.0625 957.78125 L 743.32422 677.0332 L 743.32422 676.94531 C 743.31422 676.94531 735.04603 671.625 735.03906 671.625 C 735.02907 671.625 725.69879 669.78785 725.6875 669.78711 L 725.68555 669.78711 z "
         style="color:#000000;font-style:normal;font-variant:normal;font-weight:normal;font-stretch:normal;font-size:medium;line-height:normal;font-family:sans-serif;text-indent:0;text-align:start;text-decoration:none;text-decoration-line:none;text-decoration-style:solid;text-decoration-color:#000000;letter-spacing:normal;word-spacing:normal;text-transform:none;direction:ltr;block-progression:tb;writing-mode:lr-tb;baseline-shift:baseline;text-anchor:start;white-space:normal;clip-rule:nonzero;display:inline;overflow:visible;visibility:visible;opacity:1;isolation:auto;mix-blend-mode:normal;color-interpolation:sRGB;color-interpolation-filters:linearRGB;solid-color:#000000;solid-opacity:1;fill:#000000;fill-opacity:1;fill-rule:nonzero;stroke:none;stroke-width:1.14980412;stroke-linecap:butt;stroke-linejoin:miter;stroke-miterlimit:4;stroke-dasharray:none;stroke-dashoffset:0;stroke-opacity:1;color-rendering:auto;image-rendering:auto;shape-rendering:auto;text-rendering:auto;enable-background:accumulate" />
    </g>
  </g>
</svg>
