<?xml version="1.0" encoding="UTF-8" standalone="no"?>
<!DOCTYPE svg PUBLIC "-//W3C//DTD SVG 1.1//EN" "http://www.w3.org/Graphics/SVG/1.1/DTD/svg11.dtd">
<svg version="1.1" xmlns="http://www.w3.org/2000/svg" xmlns:xl="http://www.w3.org/1999/xlink" xmlns:dc="http://purl.org/dc/elements/1.1/" viewBox="51.5 80 1850 1849.998" width="1850" height="1849.998">
  <defs/>
  <metadata> Produced by OmniGraffle 7.18.5\n2021-04-09 07:39:42 +0000</metadata>
  <g id="Canvas_1" stroke-opacity="1" fill="none" fill-opacity="1" stroke="none" stroke-dasharray="none">
    <title>Canvas 1</title>
    <g id="Canvas_1_Layer_1">
      <title>Layer 1</title>
      <g id="Graphic_2">
        <title>path4481</title>
        <path d="M 976.5 80 C 466.22933 80 51.5 494.72064 51.5 1004.9941 C 51.5 1515.2677 466.22866 1929.998 976.5 1929.998 C 1486.7712 1929.998 1901.5 1515.2677 1901.5 1004.9941 C 1901.5 494.72065 1486.7706 80 976.5 80 Z M 976.5 180 C 1432.7276 180 1801.5 548.7644 1801.5 1004.9941 C 1801.5 1461.224 1432.727 1829.998 976.5 1829.998 C 520.2729 1829.998 151.5 1461.224 151.5 1004.9941 C 151.5 548.7644 520.2722 180 976.5 180 Z M 968.2109 565.9453 C 796.6824 567.15733 633.1106 679.8299 569.8926 839.2305 C 504.1024 995.0313 540.4735 1186.8001 658.77734 1307.6719 C 773.8036 1431.5016 963.3318 1477.136 1122.084 1419.0996 C 1288.4435 1362.4249 1410.6568 1197.8689 1415.0605 1021.9102 C 1423.923 850.965 1321.1862 681.941 1166.502 609.34375 C 1107.4754 580.76485 1041.9568 565.88615 976.3848 565.97265 C 973.6584 565.9355 970.9336 565.9261 968.2109 565.9453 Z M 983.8535 645.918 C 1140.5597 646.619 1287.5681 762.4377 1324.1113 915.0938 C 1364.8101 1064.1123 1296.2408 1234.0297 1162.75 1312.1094 C 1026.4496 1397.6527 834.2796 1374.8541 722.3555 1259 C 604.2415 1145.0565 583.2081 947.9146 673.8242 811.2656 C 738.0027 709.3191 855.8746 644.79905 976.3848 645.97265 C 978.8766 645.9255 981.3661 645.90684 983.8535 645.918 Z M 1089.8047 747.9902 C 1049.8373 820.4993 1009.8697 893.0085 969.9023 965.5176 C 932.8699 969.4554 924.0723 1025.6387 958.2402 1040.6231 C 980.8101 1056.2894 998.4874 1030.2309 1019.0332 1031.1289 L 1202.3262 1031.1289 L 1202.3262 981.1289 L 1018.3887 981.1289 C 1056.7904 911.4609 1095.1921 841.793 1133.5938 772.125 C 1118.9974 764.0801 1104.4011 756.0351 1089.8047 747.9902 Z" fill="black"/>
      </g>
    </g>
  </g>
</svg>
