<?xml version="1.0" encoding="UTF-8" standalone="no"?>
<!DOCTYPE svg PUBLIC "-//W3C//DTD SVG 1.1//EN" "http://www.w3.org/Graphics/SVG/1.1/DTD/svg11.dtd">
<svg version="1.1" xmlns="http://www.w3.org/2000/svg" xmlns:xl="http://www.w3.org/1999/xlink" xmlns:dc="http://purl.org/dc/elements/1.1/" viewBox="71.5 95.5 1850 1849.998" width="1850" height="1849.998">
  <defs/>
  <metadata> Produced by OmniGraffle 7.18.5\n2021-04-09 07:43:37 +0000</metadata>
  <g id="Canvas_1" stroke-opacity="1" fill="none" fill-opacity="1" stroke="none" stroke-dasharray="none">
    <title>Canvas 1</title>
    <g id="Canvas_1_Layer_1">
      <title>Layer 1</title>
      <g id="Graphic_2">
        <title>path4481</title>
        <path d="M 996.5 95.5 C 486.22933 95.5 71.5 510.22064 71.5 1020.4941 C 71.5 1530.7677 486.22866 1945.498 996.5 1945.498 C 1506.7712 1945.498 1921.5 1530.7677 1921.5 1020.4941 C 1921.5 510.22065 1506.7706 95.5 996.5 95.5 Z M 996.5 195.5 C 1452.7276 195.5 1821.5 564.2644 1821.5 1020.4941 C 1821.5 1476.724 1452.727 1845.498 996.5 1845.498 C 540.2729 1845.498 171.5 1476.724 171.5 1020.4941 C 171.5 564.2644 540.2722 195.5 996.5 195.5 Z M 686.4941 630.4609 L 686.4941 655.5879 L 686.4941 1410.5313 L 790.0488 1410.5313 L 1202.7617 1410.5313 L 1306.5059 1410.5313 L 1306.5059 630.4609 Z M 736.3809 680.53125 L 1256.4277 680.53125 L 1256.4277 1360.4512 L 1202.7617 1360.4512 L 790.0488 1360.4512 L 736.3809 1360.4512 Z M 790.0488 757.0723 L 790.0488 806.957 L 1202.7617 806.957 L 1202.7617 757.0723 Z M 790.0488 907.6777 L 790.0488 957.7559 L 1202.7617 957.7559 L 1202.7617 907.6777 Z M 790.0488 1081.7168 L 790.0488 1131.6113 L 1202.7617 1131.6113 L 1202.7617 1081.7168 Z M 790.0488 1238.9395 L 790.0488 1288.8359 L 1202.7617 1288.8359 L 1202.7617 1238.9395 Z" fill="black"/>
      </g>
    </g>
  </g>
</svg>
