<svg xmlns="http://www.w3.org/2000/svg" xmlns:xlink="http://www.w3.org/1999/xlink">
<symbol id="call-outline" preserveAspectRatio="xMidYMid meet" viewBox="0 0 16 16">
  <path fill="currentColor" d="M3.714 5.258C3.523 4 4.41 2.87 5.765 2.456a.988.988 0 0 1 1.214.598l.435 1.16a1 1 0 0 1-.26 1.088L5.86 6.487a.501.501 0 0 0-.152.47l.012.052l.031.13a7.265 7.265 0 0 0 .729 1.805a7.264 7.264 0 0 0 1.296 1.627l.04.036a.5.5 0 0 0 .482.103l1.673-.527a1 1 0 0 1 1.072.319l.792.961c.33.4.29.988-.089 1.341c-1.037.967-2.463 1.165-3.455.368a12.732 12.732 0 0 1-3.024-3.529a12.432 12.432 0 0 1-1.554-4.385Zm3.043 1.765l1.072-.984a2 2 0 0 0 .521-2.176l-.434-1.16A1.988 1.988 0 0 0 5.473 1.5c-1.683.515-3.034 2.024-2.748 3.909c.2 1.316.661 2.99 1.678 4.738a13.732 13.732 0 0 0 3.262 3.805c1.488 1.195 3.474.787 4.764-.415a1.98 1.98 0 0 0 .179-2.708l-.792-.962a2 2 0 0 0-2.144-.636l-1.389.437a6.604 6.604 0 0 1-.936-1.223a6.268 6.268 0 0 1-.59-1.421Z"/>
</symbol>
<symbol id="chevron-left" preserveAspectRatio="xMidYMid meet" viewBox="0 0 20 20">
  <path fill="currentColor" d="M12.452 4.516c.446.436.481 1.043 0 1.576L8.705 10l3.747 3.908c.481.533.446 1.141 0 1.574c-.445.436-1.197.408-1.615 0c-.418-.406-4.502-4.695-4.502-4.695a1.095 1.095 0 0 1 0-1.576s4.084-4.287 4.502-4.695c.418-.409 1.17-.436 1.615 0z"/>
</symbol>
<symbol id="done" preserveAspectRatio="xMidYMid meet" viewBox="0 0 24 24">
  <path fill="currentColor" d="m9 16.2l-3.5-3.5a.984.984 0 0 0-1.4 0a.984.984 0 0 0 0 1.4l4.19 4.19c.39.39 1.02.39 1.41 0L20.3 7.7a.984.984 0 0 0 0-1.4a.984.984 0 0 0-1.4 0L9 16.2z"/>
</symbol>
<symbol id="lock-outline" preserveAspectRatio="xMidYMid meet" viewBox="0 0 1024 1024">
  <path fill="currentColor" d="M224 448a32 32 0 0 0-32 32v384a32 32 0 0 0 32 32h576a32 32 0 0 0 32-32V480a32 32 0 0 0-32-32H224zm0-64h576a96 96 0 0 1 96 96v384a96 96 0 0 1-96 96H224a96 96 0 0 1-96-96V480a96 96 0 0 1 96-96z"/>
  <path fill="currentColor" d="M512 544a32 32 0 0 1 32 32v192a32 32 0 1 1-64 0V576a32 32 0 0 1 32-32zm192-160v-64a192 192 0 1 0-384 0v64h384zM512 64a256 256 0 0 1 256 256v128H256V320A256 256 0 0 1 512 64z"/>
</symbol>
<symbol id="person-outline" preserveAspectRatio="xMidYMid meet" viewBox="0 0 48 48">
  <path fill="currentColor" fill-rule="evenodd" d="M24 24c4.42 0 8-3.58 8-8s-3.58-8-8-8s-8 3.58-8 8s3.58 8 8 8Zm10-8c0 5.525-4.475 10-10 10s-10-4.475-10-10S18.475 6 24 6s10 4.475 10 10ZM9.223 34.212C8.22 35.022 8 35.629 8 36v4h32v-4c0-.37-.22-.979-1.224-1.788c-.98-.791-2.442-1.545-4.214-2.197C31.02 30.712 26.753 30 24 30c-2.753 0-7.02.712-10.562 2.015c-1.772.652-3.234 1.406-4.215 2.197ZM24 28c-6.008 0-18 3.035-18 8v6h36v-6c0-4.965-11.992-8-18-8Z" clip-rule="evenodd"/>
</symbol>
</svg>