<svg xmlns="http://www.w3.org/2000/svg" xmlns:xlink="http://www.w3.org/1999/xlink">
<symbol id="add-circle-outline" preserveAspectRatio="xMidYMid meet" viewBox="0 0 24 24">
  <path fill="currentColor" d="M12 7c-.55 0-1 .45-1 1v3H8c-.55 0-1 .45-1 1s.45 1 1 1h3v3c0 .55.45 1 1 1s1-.45 1-1v-3h3c.55 0 1-.45 1-1s-.45-1-1-1h-3V8c0-.55-.45-1-1-1zm0-5C6.48 2 2 6.48 2 12s4.48 10 10 10s10-4.48 10-10S17.52 2 12 2zm0 18c-4.41 0-8-3.59-8-8s3.59-8 8-8s8 3.59 8 8s-3.59 8-8 8z"/>
</symbol>
<symbol id="alert-outline" preserveAspectRatio="xMidYMid meet" viewBox="0 0 24 24">
  <path fill="currentColor" d="M12 1.996a7.49 7.49 0 0 1 7.496 7.25l.004.25v4.097l1.38 3.156a1.249 1.249 0 0 1-1.145 1.75L15 18.502a3 3 0 0 1-5.995.177L9 18.499H4.275a1.251 1.251 0 0 1-1.147-1.747L4.5 13.594V9.496c0-4.155 3.352-7.5 7.5-7.5ZM13.5 18.5l-3 .002a1.5 1.5 0 0 0 2.993.145l.007-.147ZM12 3.496c-3.32 0-6 2.674-6 6v4.41L4.656 17h14.697L18 13.907V9.509l-.003-.225A5.988 5.988 0 0 0 12 3.496Z"/>
</symbol>
<symbol id="apps-outline" preserveAspectRatio="xMidYMid meet" viewBox="0 0 1024 1024">
  <path fill="currentColor" d="M464 144H160c-8.8 0-16 7.2-16 16v304c0 8.8 7.2 16 16 16h304c8.8 0 16-7.2 16-16V160c0-8.8-7.2-16-16-16zm-52 268H212V212h200v200zm452-268H560c-8.8 0-16 7.2-16 16v304c0 8.8 7.2 16 16 16h304c8.8 0 16-7.2 16-16V160c0-8.8-7.2-16-16-16zm-52 268H612V212h200v200zM464 544H160c-8.8 0-16 7.2-16 16v304c0 8.8 7.2 16 16 16h304c8.8 0 16-7.2 16-16V560c0-8.8-7.2-16-16-16zm-52 268H212V612h200v200zm452-268H560c-8.8 0-16 7.2-16 16v304c0 8.8 7.2 16 16 16h304c8.8 0 16-7.2 16-16V560c0-8.8-7.2-16-16-16zm-52 268H612V612h200v200z"/>
</symbol>
<symbol id="archive-lock-outline" preserveAspectRatio="xMidYMid meet" viewBox="0 0 24 24">
  <path fill="currentColor" d="M15 12.06c-.21.29-.36.61-.5.94H9v-1.5c0-.28.22-.5.5-.5h5c.28 0 .5.22.5.5v.56M21 9H3V3h18v6m-2-4H5v2h14V5m-6 14H6v-9H4v11h9.03c-.03-.1-.03-.2-.03-.3V19m10-1.7v3.5c0 .6-.6 1.2-1.3 1.2h-5.5c-.6 0-1.2-.6-1.2-1.3v-3.5c0-.6.6-1.2 1.2-1.2v-1.5c0-1.4 1.4-2.5 2.8-2.5s2.8 1.1 2.8 2.5V16c.6 0 1.2.6 1.2 1.3m-2.5-2.8c0-.8-.7-1.3-1.5-1.3s-1.5.5-1.5 1.3V16h3v-1.5Z"/>
</symbol>
<symbol id="archive-outline" preserveAspectRatio="xMidYMid meet" viewBox="0 0 24 24">
  <path fill="currentColor" d="m21.706 5.291l-2.999-2.998A.996.996 0 0 0 18 2H6a.996.996 0 0 0-.707.293L2.294 5.291A.994.994 0 0 0 2 5.999V19c0 1.103.897 2 2 2h16c1.103 0 2-.897 2-2V5.999a.994.994 0 0 0-.294-.708zM6.414 4h11.172l.999.999H5.415L6.414 4zM4 19V6.999h16L20.002 19H4z"/>
  <path fill="currentColor" d="M15 12H9v-2H7v4h10v-4h-2z"/>
</symbol>
<symbol id="article-outline" preserveAspectRatio="xMidYMid meet" viewBox="0 0 24 24">
  <path fill="currentColor" d="M20 22H4a1 1 0 0 1-1-1V3a1 1 0 0 1 1-1h16a1 1 0 0 1 1 1v18a1 1 0 0 1-1 1zm-1-2V4H5v16h14zM7 6h4v4H7V6zm0 6h10v2H7v-2zm0 4h10v2H7v-2zm6-9h4v2h-4V7z"/>
</symbol>
<symbol id="backspace-outline" viewBox="0 0 24 24">
  <path fill="currentColor" d="M22 3H7c-.69 0-1.23.35-1.59.88L0 12l5.41 8.11c.36.53.9.89 1.59.89h15c1.1 0 2-.9 2-2V5c0-1.1-.9-2-2-2zm0 16H7.07L2.4 12l4.66-7H22v14zm-11.59-2L14 13.41L17.59 17L19 15.59L15.41 12L19 8.41L17.59 7L14 10.59L10.41 7L9 8.41L12.59 12L9 15.59z"/>
</symbol>
<symbol id="build-circle-outline" preserveAspectRatio="xMidYMid meet" viewBox="0 0 24 24">
  <path fill="currentColor" fill-rule="evenodd" d="M12 2C6.48 2 2 6.48 2 12s4.48 10 10 10s10-4.48 10-10S17.52 2 12 2zm0 18c-4.41 0-8-3.59-8-8s3.59-8 8-8s8 3.59 8 8s-3.59 8-8 8z"/>
  <path fill="currentColor" fill-rule="evenodd" d="M13.49 11.38c.43-1.22.17-2.64-.81-3.62a3.468 3.468 0 0 0-4.1-.59l2.35 2.35l-1.41 1.41l-2.35-2.35c-.71 1.32-.52 2.99.59 4.1c.98.98 2.4 1.24 3.62.81l3.41 3.41c.2.2.51.2.71 0l1.4-1.4c.2-.2.2-.51 0-.71l-3.41-3.41z"/>
</symbol>
<symbol id="calendar-today-outline" preserveAspectRatio="xMidYMid meet" viewBox="0 0 24 24">
  <path fill="currentColor" d="M20 3h-1V1h-2v2H7V1H5v2H4c-1.1 0-2 .9-2 2v16c0 1.1.9 2 2 2h16c1.1 0 2-.9 2-2V5c0-1.1-.9-2-2-2zm0 18H4V10h16v11zm0-13H4V5h16v3z"/>
</symbol>
<symbol id="check-circle-outline" preserveAspectRatio="xMidYMid meet" viewBox="0 0 24 24">
  <path fill="currentColor" d="M12 2C6.48 2 2 6.48 2 12s4.48 10 10 10s10-4.48 10-10S17.52 2 12 2zm0 18c-4.41 0-8-3.59-8-8s3.59-8 8-8s8 3.59 8 8s-3.59 8-8 8zm3.88-11.71L10 14.17l-1.88-1.88a.996.996 0 1 0-1.41 1.41l2.59 2.59c.39.39 1.02.39 1.41 0L17.3 9.7a.996.996 0 0 0 0-1.41c-.39-.39-1.03-.39-1.42 0z"/>
</symbol>
<symbol id="checkbox-checked-outline" preserveAspectRatio="xMidYMid meet" viewBox="0 0 24 24">
  <path fill="currentColor" d="M19 3H5a2 2 0 0 0-2 2v14a2 2 0 0 0 2 2h14a2 2 0 0 0 2-2V5a2 2 0 0 0-2-2m0 2v14H5V5h14m-9 12l-4-4l1.41-1.42L10 14.17l6.59-6.59L18 9"/>
</symbol>
<symbol id="checkbox-off-outline" preserveAspectRatio="xMidYMid meet" viewBox="0 0 24 24">
  <path fill="currentColor" d="M22.11 21.46L2.39 1.73L1.11 3L3 4.9V19a2 2 0 0 0 2 2h14.1l1.74 1.73l1.27-1.27M5 19V6.89L17.11 19H5M8.2 5l-2-2H19a2 2 0 0 1 2 2v12.8l-2-2V5H8.2Z"/>
</symbol>
<symbol id="checkbox-outline" preserveAspectRatio="xMidYMid meet" viewBox="0 0 24 24">
  <path fill="currentColor" d="M19 3H5c-1.11 0-2 .89-2 2v14a2 2 0 0 0 2 2h14a2 2 0 0 0 2-2V5a2 2 0 0 0-2-2m0 2v14H5V5h14Z"/>
</symbol>
<symbol id="copy-outline" preserveAspectRatio="xMidYMid meet" viewBox="0 0 24 24">
  <path fill="currentColor" d="M5.503 4.627L5.5 6.75v10.504a3.25 3.25 0 0 0 3.25 3.25h8.616a2.251 2.251 0 0 1-2.122 1.5H8.75A4.75 4.75 0 0 1 4 17.254V6.75c0-.98.627-1.815 1.503-2.123ZM17.75 2A2.25 2.25 0 0 1 20 4.25v13a2.25 2.25 0 0 1-2.25 2.25h-9a2.25 2.25 0 0 1-2.25-2.25v-13A2.25 2.25 0 0 1 8.75 2h9Zm0 1.5h-9a.75.75 0 0 0-.75.75v13c0 .414.336.75.75.75h9a.75.75 0 0 0 .75-.75v-13a.75.75 0 0 0-.75-.75Z"/>
</symbol>
<symbol id="data-list-outline" preserveAspectRatio="xMidYMid meet" viewBox="0 0 24 24">
  <path fill="currentColor" d="M7 13h7q.425 0 .713-.288Q15 12.425 15 12t-.287-.713Q14.425 11 14 11H7q-.425 0-.713.287Q6 11.575 6 12t.287.712Q6.575 13 7 13Zm0-3h7q.425 0 .713-.288Q15 9.425 15 9t-.287-.713Q14.425 8 14 8H7q-.425 0-.713.287Q6 8.575 6 9t.287.712Q6.575 10 7 10ZM4 20q-.825 0-1.412-.587Q2 18.825 2 18V6q0-.825.588-1.412Q3.175 4 4 4h16q.825 0 1.413.588Q22 5.175 22 6v12q0 .825-.587 1.413Q20.825 20 20 20Zm0-2V6v12Zm0 0h16V6H4v12Z"/>
</symbol>
<symbol id="database-lock-outline" preserveAspectRatio="xMidYMid meet" viewBox="0 0 24 24">
  <path fill="currentColor" d="M6 12.45V9.64c1.47.83 3.61 1.36 6 1.36s4.53-.53 6-1.36v1.41c.17-.02.33-.05.5-.05c.53 0 1.03.1 1.5.26V7c0-2.21-3.58-4-8-4S4 4.79 4 7v10c0 2.21 3.59 4 8 4c.34 0 .67 0 1-.03v-2.02c-.32.05-.65.05-1 .05c-3.87 0-6-1.5-6-2v-2.23c1.61.78 3.72 1.23 6 1.23c.41 0 .81-.03 1.21-.06c.19-.48.47-.91.86-1.24c.06-.31.16-.61.27-.9c-.74.13-1.53.2-2.34.2c-2.42 0-4.7-.6-6-1.55M12 5c3.87 0 6 1.5 6 2s-2.13 2-6 2s-6-1.5-6-2s2.13-2 6-2m9 11v-.5a2.5 2.5 0 0 0-5 0v.5c-.55 0-1 .45-1 1v4c0 .55.45 1 1 1h5c.55 0 1-.45 1-1v-4c0-.55-.45-1-1-1m-1 0h-3v-.5c0-.83.67-1.5 1.5-1.5s1.5.67 1.5 1.5v.5Z"/>
</symbol>
<symbol id="delete-forever-outline" preserveAspectRatio="xMidYMid meet" viewBox="0 0 24 24">
  <path fill="currentColor" d="M14.12 10.47L12 12.59l-2.13-2.12l-1.41 1.41L10.59 14l-2.12 2.12l1.41 1.41L12 15.41l2.12 2.12l1.41-1.41L13.41 14l2.12-2.12l-1.41-1.41M15.5 4l-1-1h-5l-1 1H5v2h14V4h-3.5M6 19a2 2 0 0 0 2 2h8a2 2 0 0 0 2-2V7H6v12M8 9h8v10H8V9Z"/>
</symbol>
<symbol id="delete-outline" preserveAspectRatio="xMidYMid meet" viewBox="0 0 24 24">
  <path fill="currentColor" d="M6 19a2 2 0 0 0 2 2h8a2 2 0 0 0 2-2V7H6v12M8 9h8v10H8V9m7.5-5l-1-1h-5l-1 1H5v2h14V4h-3.5Z"/>
</symbol>
<symbol id="dict-outline" preserveAspectRatio="xMidYMid meet" viewBox="0 0 48 48">
  <path fill="none" stroke="currentColor" stroke-linecap="round" stroke-linejoin="round" d="M8.4 6.5v35a2 2 0 0 0 2 2h2.33v-39H10.4a2 2 0 0 0-2 2Zm4.33-2v39H37.6a2 2 0 0 0 2-2v-35a2 2 0 0 0-2-2Z"/>
  <path fill="none" stroke="currentColor" stroke-linecap="round" stroke-linejoin="round" d="M32.165 26.1a6 6 0 0 0-6-6h0a6 6 0 0 0-6 6V30a6 6 0 0 0 6 6h0a6 6 0 0 0 6-6m0 6V12"/>
</symbol>
<symbol id="draft-outline" preserveAspectRatio="xMidYMid meet" viewBox="0 0 24 24">
  <path fill="currentColor" d="M20 2a1 1 0 0 1 1 1v3.757l-2 2V4H5v16h14v-2.758l2-2V21a1 1 0 0 1-1 1H4a1 1 0 0 1-1-1V3a1 1 0 0 1 1-1h16zm1.778 6.808l1.414 1.414L15.414 18l-1.416-.002l.002-1.412l7.778-7.778zM13 12v2H8v-2h5zm3-4v2H8V8h8z"/>
</symbol>
<symbol id="folder-transfer-outline" preserveAspectRatio="xMidYMid meet" viewBox="0 0 24 24">
  <path fill="currentColor" d="M12.414 5H21a1 1 0 0 1 1 1v14a1 1 0 0 1-1 1H3a1 1 0 0 1-1-1V4a1 1 0 0 1 1-1h7.414l2 2zM4 5v14h16V7h-8.414l-2-2H4zm8 7V9l4 4l-4 4v-3H8v-2h4z"/>
</symbol>
<symbol id="group-outline" preserveAspectRatio="xMidYMid meet" viewBox="0 0 24 24">
  <path fill="currentColor" d="M2 22a8 8 0 1 1 16 0h-2a6 6 0 1 0-12 0H2zm8-9c-3.315 0-6-2.685-6-6s2.685-6 6-6s6 2.685 6 6s-2.685 6-6 6zm0-2c2.21 0 4-1.79 4-4s-1.79-4-4-4s-4 1.79-4 4s1.79 4 4 4zm8.284 3.703A8.002 8.002 0 0 1 23 22h-2a6.001 6.001 0 0 0-3.537-5.473l.82-1.824zm-.688-11.29A5.5 5.5 0 0 1 21 8.5a5.499 5.499 0 0 1-5 5.478v-2.013a3.5 3.5 0 0 0 1.041-6.609l.555-1.943z"/>
</symbol>
<symbol id="heart-outline" preserveAspectRatio="xMidYMid meet" viewBox="0 0 24 24">
  <path fill="none" stroke="currentColor" stroke-linecap="round" stroke-linejoin="round" stroke-width="2" d="M7 3C4.239 3 2 5.216 2 7.95c0 2.207.875 7.445 9.488 12.74a.985.985 0 0 0 1.024 0C21.125 15.395 22 10.157 22 7.95C22 5.216 19.761 3 17 3s-5 3-5 3s-2.239-3-5-3Z"/>
</symbol>
<symbol id="insert-emoticon-outline" preserveAspectRatio="xMidYMid meet" viewBox="0 0 24 24">
  <path fill="currentColor" d="M11.99 2C6.47 2 2 6.48 2 12s4.47 10 9.99 10C17.52 22 22 17.52 22 12S17.52 2 11.99 2zM12 20c-4.42 0-8-3.58-8-8s3.58-8 8-8s8 3.58 8 8s-3.58 8-8 8zm3.5-9c.83 0 1.5-.67 1.5-1.5S16.33 8 15.5 8S14 8.67 14 9.5s.67 1.5 1.5 1.5zm-7 0c.83 0 1.5-.67 1.5-1.5S9.33 8 8.5 8S7 8.67 7 9.5S7.67 11 8.5 11zm3.5 6.5c2.33 0 4.31-1.46 5.11-3.5H6.89c.8 2.04 2.78 3.5 5.11 3.5z"/>
</symbol>
<symbol id="key-reset-outline" preserveAspectRatio="xMidYMid meet" viewBox="0 0 24 24">
  <path fill="currentColor" d="M17 8.25a1.25 1.25 0 1 0 0-2.5a1.25 1.25 0 0 0 0 2.5Zm-8.05.35a6.554 6.554 0 0 1 6.55-6.55c3.596 0 6.55 2.819 6.55 6.45a6.51 6.51 0 0 1-1.255 3.852a6.014 6.014 0 0 0-1.276-.798a5.026 5.026 0 0 0 1.03-3.054c0-2.769-2.247-4.95-5.05-4.95a5.054 5.054 0 0 0-5.05 5.05c0 .262.034.539.088.845a1.774 1.774 0 0 1-.486 1.564l-6.236 6.235a1.25 1.25 0 0 0-.366.884V20.3c0 .138.112.25.25.25h2.5a.25.25 0 0 0 .25-.25v-1.5c0-.69.56-1.25 1.25-1.25h1.75V15.8c0-.65.497-1.185 1.132-1.245l1.077 1.078a1.758 1.758 0 0 0-.378.417h-.33v1.75c0 .69-.56 1.25-1.25 1.25H7.95v1.25a1.75 1.75 0 0 1-1.75 1.75H3.7a1.75 1.75 0 0 1-1.75-1.75v-2.172c0-.73.289-1.429.805-1.944L8.99 9.948a.275.275 0 0 0 .07-.244A6.387 6.387 0 0 1 8.95 8.6Zm4.83 2.68a.75.75 0 1 0-1.06-1.06l-2 2a.75.75 0 0 0 0 1.06l2 2a.75.75 0 1 0 1.06-1.06l-.72-.72H17a3.5 3.5 0 1 1-3.5 3.5a.75.75 0 0 0-1.5 0a5 5 0 1 0 5-5h-3.94l.72-.72Z"/>
</symbol>
<symbol id="label-outline" preserveAspectRatio="xMidYMid meet" viewBox="0 0 24 24">
  <path fill="currentColor" d="M17.63 5.84C17.27 5.33 16.67 5 16 5L5 5.01C3.9 5.01 3 5.9 3 7v10c0 1.1.9 1.99 2 1.99L16 19c.67 0 1.27-.33 1.63-.84L22 12l-4.37-6.16zM16 17H5V7h11l3.55 5L16 17z"/>
</symbol>
<symbol id="layout-outline" preserveAspectRatio="xMidYMid meet" viewBox="0 0 256 256">
  <path fill="currentColor" d="M216 40H40a16 16 0 0 0-16 16v144a16 16 0 0 0 16 16h176a16 16 0 0 0 16-16V56a16 16 0 0 0-16-16ZM40 56h176v40H40Zm0 56h56v88H40Zm176 88H112v-88h104v88Z"/>
</symbol>
<symbol id="login-outline" viewBox="0 0 1024 1024">
  <path fill="currentColor" d="M521.7 82c-152.5-.4-286.7 78.5-363.4 197.7c-3.4 5.3.4 12.3 6.7 12.3h70.3c4.8 0 9.3-2.1 12.3-5.8c7-8.5 14.5-16.7 22.4-24.5c32.6-32.5 70.5-58.1 112.7-75.9c43.6-18.4 90-27.8 137.9-27.8c47.9 0 94.3 9.3 137.9 27.8c42.2 17.8 80.1 43.4 112.7 75.9c32.6 32.5 58.1 70.4 76 112.5C865.7 417.8 875 464.1 875 512c0 47.9-9.4 94.2-27.8 137.8c-17.8 42.1-43.4 80-76 112.5s-70.5 58.1-112.7 75.9A352.8 352.8 0 0 1 520.6 866c-47.9 0-94.3-9.4-137.9-27.8A353.84 353.84 0 0 1 270 762.3c-7.9-7.9-15.3-16.1-22.4-24.5c-3-3.7-7.6-5.8-12.3-5.8H165c-6.3 0-10.2 7-6.7 12.3C234.9 863.2 368.5 942 520.6 942c236.2 0 428-190.1 430.4-425.6C953.4 277.1 761.3 82.6 521.7 82zM395.02 624v-76h-314c-4.4 0-8-3.6-8-8v-56c0-4.4 3.6-8 8-8h314v-76c0-6.7 7.8-10.5 13-6.3l141.9 112a8 8 0 0 1 0 12.6l-141.9 112c-5.2 4.1-13 .4-13-6.3z"/>
</symbol>
<symbol id="logout-outline" viewBox="0 0 1024 1024">
  <path fill="currentColor" d="M868 732h-70.3c-4.8 0-9.3 2.1-12.3 5.8c-7 8.5-14.5 16.7-22.4 24.5a353.84 353.84 0 0 1-112.7 75.9A352.8 352.8 0 0 1 512.4 866c-47.9 0-94.3-9.4-137.9-27.8a353.84 353.84 0 0 1-112.7-75.9a353.28 353.28 0 0 1-76-112.5C167.3 606.2 158 559.9 158 512s9.4-94.2 27.8-137.8c17.8-42.1 43.4-80 76-112.5s70.5-58.1 112.7-75.9c43.6-18.4 90-27.8 137.9-27.8c47.9 0 94.3 9.3 137.9 27.8c42.2 17.8 80.1 43.4 112.7 75.9c7.9 7.9 15.3 16.1 22.4 24.5c3 3.7 7.6 5.8 12.3 5.8H868c6.3 0 10.2-7 6.7-12.3C798 160.5 663.8 81.6 511.3 82C271.7 82.6 79.6 277.1 82 516.4C84.4 751.9 276.2 942 512.4 942c152.1 0 285.7-78.8 362.3-197.7c3.4-5.3-.4-12.3-6.7-12.3zm88.9-226.3L815 393.7c-5.3-4.2-13-.4-13 6.3v76H488c-4.4 0-8 3.6-8 8v56c0 4.4 3.6 8 8 8h314v76c0 6.7 7.8 10.5 13 6.3l141.9-112a8 8 0 0 0 0-12.6z"/>
</symbol>
<symbol id="mail-outline" preserveAspectRatio="xMidYMid meet" viewBox="0 0 24 24">
  <path fill="currentColor" d="M20 4H4c-1.1 0-1.99.9-1.99 2L2 18c0 1.1.9 2 2 2h16c1.1 0 2-.9 2-2V6c0-1.1-.9-2-2-2zm0 14H4V8l8 5l8-5v10zm-8-7L4 6h16l-8 5z"/>
</symbol>
<symbol id="note-outline" preserveAspectRatio="xMidYMid meet" viewBox="0 0 24 24">
  <path fill="currentColor" d="M19 3h-4.18C14.4 1.84 13.3 1 12 1s-2.4.84-2.82 2H5c-1.1 0-2 .9-2 2v14c0 1.1.9 2 2 2h14c1.1 0 2-.9 2-2V5c0-1.1-.9-2-2-2zm-7-.25c.41 0 .75.34.75.75s-.34.75-.75.75s-.75-.34-.75-.75s.34-.75.75-.75zM19 19H5V5h14v14z"/>
  <path fill="currentColor" d="m15.08 11.03l-2.12-2.12L7 14.86V17h2.1zm1.77-1.76c.2-.2.2-.51 0-.71l-1.41-1.41c-.2-.2-.51-.2-.71 0l-1.06 1.06l2.12 2.12l1.06-1.06z"/>
</symbol>
<symbol id="software-resource-cluster-outline" preserveAspectRatio="xMidYMid meet" viewBox="0 0 32 32">
  <path fill="currentColor" d="M24 21c-.5 0-1-.2-1.4-.6l-3-3c-.4-.4-.6-.9-.6-1.4s.2-1 .6-1.4l3-3c.4-.4.9-.6 1.4-.6c.5 0 1 .2 1.4.6l3 3c.4.4.6.9.6 1.4c0 .5-.2 1-.6 1.4l-3 3c-.4.4-.9.6-1.4.6zm0-8l-3 3l3 3l3-3l-3-3zm-8 0c-.5 0-1-.2-1.4-.6l-3-3C11.2 9 11 8.5 11 8s.2-1 .6-1.4l3-3c.4-.4.9-.6 1.4-.6c.5 0 1 .2 1.4.6l3 3c.4.4.6.9.6 1.4c0 .5-.2 1-.6 1.4l-3 3c-.4.4-.9.6-1.4.6zm0-8l-3 3l3 3l3-3l-3-3zm0 24c-.5 0-1-.2-1.4-.6l-3-3c-.4-.4-.6-.9-.6-1.4s.2-1 .6-1.4l3-3c.4-.4.9-.6 1.4-.6c.5 0 1 .2 1.4.6l3 3c.4.4.6.9.6 1.4c0 .5-.2 1-.6 1.4l-3 3c-.4.4-.9.6-1.4.6zm0-8l-3 3l3 3l3-3l-3-3zm-8 0c-.5 0-1-.2-1.4-.6l-3-3C3.2 17 3 16.5 3 16s.2-1 .6-1.4l3-3c.4-.4.9-.6 1.4-.6c.5 0 1 .2 1.4.6l3 3c.4.4.6.9.6 1.4c0 .5-.2 1-.6 1.4l-3 3c-.4.4-.9.6-1.4.6zm0-8l-3 3l3 3l3-3l-3-3z"/>
</symbol>
<symbol id="software-resource-outline" preserveAspectRatio="xMidYMid meet" viewBox="0 0 32 32">
  <path fill="currentColor" d="M29.391 14.527L17.473 2.609A2.078 2.078 0 0 0 16 2c-.533 0-1.067.203-1.473.609L2.609 14.527C2.203 14.933 2 15.466 2 16s.203 1.067.609 1.473L14.526 29.39c.407.407.941.61 1.474.61s1.067-.203 1.473-.609L29.39 17.474c.407-.407.61-.94.61-1.474s-.203-1.067-.609-1.473zM16 28.036L3.965 16L16 3.964L28.036 16L16 28.036z"/>
</symbol>
<symbol id="star-outline" preserveAspectRatio="xMidYMid meet" viewBox="0 0 32 32">
  <path fill="currentColor" d="m16 6.52l2.76 5.58l.46 1l1 .15l6.16.89l-4.38 4.3l-.75.73l.18 1l1.05 6.13l-5.51-2.89L16 23l-.93.49l-5.51 2.85l1-6.13l.18-1l-.74-.77l-4.42-4.35l6.16-.89l1-.15l.46-1L16 6.52M16 2l-4.55 9.22l-10.17 1.47l7.36 7.18L6.9 30l9.1-4.78L25.1 30l-1.74-10.13l7.36-7.17l-10.17-1.48Z"/>
</symbol>
<symbol id="theme-outline" preserveAspectRatio="xMidYMid meet" viewBox="0 0 48 48">
  <path fill="none" stroke="currentColor" stroke-linejoin="round" stroke-width="4" d="M18 6a6 6 0 1 0 12 0h5.455L42 15.818l-5.727 4.91V42H11.727V20.727L6 15.818L12.545 6H18Z"/>
</symbol>
<symbol id="timer-outline" preserveAspectRatio="xMidYMid meet" viewBox="0 0 24 24">
  <path fill="currentColor" d="M12 5a8.5 8.5 0 1 1 0 17a8.5 8.5 0 0 1 0-17Zm0 1.5a7 7 0 1 0 0 14a7 7 0 0 0 0-14ZM12 8a.75.75 0 0 1 .743.648l.007.102v4.5a.75.75 0 0 1-1.493.102l-.007-.102v-4.5A.75.75 0 0 1 12 8Zm7.147-2.886l.083.06l1.158.964a.75.75 0 0 1-.877 1.212l-.082-.06l-1.159-.964a.75.75 0 0 1 .877-1.212ZM14.25 2.5a.75.75 0 0 1 .102 1.493L14.25 4h-4.5a.75.75 0 0 1-.102-1.493L9.75 2.5h4.5Z"/>
</symbol>
<symbol id="visibility-off-outline" preserveAspectRatio="xMidYMid meet" viewBox="0 0 24 24">
  <path fill="currentColor" d="M12 6a9.77 9.77 0 0 1 8.82 5.5a9.647 9.647 0 0 1-2.41 3.12l1.41 1.41c1.39-1.23 2.49-2.77 3.18-4.53C21.27 7.11 17 4 12 4c-1.27 0-2.49.2-3.64.57l1.65 1.65C10.66 6.09 11.32 6 12 6zm-1.07 1.14L13 9.21c.57.25 1.03.71 1.28 1.28l2.07 2.07c.08-.34.14-.7.14-1.07C16.5 9.01 14.48 7 12 7c-.37 0-.72.05-1.07.14zM2.01 3.87l2.68 2.68A11.738 11.738 0 0 0 1 11.5C2.73 15.89 7 19 12 19c1.52 0 2.98-.29 4.32-.82l3.42 3.42l1.41-1.41L3.42 2.45L2.01 3.87zm7.5 7.5l2.61 2.61c-.04.01-.08.02-.12.02a2.5 2.5 0 0 1-2.5-2.5c0-.05.01-.08.01-.13zm-3.4-3.4l1.75 1.75a4.6 4.6 0 0 0-.36 1.78a4.507 4.507 0 0 0 6.27 4.14l.98.98c-.88.24-1.8.38-2.75.38a9.77 9.77 0 0 1-8.82-5.5c.7-1.43 1.72-2.61 2.93-3.53z"/>
</symbol>
<symbol id="visibility-outline" preserveAspectRatio="xMidYMid meet" viewBox="0 0 24 24">
  <path fill="currentColor" d="M12 6a9.77 9.77 0 0 1 8.82 5.5C19.17 14.87 15.79 17 12 17s-7.17-2.13-8.82-5.5A9.77 9.77 0 0 1 12 6m0-2C7 4 2.73 7.11 1 11.5C2.73 15.89 7 19 12 19s9.27-3.11 11-7.5C21.27 7.11 17 4 12 4zm0 5a2.5 2.5 0 0 1 0 5a2.5 2.5 0 0 1 0-5m0-2c-2.48 0-4.5 2.02-4.5 4.5S9.52 16 12 16s4.5-2.02 4.5-4.5S14.48 7 12 7z"/>
</symbol>
<symbol id="work-history-outline" preserveAspectRatio="xMidYMid meet" viewBox="0 0 24 24">
  <path fill="currentColor" d="M4 19V8h16v3.29c.72.22 1.4.54 2 .97V8c0-1.11-.89-2-2-2h-4V4c0-1.11-.89-2-2-2h-4c-1.11 0-2 .89-2 2v2H4c-1.11 0-1.99.89-1.99 2L2 19c0 1.11.89 2 2 2h7.68c-.3-.62-.5-1.29-.6-2H4zm6-15h4v2h-4V4z"/>
  <path fill="currentColor" d="M18 13c-2.76 0-5 2.24-5 5s2.24 5 5 5s5-2.24 5-5s-2.24-5-5-5zm1.65 7.35L17.5 18.2V15h1v2.79l1.85 1.85l-.7.71z"/>
</symbol>
</svg>