<svg xmlns="http://www.w3.org/2000/svg" xmlns:xlink="http://www.w3.org/1999/xlink">
<symbol id="dingtalk-square" preserveAspectRatio="xMidYMid meet" viewBox="0 0 1024 1024">
  <path fill="currentColor" d="M880 112H144c-17.7 0-32 14.3-32 32v736c0 17.7 14.3 32 32 32h736c17.7 0 32-14.3 32-32V144c0-17.7-14.3-32-32-32zM739 449.3c-1 4.2-3.5 10.4-7 17.8h.1l-.4.7c-20.3 43.1-73.1 127.7-73.1 127.7s-.1-.2-.3-.5l-15.5 26.8h74.5L575.1 810l32.3-128h-58.6l20.4-84.7c-16.5 3.9-35.9 9.4-59 16.8c0 0-31.2 18.2-89.9-35c0 0-39.6-34.7-16.6-43.4c9.8-3.7 47.4-8.4 77-12.3c40-5.4 64.6-8.2 64.6-8.2S422 517 392.7 512.5c-29.3-4.6-66.4-53.1-74.3-95.8c0 0-12.2-23.4 26.3-12.3c38.5 11.1 197.9 43.2 197.9 43.2s-207.4-63.3-221.2-78.7c-13.8-15.4-40.6-84.2-37.1-126.5c0 0 1.5-10.5 12.4-7.7c0 0 153.3 69.7 258.1 107.9c104.8 37.9 195.9 57.3 184.2 106.7z"/>
</symbol>
<symbol id="github" preserveAspectRatio="xMidYMid meet" viewBox="0 0 24 24">
  <path fill="currentColor" d="M12 2A10 10 0 0 0 2 12c0 4.42 2.87 8.17 6.84 9.5c.5.08.66-.23.66-.5v-1.69c-2.77.6-3.36-1.34-3.36-1.34c-.46-1.16-1.11-1.47-1.11-1.47c-.91-.62.07-.6.07-.6c1 .07 1.53 1.03 1.53 1.03c.87 1.52 2.34 1.07 2.91.83c.09-.65.35-1.09.63-1.34c-2.22-.25-4.55-1.11-4.55-4.92c0-1.11.38-2 1.03-2.71c-.1-.25-.45-1.29.1-2.64c0 0 .84-.27 2.75 1.02c.79-.22 1.65-.33 2.5-.33c.85 0 1.71.11 2.5.33c1.91-1.29 2.75-1.02 2.75-1.02c.55 1.35.2 2.39.1 2.64c.65.71 1.03 1.6 1.03 2.71c0 3.82-2.34 4.66-4.57 4.91c.36.31.69.92.69 1.85V21c0 .27.16.59.67.5C19.14 20.16 22 16.42 22 12A10 10 0 0 0 12 2Z"/>
</symbol>
<symbol id="password" preserveAspectRatio="xMidYMid meet" viewBox="0 0 24 24">
  <path fill="currentColor" d="M3 17h18c.55 0 1 .45 1 1s-.45 1-1 1H3c-.55 0-1-.45-1-1s.45-1 1-1zm-.5-4.43c.36.21.82.08 1.03-.28l.47-.82l.48.83c.21.36.67.48 1.03.28c.36-.21.48-.66.28-1.02l-.49-.84h.95c.41 0 .75-.34.75-.75s-.34-.75-.75-.75H5.3l.47-.82c.21-.36.09-.82-.27-1.03a.764.764 0 0 0-1.03.28L4 8.47l-.47-.82a.764.764 0 0 0-1.03-.28c-.36.21-.48.67-.27 1.03l.47.82h-.95c-.41 0-.75.34-.75.75s.34.75.75.75h.95l-.48.83c-.2.36-.08.82.28 1.02zm8 0c.36.21.82.08 1.03-.28l.47-.82l.48.83c.21.36.67.48 1.03.28c.36-.21.48-.66.28-1.02l-.48-.83h.95c.41 0 .75-.34.75-.75s-.34-.75-.75-.75h-.96l.47-.82a.76.76 0 0 0-.27-1.03a.746.746 0 0 0-1.02.27l-.48.82l-.47-.82a.742.742 0 0 0-1.02-.27c-.36.21-.48.67-.27 1.03l.47.82h-.96a.74.74 0 0 0-.75.74c0 .41.34.75.75.75h.95l-.48.83c-.2.36-.08.82.28 1.02zM23 9.97c0-.41-.34-.75-.75-.75h-.95l.47-.82a.76.76 0 0 0-.27-1.03a.746.746 0 0 0-1.02.27l-.48.83l-.47-.82a.742.742 0 0 0-1.02-.27c-.36.21-.48.67-.27 1.03l.47.82h-.95a.743.743 0 0 0-.76.74c0 .41.34.75.75.75h.95l-.48.83a.74.74 0 0 0 .28 1.02c.36.21.82.08 1.03-.28l.47-.82l.48.83c.21.36.67.48 1.03.28c.36-.21.48-.66.28-1.02l-.48-.83h.95c.4-.01.74-.35.74-.76z"/>
</symbol>
<symbol id="sms" preserveAspectRatio="xMidYMid meet" viewBox="0 0 512 512">
  <path fill="currentColor" d="M256 32C114.6 32 .014 125.1.014 240c0 49.59 21.39 95 56.99 130.7c-12.5 50.39-54.31 95.3-54.81 95.8C0 468.8-.594 472.2.688 475.2C1.1 478.2 4.813 480 8 480c66.31 0 116-31.8 140.6-51.41C181.3 440.9 217.6 448 256 448c141.4 0 256-93.1 256-208S397.4 32 256 32zm-88.7 239.9c-3.4 19.2-21 32.1-46.2 32.1a80.54 80.54 0 0 1-12.59-1c-7.41-1.2-15.7-4.2-23.01-6.9c-8.312-3-14.06-12.66-11.09-20.97S85 261.1 93.38 264.9c6.979 2.498 14.53 5.449 20.88 6.438C125.7 273.1 135 271 135.8 266.4c1.053-5.912-10.84-8.396-24.56-12.34c-12.12-3.531-44.28-12.97-38.63-46c4.062-23.38 27.31-35.91 58-31.09c5.906.906 12.44 2.844 18.59 4.969c8.344 2.875 12.78 12 9.906 20.34C156.3 210.7 147.2 215.1 138.8 212.2c-4.344-1.5-8.938-2.938-13.09-3.594c-11.22-1.656-20.72.406-21.5 4.906c-1.01 5.688 9.39 7.988 20.19 11.088c17 4.9 48.7 13.9 42.9 47.3zM320 288c0 8.844-7.156 16-16 16s-16-7.2-16-16v-48l-19.19 25.59c-6.062 8.062-19.55 8.062-25.62 0L224 240v48c0 8.844-7.156 16-16 16s-16-7.2-16-16v-96c0-6.875 4.406-12.1 10.94-15.18c6.5-2.094 13.71.059 17.87 5.59L256 229.3l35.19-46.93c4.156-5.531 11.4-7.652 17.87-5.59C315.6 179 320 185.1 320 192v96zm119.3-16.1c-3.4 19.2-21 32.1-46.2 32.1a80.54 80.54 0 0 1-12.59-1c-8.25-1.25-16.56-4.25-23.88-6.906c-8.312-3-14.06-12.66-11.09-20.97s10.59-13.16 18.97-10.19c6.979 2.498 14.53 5.449 20.88 6.438c11.44 1.719 20.78-.375 21.56-4.938c1.053-5.912-10.84-8.396-24.56-12.34c-12.12-3.531-44.28-12.97-38.63-46c4.031-23.38 27.25-35.91 58-31.09c5.906.906 12.44 2.844 18.59 4.969c8.344 2.875 12.78 12 9.906 20.34c-2.875 8.344-11.94 12.81-20.34 9.906c-4.344-1.5-8.938-2.938-13.09-3.594c-11.19-1.656-20.72.406-21.5 4.906C375.2 219.2 385.6 221.5 396.4 224.6c17 4.9 48.7 13.9 42.9 47.3z"/>
</symbol>
<symbol id="wechat-outline" viewBox="0 0 1025 1024">
  <path d="M498.816 345.056c26.336 0 43.936-17.632 43.936-43.904 0-26.56-17.568-43.744-43.936-43.744s-52.832 17.184-52.832 43.744C446.016 327.424 472.48 345.056 498.816 345.056zM253.088 257.408c-26.336 0-52.96 17.184-52.96 43.744 0 26.272 26.624 43.904 52.96 43.904 26.24 0 43.808-17.632 43.808-43.904C296.864 274.592 279.328 257.408 253.088 257.408zM1024 626.112c0-138.88-128.832-257.216-286.976-269.536 0.224-1.728 0.32-3.52-0.064-5.312-31.712-147.84-190.688-259.296-369.824-259.296C164.704 91.968 0 233.12 0 406.624c0 93.088 47.52 176.96 137.568 243.104l-31.392 94.368c-2.016 6.144-0.192 12.896 4.704 17.152 2.976 2.56 6.72 3.904 10.496 3.904 2.432 0 4.896-0.576 7.168-1.696L246.4 704.48l14.528 2.944c36.288 7.456 67.616 13.92 106.208 13.92 11.36 0 22.88-0.512 34.176-1.472 4.576-0.384 8.448-2.688 11.072-6.016 42.496 106.336 159.616 183.104 297.44 183.104 35.296 0 71.04-8.512 103.104-16.544l90.848 49.664c2.4 1.312 5.056 1.984 7.68 1.984 3.584 0 7.168-1.216 10.048-3.552 5.056-4.096 7.136-10.848 5.248-17.024l-23.2-77.152C981.344 772.864 1024 699.328 1024 626.112zM398.592 687.968c-10.4 0.896-20.96 1.344-31.424 1.344-35.328 0-65.216-6.112-99.776-13.248L247.296 672c-3.456-0.736-7.104-0.256-10.272 1.376l-88.288 44.192 22.944-68.928c2.24-6.752-0.224-14.112-6.016-18.176C76.96 568.64 32 493.312 32 406.624c0-155.84 150.336-282.656 335.136-282.656 163.36 0 308 99.392 337.856 231.584-171.296 2.24-309.888 122.656-309.888 270.56 0 21.504 3.264 42.336 8.768 62.432C402.208 688.128 400.448 687.808 398.592 687.968zM875.456 815.552c-5.344 4.032-7.616 10.976-5.696 17.376l15.136 50.336-62.112-33.984c-2.368-1.312-5.024-1.984-7.68-1.984-1.312 0-2.624 0.16-3.904 0.512-33.312 8.416-67.776 17.088-101.344 17.088-155.904 0-282.72-107.136-282.72-238.816 0-131.68 126.816-238.784 282.72-238.784 152.928 0 282.144 109.344 282.144 238.784C992 691.744 950.624 759.04 875.456 815.552zM612.992 511.968c-17.568 0-35.136 17.696-35.136 35.232 0 17.664 17.568 35.104 35.136 35.104 26.4 0 43.84-17.44 43.84-35.104C656.832 529.632 639.392 511.968 612.992 511.968zM806.016 511.968c-17.312 0-34.88 17.696-34.88 35.232 0 17.664 17.568 35.104 34.88 35.104 26.304 0 44.064-17.44 44.064-35.104C850.08 529.632 832.352 511.968 806.016 511.968z" p-id="3130" fill="currentColor"/>
</symbol>
<symbol id="wxwork-outline" viewBox="0 0 1228 1024">
  <path d="M1045.84 747.027a153.563 153.563 0 0 0-53.156 21.515 129.094 129.094 0 0 1-58.092 35.1c2.953-19.828 12.783-37.926 27.633-51.3a191.186 191.186 0 0 0 26.452-62.142 56.953 56.953 0 1 1 57.164 56.827zM941.639 610.634a190.814 190.814 0 0 0-61.932-26.747 56.953 56.953 0 1 1 56.953-56.953 155.266 155.266 0 0 0 21.263 53.325 129.666 129.666 0 0 1 34.762 58.346 85.978 85.978 0 0 1-50.878-27.97h-0.21z m-93.826-200.728c-17.17-143.817-166.092-256.5-346.274-256.5-191.954 0-348.132 127.744-348.132 284.85a266.33 266.33 0 0 0 124.369 216.169 351.762 351.762 0 0 0 37.969 24.384l-15.44 61.636c5.568 2.616 10.968 5.4 16.663 7.805l77.963-38.981c11.39 2.953 23.372 4.851 35.268 6.876 7.594 1.35 15.188 2.742 22.993 3.67a401.119 401.119 0 0 0 145.547-8.353 281.011 281.011 0 0 0 11.474 62.185 481.153 481.153 0 0 1-108.675 12.698 472.5 472.5 0 0 1-97.621-10.758L262.46 846.21a31.219 31.219 0 0 1-33.877-3.543 31.64 31.64 0 0 1-10.926-32.316l25.312-101.925A330.075 330.075 0 0 1 90.125 438.256c0-192.29 184.19-348.131 411.413-348.131 215.746 0 392.428 140.653 409.64 319.444a276.919 276.919 0 0 0-29.91-2.953c-11.18 0.422-22.36 1.476-33.456 3.248zM716.399 634.47c18.943-3.797 36.957-11.053 53.157-21.515a129.094 129.094 0 0 1 58.134-35.016 86.358 86.358 0 0 1-27.675 51.216c-12.445 18.984-21.389 40.078-26.451 62.184a56.953 56.953 0 1 1-57.165-56.869z m102.6 137.025c18.816 12.614 39.741 21.727 61.763 27a56.953 56.953 0 1 1-56.953 56.953 154.406 154.406 0 0 0-21.094-53.409 129.558 129.558 0 0 1-34.51-58.514 85.888 85.888 0 0 1 50.794 28.308v-0.338z" p-id="4418" fill="currentColor"/>
</symbol>
</svg>