<svg xmlns="http://www.w3.org/2000/svg" xmlns:xlink="http://www.w3.org/1999/xlink">
<symbol id="coupon" preserveAspectRatio="xMidYMid meet" viewBox="0 0 24 24">
  <path fill="currentColor" d="M2 9.5V4a1 1 0 0 1 1-1h18a1 1 0 0 1 1 1v5.5a2.5 2.5 0 1 0 0 5V20a1 1 0 0 1-1 1H3a1 1 0 0 1-1-1v-5.5a2.5 2.5 0 1 0 0-5zM14 5H4v2.968a4.5 4.5 0 0 1 0 8.064V19h10V5zm2 0v14h4v-2.968a4.5 4.5 0 0 1 0-8.064V5h-4z"/>
</symbol>
<symbol id="course" preserveAspectRatio="xMidYMid meet" viewBox="0 0 32 32">
  <path fill="currentColor" d="M24 30H8a2.002 2.002 0 0 1-2-2V4a2.002 2.002 0 0 1 2-2h16a2.002 2.002 0 0 1 2 2v16.618l-5-2.5l-5 2.5V4H8v24h16v-4h2v4a2.003 2.003 0 0 1-2 2Zm-3-14.118l3 1.5V4h-6v13.382Z"/>
</symbol>
<symbol id="distribution" preserveAspectRatio="xMidYMid meet" viewBox="0 0 24 24">
  <path fill="currentColor" d="M19 2a1 1 0 0 0-1 1v1h-5a1 1 0 0 0-1 1v14a1 1 0 0 0 1 1h5v1a1 1 0 0 0 2 0V3a1 1 0 0 0-1-1Zm-1 16h-4V6h4ZM9 2a1 1 0 0 0-1 1v2H5a1 1 0 0 0-1 1v12a1 1 0 0 0 1 1h3v2a1 1 0 0 0 2 0V3a1 1 0 0 0-1-1ZM8 17H6V7h2Z"/>
</symbol>
<symbol id="hotsprings" viewBox="0 0 512 512">
  <path fill="#FF473E" d="M349.164 318.915s.842-1.244 2.518-3.433c.927-1.132 1.662-2.397 2.568-3.849c.445-.758.936-1.417 1.456-2.337l1.628-2.765a106.887 106.887 0 0 0 6.794-13.979c2.1-5.414 3.932-11.49 4.998-18.019a87.18 87.18 0 0 0 .918-20.539c-.041-.883-.209-1.781-.296-2.67l-.131-1.337l-.062-.669c-.015-.745.013.924.003.707l-.015-.115l-.03-.229l-.06-.459l-.483-3.699l-.11-.932c-.02-.14-.033-.346-.06-.432l-.078-.267l-.299-1.066l-.554-2.184l-.722-2.638c-.198-.889-.533-1.748-.825-2.616c-.301-.866-.517-1.755-.865-2.608c-1.289-3.447-2.842-6.81-4.557-10.124c-1.856-3.246-3.837-6.447-6.113-9.493c-2.338-2.992-4.826-5.911-7.6-8.587a81.367 81.367 0 0 0-8.999-7.291c-1.44-.946-.46-.306-.809-.537l-.106-.076l-.213-.152l-.426-.304l-.852-.608l-1.703-1.217l-.851-.608l-.213-.152l-.299-.23l-.602-.465l-2.396-1.878l-2.363-1.912l-.585-.483l-.504-.458l-1.003-.918c-1.331-1.23-2.672-2.444-3.967-3.7l-3.742-3.906c-1.259-1.284-2.353-2.721-3.519-4.08l-1.712-2.068c-.566-.691-1.077-1.428-1.614-2.14c-1.056-1.44-2.126-2.862-3.113-4.337c-3.961-5.903-7.262-12.137-9.996-18.492c-1.266-3.226-2.534-6.413-3.473-9.69c-.476-1.634-1.048-3.225-1.406-4.876l-1.13-4.898c-1.271-6.54-2.083-13.031-2.1-19.364c-.124-3.161.118-6.277.258-9.333l.034-.572l.018-.286l.009-.143c-.001.102.032-1.419.026-.828l.131-.915l.261-1.821l.26-1.809c.093-.63.149-1.099.304-2c.262-1.611.56-3.201.856-4.771c.152-.778.294-1.579.46-2.322l.549-2.098c.364-1.391.736-2.764 1.119-4.117c.405-1.349.892-2.666 1.334-3.974c.475-1.3.853-2.607 1.408-3.85l1.582-3.695l.786-1.807l.881-1.746a3794.14 3794.14 0 0 1 1.766-3.403a91.604 91.604 0 0 1 16.266-21.593c5.671-5.573 11.267-9.53 15.974-12.417c2.385-1.417 4.52-2.611 6.466-3.501c1.912-.932 3.541-1.676 4.919-2.179c2.727-1.043 4.173-1.532 4.173-1.532a6.56 6.56 0 0 1 7.247 10.281l-.408.508s-.863 1.077-2.466 2.97c-.836.898-1.721 2.18-2.815 3.56c-1.126 1.343-2.218 3.085-3.511 4.879c-2.458 3.727-5.206 8.27-7.648 13.633c-2.405 5.381-4.539 11.534-5.84 18.244c-.604 3.369-1.168 6.817-1.338 10.401c-.046.894-.14 1.78-.157 2.684c.012.91.009 1.818-.004 2.726l-.019 1.363c.019.421.07.795.099 1.192c.065.784.131 1.563.159 2.339c.002.291.067 1.026.11 1.602l.142 1.822l.142 1.834l.072.921c-.007.667.018-.777.022-.599l.016.087l.033.175l.064.349c.346 1.859.548 3.735 1.061 5.575c.734 3.718 2.028 7.343 3.346 10.926a82.366 82.366 0 0 0 5.109 10.357l1.57 2.45c.488.834 1.081 1.611 1.661 2.392l.841 1.188c.268.404.559.793.882 1.162l1.836 2.271a81.574 81.574 0 0 0 8.273 8.262l2.291 1.819l.568.458l.282.229l.241.156c.32.21.639.418.945.643l.914.678l.225.174l.115.089l.22.141l.88.566l1.76 1.132l.88.566l.44.283l.22.141l.11.071c-.277-.182.775.507-.593-.39a119.187 119.187 0 0 1 17.396 13.16a115.811 115.811 0 0 1 14.374 16.206c1.024 1.477 2.047 2.951 3.029 4.446c.507.737.978 1.496 1.421 2.272l1.353 2.308c1.87 3.032 3.337 6.274 4.869 9.436c1.366 3.247 2.759 6.454 3.772 9.778c.521 1.654 1.137 3.267 1.541 4.941l1.248 4.977c.405 1.651.658 3.331.978 4.982c.293 1.658.586 3.305.737 4.965l.521 4.931c.048.391.072.835.089 1.3l.058 1.361l.096 2.705l.069 2.682l.013.667c.005.225-.013.332-.018.504l-.05.937l-.242 3.722l-.03.462l-.015.231l-.008.115c-.004-.14.016 1.606 0 .937l-.122 1.167l-.25 2.317c-.2 1.537-.337 3.059-.608 4.562c-1.978 12.051-6.015 22.916-11.084 31.95a88.807 88.807 0 0 1-17.109 21.819a212.722 212.722 0 0 1-4.459 3.838c-1.453 1.195-2.953 2.236-4.345 3.255c-1.364 1.047-2.824 1.881-4.16 2.712c-1.354.813-2.589 1.625-3.865 2.265c-2.552 1.278-4.715 2.424-6.893 3.278c-2.1.86-3.878 1.621-5.165 1.89c-2.654.747-4.121 1.069-4.121 1.069a6.878 6.878 0 0 1-8.192-5.243a6.919 6.919 0 0 1 1.028-5.323zm-118.415 5.33a6.877 6.877 0 0 0 8.192 5.243s1.467-.322 4.121-1.069c1.287-.27 3.065-1.03 5.165-1.89c2.178-.854 4.341-1.999 6.893-3.278c1.277-.64 2.511-1.452 3.865-2.265c1.336-.832 2.796-1.666 4.16-2.712c1.391-1.019 2.892-2.061 4.345-3.255a212.722 212.722 0 0 0 4.459-3.838a88.854 88.854 0 0 0 17.109-21.819c5.068-9.034 9.106-19.899 11.084-31.95c.27-1.503.408-3.026.608-4.562l.25-2.317l.122-1.167c.016.668-.004-1.078 0-.937l.008-.115l.015-.231l.03-.462l.242-3.722l.05-.937c.005-.172.023-.279.018-.504l-.013-.667l-.069-2.682l-.096-2.705l-.058-1.361a16.157 16.157 0 0 0-.089-1.3l-.521-4.931c-.151-1.66-.444-3.307-.737-4.965c-.32-1.651-.574-3.331-.978-4.982l-1.248-4.977c-.404-1.674-1.019-3.287-1.541-4.941c-1.013-3.324-2.406-6.531-3.772-9.778c-1.532-3.162-2.999-6.404-4.869-9.436l-1.353-2.308a32.32 32.32 0 0 0-1.421-2.272c-.983-1.495-2.006-2.969-3.029-4.446a115.868 115.868 0 0 0-14.374-16.206c-1.339-1.227-2.728-2.403-4.112-3.583c-1.363-1.206-2.827-2.291-4.28-3.388c-1.462-1.086-2.887-2.222-4.426-3.202l-2.281-1.507l-1.147-.742l-.574-.37l-.287-.184l-.144-.092c.266.175-.797-.521.559.369l-3.521-2.264l-.88-.566l-.22-.141l-.115-.089l-.225-.174l-.914-.678c-.306-.224-.625-.433-.945-.643l-.241-.156l-.282-.229l-.568-.458l-2.291-1.819a81.472 81.472 0 0 1-8.273-8.262l-1.836-2.271a11.066 11.066 0 0 1-.882-1.162l-.841-1.188c-.58-.781-1.173-1.558-1.662-2.392l-1.57-2.45a82.572 82.572 0 0 1-5.109-10.357c-1.318-3.584-2.612-7.208-3.346-10.926c-.514-1.84-.716-3.716-1.061-5.575l-.064-.349l-.033-.175l-.016-.087c-.004-.178-.029 1.266-.022.599l-.072-.921l-.142-1.834l-.142-1.822c-.043-.576-.108-1.312-.11-1.602c-.028-.775-.094-1.555-.159-2.339c-.029-.398-.08-.772-.099-1.192l.019-1.363c.014-.908.016-1.816.004-2.726c.017-.904.111-1.79.157-2.684c.17-3.584.734-7.032 1.338-10.401c1.301-6.71 3.436-12.864 5.84-18.244c2.442-5.363 5.189-9.907 7.648-13.633c1.293-1.794 2.385-3.537 3.511-4.879c1.094-1.38 1.979-2.663 2.815-3.56a158.701 158.701 0 0 0 2.466-2.97l.408-.508a6.56 6.56 0 0 0-7.247-10.281s-1.447.489-4.173 1.532c-1.378.504-3.006 1.247-4.919 2.179c-1.946.89-4.081 2.083-6.466 3.501c-4.708 2.887-10.304 6.844-15.974 12.417a91.625 91.625 0 0 0-16.266 21.593l-1.765 3.403l-.881 1.746l-.786 1.807l-1.582 3.695c-.555 1.243-.933 2.55-1.408 3.85c-.442 1.308-.929 2.625-1.334 3.974a214.378 214.378 0 0 0-1.119 4.117l-.549 2.098c-.166.743-.308 1.544-.46 2.322c-.296 1.569-.594 3.16-.856 4.771c-.154.9-.211 1.37-.304 2l-.26 1.809l-.261 1.821l-.131.915c.006-.59-.027.93-.026.828l-.009.143l-.018.286l-.034.572c-.141 3.056-.383 6.172-.258 9.333c.017 6.333.829 12.823 2.1 19.364l1.13 4.898c.358 1.651.93 3.242 1.406 4.876c.939 3.277 2.207 6.464 3.473 9.69c2.734 6.354 6.035 12.589 9.996 18.492c.987 1.476 2.057 2.898 3.113 4.337c.537.712 1.048 1.449 1.614 2.14l1.712 2.068c1.166 1.359 2.26 2.795 3.519 4.08l3.742 3.906c1.296 1.256 2.637 2.47 3.968 3.7l1.003.918l.504.458l.585.483l2.363 1.912l2.396 1.878l.602.465l.299.23l.213.152l.851.608l3.406 2.433c1.429.939.438.292.776.515l.073.055l.146.109l.292.218l.584.432l1.182.841c.815.522 1.529 1.185 2.29 1.779c1.556 1.151 2.895 2.556 4.359 3.802c2.774 2.676 5.261 5.595 7.6 8.587c2.277 3.045 4.258 6.247 6.113 9.493c1.715 3.314 3.268 6.676 4.557 10.124c.348.854.564 1.743.865 2.608c.292.868.628 1.728.825 2.616l.722 2.638l.554 2.184l.299 1.066l.078.267c.027.086.039.292.06.432l.11.932l.483 3.699l.06.459l.03.229l.015.115c.009.217-.018-1.452-.003-.707l.062.669l.131 1.337c.087.89.255 1.787.296 2.67a87.18 87.18 0 0 1-.918 20.539c-1.066 6.529-2.898 12.605-4.998 18.019a106.76 106.76 0 0 1-6.794 13.979l-1.628 2.765c-.52.92-1.011 1.579-1.456 2.337c-.906 1.452-1.642 2.717-2.568 3.849c-1.676 2.189-2.518 3.433-2.518 3.433a6.864 6.864 0 0 0-1.029 5.324zm-117.392 0a6.877 6.877 0 0 0 8.192 5.243s1.467-.322 4.121-1.069c1.287-.27 3.065-1.03 5.165-1.89c2.178-.854 4.341-1.999 6.893-3.278c1.277-.64 2.511-1.452 3.865-2.265c1.336-.832 2.796-1.666 4.16-2.712c1.391-1.019 2.892-2.061 4.345-3.255a212.722 212.722 0 0 0 4.459-3.838a88.854 88.854 0 0 0 17.109-21.819c5.068-9.034 9.106-19.899 11.084-31.95c.27-1.503.407-3.026.608-4.562l.25-2.317l.122-1.167c.016.668-.004-1.078 0-.937l.008-.115l.015-.231l.03-.462l.242-3.722l.05-.937c.005-.172.023-.279.018-.504l-.013-.667l-.069-2.682l-.096-2.705l-.058-1.361a16.157 16.157 0 0 0-.089-1.3l-.521-4.931c-.151-1.66-.444-3.307-.737-4.965c-.32-1.651-.574-3.331-.978-4.982l-1.248-4.977c-.404-1.674-1.019-3.287-1.541-4.941c-1.013-3.324-2.406-6.531-3.772-9.778c-1.532-3.162-2.999-6.404-4.869-9.436l-1.353-2.308a32.32 32.32 0 0 0-1.421-2.272c-.983-1.495-2.006-2.969-3.029-4.446a115.868 115.868 0 0 0-14.374-16.206c-1.339-1.227-2.728-2.403-4.112-3.583c-1.363-1.206-2.827-2.291-4.28-3.388c-1.462-1.086-2.887-2.222-4.426-3.202l-2.281-1.507l-1.147-.742l-.574-.37l-.287-.184l-.144-.092c.266.175-.797-.521.559.369l-3.521-2.264l-.88-.566l-.22-.141l-.115-.089l-.225-.174l-.914-.678c-.306-.224-.625-.433-.945-.643l-.241-.156l-.282-.229l-.568-.458l-2.291-1.819a81.472 81.472 0 0 1-8.273-8.262l-1.836-2.271a11.066 11.066 0 0 1-.882-1.162l-.841-1.188c-.58-.781-1.173-1.558-1.662-2.392l-1.57-2.45a82.572 82.572 0 0 1-5.109-10.357c-1.318-3.584-2.612-7.208-3.346-10.926c-.514-1.84-.716-3.716-1.061-5.575l-.064-.349l-.033-.175l-.016-.087c-.004-.178-.029 1.266-.022.599l-.072-.921l-.142-1.834l-.142-1.822c-.043-.576-.108-1.312-.11-1.602c-.028-.775-.094-1.555-.159-2.339c-.029-.398-.08-.772-.099-1.192l.019-1.363c.014-.908.016-1.816.004-2.726c.017-.904.111-1.79.157-2.684c.17-3.584.734-7.032 1.338-10.401c1.301-6.71 3.436-12.864 5.84-18.244c2.442-5.363 5.189-9.907 7.648-13.633c1.293-1.794 2.385-3.537 3.511-4.879c1.094-1.38 1.979-2.663 2.815-3.56a158.701 158.701 0 0 0 2.466-2.97l.408-.508a6.56 6.56 0 0 0-7.247-10.281s-1.447.489-4.173 1.532c-1.378.504-3.006 1.247-4.919 2.179c-1.946.89-4.081 2.083-6.466 3.501c-4.708 2.887-10.304 6.844-15.974 12.417a91.625 91.625 0 0 0-16.266 21.593l-1.765 3.403l-.881 1.746l-.786 1.807l-1.582 3.695c-.555 1.243-.933 2.55-1.408 3.85c-.442 1.308-.929 2.625-1.334 3.974a214.378 214.378 0 0 0-1.119 4.117l-.549 2.098c-.166.743-.308 1.544-.46 2.322c-.296 1.569-.594 3.16-.856 4.771c-.154.9-.211 1.37-.304 2l-.26 1.809l-.261 1.821l-.131.915c.006-.59-.027.93-.026.828l-.009.143l-.018.286l-.034.572c-.14 3.056-.383 6.172-.258 9.333c.017 6.333.829 12.823 2.1 19.364l1.13 4.898c.358 1.651.93 3.242 1.406 4.876c.939 3.277 2.207 6.464 3.473 9.69c2.734 6.354 6.035 12.589 9.996 18.492c.987 1.476 2.057 2.898 3.113 4.337c.537.712 1.048 1.449 1.614 2.14l1.712 2.068c1.166 1.359 2.26 2.795 3.519 4.08l3.742 3.906c1.296 1.256 2.637 2.47 3.968 3.7l1.003.918l.504.458l.585.483l2.363 1.912l2.396 1.878l.602.465l.299.23l.213.152l.851.608l3.406 2.433c1.429.939.438.292.776.515l.073.055l.146.109l.292.218l.584.432l1.182.841c.815.522 1.529 1.185 2.29 1.779c1.556 1.151 2.895 2.556 4.359 3.802c2.774 2.676 5.261 5.595 7.6 8.587c2.277 3.045 4.258 6.247 6.113 9.493c1.715 3.314 3.268 6.676 4.557 10.124c.348.854.564 1.743.865 2.608c.292.868.628 1.728.825 2.616l.722 2.638l.554 2.184l.299 1.066l.078.267c.027.086.039.292.06.432l.11.932l.483 3.699l.06.459l.03.229l.015.115c.009.217-.018-1.452-.003-.707l.062.669l.131 1.337c.087.89.255 1.787.296 2.67a87.18 87.18 0 0 1-.918 20.539c-1.066 6.529-2.898 12.605-4.998 18.019a106.76 106.76 0 0 1-6.794 13.979l-1.628 2.765c-.52.92-1.011 1.579-1.456 2.337c-.906 1.452-1.642 2.717-2.568 3.849c-1.676 2.189-2.518 3.433-2.518 3.433a6.864 6.864 0 0 0-1.029 5.324zm-42.814-83.381a7.961 7.961 0 0 0-11.031-2.252l-1.885 1.245l-2.298 1.541c-.898.562-1.999 1.418-3.241 2.371c-1.218.954-2.689 2.013-4.119 3.222c-1.44 1.217-3.039 2.529-4.703 4.035c-3.317 3.024-7.087 6.628-10.919 11.142c-1.982 2.2-3.897 4.698-5.908 7.337l-2.909 4.212c-1.019 1.426-1.894 3.002-2.877 4.562c-3.83 6.307-7.303 13.697-10.054 22.115l-1.015 3.198c-.321 1.082-.587 2.191-.865 3.308l-.817 3.39l-.641 3.488c-.201 1.176-.442 2.361-.605 3.562l-.432 3.644l-.21 1.849l-.052.465l-.026.233c.026 1.702 0 .582.003 1.011l-.049.768l-.196 3.095l-.198 3.135c-.013.115-.012.28-.005.466l.014.529l.031 1.063l.086 2.141c.137 2.835.242 5.923.629 8.464l.512 4.039l.273 2.042c.11.677.267 1.342.4 2.017l.859 4.068c.314 1.356.543 2.765.967 4.092c2.838 10.905 7.43 21.744 13.466 31.938c6.017 10.219 13.418 19.845 21.825 28.688c16.836 17.711 37.521 32.389 60.158 44.003c11.337 5.783 23.19 10.791 35.379 15.129l4.592 1.582l2.303.791l2.321.717l9.33 2.847l9.449 2.519c3.161.831 6.353 1.498 9.542 2.251c3.188.773 6.4 1.39 9.624 1.993c3.222.615 6.449 1.251 9.697 1.723c3.245.496 6.493 1.06 9.754 1.492l9.808 1.172c3.275.366 6.559.6 9.844.902c1.643.131 3.286.311 4.931.399l4.939.253c3.294.147 6.59.378 9.885.398l10.418.176l9.082-.163l2.27-.043c.359-.002.784-.021 1.221-.043l1.287-.06l5.147-.247l5.143-.258c1.722-.079 3.31-.258 4.97-.39c3.285-.302 6.57-.537 9.845-.903l9.809-1.169c3.264-.412 6.51-.991 9.756-1.482c3.248-.473 6.475-1.11 9.698-1.725c3.223-.61 6.441-1.201 9.627-1.981c3.19-.754 6.382-1.422 9.543-2.253l9.453-2.509l9.331-2.849l2.321-.718l2.303-.791l4.593-1.583c12.194-4.328 24.052-9.335 35.391-15.119c22.645-11.609 43.34-26.288 60.183-44.006c8.409-8.849 15.814-18.478 21.835-28.701c6.036-10.201 10.63-21.046 13.47-31.958c2.863-10.902 3.979-21.816 3.562-31.998l-.179-3.788l-.048-.936c-.009-.348.003.449-.023-.839l-.026-.19l-.052-.379l-.206-1.511l-.408-2.992l-.128-.864l-.156-.975l-.32-1.935l-.668-3.794l-.819-3.391c-.278-1.117-.536-2.228-.862-3.31l-1.018-3.2c-2.761-8.419-6.232-15.814-10.068-22.121c-.985-1.56-1.861-3.136-2.882-4.562l-2.913-4.211c-2.014-2.638-3.927-5.139-5.913-7.336c-3.837-4.512-7.608-8.115-10.929-11.137c-1.665-1.505-3.267-2.815-4.707-4.033c-1.441-1.218-2.845-2.203-4.046-3.141c-2.393-1.885-4.379-3.119-5.655-4.017l-1.966-1.317c-2.659-1.772-6.256-1.832-9.01.135a7.92 7.92 0 0 0-1.843 11.049l.26.364l1.252 1.753c.82 1.154 2.09 2.816 3.585 5.072c1.547 2.214 3.318 5.02 5.318 8.288c.93 1.681 2.018 3.417 2.995 5.354l1.553 2.951c.54 1.003.988 2.088 1.506 3.164c1.067 2.138 1.91 4.5 2.937 6.864l1.327 3.71c.483 1.244.79 2.573 1.207 3.881c1.481 5.296 2.728 10.968 3.14 16.968l.158 2.255c.04.756.01 1.523.04 2.284l.055 2.296l-.125 2.019l-.106 2.127l-.224 3.012l-.113 1.521l-.028.382l-.014.191c-.024-1.161-.023-.237-.035-.457l-.111.593l-.431 2.376a75.44 75.44 0 0 1-6.12 19.034c-5.914 12.613-16.129 24.844-29.614 35.681c-13.486 10.844-30.13 20.283-48.629 27.843a285.457 285.457 0 0 1-29.04 9.912a301.462 301.462 0 0 1-31.006 7.128a368.188 368.188 0 0 1-32.29 4.298c-2.725.254-5.47.385-8.206.588c-1.353.081-2.774.215-4.072.266l-3.919.168l-3.92.179l-.98.046c-.319.017-.65.032-1.048.033l-2.27.028l-9.082.121l-7.746-.107c-2.761.013-5.506-.18-8.257-.281c-2.75-.118-5.501-.208-8.235-.43c-2.736-.204-5.481-.335-8.206-.589a370.724 370.724 0 0 1-32.297-4.275c-10.6-1.858-20.98-4.237-31.013-7.123a282.718 282.718 0 0 1-29.051-9.902c-18.507-7.556-35.159-16.996-48.653-27.847c-13.493-10.846-23.714-23.089-29.628-35.716c-.45-.773-.698-1.584-1.052-2.373l-1.004-2.373c-.163-.395-.353-.786-.496-1.184l-.394-1.197l-.809-2.384c-.641-1.691-.865-2.899-1.287-4.271l-.302-1.009l-.162-.505l-.083-.253a1.155 1.155 0 0 1-.071-.317l-.454-3.109l-.448-3.069l-.111-.761c-.001.302-.037-.945-.009.63l-.014-.148l-.029-.296l-.117-1.184l-.248-2.36c-.069-.784-.065-1.561-.106-2.339l-.097-2.326l.057-2.297c.029-.762-.008-1.531.036-2.286l.161-2.256c.422-6.002 1.666-11.678 3.154-16.974c.419-1.308.727-2.637 1.212-3.881l1.331-3.71c1.03-2.363 1.87-4.727 2.942-6.863c.519-1.076.967-2.16 1.509-3.163l1.556-2.95c.976-1.939 2.069-3.672 3-5.352c.969-1.656 1.976-3.128 2.832-4.537c.861-1.423 1.691-2.553 2.417-3.667c.731-1.088 1.356-2.051 2.053-2.954L69 251.772l1.332-1.825c1.892-2.607 2.093-6.236.211-9.083z"/>
</symbol>
<symbol id="kitchen-set" preserveAspectRatio="xMidYMid meet" viewBox="0 0 576 512">
  <path fill="currentColor" d="M80 144c0-35.3 28.7-64 64-64s64 28.7 64 64s-28.7 64-64 64s-64-28.7-64-64zm204.4 32c-14.5 64.1-71.9 112-140.4 112C64.47 288 0 223.5 0 144C0 64.47 64.47 0 144 0c68.5 0 125.9 47.87 140.4 112h71.8c8.8-9.8 21.6-16 35.8-16h104c26.5 0 48 21.5 48 48s-21.5 48-48 48H392c-14.2 0-27-6.2-35.8-16h-71.8zM144 48c-53.02 0-96 42.98-96 96c0 53 42.98 96 96 96c53 0 96-43 96-96c0-53.02-43-96-96-96zm280 216v8h96c13.3 0 24 10.7 24 24s-10.7 24-24 24H280c-13.3 0-24-10.7-24-24s10.7-24 24-24h96v-8c0-13.3 10.7-24 24-24s24 10.7 24 24zM288 464V352h224v112c0 26.5-21.5 48-48 48H336c-26.5 0-48-21.5-48-48zM176 320c26.5 0 48 21.5 48 48s-21.5 48-48 48h-16c0 17.7-14.3 32-32 32H64c-17.67 0-32-14.3-32-32v-80c0-8.8 7.16-16 16-16h128zm16 48c0-8.8-7.2-16-16-16h-16v32h16c8.8 0 16-7.2 16-16zm8 96c13.3 0 24 10.7 24 24s-10.7 24-24 24H24c-13.25 0-24-10.7-24-24s10.75-24 24-24h176z"/>
</symbol>
<symbol id="money-bag" preserveAspectRatio="xMidYMid meet" viewBox="0 0 48 48">
  <g fill="currentColor" fill-rule="evenodd" clip-rule="evenodd">
    <path d="M28.772 24.667A4.001 4.001 0 0 0 25 22v-1h-2v1a4 4 0 1 0 0 8v4c-.87 0-1.611-.555-1.887-1.333a1 1 0 1 0-1.885.666A4.001 4.001 0 0 0 23 36v1h2v-1a4 4 0 0 0 0-8v-4a2 2 0 0 1 1.886 1.333a1 1 0 1 0 1.886-.666ZM23 24a2 2 0 1 0 0 4v-4Zm2 10a2 2 0 1 0 0-4v4Z"/>
    <path d="M13.153 8.621C15.607 7.42 19.633 6 24.039 6c4.314 0 8.234 1.361 10.675 2.546l.138.067c.736.364 1.33.708 1.748.987L32.906 15C41.422 23.706 48 41.997 24.039 41.997S6.479 24.038 15.069 15l-3.67-5.4c.283-.185.642-.4 1.07-.628c.212-.114.44-.231.684-.35Zm17.379 6.307l2.957-4.323c-2.75.198-6.022.844-9.172 1.756c-2.25.65-4.75.551-7.065.124a25.167 25.167 0 0 1-1.737-.386l1.92 2.827c4.115 1.465 8.981 1.465 13.097.002ZM16.28 16.63c4.815 1.86 10.602 1.86 15.417-.002a29.255 29.255 0 0 1 4.988 7.143c1.352 2.758 2.088 5.515 1.968 7.891c-.116 2.293-1.018 4.252-3.078 5.708c-2.147 1.517-5.758 2.627-11.537 2.627c-5.785 0-9.413-1.091-11.58-2.591c-2.075-1.438-2.986-3.37-3.115-5.632c-.135-2.35.585-5.093 1.932-7.87c1.285-2.648 3.078-5.197 5.005-7.274Zm-1.15-6.714c.8.238 1.636.445 2.484.602c2.15.396 4.306.454 6.146-.079a54.097 54.097 0 0 1 6.53-1.471C28.45 8.414 26.298 8 24.038 8c-3.445 0-6.658.961-8.908 1.916Z"/>
  </g>
</symbol>
<symbol id="party" preserveAspectRatio="xMidYMid meet" viewBox="0 0 256 268">
  <path fill="#FF37AD" d="M22.498 68.97a11.845 11.845 0 1 0 0-23.687c-6.471.098-11.666 5.372-11.666 11.844c0 6.472 5.195 11.746 11.666 11.844Zm181.393-10.04a11.845 11.845 0 1 0-.003-23.688c-6.471.098-11.665 5.373-11.665 11.845c.001 6.472 5.197 11.745 11.668 11.842Z"/>
  <path fill="#FCC954" d="M213.503 211.097a11.845 11.845 0 1 0-.003-23.687c-6.471.098-11.665 5.373-11.664 11.845c0 6.472 5.196 11.745 11.667 11.842ZM70.872 23.689a11.845 11.845 0 1 0 0-23.688C64.4.1 59.206 5.373 59.206 11.845c0 6.472 5.195 11.746 11.666 11.844Z"/>
  <path fill="#2890E9" d="M140.945 105.94a9.249 9.249 0 0 1-8.974-11.484c.37-1.482.672-2.97.899-4.455a25.404 25.404 0 0 1-8.732 1.904c-5.379.205-10.195-.702-14.3-2.69a22.227 22.227 0 0 1-9.614-8.877c-4.415-7.652-4.034-17.718.964-25.645c4.765-7.568 12.836-11.664 21.586-10.995c6.74.527 12.647 3.051 17.378 7.382c.861-2.43 1.687-5.033 2.473-7.803c4.833-17.058 6.429-34.187 6.442-34.36a9.24 9.24 0 0 1 10.041-8.37a9.248 9.248 0 0 1 8.37 10.044c-.067.767-1.768 19.03-7.068 37.735c-2.676 9.445-5.838 17.426-9.42 23.798c.264 1.42.475 2.878.631 4.372c.746 7.211.152 14.974-1.714 22.445a9.256 9.256 0 0 1-8.962 6.998Zm-20.123-43.827c-.956 0-2.64.28-3.996 2.43c-1.298 2.06-1.552 4.873-.588 6.544c1.282 2.223 5.054 2.417 7.19 2.336c2.424-.092 4.908-1.612 7.338-4.382a16.203 16.203 0 0 0-1.43-2.422c-2.007-2.787-4.547-4.212-7.998-4.482c-.13-.008-.305-.024-.516-.024Z"/>
  <path fill="#F0A420" d="M114.361 131.268c-38.343-30.224-78.42-43.319-89.514-29.246a12.803 12.803 0 0 0-2.257 4.509a3.967 3.967 0 0 0-.156.61v.024c-.149.632-.26 1.27-.333 1.917L.393 236.18c-3.477 20.412 16.73 36.755 35.967 29.093l117.721-46.908c2.076-.826 7.185-3.982 8.583-5.724c.37-.362.717-.747 1.037-1.153c11.092-14.075-11-49.988-49.34-80.223v.003Z"/>
  <path fill="#FCC954" d="M163.688 211.494c11.1-14.08-10.984-50-49.327-80.226c-38.343-30.227-78.425-43.316-89.524-29.236c-11.1 14.08 10.983 50 49.326 80.226c38.343 30.227 78.425 43.316 89.525 29.236Z"/>
  <path fill="#F0A420" d="M156.994 203.294c9.108-11.556-10.956-42.563-44.817-69.256c-33.861-26.695-68.697-38.966-77.804-27.413c-9.11 11.556 10.954 42.563 44.815 69.256c33.86 26.695 68.697 38.969 77.806 27.413Z"/>
  <path fill="#2E6AC9" d="M76.059 249.456c-14.327.07-26.004-7.101-40.158-18.257C19.431 218.21 8.493 202.665 7.63 193.81l-4.668 27.327c2.16 7.798 9.523 17.683 20.202 26.101c8.883 7.004 17.844 11.813 27.135 12.48l25.76-10.266v.003Zm-14.332-49.6c-27.443-21.637-45.271-46.467-44.77-60.669l-4.549 26.63c.351 12.685 15.175 33.184 36.262 49.808c18.894 14.896 38.583 25.38 53.66 23.363l25.593-10.2c-20.62 1.425-42.376-10.147-66.196-28.931Z"/>
  <path fill="#2890E9" d="M118.535 145.052a11.845 11.845 0 1 0 0-23.688c-6.471.098-11.666 5.372-11.666 11.844c0 6.472 5.195 11.746 11.666 11.844Z"/>
  <path fill="#FF37AD" d="m182.412 122.007l.087-.097c.108-.116.308-.33.596-.621a45.36 45.36 0 0 1 2.8-2.56c3.56-2.98 7.45-5.54 11.594-7.63c10.128-5.125 25.208-9.307 44.985-4.747c5.943 1.37 11.87-2.336 13.241-8.278c1.37-5.942-2.336-11.87-8.278-13.24c-25.602-5.903-45.957-.506-59.922 6.566a82.52 82.52 0 0 0-15.857 10.449a65.47 65.47 0 0 0-4.215 3.866a45.348 45.348 0 0 0-1.53 1.615l-.12.135l-.042.048l-.02.022l-.007.008c-.003.005-.009.01 8.361 7.21l-8.37-7.2c-3.877 4.622-3.328 11.5 1.233 15.448c4.561 3.948 11.446 3.506 15.464-.994ZM73.03 43.248a11.748 11.748 0 0 0-16.23-3.664a11.759 11.759 0 0 0-3.665 16.227c.427.683 9.178 14.86 10.976 34.276c1.83 19.727-3.966 37.86-17.253 54.12c4.474 5.686 9.858 11.596 16.008 17.507c8.51-9.834 14.913-20.402 19.12-31.583c5.175-13.756 7.006-28.342 5.445-43.348c-2.487-23.874-12.874-41.11-14.402-43.535Z"/>
  <path fill="#2890E9" d="M220.242 156.578c6.002 1.553 10.244 3.246 12.077 4.034a11.858 11.858 0 0 0 13.94-1.12a11.867 11.867 0 0 0 4.107-8.765a11.848 11.848 0 0 0-8.06-11.426c-5.618-2.495-26.905-10.92-55.044-9.423c-18.941 1.007-37.155 6.253-54.133 15.608c-16.076 8.86-31.004 21.412-44.556 37.425a198.603 198.603 0 0 0 20.17 12.607c22.882-26.08 49.283-40.217 78.7-42.085a105.86 105.86 0 0 1 32.8 3.145Z"/>
</symbol>
<symbol id="provider" preserveAspectRatio="xMidYMid meet" viewBox="0 0 24 24">
  <path fill="currentColor" d="M12 13q1.45 0 2.475-1.025Q15.5 10.95 15.5 9.5q0-1.45-1.025-2.475Q13.45 6 12 6q-1.45 0-2.475 1.025Q8.5 8.05 8.5 9.5q0 1.45 1.025 2.475Q10.55 13 12 13Zm0-2q-.625 0-1.062-.438q-.438-.437-.438-1.062t.438-1.062Q11.375 8 12 8t1.062.438q.438.437.438 1.062t-.438 1.062Q12.625 11 12 11Zm0 11.5L3 17V7l9-5.5L21 7v10Zm0-2.35l3.675-2.25q-.825-.425-1.75-.662Q13 17 12 17t-1.925.238q-.925.237-1.75.662Zm-5.6-3.425q1.2-.825 2.613-1.275Q10.425 15 12 15q1.575 0 2.988.45q1.412.45 2.612 1.275l1.4-.85v-7.75L12 3.85L5 8.125v7.75Zm5.6-6.45Z"/>
</symbol>
<symbol id="purchase" preserveAspectRatio="xMidYMid meet" viewBox="0 0 32 32">
  <path fill="currentColor" d="M28 6H4a2 2 0 0 0-2 2v16a2 2 0 0 0 2 2h24a2 2 0 0 0 2-2V8a2 2 0 0 0-2-2Zm0 2v3H4V8ZM4 24V13h24v11Z"/>
  <path fill="currentColor" d="M6 20h10v2H6z"/>
</symbol>
<symbol id="store" preserveAspectRatio="xMidYMid meet" viewBox="0 0 24 24">
  <path fill="currentColor" d="M5.025 21q-.825 0-1.412-.587q-.588-.588-.588-1.413v-7.95q-.575-.525-.887-1.35q-.313-.825-.013-1.8l1.05-3.4q.2-.65.713-1.075Q4.4 3 5.075 3h13.9q.675 0 1.175.412q.5.413.725 1.088l1.05 3.4q.3.975-.012 1.775q-.313.8-.888 1.375V19q0 .825-.587 1.413q-.588.587-1.413.587Zm9.2-11q.675 0 1.025-.463q.35-.462.275-1.037l-.55-3.5h-1.95v3.7q0 .525.35.913q.35.387.85.387Zm-4.5 0q.575 0 .938-.387q.362-.388.362-.913V5h-1.95l-.55 3.5q-.1.6.263 1.05q.362.45.937.45Zm-4.45 0q.45 0 .787-.325q.338-.325.413-.825L7.025 5h-1.95l-1 3.35q-.15.5.162 1.075Q4.55 10 5.275 10Zm13.5 0q.725 0 1.05-.575q.325-.575.15-1.075L18.925 5h-1.9l.55 3.85q.075.5.413.825q.337.325.787.325Zm-13.75 9h14v-7.05q-.125.05-.162.05h-.088q-.675 0-1.188-.225q-.512-.225-1.012-.725q-.45.45-1.025.7q-.575.25-1.225.25q-.675 0-1.263-.25q-.587-.25-1.037-.7q-.425.45-.987.7q-.563.25-1.213.25q-.725 0-1.313-.25q-.587-.25-1.037-.7q-.525.525-1.037.737Q5.925 12 5.275 12h-.112q-.063 0-.138-.05V19Zm14 0h-14h14Z"/>
</symbol>
</svg>