<svg xmlns="http://www.w3.org/2000/svg" xmlns:xlink="http://www.w3.org/1999/xlink">
<symbol id="coupon" preserveAspectRatio="xMidYMid meet" viewBox="0 0 24 24">
  <path fill="currentColor" d="M2 9.5V4a1 1 0 0 1 1-1h18a1 1 0 0 1 1 1v5.5a2.5 2.5 0 1 0 0 5V20a1 1 0 0 1-1 1H3a1 1 0 0 1-1-1v-5.5a2.5 2.5 0 1 0 0-5zM14 5H4v2.968a4.5 4.5 0 0 1 0 8.064V19h10V5zm2 0v14h4v-2.968a4.5 4.5 0 0 1 0-8.064V5h-4z"/>
</symbol>
<symbol id="course" preserveAspectRatio="xMidYMid meet" viewBox="0 0 32 32">
  <path fill="currentColor" d="M24 30H8a2.002 2.002 0 0 1-2-2V4a2.002 2.002 0 0 1 2-2h16a2.002 2.002 0 0 1 2 2v16.618l-5-2.5l-5 2.5V4H8v24h16v-4h2v4a2.003 2.003 0 0 1-2 2Zm-3-14.118l3 1.5V4h-6v13.382Z"/>
</symbol>
<symbol id="distribution" preserveAspectRatio="xMidYMid meet" viewBox="0 0 24 24">
  <path fill="currentColor" d="M19 2a1 1 0 0 0-1 1v1h-5a1 1 0 0 0-1 1v14a1 1 0 0 0 1 1h5v1a1 1 0 0 0 2 0V3a1 1 0 0 0-1-1Zm-1 16h-4V6h4ZM9 2a1 1 0 0 0-1 1v2H5a1 1 0 0 0-1 1v12a1 1 0 0 0 1 1h3v2a1 1 0 0 0 2 0V3a1 1 0 0 0-1-1ZM8 17H6V7h2Z"/>
</symbol>
<symbol id="kitchen-set" preserveAspectRatio="xMidYMid meet" viewBox="0 0 576 512">
  <path fill="currentColor" d="M80 144c0-35.3 28.7-64 64-64s64 28.7 64 64s-28.7 64-64 64s-64-28.7-64-64zm204.4 32c-14.5 64.1-71.9 112-140.4 112C64.47 288 0 223.5 0 144C0 64.47 64.47 0 144 0c68.5 0 125.9 47.87 140.4 112h71.8c8.8-9.8 21.6-16 35.8-16h104c26.5 0 48 21.5 48 48s-21.5 48-48 48H392c-14.2 0-27-6.2-35.8-16h-71.8zM144 48c-53.02 0-96 42.98-96 96c0 53 42.98 96 96 96c53 0 96-43 96-96c0-53.02-43-96-96-96zm280 216v8h96c13.3 0 24 10.7 24 24s-10.7 24-24 24H280c-13.3 0-24-10.7-24-24s10.7-24 24-24h96v-8c0-13.3 10.7-24 24-24s24 10.7 24 24zM288 464V352h224v112c0 26.5-21.5 48-48 48H336c-26.5 0-48-21.5-48-48zM176 320c26.5 0 48 21.5 48 48s-21.5 48-48 48h-16c0 17.7-14.3 32-32 32H64c-17.67 0-32-14.3-32-32v-80c0-8.8 7.16-16 16-16h128zm16 48c0-8.8-7.2-16-16-16h-16v32h16c8.8 0 16-7.2 16-16zm8 96c13.3 0 24 10.7 24 24s-10.7 24-24 24H24c-13.25 0-24-10.7-24-24s10.75-24 24-24h176z"/>
</symbol>
<symbol id="party" preserveAspectRatio="xMidYMid meet" viewBox="0 0 256 268">
  <path fill="#FF37AD" d="M22.498 68.97a11.845 11.845 0 1 0 0-23.687c-6.471.098-11.666 5.372-11.666 11.844c0 6.472 5.195 11.746 11.666 11.844Zm181.393-10.04a11.845 11.845 0 1 0-.003-23.688c-6.471.098-11.665 5.373-11.665 11.845c.001 6.472 5.197 11.745 11.668 11.842Z"/>
  <path fill="#FCC954" d="M213.503 211.097a11.845 11.845 0 1 0-.003-23.687c-6.471.098-11.665 5.373-11.664 11.845c0 6.472 5.196 11.745 11.667 11.842ZM70.872 23.689a11.845 11.845 0 1 0 0-23.688C64.4.1 59.206 5.373 59.206 11.845c0 6.472 5.195 11.746 11.666 11.844Z"/>
  <path fill="#2890E9" d="M140.945 105.94a9.249 9.249 0 0 1-8.974-11.484c.37-1.482.672-2.97.899-4.455a25.404 25.404 0 0 1-8.732 1.904c-5.379.205-10.195-.702-14.3-2.69a22.227 22.227 0 0 1-9.614-8.877c-4.415-7.652-4.034-17.718.964-25.645c4.765-7.568 12.836-11.664 21.586-10.995c6.74.527 12.647 3.051 17.378 7.382c.861-2.43 1.687-5.033 2.473-7.803c4.833-17.058 6.429-34.187 6.442-34.36a9.24 9.24 0 0 1 10.041-8.37a9.248 9.248 0 0 1 8.37 10.044c-.067.767-1.768 19.03-7.068 37.735c-2.676 9.445-5.838 17.426-9.42 23.798c.264 1.42.475 2.878.631 4.372c.746 7.211.152 14.974-1.714 22.445a9.256 9.256 0 0 1-8.962 6.998Zm-20.123-43.827c-.956 0-2.64.28-3.996 2.43c-1.298 2.06-1.552 4.873-.588 6.544c1.282 2.223 5.054 2.417 7.19 2.336c2.424-.092 4.908-1.612 7.338-4.382a16.203 16.203 0 0 0-1.43-2.422c-2.007-2.787-4.547-4.212-7.998-4.482c-.13-.008-.305-.024-.516-.024Z"/>
  <path fill="#F0A420" d="M114.361 131.268c-38.343-30.224-78.42-43.319-89.514-29.246a12.803 12.803 0 0 0-2.257 4.509a3.967 3.967 0 0 0-.156.61v.024c-.149.632-.26 1.27-.333 1.917L.393 236.18c-3.477 20.412 16.73 36.755 35.967 29.093l117.721-46.908c2.076-.826 7.185-3.982 8.583-5.724c.37-.362.717-.747 1.037-1.153c11.092-14.075-11-49.988-49.34-80.223v.003Z"/>
  <path fill="#FCC954" d="M163.688 211.494c11.1-14.08-10.984-50-49.327-80.226c-38.343-30.227-78.425-43.316-89.524-29.236c-11.1 14.08 10.983 50 49.326 80.226c38.343 30.227 78.425 43.316 89.525 29.236Z"/>
  <path fill="#F0A420" d="M156.994 203.294c9.108-11.556-10.956-42.563-44.817-69.256c-33.861-26.695-68.697-38.966-77.804-27.413c-9.11 11.556 10.954 42.563 44.815 69.256c33.86 26.695 68.697 38.969 77.806 27.413Z"/>
  <path fill="#2E6AC9" d="M76.059 249.456c-14.327.07-26.004-7.101-40.158-18.257C19.431 218.21 8.493 202.665 7.63 193.81l-4.668 27.327c2.16 7.798 9.523 17.683 20.202 26.101c8.883 7.004 17.844 11.813 27.135 12.48l25.76-10.266v.003Zm-14.332-49.6c-27.443-21.637-45.271-46.467-44.77-60.669l-4.549 26.63c.351 12.685 15.175 33.184 36.262 49.808c18.894 14.896 38.583 25.38 53.66 23.363l25.593-10.2c-20.62 1.425-42.376-10.147-66.196-28.931Z"/>
  <path fill="#2890E9" d="M118.535 145.052a11.845 11.845 0 1 0 0-23.688c-6.471.098-11.666 5.372-11.666 11.844c0 6.472 5.195 11.746 11.666 11.844Z"/>
  <path fill="#FF37AD" d="m182.412 122.007l.087-.097c.108-.116.308-.33.596-.621a45.36 45.36 0 0 1 2.8-2.56c3.56-2.98 7.45-5.54 11.594-7.63c10.128-5.125 25.208-9.307 44.985-4.747c5.943 1.37 11.87-2.336 13.241-8.278c1.37-5.942-2.336-11.87-8.278-13.24c-25.602-5.903-45.957-.506-59.922 6.566a82.52 82.52 0 0 0-15.857 10.449a65.47 65.47 0 0 0-4.215 3.866a45.348 45.348 0 0 0-1.53 1.615l-.12.135l-.042.048l-.02.022l-.007.008c-.003.005-.009.01 8.361 7.21l-8.37-7.2c-3.877 4.622-3.328 11.5 1.233 15.448c4.561 3.948 11.446 3.506 15.464-.994ZM73.03 43.248a11.748 11.748 0 0 0-16.23-3.664a11.759 11.759 0 0 0-3.665 16.227c.427.683 9.178 14.86 10.976 34.276c1.83 19.727-3.966 37.86-17.253 54.12c4.474 5.686 9.858 11.596 16.008 17.507c8.51-9.834 14.913-20.402 19.12-31.583c5.175-13.756 7.006-28.342 5.445-43.348c-2.487-23.874-12.874-41.11-14.402-43.535Z"/>
  <path fill="#2890E9" d="M220.242 156.578c6.002 1.553 10.244 3.246 12.077 4.034a11.858 11.858 0 0 0 13.94-1.12a11.867 11.867 0 0 0 4.107-8.765a11.848 11.848 0 0 0-8.06-11.426c-5.618-2.495-26.905-10.92-55.044-9.423c-18.941 1.007-37.155 6.253-54.133 15.608c-16.076 8.86-31.004 21.412-44.556 37.425a198.603 198.603 0 0 0 20.17 12.607c22.882-26.08 49.283-40.217 78.7-42.085a105.86 105.86 0 0 1 32.8 3.145Z"/>
</symbol>
<symbol id="provider" preserveAspectRatio="xMidYMid meet" viewBox="0 0 24 24">
  <path fill="currentColor" d="M12 13q1.45 0 2.475-1.025Q15.5 10.95 15.5 9.5q0-1.45-1.025-2.475Q13.45 6 12 6q-1.45 0-2.475 1.025Q8.5 8.05 8.5 9.5q0 1.45 1.025 2.475Q10.55 13 12 13Zm0-2q-.625 0-1.062-.438q-.438-.437-.438-1.062t.438-1.062Q11.375 8 12 8t1.062.438q.438.437.438 1.062t-.438 1.062Q12.625 11 12 11Zm0 11.5L3 17V7l9-5.5L21 7v10Zm0-2.35l3.675-2.25q-.825-.425-1.75-.662Q13 17 12 17t-1.925.238q-.925.237-1.75.662Zm-5.6-3.425q1.2-.825 2.613-1.275Q10.425 15 12 15q1.575 0 2.988.45q1.412.45 2.612 1.275l1.4-.85v-7.75L12 3.85L5 8.125v7.75Zm5.6-6.45Z"/>
</symbol>
<symbol id="purchase" preserveAspectRatio="xMidYMid meet" viewBox="0 0 32 32">
  <path fill="currentColor" d="M28 6H4a2 2 0 0 0-2 2v16a2 2 0 0 0 2 2h24a2 2 0 0 0 2-2V8a2 2 0 0 0-2-2Zm0 2v3H4V8ZM4 24V13h24v11Z"/>
  <path fill="currentColor" d="M6 20h10v2H6z"/>
</symbol>
<symbol id="store" preserveAspectRatio="xMidYMid meet" viewBox="0 0 24 24">
  <path fill="currentColor" d="M5.025 21q-.825 0-1.412-.587q-.588-.588-.588-1.413v-7.95q-.575-.525-.887-1.35q-.313-.825-.013-1.8l1.05-3.4q.2-.65.713-1.075Q4.4 3 5.075 3h13.9q.675 0 1.175.412q.5.413.725 1.088l1.05 3.4q.3.975-.012 1.775q-.313.8-.888 1.375V19q0 .825-.587 1.413q-.588.587-1.413.587Zm9.2-11q.675 0 1.025-.463q.35-.462.275-1.037l-.55-3.5h-1.95v3.7q0 .525.35.913q.35.387.85.387Zm-4.5 0q.575 0 .938-.387q.362-.388.362-.913V5h-1.95l-.55 3.5q-.1.6.263 1.05q.362.45.937.45Zm-4.45 0q.45 0 .787-.325q.338-.325.413-.825L7.025 5h-1.95l-1 3.35q-.15.5.162 1.075Q4.55 10 5.275 10Zm13.5 0q.725 0 1.05-.575q.325-.575.15-1.075L18.925 5h-1.9l.55 3.85q.075.5.413.825q.337.325.787.325Zm-13.75 9h14v-7.05q-.125.05-.162.05h-.088q-.675 0-1.188-.225q-.512-.225-1.012-.725q-.45.45-1.025.7q-.575.25-1.225.25q-.675 0-1.263-.25q-.587-.25-1.037-.7q-.425.45-.987.7q-.563.25-1.213.25q-.725 0-1.313-.25q-.587-.25-1.037-.7q-.525.525-1.037.737Q5.925 12 5.275 12h-.112q-.063 0-.138-.05V19Zm14 0h-14h14Z"/>
</symbol>
</svg>