<svg xmlns="http://www.w3.org/2000/svg" xmlns:xlink="http://www.w3.org/1999/xlink">
<symbol id="add" preserveAspectRatio="xMidYMid meet" viewBox="0 0 24 24">
  <path fill="currentColor" d="M19 13h-6v6h-2v-6H5v-2h6V5h2v6h6v2z"/>
</symbol>
<symbol id="close" preserveAspectRatio="xMidYMid meet" viewBox="0 0 24 24">
  <path fill="currentColor" d="M19 6.41L17.59 5L12 10.59L6.41 5L5 6.41L10.59 12L5 17.59L6.41 19L12 13.41L17.59 19L19 17.59L13.41 12z"/>
</symbol>
<symbol id="star-filled" preserveAspectRatio="xMidYMid meet" viewBox="0 0 1024 1024">
  <path fill="currentColor" d="m908.1 353.1l-253.9-36.9L540.7 86.1c-3.1-6.3-8.2-11.4-14.5-14.5c-15.8-7.8-35-1.3-42.9 14.5L369.8 316.2l-253.9 36.9c-7 1-13.4 4.3-18.3 9.3a32.05 32.05 0 0 0 .6 45.3l183.7 179.1l-43.4 252.9a31.95 31.95 0 0 0 46.4 33.7L512 754l227.1 119.4c6.2 3.3 13.4 4.4 20.3 3.2c17.4-3 29.1-19.5 26.1-36.9l-43.4-252.9l183.7-179.1c5-4.9 8.3-11.3 9.3-18.3c2.7-17.5-9.5-33.7-27-36.3z"/>
</symbol>
</svg>