<svg xmlns="http://www.w3.org/2000/svg" xmlns:xlink="http://www.w3.org/1999/xlink">
<symbol id="add" preserveAspectRatio="xMidYMid meet" viewBox="0 0 24 24">
  <path fill="currentColor" d="M19 13h-6v6h-2v-6H5v-2h6V5h2v6h6v2z"/>
</symbol>
<symbol id="close" preserveAspectRatio="xMidYMid meet" viewBox="0 0 24 24">
  <path fill="currentColor" d="M19 6.41L17.59 5L12 10.59L6.41 5L5 6.41L10.59 12L5 17.59L6.41 19L12 13.41L17.59 19L19 17.59L13.41 12z"/>
</symbol>
<symbol id="comment-dots" preserveAspectRatio="xMidYMid meet" viewBox="0 0 512 512">
  <path fill="currentColor" d="M144 208c-17.7 0-32 14.3-32 32s14.3 32 32 32s32-14.3 32-32s-14.3-32-32-32zm112 0c-17.7 0-32 14.3-32 32s14.3 32 32 32s32-14.3 32-32s-14.3-32-32-32zm112 0c-17.7 0-32 14.3-32 32s14.3 32 32 32s32-14.3 32-32s-14.3-32-32-32zM256 32C114.6 32 0 125.1 0 240c0 47.6 19.9 91.2 52.9 126.3C38 405.7 7 439.1 6.5 439.5c-6.6 7-8.4 17.2-4.6 26S14.4 480 24 480c61.5 0 110-25.7 139.1-46.3C192 442.8 223.2 448 256 448c141.4 0 256-93.1 256-208S397.4 32 256 32zm0 368c-26.7 0-53.1-4.1-78.4-12.1l-22.7-7.2l-19.5 13.8c-14.3 10.1-33.9 21.4-57.5 29c7.3-12.1 14.4-25.7 19.9-40.2l10.6-28.1l-20.6-21.8C69.7 314.1 48 282.2 48 240c0-88.2 93.3-160 208-160s208 71.8 208 160s-93.3 160-208 160z"/>
</symbol>
<symbol id="star-filled" preserveAspectRatio="xMidYMid meet" viewBox="0 0 1024 1024">
  <path fill="currentColor" d="m908.1 353.1l-253.9-36.9L540.7 86.1c-3.1-6.3-8.2-11.4-14.5-14.5c-15.8-7.8-35-1.3-42.9 14.5L369.8 316.2l-253.9 36.9c-7 1-13.4 4.3-18.3 9.3a32.05 32.05 0 0 0 .6 45.3l183.7 179.1l-43.4 252.9a31.95 31.95 0 0 0 46.4 33.7L512 754l227.1 119.4c6.2 3.3 13.4 4.4 20.3 3.2c17.4-3 29.1-19.5 26.1-36.9l-43.4-252.9l183.7-179.1c5-4.9 8.3-11.3 9.3-18.3c2.7-17.5-9.5-33.7-27-36.3z"/>
</symbol>
</svg>