<svg xmlns="http://www.w3.org/2000/svg" xmlns:xlink="http://www.w3.org/1999/xlink">
<symbol id="add" preserveAspectRatio="xMidYMid meet" viewBox="0 0 24 24">
  <path fill="currentColor" d="M19 13h-6v6h-2v-6H5v-2h6V5h2v6h6v2z"/>
</symbol>
<symbol id="attachment-line" preserveAspectRatio="xMidYMid meet" viewBox="0 0 36 36">
  <path fill="currentColor" d="M8.42 32.6A6.3 6.3 0 0 1 4 30.79l-.13-.13A6.2 6.2 0 0 1 2 26.22a6.77 6.77 0 0 1 2-4.82L19.5 6.07a8.67 8.67 0 0 1 12.15-.35A8 8 0 0 1 34 11.44a9 9 0 0 1-2.7 6.36L17.37 31.6A1 1 0 1 1 16 30.18l13.89-13.8A7 7 0 0 0 32 11.44a6 6 0 0 0-1.76-4.3a6.67 6.67 0 0 0-9.34.35L5.45 22.82A4.78 4.78 0 0 0 4 26.22a4.21 4.21 0 0 0 1.24 3l.13.13a4.64 4.64 0 0 0 6.5-.21l13.35-13.2A2.7 2.7 0 0 0 26 14a2.35 2.35 0 0 0-.69-1.68a2.61 2.61 0 0 0-3.66.13l-9.2 9.12a1 1 0 1 1-1.41-1.42L20.28 11a4.62 4.62 0 0 1 6.48-.13A4.33 4.33 0 0 1 28 14a4.68 4.68 0 0 1-1.41 3.34L13.28 30.58a6.91 6.91 0 0 1-4.86 2.02Z" class="clr-i-outline clr-i-outline-path-1"/>
  <path fill="none" d="M0 0h36v36H0z"/>
</symbol>
<symbol id="chevron-left" preserveAspectRatio="xMidYMid meet" viewBox="0 0 20 20">
  <path fill="currentColor" d="M12.452 4.516c.446.436.481 1.043 0 1.576L8.705 10l3.747 3.908c.481.533.446 1.141 0 1.574c-.445.436-1.197.408-1.615 0c-.418-.406-4.502-4.695-4.502-4.695a1.095 1.095 0 0 1 0-1.576s4.084-4.287 4.502-4.695c.418-.409 1.17-.436 1.615 0z"/>
</symbol>
<symbol id="chevron-right" preserveAspectRatio="xMidYMid meet" viewBox="0 0 20 20">
  <path fill="currentColor" d="M9.163 4.516c.418.408 4.502 4.695 4.502 4.695a1.095 1.095 0 0 1 0 1.576s-4.084 4.289-4.502 4.695c-.418.408-1.17.436-1.615 0c-.446-.434-.481-1.041 0-1.574L11.295 10L7.548 6.092c-.481-.533-.446-1.141 0-1.576c.445-.436 1.197-.409 1.615 0z"/>
</symbol>
<symbol id="close" preserveAspectRatio="xMidYMid meet" viewBox="0 0 24 24">
  <path fill="currentColor" d="M19 6.41L17.59 5L12 10.59L6.41 5L5 6.41L10.59 12L5 17.59L6.41 19L12 13.41L17.59 19L19 17.59L13.41 12z"/>
</symbol>
<symbol id="comment-dots" preserveAspectRatio="xMidYMid meet" viewBox="0 0 512 512">
  <path fill="currentColor" d="M144 208c-17.7 0-32 14.3-32 32s14.3 32 32 32s32-14.3 32-32s-14.3-32-32-32zm112 0c-17.7 0-32 14.3-32 32s14.3 32 32 32s32-14.3 32-32s-14.3-32-32-32zm112 0c-17.7 0-32 14.3-32 32s14.3 32 32 32s32-14.3 32-32s-14.3-32-32-32zM256 32C114.6 32 0 125.1 0 240c0 47.6 19.9 91.2 52.9 126.3C38 405.7 7 439.1 6.5 439.5c-6.6 7-8.4 17.2-4.6 26S14.4 480 24 480c61.5 0 110-25.7 139.1-46.3C192 442.8 223.2 448 256 448c141.4 0 256-93.1 256-208S397.4 32 256 32zm0 368c-26.7 0-53.1-4.1-78.4-12.1l-22.7-7.2l-19.5 13.8c-14.3 10.1-33.9 21.4-57.5 29c7.3-12.1 14.4-25.7 19.9-40.2l10.6-28.1l-20.6-21.8C69.7 314.1 48 282.2 48 240c0-88.2 93.3-160 208-160s208 71.8 208 160s-93.3 160-208 160z"/>
</symbol>
<symbol id="cross-circle-filled" preserveAspectRatio="xMidYMid meet" viewBox="0 0 24 24">
  <path fill="currentColor" d="M19.1 4.9C15.2 1 8.8 1 4.9 4.9S1 15.2 4.9 19.1s10.2 3.9 14.1 0s4-10.3.1-14.2zm-4.3 11.3L12 13.4l-2.8 2.8l-1.4-1.4l2.8-2.8l-2.8-2.8l1.4-1.4l2.8 2.8l2.8-2.8l1.4 1.4l-2.8 2.8l2.8 2.8l-1.4 1.4z"/>
</symbol>
<symbol id="done" preserveAspectRatio="xMidYMid meet" viewBox="0 0 24 24">
  <path fill="currentColor" d="m9 16.2l-3.5-3.5a.984.984 0 0 0-1.4 0a.984.984 0 0 0 0 1.4l4.19 4.19c.39.39 1.02.39 1.41 0L20.3 7.7a.984.984 0 0 0 0-1.4a.984.984 0 0 0-1.4 0L9 16.2z"/>
</symbol>
<symbol id="edit" preserveAspectRatio="xMidYMid meet" viewBox="0 0 24 24">
  <path fill="currentColor" d="M4.42 20.579a1 1 0 0 1-.737-.326a.988.988 0 0 1-.263-.764l.245-2.694L14.983 5.481l3.537 3.536L7.205 20.33l-2.694.245a.95.95 0 0 1-.091.004ZM19.226 8.31L15.69 4.774l2.121-2.121a1 1 0 0 1 1.415 0l2.121 2.121a1 1 0 0 1 0 1.415l-2.12 2.12l-.001.001Z"/>
</symbol>
<symbol id="info-circle-filled" preserveAspectRatio="xMidYMid meet" viewBox="0 0 1024 1024">
  <path fill="currentColor" d="M512 64C264.6 64 64 264.6 64 512s200.6 448 448 448s448-200.6 448-448S759.4 64 512 64zm32 664c0 4.4-3.6 8-8 8h-48c-4.4 0-8-3.6-8-8V456c0-4.4 3.6-8 8-8h48c4.4 0 8 3.6 8 8v272zm-32-344a48.01 48.01 0 0 1 0-96a48.01 48.01 0 0 1 0 96z"/>
</symbol>
<symbol id="label-outline" preserveAspectRatio="xMidYMid meet" viewBox="0 0 24 24">
  <path fill="currentColor" d="M17.63 5.84C17.27 5.33 16.67 5 16 5L5 5.01C3.9 5.01 3 5.9 3 7v10c0 1.1.9 1.99 2 1.99L16 19c.67 0 1.27-.33 1.63-.84L22 12l-4.37-6.16zM16 17H5V7h11l3.55 5L16 17z"/>
</symbol>
<symbol id="label" preserveAspectRatio="xMidYMid meet" viewBox="0 0 24 24">
  <path fill="currentColor" d="M17.63 5.84C17.27 5.33 16.67 5 16 5L5 5.01C3.9 5.01 3 5.9 3 7v10c0 1.1.9 1.99 2 1.99L16 19c.67 0 1.27-.33 1.63-.84l3.96-5.58a.99.99 0 0 0 0-1.16l-3.96-5.58z"/>
</symbol>
<symbol id="more-horiz" preserveAspectRatio="xMidYMid meet" viewBox="0 0 24 24">
  <path fill="currentColor" d="M6 10c-1.1 0-2 .9-2 2s.9 2 2 2s2-.9 2-2s-.9-2-2-2zm12 0c-1.1 0-2 .9-2 2s.9 2 2 2s2-.9 2-2s-.9-2-2-2zm-6 0c-1.1 0-2 .9-2 2s.9 2 2 2s2-.9 2-2s-.9-2-2-2z"/>
</symbol>
<symbol id="preview" preserveAspectRatio="xMidYMid meet" viewBox="0 0 24 24">
  <path fill="currentColor" d="M19 3H5a2 2 0 0 0-2 2v14a2 2 0 0 0 2 2h14c1.1 0 2-.9 2-2V5a2 2 0 0 0-2-2zm0 16H5V7h14v12zm-5.5-6c0 .83-.67 1.5-1.5 1.5s-1.5-.67-1.5-1.5s.67-1.5 1.5-1.5s1.5.67 1.5 1.5zM12 9c-2.73 0-5.06 1.66-6 4c.94 2.34 3.27 4 6 4s5.06-1.66 6-4c-.94-2.34-3.27-4-6-4zm0 6.5a2.5 2.5 0 0 1 0-5a2.5 2.5 0 0 1 0 5z"/>
</symbol>
<symbol id="save" preserveAspectRatio="xMidYMid meet" viewBox="0 0 448 512">
  <path fill="currentColor" d="m433.941 129.941l-83.882-83.882A48 48 0 0 0 316.118 32H48C21.49 32 0 53.49 0 80v352c0 26.51 21.49 48 48 48h352c26.51 0 48-21.49 48-48V163.882a48 48 0 0 0-14.059-33.941zM224 416c-35.346 0-64-28.654-64-64c0-35.346 28.654-64 64-64s64 28.654 64 64c0 35.346-28.654 64-64 64zm96-304.52V212c0 6.627-5.373 12-12 12H76c-6.627 0-12-5.373-12-12V108c0-6.627 5.373-12 12-12h228.52c3.183 0 6.235 1.264 8.485 3.515l3.48 3.48A11.996 11.996 0 0 1 320 111.48z"/>
</symbol>
<symbol id="star-filled" preserveAspectRatio="xMidYMid meet" viewBox="0 0 32 32">
  <path fill="currentColor" d="m16 2l-4.55 9.22l-10.17 1.47l7.36 7.18L6.9 30l9.1-4.78L25.1 30l-1.74-10.13l7.36-7.17l-10.17-1.48Z"/>
</symbol>
<symbol id="star-outline" preserveAspectRatio="xMidYMid meet" viewBox="0 0 32 32">
  <path fill="currentColor" d="m16 6.52l2.76 5.58l.46 1l1 .15l6.16.89l-4.38 4.3l-.75.73l.18 1l1.05 6.13l-5.51-2.89L16 23l-.93.49l-5.51 2.85l1-6.13l.18-1l-.74-.77l-4.42-4.35l6.16-.89l1-.15l.46-1L16 6.52M16 2l-4.55 9.22l-10.17 1.47l7.36 7.18L6.9 30l9.1-4.78L25.1 30l-1.74-10.13l7.36-7.17l-10.17-1.48Z"/>
</symbol>
<symbol id="view-list" preserveAspectRatio="xMidYMid meet" viewBox="0 0 24 24">
  <path fill="currentColor" d="M4 14h2c.55 0 1-.45 1-1v-2c0-.55-.45-1-1-1H4c-.55 0-1 .45-1 1v2c0 .55.45 1 1 1zm0 5h2c.55 0 1-.45 1-1v-2c0-.55-.45-1-1-1H4c-.55 0-1 .45-1 1v2c0 .55.45 1 1 1zM4 9h2c.55 0 1-.45 1-1V6c0-.55-.45-1-1-1H4c-.55 0-1 .45-1 1v2c0 .55.45 1 1 1zm5 5h11c.55 0 1-.45 1-1v-2c0-.55-.45-1-1-1H9c-.55 0-1 .45-1 1v2c0 .55.45 1 1 1zm0 5h11c.55 0 1-.45 1-1v-2c0-.55-.45-1-1-1H9c-.55 0-1 .45-1 1v2c0 .55.45 1 1 1zM8 6v2c0 .55.45 1 1 1h11c.55 0 1-.45 1-1V6c0-.55-.45-1-1-1H9c-.55 0-1 .45-1 1z"/>
</symbol>
<symbol id="visibility" preserveAspectRatio="xMidYMid meet" viewBox="0 0 24 24">
  <path fill="currentColor" d="M12 4C7 4 2.73 7.11 1 11.5C2.73 15.89 7 19 12 19s9.27-3.11 11-7.5C21.27 7.11 17 4 12 4zm0 12.5c-2.76 0-5-2.24-5-5s2.24-5 5-5s5 2.24 5 5s-2.24 5-5 5zm0-8c-1.66 0-3 1.34-3 3s1.34 3 3 3s3-1.34 3-3s-1.34-3-3-3z"/>
</symbol>
</svg>