<svg xmlns="http://www.w3.org/2000/svg" xmlns:xlink="http://www.w3.org/1999/xlink">
<symbol id="add" preserveAspectRatio="xMidYMid meet" viewBox="0 0 24 24">
  <path fill="currentColor" d="M19 13h-6v6h-2v-6H5v-2h6V5h2v6h6v2z"/>
</symbol>
<symbol id="alert" preserveAspectRatio="xMidYMid meet" viewBox="0 0 24 24">
  <path fill="currentColor" d="M9.042 19.003h5.916a3 3 0 0 1-5.916 0Zm2.958-17a7.5 7.5 0 0 1 7.5 7.5v4l1.418 3.16A.95.95 0 0 1 20.052 18h-16.1a.95.95 0 0 1-.867-1.338l1.415-3.16V9.49l.005-.25A7.5 7.5 0 0 1 12 2.004Z"/>
</symbol>
<symbol id="archive" preserveAspectRatio="xMidYMid meet" viewBox="0 0 24 24">
  <path fill="currentColor" d="m21.704 5.29l-2.997-2.997A.996.996 0 0 0 18 2H6a.996.996 0 0 0-.707.293L2.296 5.29A.994.994 0 0 0 2 5.999V19a2 2 0 0 0 2 2h16a2 2 0 0 0 2-2V5.999a.994.994 0 0 0-.296-.709zM6.414 4h11.172l1 1H5.414l1-1zM17 13v1H7v-4h2v2h6v-2h2v3z"/>
</symbol>
<symbol id="arrow-back" preserveAspectRatio="xMidYMid meet" viewBox="0 0 24 24">
  <g fill="none" stroke="currentColor" stroke-linecap="round" stroke-linejoin="round" stroke-width="2">
    <path d="m8 5l-5 5l5 5"/>
    <path d="M3 10h8c5.523 0 10 4.477 10 10v1"/>
  </g>
</symbol>
<symbol id="arrow-cycle" preserveAspectRatio="xMidYMid meet" viewBox="0 0 24 24">
  <g fill="none" stroke="currentColor" stroke-linecap="round" stroke-linejoin="round" stroke-width="2">
    <path d="M22 12c0 6-4.39 10-9.806 10C7.792 22 4.24 19.665 3 16m-1-4C2 6 6.39 2 11.806 2C16.209 2 19.76 4.335 21 8"/>
    <path d="m7 17l-4-1l-1 4M17 7l4 1l1-4"/>
  </g>
</symbol>
<symbol id="arrow-down-left" preserveAspectRatio="xMidYMid meet" viewBox="0 0 24 24">
  <path fill="none" stroke="currentColor" stroke-linecap="round" stroke-linejoin="round" stroke-width="2" d="M6 18L18 6M6 8v10h10"/>
</symbol>
<symbol id="arrow-down-right" preserveAspectRatio="xMidYMid meet" viewBox="0 0 24 24">
  <path fill="none" stroke="currentColor" stroke-linecap="round" stroke-linejoin="round" stroke-width="2" d="M18 18L6 6m2 12h10V8"/>
</symbol>
<symbol id="arrow-down" preserveAspectRatio="xMidYMid meet" viewBox="0 0 24 24">
  <path fill="none" stroke="currentColor" stroke-linecap="round" stroke-linejoin="round" stroke-width="2" d="M12 20V4m-7 9l7 7l7-7"/>
</symbol>
<symbol id="arrow-drop-down" preserveAspectRatio="xMidYMid meet" viewBox="0 0 24 24">
  <path fill="currentColor" d="m7 10l5 5l5-5H7z"/>
</symbol>
<symbol id="arrow-drop-up" preserveAspectRatio="xMidYMid meet" viewBox="0 0 24 24">
  <path fill="currentColor" d="m7 14l5-5l5 5H7z"/>
</symbol>
<symbol id="arrow-forward" preserveAspectRatio="xMidYMid meet" viewBox="0 0 24 24">
  <g fill="none" stroke="currentColor" stroke-linecap="round" stroke-linejoin="round" stroke-width="2">
    <path d="m16 5l5 5l-5 5"/>
    <path d="M21 10h-8C7.477 10 3 14.477 3 20v1"/>
  </g>
</symbol>
<symbol id="arrow-left" preserveAspectRatio="xMidYMid meet" viewBox="0 0 24 24">
  <path fill="none" stroke="currentColor" stroke-linecap="round" stroke-linejoin="round" stroke-width="2" d="m11 5l-7 7l7 7m-7-7h16"/>
</symbol>
<symbol id="arrow-repeat" preserveAspectRatio="xMidYMid meet" viewBox="0 0 24 24">
  <g fill="none" stroke="currentColor" stroke-linecap="round" stroke-linejoin="round" stroke-width="2">
    <path d="m18 2l3 3l-3 3M6 22l-3-3l3-3"/>
    <path d="M21 5H10a7 7 0 0 0-7 7m0 7h11a7 7 0 0 0 7-7"/>
  </g>
</symbol>
<symbol id="arrow-right-left" preserveAspectRatio="xMidYMid meet" viewBox="0 0 24 24">
  <path fill="none" stroke="currentColor" stroke-linecap="round" stroke-linejoin="round" stroke-width="2" d="M21 6H3m18 0l-4 4m4-4l-4-4M3 18h18M3 18l4 4m-4-4l4-4"/>
</symbol>
<symbol id="arrow-right" preserveAspectRatio="xMidYMid meet" viewBox="0 0 24 24">
  <path fill="none" stroke="currentColor" stroke-linecap="round" stroke-linejoin="round" stroke-width="2" d="M4 12h16m-7-7l7 7l-7 7"/>
</symbol>
<symbol id="arrow-shuffle" preserveAspectRatio="xMidYMid meet" viewBox="0 0 24 24">
  <g fill="none" stroke="currentColor" stroke-linecap="round" stroke-linejoin="round" stroke-width="2">
    <path d="M2 19h3.908a2 2 0 0 0 1.682-.919L11.5 12l3.91-6.082A2 2 0 0 1 17.091 5H22m0 14h-4.908a2 2 0 0 1-1.682-.919L13.428 15M2 5h3.908a2 2 0 0 1 1.682.918L9.571 9"/>
    <path d="m19 2l3 3l-3 3m0 8l3 3l-3 3"/>
  </g>
</symbol>
<symbol id="arrow-up-down" preserveAspectRatio="xMidYMid meet" viewBox="0 0 24 24">
  <path fill="none" stroke="currentColor" stroke-linecap="round" stroke-linejoin="round" stroke-width="2" d="M6 3v18M6 3l4 4M6 3L2 7m16 14V3m0 18l4-4m-4 4l-4-4"/>
</symbol>
<symbol id="arrow-up-left" preserveAspectRatio="xMidYMid meet" viewBox="0 0 24 24">
  <path fill="none" stroke="currentColor" stroke-linecap="round" stroke-linejoin="round" stroke-width="2" d="m6 6l12 12M16 6H6v10"/>
</symbol>
<symbol id="arrow-up-right" preserveAspectRatio="xMidYMid meet" viewBox="0 0 24 24">
  <path fill="none" stroke="currentColor" stroke-linecap="round" stroke-linejoin="round" stroke-width="2" d="M18 6L6 18M8 6h10v10"/>
</symbol>
<symbol id="arrow-up" preserveAspectRatio="xMidYMid meet" viewBox="0 0 24 24">
  <path fill="none" stroke="currentColor" stroke-linecap="round" stroke-linejoin="round" stroke-width="2" d="M12 20V4m-7 7l7-7l7 7"/>
</symbol>
<symbol id="article" preserveAspectRatio="xMidYMid meet" viewBox="0 0 24 24">
  <path fill="currentColor" d="M20 22H4a1 1 0 0 1-1-1V3a1 1 0 0 1 1-1h16a1 1 0 0 1 1 1v18a1 1 0 0 1-1 1zM7 6v4h4V6H7zm0 6v2h10v-2H7zm0 4v2h10v-2H7zm6-9v2h4V7h-4z"/>
</symbol>
<symbol id="attachment-line" preserveAspectRatio="xMidYMid meet" viewBox="0 0 36 36">
  <path fill="currentColor" d="M8.42 32.6A6.3 6.3 0 0 1 4 30.79l-.13-.13A6.2 6.2 0 0 1 2 26.22a6.77 6.77 0 0 1 2-4.82L19.5 6.07a8.67 8.67 0 0 1 12.15-.35A8 8 0 0 1 34 11.44a9 9 0 0 1-2.7 6.36L17.37 31.6A1 1 0 1 1 16 30.18l13.89-13.8A7 7 0 0 0 32 11.44a6 6 0 0 0-1.76-4.3a6.67 6.67 0 0 0-9.34.35L5.45 22.82A4.78 4.78 0 0 0 4 26.22a4.21 4.21 0 0 0 1.24 3l.13.13a4.64 4.64 0 0 0 6.5-.21l13.35-13.2A2.7 2.7 0 0 0 26 14a2.35 2.35 0 0 0-.69-1.68a2.61 2.61 0 0 0-3.66.13l-9.2 9.12a1 1 0 1 1-1.41-1.42L20.28 11a4.62 4.62 0 0 1 6.48-.13A4.33 4.33 0 0 1 28 14a4.68 4.68 0 0 1-1.41 3.34L13.28 30.58a6.91 6.91 0 0 1-4.86 2.02Z" class="clr-i-outline clr-i-outline-path-1"/>
  <path fill="none" d="M0 0h36v36H0z"/>
</symbol>
<symbol id="book" viewBox="0 0 32 32">
  <path fill="currentColor" d="M19 10h7v2h-7zm0 5h7v2h-7zm0 5h7v2h-7zM6 10h7v2H6zm0 5h7v2H6zm0 5h7v2H6z"/>
  <path fill="currentColor" d="M28 5H4a2.002 2.002 0 0 0-2 2v18a2.002 2.002 0 0 0 2 2h24a2.002 2.002 0 0 0 2-2V7a2.002 2.002 0 0 0-2-2ZM4 7h11v18H4Zm13 18V7h11v18Z"/>
</symbol>
<symbol id="cabloy" viewBox="0 0 32 32">
  <path d="M18.5603 12.1845Q18.9558 12.479 19.448 13.1821L22.1638 13.1821L22.1638 10.2114L20.195 10.2114Q19.3074 9.42036 18.5691 9.1523Q17.8308 8.88423 16.7497 8.88423Q15.3962 8.88423 14.2229 9.42476Q13.0495 9.96529 12.1794 10.9013Q11.3093 11.8374 10.8083 13.0898Q10.3074 14.3422 10.3074 15.7749Q10.3074 16.7329 10.5359 17.6162Q10.7644 18.4995 11.1775 19.2685Q11.5906 20.0376 12.175 20.6704Q12.7595 21.3032 13.4758 21.7514Q14.1921 22.1997 15.0183 22.4458Q15.8445 22.6918 16.7497 22.6918Q17.822 22.6918 18.7492 22.3842Q19.6765 22.0766 20.4192 21.5405Q21.1618 21.0043 21.6892 20.2705Q22.2165 19.5366 22.489 18.6752L19.6589 17.8842Q19.5007 18.2797 19.2195 18.6445Q18.9382 19.0092 18.5647 19.2905Q18.1911 19.5717 17.7341 19.7431Q17.2771 19.9145 16.7497 19.9145Q15.9939 19.9145 15.3611 19.5849Q14.7282 19.2553 14.2712 18.6928Q13.8142 18.1303 13.5549 17.3789Q13.2956 16.6274 13.2956 15.7749Q13.2956 14.9311 13.5593 14.1796Q13.823 13.4282 14.2844 12.8613Q14.7458 12.2944 15.3786 11.9648Q16.0115 11.6352 16.7497 11.6352Q17.2507 11.6352 17.7077 11.7626Q18.1648 11.8901 18.5603 12.1845Z" fill="#000000FF"/>
  <path d="M0 5.81818C0 5.04665 0.147629 4.30447 0.442883 3.59166C0.738136 2.87885 1.15855 2.24966 1.70411 1.70411C2.24966 1.15855 2.87885 0.738136 3.59166 0.442886C4.30447 0.147629 5.04664 0 5.81818 0L26.1818 0C26.9534 0 27.6955 0.147629 28.4083 0.442886C29.1211 0.738136 29.7503 1.15855 30.2959 1.70411C30.8414 2.24966 31.2619 2.87885 31.5571 3.59166C31.8524 4.30447 32 5.04665 32 5.81818L32 26.1818C32 26.9534 31.8524 27.6955 31.5571 28.4083C31.2619 29.1211 30.8414 29.7503 30.2959 30.2959C29.7503 30.8414 29.1211 31.2619 28.4083 31.5571C27.6955 31.8524 26.9534 32 26.1818 32L5.81818 32C5.04664 32 4.30447 31.8524 3.59166 31.5571C2.87885 31.2619 2.24966 30.8414 1.70411 30.2959C1.15855 29.7503 0.738136 29.1211 0.442883 28.4083C0.147629 27.6955 0 26.9534 0 26.1818L0 5.81818ZM5.81818 2.90909L26.1818 2.90909C26.9851 2.90909 27.6708 3.19311 28.2389 3.76115C28.8069 4.32918 29.0909 5.01486 29.0909 5.81818L29.0909 26.1818C29.0909 26.9851 28.8069 27.6708 28.2389 28.2389C27.6708 28.8069 26.9851 29.0909 26.1818 29.0909L5.81818 29.0909C5.01486 29.0909 4.32918 28.8069 3.76114 28.2389C3.19311 27.6708 2.90909 26.9851 2.90909 26.1818L2.90909 5.81818C2.90909 5.01486 3.19311 4.32918 3.76114 3.76115C4.32918 3.19311 5.01486 2.90909 5.81818 2.90909Z" fill-rule="evenodd" fill="#000000"/>
</symbol>
<symbol id="checkbox-checked" preserveAspectRatio="xMidYMid meet" viewBox="0 0 24 24">
  <path fill="currentColor" d="m10 17l-5-5l1.41-1.42L10 14.17l7.59-7.59L19 8m0-5H5c-1.11 0-2 .89-2 2v14a2 2 0 0 0 2 2h14a2 2 0 0 0 2-2V5a2 2 0 0 0-2-2Z"/>
</symbol>
<symbol id="checkbox-intermediate" preserveAspectRatio="xMidYMid meet" viewBox="0 0 24 24">
  <path fill="currentColor" d="M19 3H5a2 2 0 0 0-2 2v14a2 2 0 0 0 2 2h14a2 2 0 0 0 2-2V5a2 2 0 0 0-2-2m0 16H5V5h14v14m-2-2H7V7h10v10Z"/>
</symbol>
<symbol id="checkbox-off" preserveAspectRatio="xMidYMid meet" viewBox="0 0 24 24">
  <path fill="currentColor" d="M20.84 22.73L19.1 21H5a2 2 0 0 1-2-2V4.9L1.11 3l1.28-1.27l19.72 19.73l-1.27 1.27M21 5a2 2 0 0 0-2-2H6.2L21 17.8V5Z"/>
</symbol>
<symbol id="checkbox" preserveAspectRatio="xMidYMid meet" viewBox="0 0 24 24">
  <path fill="currentColor" d="M19 3H5c-1.11 0-2 .89-2 2v14a2 2 0 0 0 2 2h14a2 2 0 0 0 2-2V5a2 2 0 0 0-2-2Z"/>
</symbol>
<symbol id="chevron-left" preserveAspectRatio="xMidYMid meet" viewBox="0 0 20 20">
  <path fill="currentColor" d="M12.452 4.516c.446.436.481 1.043 0 1.576L8.705 10l3.747 3.908c.481.533.446 1.141 0 1.574c-.445.436-1.197.408-1.615 0c-.418-.406-4.502-4.695-4.502-4.695a1.095 1.095 0 0 1 0-1.576s4.084-4.287 4.502-4.695c.418-.409 1.17-.436 1.615 0z"/>
</symbol>
<symbol id="chevron-right" preserveAspectRatio="xMidYMid meet" viewBox="0 0 20 20">
  <path fill="currentColor" d="M9.163 4.516c.418.408 4.502 4.695 4.502 4.695a1.095 1.095 0 0 1 0 1.576s-4.084 4.289-4.502 4.695c-.418.408-1.17.436-1.615 0c-.446-.434-.481-1.041 0-1.574L11.295 10L7.548 6.092c-.481-.533-.446-1.141 0-1.576c.445-.436 1.197-.409 1.615 0z"/>
</symbol>
<symbol id="close" preserveAspectRatio="xMidYMid meet" viewBox="0 0 24 24">
  <path fill="currentColor" d="M19 6.41L17.59 5L12 10.59L6.41 5L5 6.41L10.59 12L5 17.59L6.41 19L12 13.41L17.59 19L19 17.59L13.41 12z"/>
</symbol>
<symbol id="comment-dots" preserveAspectRatio="xMidYMid meet" viewBox="0 0 512 512">
  <path fill="currentColor" d="M144 208c-17.7 0-32 14.3-32 32s14.3 32 32 32s32-14.3 32-32s-14.3-32-32-32zm112 0c-17.7 0-32 14.3-32 32s14.3 32 32 32s32-14.3 32-32s-14.3-32-32-32zm112 0c-17.7 0-32 14.3-32 32s14.3 32 32 32s32-14.3 32-32s-14.3-32-32-32zM256 32C114.6 32 0 125.1 0 240c0 47.6 19.9 91.2 52.9 126.3C38 405.7 7 439.1 6.5 439.5c-6.6 7-8.4 17.2-4.6 26S14.4 480 24 480c61.5 0 110-25.7 139.1-46.3C192 442.8 223.2 448 256 448c141.4 0 256-93.1 256-208S397.4 32 256 32zm0 368c-26.7 0-53.1-4.1-78.4-12.1l-22.7-7.2l-19.5 13.8c-14.3 10.1-33.9 21.4-57.5 29c7.3-12.1 14.4-25.7 19.9-40.2l10.6-28.1l-20.6-21.8C69.7 314.1 48 282.2 48 240c0-88.2 93.3-160 208-160s208 71.8 208 160s-93.3 160-208 160z"/>
</symbol>
<symbol id="construction" preserveAspectRatio="xMidYMid meet" viewBox="0 0 24 24">
  <path fill="currentColor" d="m20.99 17.99l-4.94-4.94l-2.12 2.12l4.94 4.94c.59.59 1.54.59 2.12 0c.58-.59.58-1.54 0-2.12zM17.65 10c1.93 0 3.5-1.57 3.5-3.5c0-.58-.16-1.12-.41-1.6l-2.7 2.7l-1.49-1.49l2.7-2.7c-.48-.25-1.02-.41-1.6-.41c-1.93 0-3.5 1.57-3.5 3.5c0 .41.08.8.21 1.16l-1.85 1.85l-1.78-1.78a.996.996 0 0 0 0-1.41l-.71-.71l2.12-2.12a3 3 0 0 0-4.24 0L5.08 6.32a.996.996 0 0 0 0 1.41l.71.71H3.25c-.19 0-.37.07-.5.21a.7.7 0 0 0 0 1l2.54 2.54a.7.7 0 0 0 1 0c.13-.13.21-.31.21-.5V9.15l.7.7c.39.39 1.02.39 1.41 0l1.78 1.78l-6.35 6.35a1.49 1.49 0 0 0 0 2.12c.59.59 1.54.59 2.12 0L16.48 9.79c.37.13.76.21 1.17.21z"/>
</symbol>
<symbol id="copyright" preserveAspectRatio="xMidYMid meet" viewBox="0 0 24 24">
  <path fill="currentColor" d="M10.08 10.86c.05-.33.16-.62.3-.87s.34-.46.59-.62c.24-.15.54-.22.91-.23c.23.01.44.05.63.13c.2.09.38.21.52.36s.25.33.34.53s.13.42.14.64h1.79c-.02-.47-.11-.9-.28-1.29s-.4-.73-.7-1.01s-.66-.5-1.08-.66s-.88-.23-1.39-.23c-.65 0-1.22.11-1.7.34s-.88.53-1.2.92s-.56.84-.71 1.36S8 11.29 8 11.87v.27c0 .58.08 1.12.23 1.64s.39.97.71 1.35s.72.69 1.2.91c.48.22 1.05.34 1.7.34c.47 0 .91-.08 1.32-.23s.77-.36 1.08-.63s.56-.58.74-.94s.29-.74.3-1.15h-1.79c-.01.21-.06.4-.15.58s-.21.33-.36.46s-.32.23-.52.3c-.19.07-.39.09-.6.1c-.36-.01-.66-.08-.89-.23c-.25-.16-.45-.37-.59-.62s-.25-.55-.3-.88s-.08-.67-.08-1v-.27c0-.35.03-.68.08-1.01zM12 2C6.48 2 2 6.48 2 12s4.48 10 10 10s10-4.48 10-10S17.52 2 12 2zm0 18c-4.41 0-8-3.59-8-8s3.59-8 8-8s8 3.59 8 8s-3.59 8-8 8z"/>
</symbol>
<symbol id="cross-circle" preserveAspectRatio="xMidYMid meet" viewBox="0 0 24 24">
  <path fill="currentColor" d="M19.1 4.9C15.2 1 8.8 1 4.9 4.9S1 15.2 4.9 19.1s10.2 3.9 14.1 0s4-10.3.1-14.2zm-4.3 11.3L12 13.4l-2.8 2.8l-1.4-1.4l2.8-2.8l-2.8-2.8l1.4-1.4l2.8 2.8l2.8-2.8l1.4 1.4l-2.8 2.8l2.8 2.8l-1.4 1.4z"/>
</symbol>
<symbol id="dashboard" preserveAspectRatio="xMidYMid meet" viewBox="0 0 24 24">
  <path fill="currentColor" d="M4 13h6c.55 0 1-.45 1-1V4c0-.55-.45-1-1-1H4c-.55 0-1 .45-1 1v8c0 .55.45 1 1 1zm0 8h6c.55 0 1-.45 1-1v-4c0-.55-.45-1-1-1H4c-.55 0-1 .45-1 1v4c0 .55.45 1 1 1zm10 0h6c.55 0 1-.45 1-1v-8c0-.55-.45-1-1-1h-6c-.55 0-1 .45-1 1v8c0 .55.45 1 1 1zM13 4v4c0 .55.45 1 1 1h6c.55 0 1-.45 1-1V4c0-.55-.45-1-1-1h-6c-.55 0-1 .45-1 1z"/>
</symbol>
<symbol id="database" preserveAspectRatio="xMidYMid meet" viewBox="0 0 24 24">
  <path fill="currentColor" d="M12 10c4.418 0 8-1.79 8-4s-3.582-4-8-4s-8 1.79-8 4s3.582 4 8 4Zm6.328.17A7.61 7.61 0 0 0 20 9.053V18c0 2.21-3.582 4-8 4s-8-1.79-8-4V9.053a7.61 7.61 0 0 0 1.672 1.117C7.37 11.018 9.608 11.5 12 11.5c2.392 0 4.63-.482 6.328-1.33Z"/>
</symbol>
<symbol id="delete-forever" preserveAspectRatio="xMidYMid meet" viewBox="0 0 24 24">
  <path fill="currentColor" d="M6 19a2 2 0 0 0 2 2h8a2 2 0 0 0 2-2V7H6v12m2.46-7.12l1.41-1.41L12 12.59l2.12-2.12l1.41 1.41L13.41 14l2.12 2.12l-1.41 1.41L12 15.41l-2.12 2.12l-1.41-1.41L10.59 14l-2.13-2.12M15.5 4l-1-1h-5l-1 1H5v2h14V4h-3.5Z"/>
</symbol>
<symbol id="delete" preserveAspectRatio="xMidYMid meet" viewBox="0 0 24 24">
  <path fill="currentColor" d="M19 4h-3.5l-1-1h-5l-1 1H5v2h14M6 19a2 2 0 0 0 2 2h8a2 2 0 0 0 2-2V7H6v12Z"/>
</symbol>
<symbol id="developer-board" preserveAspectRatio="xMidYMid meet" viewBox="0 0 24 24">
  <path fill="currentColor" d="M15.25 2a.75.75 0 0 1 .743.648L16 2.75v2.325A3.754 3.754 0 0 1 18.925 8h2.325a.75.75 0 0 1 .102 1.493l-.102.007H19v1.75h2.25a.75.75 0 0 1 .743.648L22 12a.75.75 0 0 1-.648.743l-.102.007H19v1.75h2.25a.75.75 0 0 1 .743.648l.007.102a.75.75 0 0 1-.648.743L21.25 16h-2.325A3.754 3.754 0 0 1 16 18.926v2.325a.75.75 0 0 1-1.493.102l-.007-.102V19h-1.751l.001 2.251a.75.75 0 0 1-.648.743L12 22a.75.75 0 0 1-.743-.648l-.007-.102l-.001-2.251H9.5v2.251a.75.75 0 0 1-.648.743L8.75 22a.75.75 0 0 1-.743-.648L8 21.25v-2.325A3.754 3.754 0 0 1 5.075 16H2.75a.75.75 0 0 1-.102-1.493l.102-.007L5 14.499v-1.75l-2.25.001a.75.75 0 0 1-.743-.648L2 12a.75.75 0 0 1 .648-.743l.102-.007L5 11.249v-1.75L2.75 9.5a.75.75 0 0 1-.743-.648L2 8.75a.75.75 0 0 1 .648-.743L2.75 8l2.325-.001A3.754 3.754 0 0 1 8 5.075V2.75a.75.75 0 0 1 1.493-.102l.007.102v2.249h1.749l.001-2.249a.75.75 0 0 1 .648-.743L12 2a.75.75 0 0 1 .743.648l.007.102l-.001 2.249H14.5V2.75a.75.75 0 0 1 .55-.723l.098-.02L15.25 2Zm0 4.5h-6.5A2.25 2.25 0 0 0 6.5 8.75v6.5a2.25 2.25 0 0 0 2.25 2.25h6.5a2.25 2.25 0 0 0 2.25-2.25v-6.5a2.25 2.25 0 0 0-2.25-2.25Zm-3.245 2.505a3 3 0 1 1 0 6a3 3 0 0 1 0-6Zm0 1.5a1.5 1.5 0 1 0 0 3a1.5 1.5 0 0 0 0-3Z"/>
</symbol>
<symbol id="done" preserveAspectRatio="xMidYMid meet" viewBox="0 0 24 24">
  <path fill="currentColor" d="m9 16.2l-3.5-3.5a.984.984 0 0 0-1.4 0a.984.984 0 0 0 0 1.4l4.19 4.19c.39.39 1.02.39 1.41 0L20.3 7.7a.984.984 0 0 0 0-1.4a.984.984 0 0 0-1.4 0L9 16.2z"/>
</symbol>
<symbol id="dot" preserveAspectRatio="xMidYMid meet" viewBox="0 0 16 16">
  <path fill="currentColor" d="M8 9.5a1.5 1.5 0 1 0 0-3a1.5 1.5 0 0 0 0 3z"/>
</symbol>
<symbol id="draft" preserveAspectRatio="xMidYMid meet" viewBox="0 0 24 24">
  <path fill="currentColor" d="M20 2a1 1 0 0 1 1 1v3.757l-8.999 9l-.006 4.238l4.246.006L21 15.242V21a1 1 0 0 1-1 1H4a1 1 0 0 1-1-1V3a1 1 0 0 1 1-1h16zm1.778 6.808l1.414 1.414L15.414 18l-1.416-.002l.002-1.412l7.778-7.778zM12 12H7v2h5v-2zm3-4H7v2h8V8z"/>
</symbol>
<symbol id="drive-file-move" preserveAspectRatio="xMidYMid meet" viewBox="0 0 24 24">
  <path fill="currentColor" d="M20 6h-8l-2-2H4c-1.1 0-2 .9-2 2v12c0 1.1.9 2 2 2h16c1.1 0 2-.9 2-2V8c0-1.1-.9-2-2-2zm-6 12v-3h-4v-4h4V8l5 5l-5 5z"/>
</symbol>
<symbol id="edit" preserveAspectRatio="xMidYMid meet" viewBox="0 0 24 24">
  <path fill="currentColor" d="M4.42 20.579a1 1 0 0 1-.737-.326a.988.988 0 0 1-.263-.764l.245-2.694L14.983 5.481l3.537 3.536L7.205 20.33l-2.694.245a.95.95 0 0 1-.091.004ZM19.226 8.31L15.69 4.774l2.121-2.121a1 1 0 0 1 1.415 0l2.121 2.121a1 1 0 0 1 0 1.415l-2.12 2.12l-.001.001Z"/>
</symbol>
<symbol id="expand-more" preserveAspectRatio="xMidYMid meet" viewBox="0 0 24 24">
  <path fill="currentColor" d="M15.88 9.29L12 13.17L8.12 9.29a.996.996 0 1 0-1.41 1.41l4.59 4.59c.39.39 1.02.39 1.41 0l4.59-4.59a.996.996 0 0 0 0-1.41c-.39-.38-1.03-.39-1.42 0z"/>
</symbol>
<symbol id="export" preserveAspectRatio="xMidYMid meet" viewBox="0 0 24 24">
  <g fill="none" stroke="currentColor" stroke-linecap="round" stroke-linejoin="round" stroke-width="2">
    <ellipse cx="12" cy="6" rx="8" ry="3"/>
    <path d="M4 6v6c0 1.657 3.582 3 8 3a19.84 19.84 0 0 0 3.302-.267M20 12V6"/>
    <path d="M4 12v6c0 1.599 3.335 2.905 7.538 2.995M20 14v-2m-6 7h7m-3-3l3 3l-3 3"/>
  </g>
</symbol>
<symbol id="fast-forward" preserveAspectRatio="xMidYMid meet" viewBox="0 0 24 24">
  <path fill="currentColor" d="m5.58 16.89l5.77-4.07c.56-.4.56-1.24 0-1.63L5.58 7.11C4.91 6.65 4 7.12 4 7.93v8.14c0 .81.91 1.28 1.58.82zM13 7.93v8.14c0 .81.91 1.28 1.58.82l5.77-4.07c.56-.4.56-1.24 0-1.63l-5.77-4.07c-.67-.47-1.58 0-1.58.81z"/>
</symbol>
<symbol id="flow-chart" preserveAspectRatio="xMidYMid meet" viewBox="0 0 24 24">
  <path fill="currentColor" d="M6 21.5A3.5 3.5 0 1 1 9.355 17H15v-2h2V9.242L14.757 7H9v2H3V3h6v2h5.757L18 1.756L22.243 6L19 9.241V15h2v6h-6v-2H9.355A3.501 3.501 0 0 1 6 21.5zm0-5a1.5 1.5 0 1 0 .001 3.001A1.5 1.5 0 0 0 6 16.5zm13 .5h-2v2h2v-2zM18 4.586L16.586 6L18 7.414L19.414 6L18 4.586zM7 5H5v2h2V5z"/>
</symbol>
<symbol id="folder-open" preserveAspectRatio="xMidYMid meet" viewBox="0 0 24 24">
  <path fill="currentColor" d="M20 6h-8l-2-2H4c-1.1 0-1.99.9-1.99 2L2 18c0 1.1.9 2 2 2h16c1.1 0 2-.9 2-2V8c0-1.1-.9-2-2-2zm0 12H4V8h16v10z"/>
</symbol>
<symbol id="folder" preserveAspectRatio="xMidYMid meet" viewBox="0 0 24 24">
  <path fill="currentColor" d="M10 4H4c-1.1 0-1.99.9-1.99 2L2 18c0 1.1.9 2 2 2h16c1.1 0 2-.9 2-2V8c0-1.1-.9-2-2-2h-8l-2-2z"/>
</symbol>
<symbol id="fullscreen-exit" preserveAspectRatio="xMidYMid meet" viewBox="0 0 24 24">
  <path fill="currentColor" d="M6 16h2v2c0 .55.45 1 1 1s1-.45 1-1v-3c0-.55-.45-1-1-1H6c-.55 0-1 .45-1 1s.45 1 1 1zm2-8H6c-.55 0-1 .45-1 1s.45 1 1 1h3c.55 0 1-.45 1-1V6c0-.55-.45-1-1-1s-1 .45-1 1v2zm7 11c.55 0 1-.45 1-1v-2h2c.55 0 1-.45 1-1s-.45-1-1-1h-3c-.55 0-1 .45-1 1v3c0 .55.45 1 1 1zm1-11V6c0-.55-.45-1-1-1s-1 .45-1 1v3c0 .55.45 1 1 1h3c.55 0 1-.45 1-1s-.45-1-1-1h-2z"/>
</symbol>
<symbol id="fullscreen" preserveAspectRatio="xMidYMid meet" viewBox="0 0 24 24">
  <path fill="currentColor" d="M6 14c-.55 0-1 .45-1 1v3c0 .55.45 1 1 1h3c.55 0 1-.45 1-1s-.45-1-1-1H7v-2c0-.55-.45-1-1-1zm0-4c.55 0 1-.45 1-1V7h2c.55 0 1-.45 1-1s-.45-1-1-1H6c-.55 0-1 .45-1 1v3c0 .55.45 1 1 1zm11 7h-2c-.55 0-1 .45-1 1s.45 1 1 1h3c.55 0 1-.45 1-1v-3c0-.55-.45-1-1-1s-1 .45-1 1v2zM14 6c0 .55.45 1 1 1h2v2c0 .55.45 1 1 1s1-.45 1-1V6c0-.55-.45-1-1-1h-3c-.55 0-1 .45-1 1z"/>
</symbol>
<symbol id="grading" preserveAspectRatio="xMidYMid meet" viewBox="0 0 24 24">
  <path fill="currentColor" d="M5 7h14c.55 0 1 .45 1 1s-.45 1-1 1H5c-.55 0-1-.45-1-1s.45-1 1-1zm0 6h14c.55 0 1-.45 1-1s-.45-1-1-1H5c-.55 0-1 .45-1 1s.45 1 1 1zm0 4h5c.55 0 1-.45 1-1s-.45-1-1-1H5c-.55 0-1 .45-1 1s.45 1 1 1zm0 4h5c.55 0 1-.45 1-1s-.45-1-1-1H5c-.55 0-1 .45-1 1s.45 1 1 1zm10.41-2.83l-.71-.71a.996.996 0 1 0-1.41 1.41l1.42 1.42c.39.39 1.02.39 1.41 0l3.17-3.17a.996.996 0 1 0-1.41-1.41l-2.47 2.46zM4 4c0 .55.45 1 1 1h14c.55 0 1-.45 1-1s-.45-1-1-1H5c-.55 0-1 .45-1 1z"/>
</symbol>
<symbol id="group-work" preserveAspectRatio="xMidYMid meet" viewBox="0 0 24 24">
  <path fill="currentColor" d="M12 2C6.48 2 2 6.48 2 12s4.48 10 10 10s10-4.48 10-10S17.52 2 12 2zM8 17.5a2.5 2.5 0 0 1 0-5a2.5 2.5 0 0 1 0 5zM9.5 8a2.5 2.5 0 0 1 5 0a2.5 2.5 0 0 1-5 0zm6.5 9.5a2.5 2.5 0 0 1 0-5a2.5 2.5 0 0 1 0 5z"/>
</symbol>
<symbol id="group" preserveAspectRatio="xMidYMid meet" viewBox="0 0 24 24">
  <path fill="currentColor" d="M16 11c1.66 0 2.99-1.34 2.99-3S17.66 5 16 5s-3 1.34-3 3s1.34 3 3 3zm-8 0c1.66 0 2.99-1.34 2.99-3S9.66 5 8 5S5 6.34 5 8s1.34 3 3 3zm0 2c-2.33 0-7 1.17-7 3.5V18c0 .55.45 1 1 1h12c.55 0 1-.45 1-1v-1.5c0-2.33-4.67-3.5-7-3.5zm8 0c-.29 0-.62.02-.97.05c.02.01.03.03.04.04c1.14.83 1.93 1.94 1.93 3.41V18c0 .35-.07.69-.18 1H22c.55 0 1-.45 1-1v-1.5c0-2.33-4.67-3.5-7-3.5z"/>
</symbol>
<symbol id="groups" preserveAspectRatio="xMidYMid meet" viewBox="0 0 24 24">
  <path fill="currentColor" d="M12 12.75c1.63 0 3.07.39 4.24.9c1.08.48 1.76 1.56 1.76 2.73V17c0 .55-.45 1-1 1H7c-.55 0-1-.45-1-1v-.61c0-1.18.68-2.26 1.76-2.73c1.17-.52 2.61-.91 4.24-.91zM4 13c1.1 0 2-.9 2-2s-.9-2-2-2s-2 .9-2 2s.9 2 2 2zm1.13 1.1c-.37-.06-.74-.1-1.13-.1c-.99 0-1.93.21-2.78.58A2.01 2.01 0 0 0 0 16.43V17c0 .55.45 1 1 1h3.5v-1.61c0-.83.23-1.61.63-2.29zM20 13c1.1 0 2-.9 2-2s-.9-2-2-2s-2 .9-2 2s.9 2 2 2zm4 3.43c0-.81-.48-1.53-1.22-1.85A6.95 6.95 0 0 0 20 14c-.39 0-.76.04-1.13.1c.4.68.63 1.46.63 2.29V18H23c.55 0 1-.45 1-1v-.57zM12 6c1.66 0 3 1.34 3 3s-1.34 3-3 3s-3-1.34-3-3s1.34-3 3-3z"/>
</symbol>
<symbol id="heart" preserveAspectRatio="xMidYMid meet" viewBox="0 0 1024 1024">
  <path fill="currentColor" d="M923 283.6a260.04 260.04 0 0 0-56.9-82.8a264.4 264.4 0 0 0-84-55.5A265.34 265.34 0 0 0 679.7 125c-49.3 0-97.4 13.5-139.2 39c-10 6.1-19.5 12.8-28.5 20.1c-9-7.3-18.5-14-28.5-20.1c-41.8-25.5-89.9-39-139.2-39c-35.5 0-69.9 6.8-102.4 20.3c-31.4 13-59.7 31.7-84 55.5a258.44 258.44 0 0 0-56.9 82.8c-13.9 32.3-21 66.6-21 101.9c0 33.3 6.8 68 20.3 103.3c11.3 29.5 27.5 60.1 48.2 91c32.8 48.9 77.9 99.9 133.9 151.6c92.8 85.7 184.7 144.9 188.6 147.3l23.7 15.2c10.5 6.7 24 6.7 34.5 0l23.7-15.2c3.9-2.5 95.7-61.6 188.6-147.3c56-51.7 101.1-102.7 133.9-151.6c20.7-30.9 37-61.5 48.2-91c13.5-35.3 20.3-70 20.3-103.3c.1-35.3-7-69.6-20.9-101.9z"/>
</symbol>
<symbol id="home" preserveAspectRatio="xMidYMid meet" viewBox="0 0 24 24">
  <path fill="currentColor" d="M10 19v-5h4v5c0 .55.45 1 1 1h3c.55 0 1-.45 1-1v-7h1.7c.46 0 .68-.57.33-.87L12.67 3.6c-.38-.34-.96-.34-1.34 0l-8.36 7.53c-.34.3-.13.87.33.87H5v7c0 .55.45 1 1 1h3c.55 0 1-.45 1-1z"/>
</symbol>
<symbol id="identification" viewBox="0 0 32 32">
  <path fill="currentColor" d="M28 6v20H4V6h24m0-2H4a2 2 0 0 0-2 2v20a2 2 0 0 0 2 2h24a2 2 0 0 0 2-2V6a2 2 0 0 0-2-2Z"/>
  <path fill="currentColor" d="M6 10h7v2H6zm0 4h4v2H6zm17 4h-6a3 3 0 0 0-3 3v2h2v-2a1 1 0 0 1 1-1h6a1 1 0 0 1 1 1v2h2v-2a3 3 0 0 0-3-3zm-3-1a4 4 0 1 0-4-4a4 4 0 0 0 4 4zm0-6a2 2 0 1 1-2 2a2 2 0 0 1 2-2z"/>
</symbol>
<symbol id="import" preserveAspectRatio="xMidYMid meet" viewBox="0 0 24 24">
  <g fill="none" stroke="currentColor" stroke-linecap="round" stroke-linejoin="round" stroke-width="2">
    <ellipse cx="12" cy="6" rx="8" ry="3"/>
    <path d="M4 6v8m5.009.783c.924.14 1.933.217 2.991.217c4.418 0 8-1.343 8-3V6"/>
    <path d="M11.252 20.987c.246.009.496.013.748.013c4.418 0 8-1.343 8-3v-6M2 19h7m-3-3l3 3l-3 3"/>
  </g>
</symbol>
<symbol id="info-circle" preserveAspectRatio="xMidYMid meet" viewBox="0 0 1024 1024">
  <path fill="currentColor" d="M512 64C264.6 64 64 264.6 64 512s200.6 448 448 448s448-200.6 448-448S759.4 64 512 64zm32 664c0 4.4-3.6 8-8 8h-48c-4.4 0-8-3.6-8-8V456c0-4.4 3.6-8 8-8h48c4.4 0 8 3.6 8 8v272zm-32-344a48.01 48.01 0 0 1 0-96a48.01 48.01 0 0 1 0 96z"/>
</symbol>
<symbol id="information-filled" viewBox="0 0 32 32">
  <path fill="none" d="M16 8a1.5 1.5 0 1 1-1.5 1.5A1.5 1.5 0 0 1 16 8Zm4 13.875h-2.875v-8H13v2.25h1.875v5.75H12v2.25h8Z"/>
  <path fill="currentColor" d="M16 2a14 14 0 1 0 14 14A14 14 0 0 0 16 2Zm0 6a1.5 1.5 0 1 1-1.5 1.5A1.5 1.5 0 0 1 16 8Zm4 16.125h-8v-2.25h2.875v-5.75H13v-2.25h4.125v8H20Z"/>
</symbol>
<symbol id="information" viewBox="0 0 32 32">
  <path fill="currentColor" d="M17 22v-8h-4v2h2v6h-3v2h8v-2h-3zM16 8a1.5 1.5 0 1 0 1.5 1.5A1.5 1.5 0 0 0 16 8z"/>
  <path fill="currentColor" d="M16 30a14 14 0 1 1 14-14a14 14 0 0 1-14 14Zm0-26a12 12 0 1 0 12 12A12 12 0 0 0 16 4Z"/>
</symbol>
<symbol id="label" preserveAspectRatio="xMidYMid meet" viewBox="0 0 24 24">
  <path fill="currentColor" d="M17.63 5.84C17.27 5.33 16.67 5 16 5L5 5.01C3.9 5.01 3 5.9 3 7v10c0 1.1.9 1.99 2 1.99L16 19c.67 0 1.27-.33 1.63-.84l3.96-5.58a.99.99 0 0 0 0-1.16l-3.96-5.58z"/>
</symbol>
<symbol id="language" preserveAspectRatio="xMidYMid meet" viewBox="0 0 512 512">
  <path fill="currentColor" d="m478.33 433.6l-90-218a22 22 0 0 0-40.67 0l-90 218a22 22 0 1 0 40.67 16.79L316.66 406h102.67l18.33 44.39A22 22 0 0 0 458 464a22 22 0 0 0 20.32-30.4ZM334.83 362L368 281.65L401.17 362Zm-66.99-19.08a22 22 0 0 0-4.89-30.7c-.2-.15-15-11.13-36.49-34.73c39.65-53.68 62.11-114.75 71.27-143.49H330a22 22 0 0 0 0-44H214V70a22 22 0 0 0-44 0v20H54a22 22 0 0 0 0 44h197.25c-9.52 26.95-27.05 69.5-53.79 108.36c-31.41-41.68-43.08-68.65-43.17-68.87a22 22 0 0 0-40.58 17c.58 1.38 14.55 34.23 52.86 83.93c.92 1.19 1.83 2.35 2.74 3.51c-39.24 44.35-77.74 71.86-93.85 80.74a22 22 0 1 0 21.07 38.63c2.16-1.18 48.6-26.89 101.63-85.59c22.52 24.08 38 35.44 38.93 36.1a22 22 0 0 0 30.75-4.9Z"/>
</symbol>
<symbol id="layers" preserveAspectRatio="xMidYMid meet" viewBox="0 0 24 24">
  <path fill="currentColor" d="M12.6 18.06c-.36.28-.87.28-1.23 0l-6.15-4.78a.991.991 0 0 0-1.22 0a.997.997 0 0 0 0 1.57l6.76 5.26c.72.56 1.73.56 2.46 0l6.76-5.26c.51-.4.51-1.17 0-1.57l-.01-.01a.991.991 0 0 0-1.22 0l-6.15 4.79zm.63-3.02l6.76-5.26c.51-.4.51-1.18 0-1.58l-6.76-5.26c-.72-.56-1.73-.56-2.46 0L4.01 8.21c-.51.4-.51 1.18 0 1.58l6.76 5.26c.72.56 1.74.56 2.46-.01z"/>
</symbol>
<symbol id="layout-columns" preserveAspectRatio="xMidYMid meet" viewBox="0 0 24 24">
  <g fill="none" stroke="currentColor" stroke-linecap="round" stroke-linejoin="round" stroke-width="2">
    <rect width="16" height="16" x="4" y="4" rx="2"/>
    <path d="M12 4v16"/>
  </g>
</symbol>
<symbol id="location-on" preserveAspectRatio="xMidYMid meet" viewBox="0 0 24 24">
  <path fill="currentColor" d="M12 2c-4.2 0-8 3.22-8 8.2c0 3.18 2.45 6.92 7.34 11.23c.38.33.95.33 1.33 0C17.55 17.12 20 13.38 20 10.2C20 5.22 16.2 2 12 2zm0 10c-1.1 0-2-.9-2-2s.9-2 2-2s2 .9 2 2s-.9 2-2 2z"/>
</symbol>
<symbol id="lock-open" preserveAspectRatio="xMidYMid meet" viewBox="0 0 24 24">
  <path fill="currentColor" d="M18 10H9V7c0-1.654 1.346-3 3-3s3 1.346 3 3h2c0-2.757-2.243-5-5-5S7 4.243 7 7v3H6a2 2 0 0 0-2 2v8a2 2 0 0 0 2 2h12a2 2 0 0 0 2-2v-8a2 2 0 0 0-2-2zm-7.939 5.499A2.002 2.002 0 0 1 14 16a1.99 1.99 0 0 1-1 1.723V20h-2v-2.277a1.992 1.992 0 0 1-.939-2.224z"/>
</symbol>
<symbol id="lock" preserveAspectRatio="xMidYMid meet" viewBox="0 0 24 24">
  <path fill="currentColor" d="M20 12c0-1.103-.897-2-2-2h-1V7c0-2.757-2.243-5-5-5S7 4.243 7 7v3H6c-1.103 0-2 .897-2 2v8c0 1.103.897 2 2 2h12c1.103 0 2-.897 2-2v-8zM9 7c0-1.654 1.346-3 3-3s3 1.346 3 3v3H9V7z"/>
</symbol>
<symbol id="mail" preserveAspectRatio="xMidYMid meet" viewBox="0 0 24 24">
  <path fill="currentColor" d="M20 4H4c-1.1 0-2 .9-2 2v12c0 1.1.9 2 2 2h16c1.1 0 2-.9 2-2V6c0-1.1-.9-2-2-2zm-.4 4.25l-6.54 4.09c-.65.41-1.47.41-2.12 0L4.4 8.25a.85.85 0 1 1 .9-1.44L12 11l6.7-4.19a.85.85 0 1 1 .9 1.44z"/>
</symbol>
<symbol id="mark-as-unread" preserveAspectRatio="xMidYMid meet" viewBox="0 0 24 24">
  <path fill="currentColor" d="M16.23 7h2.6c-.06-.47-.36-.94-.79-1.17L11.4 2.45c-.56-.29-1.23-.29-1.8-.01L2.8 5.83c-.48.26-.8.81-.8 1.34V15c0 1.1.9 2 2 2V7.4L10.5 4l5.73 3z"/>
  <path fill="currentColor" d="M20 8H7c-1.1 0-2 .9-2 2v9c0 1.1.9 2 2 2h13c1.1 0 2-.9 2-2v-9c0-1.1-.9-2-2-2zm0 3.46c0 .33-.19.64-.48.79l-5.61 2.88a.89.89 0 0 1-.81 0l-5.61-2.88a.887.887 0 1 1 .81-1.58l5.2 2.67l5.2-2.67c.6-.31 1.3.12 1.3.79z"/>
</symbol>
<symbol id="mark-email-read" preserveAspectRatio="xMidYMid meet" viewBox="0 0 24 24">
  <path fill="currentColor" d="M18.05 21.29a.996.996 0 0 1-1.41 0l-2.12-2.12a.996.996 0 1 1 1.41-1.41l1.41 1.41l3.54-3.54a.996.996 0 1 1 1.41 1.41l-4.24 4.25zM12.08 20H4c-1.1 0-2-.9-2-2V6c0-1.1.9-2 2-2h16c1.1 0 2 .9 2 2v6.68A6.995 6.995 0 0 0 12 19c0 .34.03.67.08 1zm-.61-7.33c.32.2.74.2 1.06 0l7.07-4.42a.85.85 0 1 0-.9-1.44L12 11L5.3 6.81a.85.85 0 1 0-.9 1.44l7.07 4.42z"/>
</symbol>
<symbol id="menu" preserveAspectRatio="xMidYMid meet" viewBox="0 0 24 24">
  <path fill="currentColor" d="M4 18h16c.55 0 1-.45 1-1s-.45-1-1-1H4c-.55 0-1 .45-1 1s.45 1 1 1zm0-5h16c.55 0 1-.45 1-1s-.45-1-1-1H4c-.55 0-1 .45-1 1s.45 1 1 1zM3 7c0 .55.45 1 1 1h16c.55 0 1-.45 1-1s-.45-1-1-1H4c-.55 0-1 .45-1 1z"/>
</symbol>
<symbol id="message" preserveAspectRatio="xMidYMid meet" viewBox="0 0 24 24">
  <path fill="currentColor" d="M20 2H4c-1.1 0-1.99.9-1.99 2L2 22l4-4h14c1.1 0 2-.9 2-2V4c0-1.1-.9-2-2-2zm-3 12H7c-.55 0-1-.45-1-1s.45-1 1-1h10c.55 0 1 .45 1 1s-.45 1-1 1zm0-3H7c-.55 0-1-.45-1-1s.45-1 1-1h10c.55 0 1 .45 1 1s-.45 1-1 1zm0-3H7c-.55 0-1-.45-1-1s.45-1 1-1h10c.55 0 1 .45 1 1s-.45 1-1 1z"/>
</symbol>
<symbol id="module" preserveAspectRatio="xMidYMid meet" viewBox="0 0 24 24">
  <path fill="currentColor" d="M16.675 11.5q-.425 0-.712-.288q-.288-.287-.288-.712v-4q0-.425.288-.713q.287-.287.712-.287H20q.425 0 .712.287q.288.288.288.713v4q0 .425-.288.712q-.287.288-.712.288Zm-6.325 0q-.425 0-.713-.288q-.287-.287-.287-.712v-4q0-.425.287-.713q.288-.287.713-.287h3.325q.425 0 .713.287q.287.288.287.713v4q0 .425-.287.712q-.288.288-.713.288Zm-6.325 0q-.425 0-.713-.288q-.287-.287-.287-.712v-4q0-.425.287-.713q.288-.287.713-.287H7.35q.425 0 .712.287q.288.288.288.713v4q0 .425-.288.712q-.287.288-.712.288Zm0 7q-.425 0-.713-.288q-.287-.287-.287-.712v-4q0-.425.287-.713q.288-.287.713-.287H7.35q.425 0 .712.287q.288.288.288.713v4q0 .425-.288.712q-.287.288-.712.288Zm6.325 0q-.425 0-.713-.288q-.287-.287-.287-.712v-4q0-.425.287-.713q.288-.287.713-.287h3.325q.425 0 .713.287q.287.288.287.713v4q0 .425-.287.712q-.288.288-.713.288Zm6.325 0q-.425 0-.712-.288q-.288-.287-.288-.712v-4q0-.425.288-.713q.287-.287.712-.287H20q.425 0 .712.287q.288.288.288.713v4q0 .425-.288.712q-.287.288-.712.288Z"/>
</symbol>
<symbol id="more-horiz" preserveAspectRatio="xMidYMid meet" viewBox="0 0 24 24">
  <path fill="currentColor" d="M6 10c-1.1 0-2 .9-2 2s.9 2 2 2s2-.9 2-2s-.9-2-2-2zm12 0c-1.1 0-2 .9-2 2s.9 2 2 2s2-.9 2-2s-.9-2-2-2zm-6 0c-1.1 0-2 .9-2 2s.9 2 2 2s2-.9 2-2s-.9-2-2-2z"/>
</symbol>
<symbol id="notebook" viewBox="0 0 32 32">
  <path fill="currentColor" d="M19 10h7v2h-7zm0 5h7v2h-7zm0 5h7v2h-7z"/>
  <path fill="currentColor" d="M28 5H4a2.002 2.002 0 0 0-2 2v18a2.002 2.002 0 0 0 2 2h24a2.003 2.003 0 0 0 2-2V7a2.002 2.002 0 0 0-2-2ZM4 7h11v18H4Zm13 18V7h11l.002 18Z"/>
</symbol>
<symbol id="open-in-new" preserveAspectRatio="xMidYMid meet" viewBox="0 0 24 24">
  <path fill="currentColor" d="M21 12v7q0 .825-.587 1.413Q19.825 21 19 21H5q-.825 0-1.413-.587Q3 19.825 3 19V5q0-.825.587-1.413Q4.175 3 5 3h7v2H5v14h14v-7ZM9.7 15.7l-1.4-1.4L17.6 5H14V3h7v7h-2V6.4Z"/>
</symbol>
<symbol id="open-with" preserveAspectRatio="xMidYMid meet" viewBox="0 0 24 24">
  <path fill="currentColor" d="M10.5 9h3c.28 0 .5-.22.5-.5V6h1.79c.45 0 .67-.54.35-.85l-3.79-3.79c-.2-.2-.51-.2-.71 0L7.85 5.15a.5.5 0 0 0 .36.85H10v2.5c0 .28.22.5.5.5zm-2 1H6V8.21c0-.45-.54-.67-.85-.35l-3.79 3.79c-.2.2-.2.51 0 .71l3.79 3.79a.5.5 0 0 0 .85-.36V14h2.5c.28 0 .5-.22.5-.5v-3c0-.28-.22-.5-.5-.5zm14.15 1.65l-3.79-3.79a.501.501 0 0 0-.86.35V10h-2.5c-.28 0-.5.22-.5.5v3c0 .28.22.5.5.5H18v1.79c0 .45.54.67.85.35l3.79-3.79c.2-.19.2-.51.01-.7zM13.5 15h-3c-.28 0-.5.22-.5.5V18H8.21c-.45 0-.67.54-.35.85l3.79 3.79c.2.2.51.2.71 0l3.79-3.79a.5.5 0 0 0-.35-.85H14v-2.5c0-.28-.22-.5-.5-.5z"/>
</symbol>
<symbol id="people" preserveAspectRatio="xMidYMid meet" viewBox="0 0 24 24">
  <path fill="currentColor" d="M16 11c1.66 0 2.99-1.34 2.99-3S17.66 5 16 5s-3 1.34-3 3s1.34 3 3 3zm-8 0c1.66 0 2.99-1.34 2.99-3S9.66 5 8 5S5 6.34 5 8s1.34 3 3 3zm0 2c-2.33 0-7 1.17-7 3.5V18c0 .55.45 1 1 1h12c.55 0 1-.45 1-1v-1.5c0-2.33-4.67-3.5-7-3.5zm8 0c-.29 0-.62.02-.97.05c.02.01.03.03.04.04c1.14.83 1.93 1.94 1.93 3.41V18c0 .35-.07.69-.18 1H22c.55 0 1-.45 1-1v-1.5c0-2.33-4.67-3.5-7-3.5z"/>
</symbol>
<symbol id="person" preserveAspectRatio="xMidYMid meet" viewBox="0 0 16 16">
  <path fill="currentColor" d="M3 14s-1 0-1-1s1-4 6-4s6 3 6 4s-1 1-1 1H3zm5-6a3 3 0 1 0 0-6a3 3 0 0 0 0 6z"/>
</symbol>
<symbol id="play-arrow" preserveAspectRatio="xMidYMid meet" viewBox="0 0 24 24">
  <path fill="currentColor" d="M8 6.82v10.36c0 .79.87 1.27 1.54.84l8.14-5.18a1 1 0 0 0 0-1.69L9.54 5.98A.998.998 0 0 0 8 6.82z"/>
</symbol>
<symbol id="popup" preserveAspectRatio="xMidYMid meet" viewBox="0 0 20 20">
  <path fill="currentColor" d="M16 2H7.979C6.88 2 6 2.88 6 3.98V12c0 1.1.9 2 2 2h8c1.1 0 2-.9 2-2V4c0-1.1-.9-2-2-2zm0 10H8V4h8v8zM4 10H2v6c0 1.1.9 2 2 2h6v-2H4v-6z"/>
</symbol>
<symbol id="preview" preserveAspectRatio="xMidYMid meet" viewBox="0 0 24 24">
  <path fill="currentColor" d="M19 3H5a2 2 0 0 0-2 2v14a2 2 0 0 0 2 2h14c1.1 0 2-.9 2-2V5a2 2 0 0 0-2-2zm0 16H5V7h14v12zm-5.5-6c0 .83-.67 1.5-1.5 1.5s-1.5-.67-1.5-1.5s.67-1.5 1.5-1.5s1.5.67 1.5 1.5zM12 9c-2.73 0-5.06 1.66-6 4c.94 2.34 3.27 4 6 4s5.06-1.66 6-4c-.94-2.34-3.27-4-6-4zm0 6.5a2.5 2.5 0 0 1 0-5a2.5 2.5 0 0 1 0 5z"/>
</symbol>
<symbol id="radio-button-checked" preserveAspectRatio="xMidYMid meet" viewBox="0 0 24 24">
  <path fill="currentColor" d="M12 2C6.48 2 2 6.48 2 12s4.48 10 10 10s10-4.48 10-10S17.52 2 12 2zm0 18c-4.42 0-8-3.58-8-8s3.58-8 8-8s8 3.58 8 8s-3.58 8-8 8z"/>
  <circle cx="12" cy="12" r="5" fill="currentColor"/>
</symbol>
<symbol id="radio-button-unchecked" preserveAspectRatio="xMidYMid meet" viewBox="0 0 24 24">
  <path fill="currentColor" d="M12 2C6.48 2 2 6.48 2 12s4.48 10 10 10s10-4.48 10-10S17.52 2 12 2zm0 18c-4.42 0-8-3.58-8-8s3.58-8 8-8s8 3.58 8 8s-3.58 8-8 8z"/>
</symbol>
<symbol id="redo" preserveAspectRatio="xMidYMid meet" viewBox="0 0 24 24">
  <path fill="currentColor" d="M18.4 10.6C16.55 8.99 14.15 8 11.5 8c-4.16 0-7.74 2.42-9.44 5.93c-.32.67.04 1.47.75 1.71c.59.2 1.23-.08 1.5-.64c1.3-2.66 4.03-4.5 7.19-4.5c1.95 0 3.73.72 5.12 1.88l-1.91 1.91c-.63.63-.19 1.71.7 1.71H21c.55 0 1-.45 1-1V9.41c0-.89-1.08-1.34-1.71-.71l-1.89 1.9z"/>
</symbol>
<symbol id="remove" preserveAspectRatio="xMidYMid meet" viewBox="0 0 24 24">
  <path fill="currentColor" d="M18 13H6c-.55 0-1-.45-1-1s.45-1 1-1h12c.55 0 1 .45 1 1s-.45 1-1 1z"/>
</symbol>
<symbol id="reply" preserveAspectRatio="xMidYMid meet" viewBox="0 0 24 24">
  <path fill="currentColor" d="M10 9V5l-7 7l7 7v-4.1c5 0 8.5 1.6 11 5.1c-1-5-4-10-11-11z"/>
</symbol>
<symbol id="reset" viewBox="0 0 24 24">
  <path fill="currentColor" d="M6.78 2.72a.75.75 0 0 1 0 1.06L4.56 6h8.69a7.75 7.75 0 1 1-7.75 7.75a.75.75 0 0 1 1.5 0a6.25 6.25 0 1 0 6.25-6.25H4.56l2.22 2.22a.75.75 0 1 1-1.06 1.06l-3.5-3.5a.75.75 0 0 1 0-1.06l3.5-3.5a.75.75 0 0 1 1.06 0Z"/>
</symbol>
<symbol id="round-person-add" preserveAspectRatio="xMidYMid meet" viewBox="0 0 24 24">
  <circle cx="9" cy="8" r="4" fill="currentColor"/>
  <path fill="currentColor" d="M9 14c-2.67 0-8 1.34-8 4v1c0 .55.45 1 1 1h14c.55 0 1-.45 1-1v-1c0-2.66-5.33-4-8-4zm11-4V7h-2v3h-3v2h3v3h2v-3h3v-2z"/>
</symbol>
<symbol id="save-and-return" viewBox="0 0 24 24">
  <path fill="currentColor" d="M17 3H5a2 2 0 0 0-2 2v14a2 2 0 0 0 2 2h6.81c-.39-.66-.64-1.4-.74-2.16a2.994 2.994 0 0 1-1.87-3.81C9.61 13.83 10.73 13 12 13c.44 0 .88.1 1.28.29c2.29-1.79 5.55-1.7 7.72.25V7l-4-4m-2 6H5V5h10v4m-2 8h4v-3l5 4.5l-5 4.5v-3h-4v-3"/>
</symbol>
<symbol id="save-and-submit" viewBox="0 0 24 24">
  <path fill="currentColor" d="M17 3H5c-1.1 0-2 .9-2 2v14a2 2 0 0 0 2 2h6.81c-.39-.66-.64-1.4-.74-2.16a2.994 2.994 0 0 1-1.87-3.81C9.61 13.83 10.73 13 12 13c.44 0 .88.1 1.28.29c2.29-1.79 5.55-1.7 7.72.25V7l-4-4m-2 6H5V5h10v4m.75 12L13 18l1.16-1.16l1.59 1.59l3.59-3.59l1.16 1.41L15.75 21"/>
</symbol>
<symbol id="save-as-draft" viewBox="0 0 24 24">
  <path fill="currentColor" d="m10 19l.14-.14A2.97 2.97 0 0 1 8 16a3 3 0 0 1 3-3c1.36 0 2.5.9 2.86 2.14L20 9V7l-4-4H4a2 2 0 0 0-2 2v14a2 2 0 0 0 2 2h6v-2M4 5h10v4H4V5m16.04 7.13c-.14 0-.28.06-.39.17l-1 1l2.05 2.05l1-1c.22-.21.22-.56 0-.77l-1.28-1.28a.533.533 0 0 0-.38-.17m-1.97 1.75L12 19.94V22h2.06l6.06-6.07l-2.05-2.05Z"/>
</symbol>
<symbol id="save" preserveAspectRatio="xMidYMid meet" viewBox="0 0 24 24">
  <path fill="currentColor" d="M15 9H5V5h10m-3 14a3 3 0 0 1-3-3a3 3 0 0 1 3-3a3 3 0 0 1 3 3a3 3 0 0 1-3 3m5-16H5a2 2 0 0 0-2 2v14a2 2 0 0 0 2 2h14a2 2 0 0 0 2-2V7l-4-4Z"/>
</symbol>
<symbol id="search" preserveAspectRatio="xMidYMid meet" viewBox="0 0 24 24">
  <path fill="currentColor" fill-rule="evenodd" d="m16.325 14.899l5.38 5.38a1.008 1.008 0 0 1-1.427 1.426l-5.38-5.38a8 8 0 1 1 1.426-1.426ZM10 16a6 6 0 1 0 0-12a6 6 0 0 0 0 12Z"/>
</symbol>
<symbol id="send" preserveAspectRatio="xMidYMid meet" viewBox="0 0 24 24">
  <path fill="currentColor" d="m12.815 12.197l-7.532 1.255a.5.5 0 0 0-.386.318L2.3 20.728c-.248.64.421 1.25 1.035.942l18-9a.75.75 0 0 0 0-1.341l-18-9c-.614-.307-1.283.303-1.035.942l2.598 6.958a.5.5 0 0 0 .386.318l7.532 1.255a.2.2 0 0 1 0 .395Z"/>
</symbol>
<symbol id="settings" preserveAspectRatio="xMidYMid meet" viewBox="0 0 24 24">
  <path fill="currentColor" d="M13.82 22h-3.64a1 1 0 0 1-.977-.786l-.407-1.884a8.002 8.002 0 0 1-1.535-.887l-1.837.585a1 1 0 0 1-1.17-.453L2.43 15.424a1.006 1.006 0 0 1 .193-1.239l1.425-1.3a8.1 8.1 0 0 1 0-1.772L2.623 9.816a1.006 1.006 0 0 1-.193-1.24l1.82-3.153a1 1 0 0 1 1.17-.453l1.837.585c.244-.18.498-.348.76-.5c.253-.142.513-.271.779-.386l.408-1.882A1 1 0 0 1 10.18 2h3.64a1 1 0 0 1 .976.787l.412 1.883a8.192 8.192 0 0 1 1.535.887l1.838-.585a1 1 0 0 1 1.169.453l1.82 3.153c.232.407.152.922-.193 1.239l-1.425 1.3a8.1 8.1 0 0 1 0 1.772l1.425 1.3c.345.318.425.832.193 1.239l-1.82 3.153a1 1 0 0 1-1.17.453l-1.837-.585a7.98 7.98 0 0 1-1.534.886l-.413 1.879a1 1 0 0 1-.976.786ZM11.996 8a4 4 0 1 0 0 8a4 4 0 0 0 0-8Z"/>
</symbol>
<symbol id="share" preserveAspectRatio="xMidYMid meet" viewBox="0 0 24 24">
  <path fill="currentColor" d="M18 16.08c-.76 0-1.44.3-1.96.77L8.91 12.7c.05-.23.09-.46.09-.7s-.04-.47-.09-.7l7.05-4.11c.54.5 1.25.81 2.04.81c1.66 0 3-1.34 3-3s-1.34-3-3-3s-3 1.34-3 3c0 .24.04.47.09.7L8.04 9.81C7.5 9.31 6.79 9 6 9c-1.66 0-3 1.34-3 3s1.34 3 3 3c.79 0 1.5-.31 2.04-.81l7.12 4.16c-.05.21-.08.43-.08.65c0 1.61 1.31 2.92 2.92 2.92s2.92-1.31 2.92-2.92s-1.31-2.92-2.92-2.92z"/>
</symbol>
<symbol id="sort" preserveAspectRatio="xMidYMid meet" viewBox="0 0 24 24">
  <path fill="currentColor" d="M4 18h4c.55 0 1-.45 1-1s-.45-1-1-1H4c-.55 0-1 .45-1 1s.45 1 1 1zM3 7c0 .55.45 1 1 1h16c.55 0 1-.45 1-1s-.45-1-1-1H4c-.55 0-1 .45-1 1zm1 6h10c.55 0 1-.45 1-1s-.45-1-1-1H4c-.55 0-1 .45-1 1s.45 1 1 1z"/>
</symbol>
<symbol id="star" preserveAspectRatio="xMidYMid meet" viewBox="0 0 32 32">
  <path fill="currentColor" d="m16 2l-4.55 9.22l-10.17 1.47l7.36 7.18L6.9 30l9.1-4.78L25.1 30l-1.74-10.13l7.36-7.17l-10.17-1.48Z"/>
</symbol>
<symbol id="stats-chart" preserveAspectRatio="xMidYMid meet" viewBox="0 0 512 512">
  <path fill="currentColor" d="M104 496H72a24 24 0 0 1-24-24V328a24 24 0 0 1 24-24h32a24 24 0 0 1 24 24v144a24 24 0 0 1-24 24Zm224 0h-32a24 24 0 0 1-24-24V232a24 24 0 0 1 24-24h32a24 24 0 0 1 24 24v240a24 24 0 0 1-24 24Zm112 0h-32a24 24 0 0 1-24-24V120a24 24 0 0 1 24-24h32a24 24 0 0 1 24 24v352a24 24 0 0 1-24 24Zm-224 0h-32a24 24 0 0 1-24-24V40a24 24 0 0 1 24-24h32a24 24 0 0 1 24 24v432a24 24 0 0 1-24 24Z"/>
</symbol>
<symbol id="stop" preserveAspectRatio="xMidYMid meet" viewBox="0 0 16 16">
  <path fill="currentColor" d="M5 3.5h6A1.5 1.5 0 0 1 12.5 5v6a1.5 1.5 0 0 1-1.5 1.5H5A1.5 1.5 0 0 1 3.5 11V5A1.5 1.5 0 0 1 5 3.5z"/>
</symbol>
<symbol id="text-fields" viewBox="0 0 24 24">
  <path fill="currentColor" d="M2.5 5.5C2.5 6.33 3.17 7 4 7h3.5v10.5c0 .83.67 1.5 1.5 1.5s1.5-.67 1.5-1.5V7H14c.83 0 1.5-.67 1.5-1.5S14.83 4 14 4H4c-.83 0-1.5.67-1.5 1.5zM20 9h-6c-.83 0-1.5.67-1.5 1.5S13.17 12 14 12h1.5v5.5c0 .83.67 1.5 1.5 1.5s1.5-.67 1.5-1.5V12H20c.83 0 1.5-.67 1.5-1.5S20.83 9 20 9z"/>
</symbol>
<symbol id="timeline" viewBox="0 0 48 48">
  <g fill="none" stroke="currentColor" stroke-width="4">
    <path stroke-linejoin="round" d="M13 12a4 4 0 1 0 8 0a4 4 0 0 0-8 0Zm18 12a4 4 0 1 0 8 0a4 4 0 0 0-8 0ZM13 36a4 4 0 1 0 8 0a4 4 0 0 0-8 0Z"/>
    <path stroke-linecap="round" d="M4 36h9m8 0h23M4 12h9m8 0h23"/>
    <path stroke-linecap="round" stroke-linejoin="round" d="M4 4v40"/>
    <path stroke-linecap="round" d="M4 24h27m8 0h5"/>
  </g>
</symbol>
<symbol id="undo" preserveAspectRatio="xMidYMid meet" viewBox="0 0 24 24">
  <path fill="currentColor" d="M12.5 8c-2.65 0-5.05.99-6.9 2.6L3.71 8.71C3.08 8.08 2 8.52 2 9.41V15c0 .55.45 1 1 1h5.59c.89 0 1.34-1.08.71-1.71l-1.91-1.91c1.39-1.16 3.16-1.88 5.12-1.88c3.16 0 5.89 1.84 7.19 4.5c.27.56.91.84 1.5.64c.71-.23 1.07-1.04.75-1.72C20.23 10.42 16.65 8 12.5 8z"/>
</symbol>
<symbol id="view-list" preserveAspectRatio="xMidYMid meet" viewBox="0 0 24 24">
  <path fill="currentColor" d="M4 14h2c.55 0 1-.45 1-1v-2c0-.55-.45-1-1-1H4c-.55 0-1 .45-1 1v2c0 .55.45 1 1 1zm0 5h2c.55 0 1-.45 1-1v-2c0-.55-.45-1-1-1H4c-.55 0-1 .45-1 1v2c0 .55.45 1 1 1zM4 9h2c.55 0 1-.45 1-1V6c0-.55-.45-1-1-1H4c-.55 0-1 .45-1 1v2c0 .55.45 1 1 1zm5 5h11c.55 0 1-.45 1-1v-2c0-.55-.45-1-1-1H9c-.55 0-1 .45-1 1v2c0 .55.45 1 1 1zm0 5h11c.55 0 1-.45 1-1v-2c0-.55-.45-1-1-1H9c-.55 0-1 .45-1 1v2c0 .55.45 1 1 1zM8 6v2c0 .55.45 1 1 1h11c.55 0 1-.45 1-1V6c0-.55-.45-1-1-1H9c-.55 0-1 .45-1 1z"/>
</symbol>
<symbol id="visibility" preserveAspectRatio="xMidYMid meet" viewBox="0 0 24 24">
  <path fill="currentColor" d="M12 4C7 4 2.73 7.11 1 11.5C2.73 15.89 7 19 12 19s9.27-3.11 11-7.5C21.27 7.11 17 4 12 4zm0 12.5c-2.76 0-5-2.24-5-5s2.24-5 5-5s5 2.24 5 5s-2.24 5-5 5zm0-8c-1.66 0-3 1.34-3 3s1.34 3 3 3s3-1.34 3-3s-1.34-3-3-3z"/>
</symbol>
<symbol id="zoom-in" preserveAspectRatio="xMidYMid meet" viewBox="0 0 24 24">
  <path fill="currentColor" d="M15.5 14h-.79l-.28-.27a6.5 6.5 0 0 0 1.48-5.34c-.47-2.78-2.79-5-5.59-5.34c-4.23-.52-7.78 3.04-7.27 7.27c.34 2.8 2.56 5.12 5.34 5.59a6.5 6.5 0 0 0 5.34-1.48l.27.28v.79l4.26 4.25c.41.41 1.07.41 1.48 0l.01-.01c.41-.41.41-1.07 0-1.48L15.5 14zm-6 0C7.01 14 5 11.99 5 9.5S7.01 5 9.5 5S14 7.01 14 9.5S11.99 14 9.5 14zm0-7c-.28 0-.5.22-.5.5V9H7.5c-.28 0-.5.22-.5.5s.22.5.5.5H9v1.5c0 .28.22.5.5.5s.5-.22.5-.5V10h1.5c.28 0 .5-.22.5-.5s-.22-.5-.5-.5H10V7.5c0-.28-.22-.5-.5-.5z"/>
</symbol>
<symbol id="zoom-out" preserveAspectRatio="xMidYMid meet" viewBox="0 0 24 24">
  <path fill="currentColor" d="M15.5 14h-.79l-.28-.27a6.5 6.5 0 0 0 1.48-5.34c-.47-2.78-2.79-5-5.59-5.34a6.505 6.505 0 0 0-7.27 7.27c.34 2.8 2.56 5.12 5.34 5.59a6.5 6.5 0 0 0 5.34-1.48l.27.28v.79l4.26 4.25c.41.41 1.07.41 1.48 0l.01-.01c.41-.41.41-1.07 0-1.48L15.5 14zm-6 0C7.01 14 5 11.99 5 9.5S7.01 5 9.5 5S14 7.01 14 9.5S11.99 14 9.5 14zm-2-5h4c.28 0 .5.22.5.5s-.22.5-.5.5h-4c-.28 0-.5-.22-.5-.5s.22-.5.5-.5z"/>
</symbol>
</svg>