<svg xmlns="http://www.w3.org/2000/svg" xmlns:xlink="http://www.w3.org/1999/xlink">
<symbol id="add" preserveAspectRatio="xMidYMid meet" viewBox="0 0 24 24">
  <path fill="currentColor" d="M19 13h-6v6h-2v-6H5v-2h6V5h2v6h6v2z"/>
</symbol>
<symbol id="arrow-back" preserveAspectRatio="xMidYMid meet" viewBox="0 0 24 24">
  <g fill="none" stroke="currentColor" stroke-linecap="round" stroke-linejoin="round" stroke-width="2">
    <path d="m8 5l-5 5l5 5"/>
    <path d="M3 10h8c5.523 0 10 4.477 10 10v1"/>
  </g>
</symbol>
<symbol id="arrow-cycle" preserveAspectRatio="xMidYMid meet" viewBox="0 0 24 24">
  <g fill="none" stroke="currentColor" stroke-linecap="round" stroke-linejoin="round" stroke-width="2">
    <path d="M22 12c0 6-4.39 10-9.806 10C7.792 22 4.24 19.665 3 16m-1-4C2 6 6.39 2 11.806 2C16.209 2 19.76 4.335 21 8"/>
    <path d="m7 17l-4-1l-1 4M17 7l4 1l1-4"/>
  </g>
</symbol>
<symbol id="arrow-down-left" preserveAspectRatio="xMidYMid meet" viewBox="0 0 24 24">
  <path fill="none" stroke="currentColor" stroke-linecap="round" stroke-linejoin="round" stroke-width="2" d="M6 18L18 6M6 8v10h10"/>
</symbol>
<symbol id="arrow-down-right" preserveAspectRatio="xMidYMid meet" viewBox="0 0 24 24">
  <path fill="none" stroke="currentColor" stroke-linecap="round" stroke-linejoin="round" stroke-width="2" d="M18 18L6 6m2 12h10V8"/>
</symbol>
<symbol id="arrow-down" preserveAspectRatio="xMidYMid meet" viewBox="0 0 24 24">
  <path fill="none" stroke="currentColor" stroke-linecap="round" stroke-linejoin="round" stroke-width="2" d="M12 20V4m-7 9l7 7l7-7"/>
</symbol>
<symbol id="arrow-drop-down" preserveAspectRatio="xMidYMid meet" viewBox="0 0 24 24">
  <path fill="currentColor" d="m7 10l5 5l5-5H7z"/>
</symbol>
<symbol id="arrow-drop-up" preserveAspectRatio="xMidYMid meet" viewBox="0 0 24 24">
  <path fill="currentColor" d="m7 14l5-5l5 5H7z"/>
</symbol>
<symbol id="arrow-forward" preserveAspectRatio="xMidYMid meet" viewBox="0 0 24 24">
  <g fill="none" stroke="currentColor" stroke-linecap="round" stroke-linejoin="round" stroke-width="2">
    <path d="m16 5l5 5l-5 5"/>
    <path d="M21 10h-8C7.477 10 3 14.477 3 20v1"/>
  </g>
</symbol>
<symbol id="arrow-left" preserveAspectRatio="xMidYMid meet" viewBox="0 0 24 24">
  <path fill="none" stroke="currentColor" stroke-linecap="round" stroke-linejoin="round" stroke-width="2" d="m11 5l-7 7l7 7m-7-7h16"/>
</symbol>
<symbol id="arrow-repeat" preserveAspectRatio="xMidYMid meet" viewBox="0 0 24 24">
  <g fill="none" stroke="currentColor" stroke-linecap="round" stroke-linejoin="round" stroke-width="2">
    <path d="m18 2l3 3l-3 3M6 22l-3-3l3-3"/>
    <path d="M21 5H10a7 7 0 0 0-7 7m0 7h11a7 7 0 0 0 7-7"/>
  </g>
</symbol>
<symbol id="arrow-right-left" preserveAspectRatio="xMidYMid meet" viewBox="0 0 24 24">
  <path fill="none" stroke="currentColor" stroke-linecap="round" stroke-linejoin="round" stroke-width="2" d="M21 6H3m18 0l-4 4m4-4l-4-4M3 18h18M3 18l4 4m-4-4l4-4"/>
</symbol>
<symbol id="arrow-right" preserveAspectRatio="xMidYMid meet" viewBox="0 0 24 24">
  <path fill="none" stroke="currentColor" stroke-linecap="round" stroke-linejoin="round" stroke-width="2" d="M4 12h16m-7-7l7 7l-7 7"/>
</symbol>
<symbol id="arrow-shuffle" preserveAspectRatio="xMidYMid meet" viewBox="0 0 24 24">
  <g fill="none" stroke="currentColor" stroke-linecap="round" stroke-linejoin="round" stroke-width="2">
    <path d="M2 19h3.908a2 2 0 0 0 1.682-.919L11.5 12l3.91-6.082A2 2 0 0 1 17.091 5H22m0 14h-4.908a2 2 0 0 1-1.682-.919L13.428 15M2 5h3.908a2 2 0 0 1 1.682.918L9.571 9"/>
    <path d="m19 2l3 3l-3 3m0 8l3 3l-3 3"/>
  </g>
</symbol>
<symbol id="arrow-up-down" preserveAspectRatio="xMidYMid meet" viewBox="0 0 24 24">
  <path fill="none" stroke="currentColor" stroke-linecap="round" stroke-linejoin="round" stroke-width="2" d="M6 3v18M6 3l4 4M6 3L2 7m16 14V3m0 18l4-4m-4 4l-4-4"/>
</symbol>
<symbol id="arrow-up-left" preserveAspectRatio="xMidYMid meet" viewBox="0 0 24 24">
  <path fill="none" stroke="currentColor" stroke-linecap="round" stroke-linejoin="round" stroke-width="2" d="m6 6l12 12M16 6H6v10"/>
</symbol>
<symbol id="arrow-up-right" preserveAspectRatio="xMidYMid meet" viewBox="0 0 24 24">
  <path fill="none" stroke="currentColor" stroke-linecap="round" stroke-linejoin="round" stroke-width="2" d="M18 6L6 18M8 6h10v10"/>
</symbol>
<symbol id="arrow-up" preserveAspectRatio="xMidYMid meet" viewBox="0 0 24 24">
  <path fill="none" stroke="currentColor" stroke-linecap="round" stroke-linejoin="round" stroke-width="2" d="M12 20V4m-7 7l7-7l7 7"/>
</symbol>
<symbol id="attachment-line" preserveAspectRatio="xMidYMid meet" viewBox="0 0 36 36">
  <path fill="currentColor" d="M8.42 32.6A6.3 6.3 0 0 1 4 30.79l-.13-.13A6.2 6.2 0 0 1 2 26.22a6.77 6.77 0 0 1 2-4.82L19.5 6.07a8.67 8.67 0 0 1 12.15-.35A8 8 0 0 1 34 11.44a9 9 0 0 1-2.7 6.36L17.37 31.6A1 1 0 1 1 16 30.18l13.89-13.8A7 7 0 0 0 32 11.44a6 6 0 0 0-1.76-4.3a6.67 6.67 0 0 0-9.34.35L5.45 22.82A4.78 4.78 0 0 0 4 26.22a4.21 4.21 0 0 0 1.24 3l.13.13a4.64 4.64 0 0 0 6.5-.21l13.35-13.2A2.7 2.7 0 0 0 26 14a2.35 2.35 0 0 0-.69-1.68a2.61 2.61 0 0 0-3.66.13l-9.2 9.12a1 1 0 1 1-1.41-1.42L20.28 11a4.62 4.62 0 0 1 6.48-.13A4.33 4.33 0 0 1 28 14a4.68 4.68 0 0 1-1.41 3.34L13.28 30.58a6.91 6.91 0 0 1-4.86 2.02Z" class="clr-i-outline clr-i-outline-path-1"/>
  <path fill="none" d="M0 0h36v36H0z"/>
</symbol>
<symbol id="build-circle-outline" preserveAspectRatio="xMidYMid meet" viewBox="0 0 24 24">
  <path fill="currentColor" fill-rule="evenodd" d="M12 2C6.48 2 2 6.48 2 12s4.48 10 10 10s10-4.48 10-10S17.52 2 12 2zm0 18c-4.41 0-8-3.59-8-8s3.59-8 8-8s8 3.59 8 8s-3.59 8-8 8z"/>
  <path fill="currentColor" fill-rule="evenodd" d="M13.49 11.38c.43-1.22.17-2.64-.81-3.62a3.468 3.468 0 0 0-4.1-.59l2.35 2.35l-1.41 1.41l-2.35-2.35c-.71 1.32-.52 2.99.59 4.1c.98.98 2.4 1.24 3.62.81l3.41 3.41c.2.2.51.2.71 0l1.4-1.4c.2-.2.2-.51 0-.71l-3.41-3.41z"/>
</symbol>
<symbol id="checkbox-checked-outline" preserveAspectRatio="xMidYMid meet" viewBox="0 0 24 24">
  <path fill="currentColor" d="M19 3H5a2 2 0 0 0-2 2v14a2 2 0 0 0 2 2h14a2 2 0 0 0 2-2V5a2 2 0 0 0-2-2m0 2v14H5V5h14m-9 12l-4-4l1.41-1.42L10 14.17l6.59-6.59L18 9"/>
</symbol>
<symbol id="checkbox-checked" preserveAspectRatio="xMidYMid meet" viewBox="0 0 24 24">
  <path fill="currentColor" d="m10 17l-5-5l1.41-1.42L10 14.17l7.59-7.59L19 8m0-5H5c-1.11 0-2 .89-2 2v14a2 2 0 0 0 2 2h14a2 2 0 0 0 2-2V5a2 2 0 0 0-2-2Z"/>
</symbol>
<symbol id="checkbox-intermediate" preserveAspectRatio="xMidYMid meet" viewBox="0 0 24 24">
  <path fill="currentColor" d="M19 3H5a2 2 0 0 0-2 2v14a2 2 0 0 0 2 2h14a2 2 0 0 0 2-2V5a2 2 0 0 0-2-2m0 16H5V5h14v14m-2-2H7V7h10v10Z"/>
</symbol>
<symbol id="checkbox-off-outline" preserveAspectRatio="xMidYMid meet" viewBox="0 0 24 24">
  <path fill="currentColor" d="M22.11 21.46L2.39 1.73L1.11 3L3 4.9V19a2 2 0 0 0 2 2h14.1l1.74 1.73l1.27-1.27M5 19V6.89L17.11 19H5M8.2 5l-2-2H19a2 2 0 0 1 2 2v12.8l-2-2V5H8.2Z"/>
</symbol>
<symbol id="checkbox-off" preserveAspectRatio="xMidYMid meet" viewBox="0 0 24 24">
  <path fill="currentColor" d="M20.84 22.73L19.1 21H5a2 2 0 0 1-2-2V4.9L1.11 3l1.28-1.27l19.72 19.73l-1.27 1.27M21 5a2 2 0 0 0-2-2H6.2L21 17.8V5Z"/>
</symbol>
<symbol id="checkbox-outline" preserveAspectRatio="xMidYMid meet" viewBox="0 0 24 24">
  <path fill="currentColor" d="M19 3H5c-1.11 0-2 .89-2 2v14a2 2 0 0 0 2 2h14a2 2 0 0 0 2-2V5a2 2 0 0 0-2-2m0 2v14H5V5h14Z"/>
</symbol>
<symbol id="checkbox" preserveAspectRatio="xMidYMid meet" viewBox="0 0 24 24">
  <path fill="currentColor" d="M19 3H5c-1.11 0-2 .89-2 2v14a2 2 0 0 0 2 2h14a2 2 0 0 0 2-2V5a2 2 0 0 0-2-2Z"/>
</symbol>
<symbol id="chevron-left" preserveAspectRatio="xMidYMid meet" viewBox="0 0 20 20">
  <path fill="currentColor" d="M12.452 4.516c.446.436.481 1.043 0 1.576L8.705 10l3.747 3.908c.481.533.446 1.141 0 1.574c-.445.436-1.197.408-1.615 0c-.418-.406-4.502-4.695-4.502-4.695a1.095 1.095 0 0 1 0-1.576s4.084-4.287 4.502-4.695c.418-.409 1.17-.436 1.615 0z"/>
</symbol>
<symbol id="chevron-right" preserveAspectRatio="xMidYMid meet" viewBox="0 0 20 20">
  <path fill="currentColor" d="M9.163 4.516c.418.408 4.502 4.695 4.502 4.695a1.095 1.095 0 0 1 0 1.576s-4.084 4.289-4.502 4.695c-.418.408-1.17.436-1.615 0c-.446-.434-.481-1.041 0-1.574L11.295 10L7.548 6.092c-.481-.533-.446-1.141 0-1.576c.445-.436 1.197-.409 1.615 0z"/>
</symbol>
<symbol id="close" preserveAspectRatio="xMidYMid meet" viewBox="0 0 24 24">
  <path fill="currentColor" d="M19 6.41L17.59 5L12 10.59L6.41 5L5 6.41L10.59 12L5 17.59L6.41 19L12 13.41L17.59 19L19 17.59L13.41 12z"/>
</symbol>
<symbol id="comment-dots" preserveAspectRatio="xMidYMid meet" viewBox="0 0 512 512">
  <path fill="currentColor" d="M144 208c-17.7 0-32 14.3-32 32s14.3 32 32 32s32-14.3 32-32s-14.3-32-32-32zm112 0c-17.7 0-32 14.3-32 32s14.3 32 32 32s32-14.3 32-32s-14.3-32-32-32zm112 0c-17.7 0-32 14.3-32 32s14.3 32 32 32s32-14.3 32-32s-14.3-32-32-32zM256 32C114.6 32 0 125.1 0 240c0 47.6 19.9 91.2 52.9 126.3C38 405.7 7 439.1 6.5 439.5c-6.6 7-8.4 17.2-4.6 26S14.4 480 24 480c61.5 0 110-25.7 139.1-46.3C192 442.8 223.2 448 256 448c141.4 0 256-93.1 256-208S397.4 32 256 32zm0 368c-26.7 0-53.1-4.1-78.4-12.1l-22.7-7.2l-19.5 13.8c-14.3 10.1-33.9 21.4-57.5 29c7.3-12.1 14.4-25.7 19.9-40.2l10.6-28.1l-20.6-21.8C69.7 314.1 48 282.2 48 240c0-88.2 93.3-160 208-160s208 71.8 208 160s-93.3 160-208 160z"/>
</symbol>
<symbol id="cross-circle" preserveAspectRatio="xMidYMid meet" viewBox="0 0 24 24">
  <path fill="currentColor" d="M19.1 4.9C15.2 1 8.8 1 4.9 4.9S1 15.2 4.9 19.1s10.2 3.9 14.1 0s4-10.3.1-14.2zm-4.3 11.3L12 13.4l-2.8 2.8l-1.4-1.4l2.8-2.8l-2.8-2.8l1.4-1.4l2.8 2.8l2.8-2.8l1.4 1.4l-2.8 2.8l2.8 2.8l-1.4 1.4z"/>
</symbol>
<symbol id="delete-forever-outline" preserveAspectRatio="xMidYMid meet" viewBox="0 0 24 24">
  <path fill="currentColor" d="M14.12 10.47L12 12.59l-2.13-2.12l-1.41 1.41L10.59 14l-2.12 2.12l1.41 1.41L12 15.41l2.12 2.12l1.41-1.41L13.41 14l2.12-2.12l-1.41-1.41M15.5 4l-1-1h-5l-1 1H5v2h14V4h-3.5M6 19a2 2 0 0 0 2 2h8a2 2 0 0 0 2-2V7H6v12M8 9h8v10H8V9Z"/>
</symbol>
<symbol id="delete-forever" preserveAspectRatio="xMidYMid meet" viewBox="0 0 24 24">
  <path fill="currentColor" d="M6 19a2 2 0 0 0 2 2h8a2 2 0 0 0 2-2V7H6v12m2.46-7.12l1.41-1.41L12 12.59l2.12-2.12l1.41 1.41L13.41 14l2.12 2.12l-1.41 1.41L12 15.41l-2.12 2.12l-1.41-1.41L10.59 14l-2.13-2.12M15.5 4l-1-1h-5l-1 1H5v2h14V4h-3.5Z"/>
</symbol>
<symbol id="delete-outline" preserveAspectRatio="xMidYMid meet" viewBox="0 0 24 24">
  <path fill="currentColor" d="M6 19a2 2 0 0 0 2 2h8a2 2 0 0 0 2-2V7H6v12M8 9h8v10H8V9m7.5-5l-1-1h-5l-1 1H5v2h14V4h-3.5Z"/>
</symbol>
<symbol id="delete" preserveAspectRatio="xMidYMid meet" viewBox="0 0 24 24">
  <path fill="currentColor" d="M19 4h-3.5l-1-1h-5l-1 1H5v2h14M6 19a2 2 0 0 0 2 2h8a2 2 0 0 0 2-2V7H6v12Z"/>
</symbol>
<symbol id="done" preserveAspectRatio="xMidYMid meet" viewBox="0 0 24 24">
  <path fill="currentColor" d="m9 16.2l-3.5-3.5a.984.984 0 0 0-1.4 0a.984.984 0 0 0 0 1.4l4.19 4.19c.39.39 1.02.39 1.41 0L20.3 7.7a.984.984 0 0 0 0-1.4a.984.984 0 0 0-1.4 0L9 16.2z"/>
</symbol>
<symbol id="edit" preserveAspectRatio="xMidYMid meet" viewBox="0 0 24 24">
  <path fill="currentColor" d="M4.42 20.579a1 1 0 0 1-.737-.326a.988.988 0 0 1-.263-.764l.245-2.694L14.983 5.481l3.537 3.536L7.205 20.33l-2.694.245a.95.95 0 0 1-.091.004ZM19.226 8.31L15.69 4.774l2.121-2.121a1 1 0 0 1 1.415 0l2.121 2.121a1 1 0 0 1 0 1.415l-2.12 2.12l-.001.001Z"/>
</symbol>
<symbol id="expand-more" preserveAspectRatio="xMidYMid meet" viewBox="0 0 24 24">
  <path fill="currentColor" d="M15.88 9.29L12 13.17L8.12 9.29a.996.996 0 1 0-1.41 1.41l4.59 4.59c.39.39 1.02.39 1.41 0l4.59-4.59a.996.996 0 0 0 0-1.41c-.39-.38-1.03-.39-1.42 0z"/>
</symbol>
<symbol id="folder-open" preserveAspectRatio="xMidYMid meet" viewBox="0 0 24 24">
  <path fill="currentColor" d="M20 6h-8l-2-2H4c-1.1 0-1.99.9-1.99 2L2 18c0 1.1.9 2 2 2h16c1.1 0 2-.9 2-2V8c0-1.1-.9-2-2-2zm0 12H4V8h16v10z"/>
</symbol>
<symbol id="folder" preserveAspectRatio="xMidYMid meet" viewBox="0 0 24 24">
  <path fill="currentColor" d="M10 4H4c-1.1 0-1.99.9-1.99 2L2 18c0 1.1.9 2 2 2h16c1.1 0 2-.9 2-2V8c0-1.1-.9-2-2-2h-8l-2-2z"/>
</symbol>
<symbol id="fullscreen-exit" preserveAspectRatio="xMidYMid meet" viewBox="0 0 24 24">
  <path fill="currentColor" d="M6 16h2v2c0 .55.45 1 1 1s1-.45 1-1v-3c0-.55-.45-1-1-1H6c-.55 0-1 .45-1 1s.45 1 1 1zm2-8H6c-.55 0-1 .45-1 1s.45 1 1 1h3c.55 0 1-.45 1-1V6c0-.55-.45-1-1-1s-1 .45-1 1v2zm7 11c.55 0 1-.45 1-1v-2h2c.55 0 1-.45 1-1s-.45-1-1-1h-3c-.55 0-1 .45-1 1v3c0 .55.45 1 1 1zm1-11V6c0-.55-.45-1-1-1s-1 .45-1 1v3c0 .55.45 1 1 1h3c.55 0 1-.45 1-1s-.45-1-1-1h-2z"/>
</symbol>
<symbol id="fullscreen" preserveAspectRatio="xMidYMid meet" viewBox="0 0 24 24">
  <path fill="currentColor" d="M6 14c-.55 0-1 .45-1 1v3c0 .55.45 1 1 1h3c.55 0 1-.45 1-1s-.45-1-1-1H7v-2c0-.55-.45-1-1-1zm0-4c.55 0 1-.45 1-1V7h2c.55 0 1-.45 1-1s-.45-1-1-1H6c-.55 0-1 .45-1 1v3c0 .55.45 1 1 1zm11 7h-2c-.55 0-1 .45-1 1s.45 1 1 1h3c.55 0 1-.45 1-1v-3c0-.55-.45-1-1-1s-1 .45-1 1v2zM14 6c0 .55.45 1 1 1h2v2c0 .55.45 1 1 1s1-.45 1-1V6c0-.55-.45-1-1-1h-3c-.55 0-1 .45-1 1z"/>
</symbol>
<symbol id="grading" preserveAspectRatio="xMidYMid meet" viewBox="0 0 24 24">
  <path fill="currentColor" d="M5 7h14c.55 0 1 .45 1 1s-.45 1-1 1H5c-.55 0-1-.45-1-1s.45-1 1-1zm0 6h14c.55 0 1-.45 1-1s-.45-1-1-1H5c-.55 0-1 .45-1 1s.45 1 1 1zm0 4h5c.55 0 1-.45 1-1s-.45-1-1-1H5c-.55 0-1 .45-1 1s.45 1 1 1zm0 4h5c.55 0 1-.45 1-1s-.45-1-1-1H5c-.55 0-1 .45-1 1s.45 1 1 1zm10.41-2.83l-.71-.71a.996.996 0 1 0-1.41 1.41l1.42 1.42c.39.39 1.02.39 1.41 0l3.17-3.17a.996.996 0 1 0-1.41-1.41l-2.47 2.46zM4 4c0 .55.45 1 1 1h14c.55 0 1-.45 1-1s-.45-1-1-1H5c-.55 0-1 .45-1 1z"/>
</symbol>
<symbol id="heart-outline" preserveAspectRatio="xMidYMid meet" viewBox="0 0 24 24">
  <path fill="none" stroke="currentColor" stroke-linecap="round" stroke-linejoin="round" stroke-width="2" d="M7 3C4.239 3 2 5.216 2 7.95c0 2.207.875 7.445 9.488 12.74a.985.985 0 0 0 1.024 0C21.125 15.395 22 10.157 22 7.95C22 5.216 19.761 3 17 3s-5 3-5 3s-2.239-3-5-3Z"/>
</symbol>
<symbol id="heart" preserveAspectRatio="xMidYMid meet" viewBox="0 0 1024 1024">
  <path fill="currentColor" d="M923 283.6a260.04 260.04 0 0 0-56.9-82.8a264.4 264.4 0 0 0-84-55.5A265.34 265.34 0 0 0 679.7 125c-49.3 0-97.4 13.5-139.2 39c-10 6.1-19.5 12.8-28.5 20.1c-9-7.3-18.5-14-28.5-20.1c-41.8-25.5-89.9-39-139.2-39c-35.5 0-69.9 6.8-102.4 20.3c-31.4 13-59.7 31.7-84 55.5a258.44 258.44 0 0 0-56.9 82.8c-13.9 32.3-21 66.6-21 101.9c0 33.3 6.8 68 20.3 103.3c11.3 29.5 27.5 60.1 48.2 91c32.8 48.9 77.9 99.9 133.9 151.6c92.8 85.7 184.7 144.9 188.6 147.3l23.7 15.2c10.5 6.7 24 6.7 34.5 0l23.7-15.2c3.9-2.5 95.7-61.6 188.6-147.3c56-51.7 101.1-102.7 133.9-151.6c20.7-30.9 37-61.5 48.2-91c13.5-35.3 20.3-70 20.3-103.3c.1-35.3-7-69.6-20.9-101.9z"/>
</symbol>
<symbol id="home" preserveAspectRatio="xMidYMid meet" viewBox="0 0 24 24">
  <path fill="currentColor" d="M10 19v-5h4v5c0 .55.45 1 1 1h3c.55 0 1-.45 1-1v-7h1.7c.46 0 .68-.57.33-.87L12.67 3.6c-.38-.34-.96-.34-1.34 0l-8.36 7.53c-.34.3-.13.87.33.87H5v7c0 .55.45 1 1 1h3c.55 0 1-.45 1-1z"/>
</symbol>
<symbol id="info-circle" preserveAspectRatio="xMidYMid meet" viewBox="0 0 1024 1024">
  <path fill="currentColor" d="M512 64C264.6 64 64 264.6 64 512s200.6 448 448 448s448-200.6 448-448S759.4 64 512 64zm32 664c0 4.4-3.6 8-8 8h-48c-4.4 0-8-3.6-8-8V456c0-4.4 3.6-8 8-8h48c4.4 0 8 3.6 8 8v272zm-32-344a48.01 48.01 0 0 1 0-96a48.01 48.01 0 0 1 0 96z"/>
</symbol>
<symbol id="label-outline" preserveAspectRatio="xMidYMid meet" viewBox="0 0 24 24">
  <path fill="currentColor" d="M17.63 5.84C17.27 5.33 16.67 5 16 5L5 5.01C3.9 5.01 3 5.9 3 7v10c0 1.1.9 1.99 2 1.99L16 19c.67 0 1.27-.33 1.63-.84L22 12l-4.37-6.16zM16 17H5V7h11l3.55 5L16 17z"/>
</symbol>
<symbol id="label" preserveAspectRatio="xMidYMid meet" viewBox="0 0 24 24">
  <path fill="currentColor" d="M17.63 5.84C17.27 5.33 16.67 5 16 5L5 5.01C3.9 5.01 3 5.9 3 7v10c0 1.1.9 1.99 2 1.99L16 19c.67 0 1.27-.33 1.63-.84l3.96-5.58a.99.99 0 0 0 0-1.16l-3.96-5.58z"/>
</symbol>
<symbol id="lock-open" preserveAspectRatio="xMidYMid meet" viewBox="0 0 24 24">
  <path fill="currentColor" d="M18 10H9V7c0-1.654 1.346-3 3-3s3 1.346 3 3h2c0-2.757-2.243-5-5-5S7 4.243 7 7v3H6a2 2 0 0 0-2 2v8a2 2 0 0 0 2 2h12a2 2 0 0 0 2-2v-8a2 2 0 0 0-2-2zm-7.939 5.499A2.002 2.002 0 0 1 14 16a1.99 1.99 0 0 1-1 1.723V20h-2v-2.277a1.992 1.992 0 0 1-.939-2.224z"/>
</symbol>
<symbol id="lock" preserveAspectRatio="xMidYMid meet" viewBox="0 0 24 24">
  <path fill="currentColor" d="M20 12c0-1.103-.897-2-2-2h-1V7c0-2.757-2.243-5-5-5S7 4.243 7 7v3H6c-1.103 0-2 .897-2 2v8c0 1.103.897 2 2 2h12c1.103 0 2-.897 2-2v-8zM9 7c0-1.654 1.346-3 3-3s3 1.346 3 3v3H9V7z"/>
</symbol>
<symbol id="more-horiz" preserveAspectRatio="xMidYMid meet" viewBox="0 0 24 24">
  <path fill="currentColor" d="M6 10c-1.1 0-2 .9-2 2s.9 2 2 2s2-.9 2-2s-.9-2-2-2zm12 0c-1.1 0-2 .9-2 2s.9 2 2 2s2-.9 2-2s-.9-2-2-2zm-6 0c-1.1 0-2 .9-2 2s.9 2 2 2s2-.9 2-2s-.9-2-2-2z"/>
</symbol>
<symbol id="open-with" preserveAspectRatio="xMidYMid meet" viewBox="0 0 24 24">
  <path fill="currentColor" d="M10.5 9h3c.28 0 .5-.22.5-.5V6h1.79c.45 0 .67-.54.35-.85l-3.79-3.79c-.2-.2-.51-.2-.71 0L7.85 5.15a.5.5 0 0 0 .36.85H10v2.5c0 .28.22.5.5.5zm-2 1H6V8.21c0-.45-.54-.67-.85-.35l-3.79 3.79c-.2.2-.2.51 0 .71l3.79 3.79a.5.5 0 0 0 .85-.36V14h2.5c.28 0 .5-.22.5-.5v-3c0-.28-.22-.5-.5-.5zm14.15 1.65l-3.79-3.79a.501.501 0 0 0-.86.35V10h-2.5c-.28 0-.5.22-.5.5v3c0 .28.22.5.5.5H18v1.79c0 .45.54.67.85.35l3.79-3.79c.2-.19.2-.51.01-.7zM13.5 15h-3c-.28 0-.5.22-.5.5V18H8.21c-.45 0-.67.54-.35.85l3.79 3.79c.2.2.51.2.71 0l3.79-3.79a.5.5 0 0 0-.35-.85H14v-2.5c0-.28-.22-.5-.5-.5z"/>
</symbol>
<symbol id="preview" preserveAspectRatio="xMidYMid meet" viewBox="0 0 24 24">
  <path fill="currentColor" d="M19 3H5a2 2 0 0 0-2 2v14a2 2 0 0 0 2 2h14c1.1 0 2-.9 2-2V5a2 2 0 0 0-2-2zm0 16H5V7h14v12zm-5.5-6c0 .83-.67 1.5-1.5 1.5s-1.5-.67-1.5-1.5s.67-1.5 1.5-1.5s1.5.67 1.5 1.5zM12 9c-2.73 0-5.06 1.66-6 4c.94 2.34 3.27 4 6 4s5.06-1.66 6-4c-.94-2.34-3.27-4-6-4zm0 6.5a2.5 2.5 0 0 1 0-5a2.5 2.5 0 0 1 0 5z"/>
</symbol>
<symbol id="remove" preserveAspectRatio="xMidYMid meet" viewBox="0 0 24 24">
  <path fill="currentColor" d="M18 13H6c-.55 0-1-.45-1-1s.45-1 1-1h12c.55 0 1 .45 1 1s-.45 1-1 1z"/>
</symbol>
<symbol id="reply" preserveAspectRatio="xMidYMid meet" viewBox="0 0 24 24">
  <path fill="currentColor" d="M10 9V5l-7 7l7 7v-4.1c5 0 8.5 1.6 11 5.1c-1-5-4-10-11-11z"/>
</symbol>
<symbol id="save" preserveAspectRatio="xMidYMid meet" viewBox="0 0 24 24">
  <path fill="currentColor" d="M15 9H5V5h10m-3 14a3 3 0 0 1-3-3a3 3 0 0 1 3-3a3 3 0 0 1 3 3a3 3 0 0 1-3 3m5-16H5a2 2 0 0 0-2 2v14a2 2 0 0 0 2 2h14a2 2 0 0 0 2-2V7l-4-4Z"/>
</symbol>
<symbol id="search" preserveAspectRatio="xMidYMid meet" viewBox="0 0 24 24">
  <path fill="currentColor" fill-rule="evenodd" d="m16.325 14.899l5.38 5.38a1.008 1.008 0 0 1-1.427 1.426l-5.38-5.38a8 8 0 1 1 1.426-1.426ZM10 16a6 6 0 1 0 0-12a6 6 0 0 0 0 12Z"/>
</symbol>
<symbol id="settings" preserveAspectRatio="xMidYMid meet" viewBox="0 0 24 24">
  <path fill="currentColor" d="M13.82 22h-3.64a1 1 0 0 1-.977-.786l-.407-1.884a8.002 8.002 0 0 1-1.535-.887l-1.837.585a1 1 0 0 1-1.17-.453L2.43 15.424a1.006 1.006 0 0 1 .193-1.239l1.425-1.3a8.1 8.1 0 0 1 0-1.772L2.623 9.816a1.006 1.006 0 0 1-.193-1.24l1.82-3.153a1 1 0 0 1 1.17-.453l1.837.585c.244-.18.498-.348.76-.5c.253-.142.513-.271.779-.386l.408-1.882A1 1 0 0 1 10.18 2h3.64a1 1 0 0 1 .976.787l.412 1.883a8.192 8.192 0 0 1 1.535.887l1.838-.585a1 1 0 0 1 1.169.453l1.82 3.153c.232.407.152.922-.193 1.239l-1.425 1.3a8.1 8.1 0 0 1 0 1.772l1.425 1.3c.345.318.425.832.193 1.239l-1.82 3.153a1 1 0 0 1-1.17.453l-1.837-.585a7.98 7.98 0 0 1-1.534.886l-.413 1.879a1 1 0 0 1-.976.786ZM11.996 8a4 4 0 1 0 0 8a4 4 0 0 0 0-8Z"/>
</symbol>
<symbol id="sort" preserveAspectRatio="xMidYMid meet" viewBox="0 0 24 24">
  <path fill="currentColor" d="M4 18h4c.55 0 1-.45 1-1s-.45-1-1-1H4c-.55 0-1 .45-1 1s.45 1 1 1zM3 7c0 .55.45 1 1 1h16c.55 0 1-.45 1-1s-.45-1-1-1H4c-.55 0-1 .45-1 1zm1 6h10c.55 0 1-.45 1-1s-.45-1-1-1H4c-.55 0-1 .45-1 1s.45 1 1 1z"/>
</symbol>
<symbol id="star-outline" preserveAspectRatio="xMidYMid meet" viewBox="0 0 32 32">
  <path fill="currentColor" d="m16 6.52l2.76 5.58l.46 1l1 .15l6.16.89l-4.38 4.3l-.75.73l.18 1l1.05 6.13l-5.51-2.89L16 23l-.93.49l-5.51 2.85l1-6.13l.18-1l-.74-.77l-4.42-4.35l6.16-.89l1-.15l.46-1L16 6.52M16 2l-4.55 9.22l-10.17 1.47l7.36 7.18L6.9 30l9.1-4.78L25.1 30l-1.74-10.13l7.36-7.17l-10.17-1.48Z"/>
</symbol>
<symbol id="star" preserveAspectRatio="xMidYMid meet" viewBox="0 0 32 32">
  <path fill="currentColor" d="m16 2l-4.55 9.22l-10.17 1.47l7.36 7.18L6.9 30l9.1-4.78L25.1 30l-1.74-10.13l7.36-7.17l-10.17-1.48Z"/>
</symbol>
<symbol id="view-list" preserveAspectRatio="xMidYMid meet" viewBox="0 0 24 24">
  <path fill="currentColor" d="M4 14h2c.55 0 1-.45 1-1v-2c0-.55-.45-1-1-1H4c-.55 0-1 .45-1 1v2c0 .55.45 1 1 1zm0 5h2c.55 0 1-.45 1-1v-2c0-.55-.45-1-1-1H4c-.55 0-1 .45-1 1v2c0 .55.45 1 1 1zM4 9h2c.55 0 1-.45 1-1V6c0-.55-.45-1-1-1H4c-.55 0-1 .45-1 1v2c0 .55.45 1 1 1zm5 5h11c.55 0 1-.45 1-1v-2c0-.55-.45-1-1-1H9c-.55 0-1 .45-1 1v2c0 .55.45 1 1 1zm0 5h11c.55 0 1-.45 1-1v-2c0-.55-.45-1-1-1H9c-.55 0-1 .45-1 1v2c0 .55.45 1 1 1zM8 6v2c0 .55.45 1 1 1h11c.55 0 1-.45 1-1V6c0-.55-.45-1-1-1H9c-.55 0-1 .45-1 1z"/>
</symbol>
<symbol id="visibility" preserveAspectRatio="xMidYMid meet" viewBox="0 0 24 24">
  <path fill="currentColor" d="M12 4C7 4 2.73 7.11 1 11.5C2.73 15.89 7 19 12 19s9.27-3.11 11-7.5C21.27 7.11 17 4 12 4zm0 12.5c-2.76 0-5-2.24-5-5s2.24-5 5-5s5 2.24 5 5s-2.24 5-5 5zm0-8c-1.66 0-3 1.34-3 3s1.34 3 3 3s3-1.34 3-3s-1.34-3-3-3z"/>
</symbol>
</svg>