<svg xmlns="http://www.w3.org/2000/svg" xmlns:xlink="http://www.w3.org/1999/xlink">
<symbol id="add" preserveAspectRatio="xMidYMid meet" viewBox="0 0 24 24">
  <path fill="currentColor" d="M19 13h-6v6h-2v-6H5v-2h6V5h2v6h6v2z"/>
</symbol>
<symbol id="attachment-line" preserveAspectRatio="xMidYMid meet" viewBox="0 0 36 36">
  <path fill="currentColor" d="M8.42 32.6A6.3 6.3 0 0 1 4 30.79l-.13-.13A6.2 6.2 0 0 1 2 26.22a6.77 6.77 0 0 1 2-4.82L19.5 6.07a8.67 8.67 0 0 1 12.15-.35A8 8 0 0 1 34 11.44a9 9 0 0 1-2.7 6.36L17.37 31.6A1 1 0 1 1 16 30.18l13.89-13.8A7 7 0 0 0 32 11.44a6 6 0 0 0-1.76-4.3a6.67 6.67 0 0 0-9.34.35L5.45 22.82A4.78 4.78 0 0 0 4 26.22a4.21 4.21 0 0 0 1.24 3l.13.13a4.64 4.64 0 0 0 6.5-.21l13.35-13.2A2.7 2.7 0 0 0 26 14a2.35 2.35 0 0 0-.69-1.68a2.61 2.61 0 0 0-3.66.13l-9.2 9.12a1 1 0 1 1-1.41-1.42L20.28 11a4.62 4.62 0 0 1 6.48-.13A4.33 4.33 0 0 1 28 14a4.68 4.68 0 0 1-1.41 3.34L13.28 30.58a6.91 6.91 0 0 1-4.86 2.02Z" class="clr-i-outline clr-i-outline-path-1"/>
  <path fill="none" d="M0 0h36v36H0z"/>
</symbol>
<symbol id="chevron-left" preserveAspectRatio="xMidYMid meet" viewBox="0 0 20 20">
  <path fill="currentColor" d="M12.452 4.516c.446.436.481 1.043 0 1.576L8.705 10l3.747 3.908c.481.533.446 1.141 0 1.574c-.445.436-1.197.408-1.615 0c-.418-.406-4.502-4.695-4.502-4.695a1.095 1.095 0 0 1 0-1.576s4.084-4.287 4.502-4.695c.418-.409 1.17-.436 1.615 0z"/>
</symbol>
<symbol id="chevron-right" preserveAspectRatio="xMidYMid meet" viewBox="0 0 20 20">
  <path fill="currentColor" d="M9.163 4.516c.418.408 4.502 4.695 4.502 4.695a1.095 1.095 0 0 1 0 1.576s-4.084 4.289-4.502 4.695c-.418.408-1.17.436-1.615 0c-.446-.434-.481-1.041 0-1.574L11.295 10L7.548 6.092c-.481-.533-.446-1.141 0-1.576c.445-.436 1.197-.409 1.615 0z"/>
</symbol>
<symbol id="close" preserveAspectRatio="xMidYMid meet" viewBox="0 0 24 24">
  <path fill="currentColor" d="M19 6.41L17.59 5L12 10.59L6.41 5L5 6.41L10.59 12L5 17.59L6.41 19L12 13.41L17.59 19L19 17.59L13.41 12z"/>
</symbol>
<symbol id="comment-dots" preserveAspectRatio="xMidYMid meet" viewBox="0 0 512 512">
  <path fill="currentColor" d="M144 208c-17.7 0-32 14.3-32 32s14.3 32 32 32s32-14.3 32-32s-14.3-32-32-32zm112 0c-17.7 0-32 14.3-32 32s14.3 32 32 32s32-14.3 32-32s-14.3-32-32-32zm112 0c-17.7 0-32 14.3-32 32s14.3 32 32 32s32-14.3 32-32s-14.3-32-32-32zM256 32C114.6 32 0 125.1 0 240c0 47.6 19.9 91.2 52.9 126.3C38 405.7 7 439.1 6.5 439.5c-6.6 7-8.4 17.2-4.6 26S14.4 480 24 480c61.5 0 110-25.7 139.1-46.3C192 442.8 223.2 448 256 448c141.4 0 256-93.1 256-208S397.4 32 256 32zm0 368c-26.7 0-53.1-4.1-78.4-12.1l-22.7-7.2l-19.5 13.8c-14.3 10.1-33.9 21.4-57.5 29c7.3-12.1 14.4-25.7 19.9-40.2l10.6-28.1l-20.6-21.8C69.7 314.1 48 282.2 48 240c0-88.2 93.3-160 208-160s208 71.8 208 160s-93.3 160-208 160z"/>
</symbol>
<symbol id="cross-circle-filled" preserveAspectRatio="xMidYMid meet" viewBox="0 0 24 24">
  <path fill="currentColor" d="M19.1 4.9C15.2 1 8.8 1 4.9 4.9S1 15.2 4.9 19.1s10.2 3.9 14.1 0s4-10.3.1-14.2zm-4.3 11.3L12 13.4l-2.8 2.8l-1.4-1.4l2.8-2.8l-2.8-2.8l1.4-1.4l2.8 2.8l2.8-2.8l1.4 1.4l-2.8 2.8l2.8 2.8l-1.4 1.4z"/>
</symbol>
<symbol id="done" preserveAspectRatio="xMidYMid meet" viewBox="0 0 24 24">
  <path fill="currentColor" d="m9 16.2l-3.5-3.5a.984.984 0 0 0-1.4 0a.984.984 0 0 0 0 1.4l4.19 4.19c.39.39 1.02.39 1.41 0L20.3 7.7a.984.984 0 0 0 0-1.4a.984.984 0 0 0-1.4 0L9 16.2z"/>
</symbol>
<symbol id="info-circle-filled" preserveAspectRatio="xMidYMid meet" viewBox="0 0 1024 1024">
  <path fill="currentColor" d="M512 64C264.6 64 64 264.6 64 512s200.6 448 448 448s448-200.6 448-448S759.4 64 512 64zm32 664c0 4.4-3.6 8-8 8h-48c-4.4 0-8-3.6-8-8V456c0-4.4 3.6-8 8-8h48c4.4 0 8 3.6 8 8v272zm-32-344a48.01 48.01 0 0 1 0-96a48.01 48.01 0 0 1 0 96z"/>
</symbol>
<symbol id="star-filled" preserveAspectRatio="xMidYMid meet" viewBox="0 0 1024 1024">
  <path fill="currentColor" d="m908.1 353.1l-253.9-36.9L540.7 86.1c-3.1-6.3-8.2-11.4-14.5-14.5c-15.8-7.8-35-1.3-42.9 14.5L369.8 316.2l-253.9 36.9c-7 1-13.4 4.3-18.3 9.3a32.05 32.05 0 0 0 .6 45.3l183.7 179.1l-43.4 252.9a31.95 31.95 0 0 0 46.4 33.7L512 754l227.1 119.4c6.2 3.3 13.4 4.4 20.3 3.2c17.4-3 29.1-19.5 26.1-36.9l-43.4-252.9l183.7-179.1c5-4.9 8.3-11.3 9.3-18.3c2.7-17.5-9.5-33.7-27-36.3z"/>
</symbol>
</svg>