<svg xmlns="http://www.w3.org/2000/svg" xmlns:xlink="http://www.w3.org/1999/xlink">
<symbol id="add-box-outline" preserveAspectRatio="xMidYMid meet" viewBox="0 0 24 24">
  <path fill="currentColor" d="M19 3H5a2 2 0 0 0-2 2v14a2 2 0 0 0 2 2h14c1.1 0 2-.9 2-2V5c0-1.1-.9-2-2-2zm0 16H5V5h14v14zm-8-2h2v-4h4v-2h-4V7h-2v4H7v2h4z"/>
</symbol>
<symbol id="add-box" preserveAspectRatio="xMidYMid meet" viewBox="0 0 24 24">
  <path fill="currentColor" d="M19 3H5a2 2 0 0 0-2 2v14a2 2 0 0 0 2 2h14c1.1 0 2-.9 2-2V5c0-1.1-.9-2-2-2zm-3 10h-3v3c0 .55-.45 1-1 1s-1-.45-1-1v-3H8c-.55 0-1-.45-1-1s.45-1 1-1h3V8c0-.55.45-1 1-1s1 .45 1 1v3h3c.55 0 1 .45 1 1s-.45 1-1 1z"/>
</symbol>
<symbol id="bookmark-outline" preserveAspectRatio="xMidYMid meet" viewBox="0 0 24 24">
  <path fill="currentColor" d="M17 3H7c-1.1 0-2 .9-2 2v16l7-3l7 3V5c0-1.1-.9-2-2-2zm0 15l-5-2.18L7 18V5h10v13z"/>
</symbol>
<symbol id="bookmark" preserveAspectRatio="xMidYMid meet" viewBox="0 0 24 24">
  <path fill="currentColor" d="M17 3H7c-1.1 0-2 .9-2 2v16l7-3l7 3V5c0-1.1-.9-2-2-2z"/>
</symbol>
<symbol id="code-block" preserveAspectRatio="xMidYMid meet" viewBox="0 0 24 24">
  <path fill="currentColor" d="M20 3H4c-1.103 0-2 .897-2 2v14c0 1.103.897 2 2 2h16c1.103 0 2-.897 2-2V5c0-1.103-.897-2-2-2zM4 19V7h16l.002 12H4z"/>
  <path fill="currentColor" d="M9.293 9.293L5.586 13l3.707 3.707l1.414-1.414L8.414 13l2.293-2.293zm5.414 0l-1.414 1.414L15.586 13l-2.293 2.293l1.414 1.414L18.414 13z"/>
</symbol>
<symbol id="code" preserveAspectRatio="xMidYMid meet" viewBox="0 0 24 24">
  <path fill="currentColor" d="M8.7 15.9L4.8 12l3.9-3.9a.984.984 0 0 0 0-1.4a.984.984 0 0 0-1.4 0l-4.59 4.59a.996.996 0 0 0 0 1.41l4.59 4.6c.39.39 1.01.39 1.4 0a.984.984 0 0 0 0-1.4zm6.6 0l3.9-3.9l-3.9-3.9a.984.984 0 0 1 0-1.4a.984.984 0 0 1 1.4 0l4.59 4.59c.39.39.39 1.02 0 1.41l-4.59 4.6a.984.984 0 0 1-1.4 0a.984.984 0 0 1 0-1.4z"/>
</symbol>
<symbol id="format-align-center" preserveAspectRatio="xMidYMid meet" viewBox="0 0 24 24">
  <path fill="currentColor" d="M7 16c0 .55.45 1 1 1h8c.55 0 1-.45 1-1s-.45-1-1-1H8c-.55 0-1 .45-1 1zm-3 5h16c.55 0 1-.45 1-1s-.45-1-1-1H4c-.55 0-1 .45-1 1s.45 1 1 1zm0-8h16c.55 0 1-.45 1-1s-.45-1-1-1H4c-.55 0-1 .45-1 1s.45 1 1 1zm3-5c0 .55.45 1 1 1h8c.55 0 1-.45 1-1s-.45-1-1-1H8c-.55 0-1 .45-1 1zM3 4c0 .55.45 1 1 1h16c.55 0 1-.45 1-1s-.45-1-1-1H4c-.55 0-1 .45-1 1z"/>
</symbol>
<symbol id="format-align-left" preserveAspectRatio="xMidYMid meet" viewBox="0 0 24 24">
  <path fill="currentColor" d="M14 15H4c-.55 0-1 .45-1 1s.45 1 1 1h10c.55 0 1-.45 1-1s-.45-1-1-1zm0-8H4c-.55 0-1 .45-1 1s.45 1 1 1h10c.55 0 1-.45 1-1s-.45-1-1-1zM4 13h16c.55 0 1-.45 1-1s-.45-1-1-1H4c-.55 0-1 .45-1 1s.45 1 1 1zm0 8h16c.55 0 1-.45 1-1s-.45-1-1-1H4c-.55 0-1 .45-1 1s.45 1 1 1zM3 4c0 .55.45 1 1 1h16c.55 0 1-.45 1-1s-.45-1-1-1H4c-.55 0-1 .45-1 1z"/>
</symbol>
<symbol id="format-align-right" preserveAspectRatio="xMidYMid meet" viewBox="0 0 24 24">
  <path fill="currentColor" d="M4 21h16c.55 0 1-.45 1-1s-.45-1-1-1H4c-.55 0-1 .45-1 1s.45 1 1 1zm6-4h10c.55 0 1-.45 1-1s-.45-1-1-1H10c-.55 0-1 .45-1 1s.45 1 1 1zm-6-4h16c.55 0 1-.45 1-1s-.45-1-1-1H4c-.55 0-1 .45-1 1s.45 1 1 1zm6-4h10c.55 0 1-.45 1-1s-.45-1-1-1H10c-.55 0-1 .45-1 1s.45 1 1 1zM3 4c0 .55.45 1 1 1h16c.55 0 1-.45 1-1s-.45-1-1-1H4c-.55 0-1 .45-1 1z"/>
</symbol>
<symbol id="format-bold" preserveAspectRatio="xMidYMid meet" viewBox="0 0 24 24">
  <path fill="currentColor" d="M15.6 10.79c.97-.67 1.65-1.77 1.65-2.79c0-2.26-1.75-4-4-4H8c-.55 0-1 .45-1 1v12c0 .55.45 1 1 1h5.78c2.07 0 3.96-1.69 3.97-3.77c.01-1.53-.85-2.84-2.15-3.44zM10 6.5h3c.83 0 1.5.67 1.5 1.5s-.67 1.5-1.5 1.5h-3v-3zm3.5 9H10v-3h3.5c.83 0 1.5.67 1.5 1.5s-.67 1.5-1.5 1.5z"/>
</symbol>
<symbol id="format-italic" preserveAspectRatio="xMidYMid meet" viewBox="0 0 24 24">
  <path fill="currentColor" d="M10 5.5c0 .83.67 1.5 1.5 1.5h.71l-3.42 8H7.5c-.83 0-1.5.67-1.5 1.5S6.67 18 7.5 18h5c.83 0 1.5-.67 1.5-1.5s-.67-1.5-1.5-1.5h-.71l3.42-8h1.29c.83 0 1.5-.67 1.5-1.5S17.33 4 16.5 4h-5c-.83 0-1.5.67-1.5 1.5z"/>
</symbol>
<symbol id="format-list-bulleted" preserveAspectRatio="xMidYMid meet" viewBox="0 0 24 24">
  <path fill="currentColor" d="M4 10.5c-.83 0-1.5.67-1.5 1.5s.67 1.5 1.5 1.5s1.5-.67 1.5-1.5s-.67-1.5-1.5-1.5zm0-6c-.83 0-1.5.67-1.5 1.5S3.17 7.5 4 7.5S5.5 6.83 5.5 6S4.83 4.5 4 4.5zm0 12c-.83 0-1.5.68-1.5 1.5s.68 1.5 1.5 1.5s1.5-.68 1.5-1.5s-.67-1.5-1.5-1.5zM8 19h12c.55 0 1-.45 1-1s-.45-1-1-1H8c-.55 0-1 .45-1 1s.45 1 1 1zm0-6h12c.55 0 1-.45 1-1s-.45-1-1-1H8c-.55 0-1 .45-1 1s.45 1 1 1zM7 6c0 .55.45 1 1 1h12c.55 0 1-.45 1-1s-.45-1-1-1H8c-.55 0-1 .45-1 1z"/>
</symbol>
<symbol id="format-list-numbered" preserveAspectRatio="xMidYMid meet" viewBox="0 0 24 24">
  <path fill="currentColor" d="M8 7h12c.55 0 1-.45 1-1s-.45-1-1-1H8c-.55 0-1 .45-1 1s.45 1 1 1zm12 10H8c-.55 0-1 .45-1 1s.45 1 1 1h12c.55 0 1-.45 1-1s-.45-1-1-1zm0-6H8c-.55 0-1 .45-1 1s.45 1 1 1h12c.55 0 1-.45 1-1s-.45-1-1-1zM4.5 16h-2c-.28 0-.5.22-.5.5s.22.5.5.5H4v.5h-.5c-.28 0-.5.22-.5.5s.22.5.5.5H4v.5H2.5c-.28 0-.5.22-.5.5s.22.5.5.5h2c.28 0 .5-.22.5-.5v-3c0-.28-.22-.5-.5-.5zm-2-11H3v2.5c0 .28.22.5.5.5s.5-.22.5-.5v-3c0-.28-.22-.5-.5-.5h-1c-.28 0-.5.22-.5.5s.22.5.5.5zm2 5h-2c-.28 0-.5.22-.5.5s.22.5.5.5h1.3l-1.68 1.96a.49.49 0 0 0-.12.32v.22c0 .28.22.5.5.5h2c.28 0 .5-.22.5-.5s-.22-.5-.5-.5H3.2l1.68-1.96a.49.49 0 0 0 .12-.32v-.22c0-.28-.22-.5-.5-.5z"/>
</symbol>
<symbol id="format-quote" preserveAspectRatio="xMidYMid meet" viewBox="0 0 24 24">
  <path fill="currentColor" d="M7.17 17c.51 0 .98-.29 1.2-.74l1.42-2.84c.14-.28.21-.58.21-.89V8c0-.55-.45-1-1-1H5c-.55 0-1 .45-1 1v4c0 .55.45 1 1 1h2l-1.03 2.06c-.45.89.2 1.94 1.2 1.94zm10 0c.51 0 .98-.29 1.2-.74l1.42-2.84c.14-.28.21-.58.21-.89V8c0-.55-.45-1-1-1h-4c-.55 0-1 .45-1 1v4c0 .55.45 1 1 1h2l-1.03 2.06c-.45.89.2 1.94 1.2 1.94z"/>
</symbol>
<symbol id="horizontal-rule" preserveAspectRatio="xMidYMid meet" viewBox="0 0 24 24">
  <path fill="currentColor" fill-rule="evenodd" d="M19 13H5c-.55 0-1-.45-1-1s.45-1 1-1h14c.55 0 1 .45 1 1s-.45 1-1 1z"/>
</symbol>
<symbol id="image-outline" preserveAspectRatio="xMidYMid meet" viewBox="0 0 24 24">
  <path fill="currentColor" d="M19 5v14H5V5h14m0-2H5c-1.1 0-2 .9-2 2v14c0 1.1.9 2 2 2h14c1.1 0 2-.9 2-2V5c0-1.1-.9-2-2-2zm-4.86 8.86l-3 3.87L9 13.14L6 17h12l-3.86-5.14z"/>
</symbol>
<symbol id="image" preserveAspectRatio="xMidYMid meet" viewBox="0 0 24 24">
  <path fill="currentColor" d="M21 19V5c0-1.1-.9-2-2-2H5c-1.1 0-2 .9-2 2v14c0 1.1.9 2 2 2h14c1.1 0 2-.9 2-2zM8.9 13.98l2.1 2.53l3.1-3.99c.2-.26.6-.26.8.01l3.51 4.68a.5.5 0 0 1-.4.8H6.02c-.42 0-.65-.48-.39-.81L8.12 14c.19-.26.57-.27.78-.02z"/>
</symbol>
<symbol id="insert-link-outline" preserveAspectRatio="xMidYMid meet" viewBox="0 0 24 24">
  <path fill="currentColor" d="M3.9 12c0-1.71 1.39-3.1 3.1-3.1h4V7H7c-2.76 0-5 2.24-5 5s2.24 5 5 5h4v-1.9H7c-1.71 0-3.1-1.39-3.1-3.1zM8 13h8v-2H8v2zm9-6h-4v1.9h4c1.71 0 3.1 1.39 3.1 3.1s-1.39 3.1-3.1 3.1h-4V17h4c2.76 0 5-2.24 5-5s-2.24-5-5-5z"/>
</symbol>
<symbol id="paragraph-break" preserveAspectRatio="xMidYMid meet" viewBox="0 0 48 48">
  <g fill="none" stroke="#000" stroke-linecap="round" stroke-linejoin="round" stroke-width="4">
    <path d="M6 9H42"/>
    <path d="M6 19H42"/>
    <path d="M6 29H24"/>
    <path d="M6 39H16"/>
    <path d="M24 39C24 39 34.2386 39 37 39C39.7614 39 42 36.7614 42 34C42 31.2386 39.7614 29 37 29C35.7115 29 32 29 32 29M24 39L28 35M24 39L28 43"/>
  </g>
</symbol>
<symbol id="paragraph" preserveAspectRatio="xMidYMid meet" viewBox="0 0 24 24">
  <path fill="none" stroke="currentColor" stroke-linecap="round" stroke-linejoin="round" stroke-width="2" d="M19 5h-3m-5 0h5m-5 0v10m0-10h-1c-1.667 0-5 1-5 5s3.333 5 5 5h1m0 4v-4m5 4V5"/>
</symbol>
<symbol id="redo" preserveAspectRatio="xMidYMid meet" viewBox="0 0 24 24">
  <path fill="currentColor" d="M18.4 10.6C16.55 8.99 14.15 8 11.5 8c-4.16 0-7.74 2.42-9.44 5.93c-.32.67.04 1.47.75 1.71c.59.2 1.23-.08 1.5-.64c1.3-2.66 4.03-4.5 7.19-4.5c1.95 0 3.73.72 5.12 1.88l-1.91 1.91c-.63.63-.19 1.71.7 1.71H21c.55 0 1-.45 1-1V9.41c0-.89-1.08-1.34-1.71-.71l-1.89 1.9z"/>
</symbol>
<symbol id="source-outline" preserveAspectRatio="xMidYMid meet" viewBox="0 0 24 24">
  <path fill="currentColor" d="M20 6h-8l-2-2H4c-1.1 0-1.99.9-1.99 2L2 18c0 1.1.9 2 2 2h16c1.1 0 2-.9 2-2V8c0-1.1-.9-2-2-2zm0 12H4V6h5.17l2 2H20v10zm-2-6H6v-2h12v2zm-4 4H6v-2h8v2z"/>
</symbol>
<symbol id="title" preserveAspectRatio="xMidYMid meet" viewBox="0 0 24 24">
  <path fill="currentColor" d="M5 5.5C5 6.33 5.67 7 6.5 7h4v10.5c0 .83.67 1.5 1.5 1.5s1.5-.67 1.5-1.5V7h4c.83 0 1.5-.67 1.5-1.5S18.33 4 17.5 4h-11C5.67 4 5 4.67 5 5.5z"/>
</symbol>
<symbol id="undo" preserveAspectRatio="xMidYMid meet" viewBox="0 0 24 24">
  <path fill="currentColor" d="M12.5 8c-2.65 0-5.05.99-6.9 2.6L3.71 8.71C3.08 8.08 2 8.52 2 9.41V15c0 .55.45 1 1 1h5.59c.89 0 1.34-1.08.71-1.71l-1.91-1.91c1.39-1.16 3.16-1.88 5.12-1.88c3.16 0 5.89 1.84 7.19 4.5c.27.56.91.84 1.5.64c.71-.23 1.07-1.04.75-1.72C20.23 10.42 16.65 8 12.5 8z"/>
</symbol>
</svg>