<svg xmlns="http://www.w3.org/2000/svg" xmlns:xlink="http://www.w3.org/1999/xlink">
  <symbol id="activity-none" viewBox="-894 -133 1920 1580">
  <g id="Canvas_1" stroke-opacity="1" fill="none" fill-opacity="1" stroke="none" stroke-dasharray="none">
    <title>Canvas 1</title>
    <g id="Canvas_1_Layer_1">
      <title>Layer 1</title>
      <g id="Graphic_3">
        <title>rect4187</title>
        <path d="M -472.6628 -23 L 604.6628 -23 C 776.6096 -23 916 116.39042 916 288.33722 L 916 1025.6628 C 916 1197.6096 776.6096 1337 604.6628 1337 L -472.6628 1337 C -644.6096 1337 -784 1197.6096 -784 1025.6628 L -784 288.33722 C -784 116.39042 -644.6096 -23 -472.6628 -23 Z" fill="white"/>
        <path d="M -472.6628 -23 L 604.6628 -23 C 776.6096 -23 916 116.39042 916 288.33722 L 916 1025.6628 C 916 1197.6096 776.6096 1337 604.6628 1337 L -472.6628 1337 C -644.6096 1337 -784 1197.6096 -784 1025.6628 L -784 288.33722 C -784 116.39042 -644.6096 -23 -472.6628 -23 Z" stroke="black" stroke-linecap="round" stroke-linejoin="round" stroke-width="220"/>
      </g>
    </g>
  </g>
</symbol>,<symbol id="activity-service" viewBox="40.000004 210.00002 1920 1580">
  <g id="Canvas_1" stroke-opacity="1" fill="none" fill-opacity="1" stroke="none" stroke-dasharray="none">
    <title>Canvas 1</title>
    <g id="Canvas_1_Layer_1">
      <title>Layer 1</title>
      <g id="Group_2">
        <title>layer1</title>
        <g id="Graphic_6">
          <title>rect4187</title>
          <path d="M 429.65115 270.00002 L 1570.3488 270.00002 C 1752.4102 270.00002 1900 417.58987 1900 599.6512 L 1900 1400.3489 C 1900 1582.4102 1752.4102 1730 1570.3488 1730 L 429.65115 1730 C 247.58985 1730 100 1582.4102 100 1400.3489 L 100 599.6512 C 100 417.58987 247.58985 270.00002 429.65115 270.00002 Z" fill="white"/>
          <path d="M 429.65115 270.00002 L 1570.3488 270.00002 C 1752.4102 270.00002 1900 417.58987 1900 599.6512 L 1900 1400.3489 C 1900 1582.4102 1752.4102 1730 1570.3488 1730 L 429.65115 1730 C 247.58985 1730 100 1582.4102 100 1400.3489 L 100 599.6512 C 100 417.58987 247.58985 270.00002 429.65115 270.00002 Z" stroke="black" stroke-linecap="round" stroke-linejoin="round" stroke-width="119.99999"/>
        </g>
        <g id="Group_3">
          <title>g4165</title>
          <g id="Group_4">
            <title>layer6-6</title>
            <g id="Graphic_5">
              <title>path4170</title>
              <path d="M 502.7908 430.8679 C 502.7618 454.03584 502.7972 477.2043 502.85684 500.37214 C 483.0986 505.9619 465.04375 513.76264 447.9934 523.31845 L 398.1602 474.08455 L 304.9795 567.8046 L 354.809 617.0299 C 345.1835 634.2823 337.6671 652.6165 332.42164 671.6598 L 261.83503 671.7882 L 261.83503 803.7815 L 333.1591 803.5246 C 339.6814 829.3851 353.87625 852.6334 368.01397 873.4215 L 368.01397 759.5656 L 305.66807 759.7894 L 305.66807 715.54175 L 367.7033 715.4292 L 371.18526 697.7884 C 376.26333 672.0618 386.3201 647.5373 400.7689 625.5935 L 410.65335 610.5822 L 367.06857 567.5245 L 398.4366 535.97426 L 442.10086 579.11385 L 456.96056 569.1976 C 479.6685 554.21576 504.50555 544.173 529.27285 538.9425 L 546.7804 535.3077 L 546.62384 474.7022 L 591.68846 474.7022 L 591.3399 534.9922 L 609.14096 534.9922 L 709.58514 534.9922 C 698.49325 521.7523 652.5268 504.5234 635.3772 499.7227 L 635.7747 430.86913 C 586.68165 430.8679 548.19284 430.87163 502.7908 430.8679 Z M 627.50094 557.1435 L 627.6807 626.6453 C 607.9218 632.2351 589.86685 640.03475 572.81604 649.5916 L 522.98163 600.3577 L 429.80095 694.07775 L 479.6317 743.3031 C 470.00573 760.5564 462.4885 778.89 457.2431 797.9342 L 386.6577 798.0614 L 386.6577 930.0546 L 457.98056 929.799 C 463.5946 949.3717 471.3773 967.2448 480.91463 984.1182 L 429.8841 1034.9493 L 524.10314 1127.5492 L 574.9502 1076.9381 C 592.36714 1086.6093 610.8811 1094.1181 630.0754 1099.3438 L 630.1086 1171.1755 C 675.4393 1171.5724 723.7028 1171.3679 762.4442 1171.3639 L 762.4442 1098.6822 C 782.2178 1093.1067 800.3291 1085.2499 817.3835 1075.698 L 868.189 1125.7905 L 961.4308 1032.1878 L 910.519 982.0158 C 920.1666 964.717 927.6842 946.3522 932.9357 927.2881 L 1002.0534 926.8613 L 1002.0534 794.9952 L 932.1603 795.4209 C 926.5419 775.8294 918.8718 758.0771 909.2078 741.0919 L 957.5 692.6762 L 863.3336 599.91865 L 815.1038 648.31356 C 797.7583 638.721 779.3196 631.2297 760.2 625.9971 L 760.5962 557.1435 L 627.5011 557.1435 Z M 671.4465 600.97656 L 716.5111 600.97656 L 716.1638 661.2678 L 733.9636 664.7607 C 759.80785 669.8322 784.5787 679.8765 806.611 694.2367 L 821.5294 703.961 L 863.6197 661.72764 L 895.3155 692.9501 L 853.1665 735.2067 L 863.3078 750.1765 C 878.1889 772.6396 888.0599 796.9212 893.6326 821.925 L 897.2992 839.4655 L 958.2154 839.0949 L 958.2154 883.2973 L 897.6392 883.6704 L 894.1597 901.2109 C 889.0501 926.9664 879.0153 951.49 864.5418 973.4718 L 854.6463 988.504 L 899.267 1032.4764 L 867.9039 1063.9606 L 823.2784 1019.9613 L 808.4443 1029.8164 C 785.7293 1044.661 761.0892 1054.9407 736.2299 1060.0054 L 718.6062 1063.5252 L 718.6062 1127.5308 C 706.5577 1127.5602 693.4141 1127.5415 673.91575 1127.5139 L 673.8876 1063.9878 L 656.18435 1060.5303 C 630.304 1055.4765 605.57396 1045.4784 583.5798 1031.058 L 568.7054 1021.3056 L 523.9074 1065.8969 L 492.2067 1034.7393 L 537.0671 990.0538 L 526.8304 975.0229 C 511.9354 952.609 502.0817 928.3017 496.4995 903.327 L 492.83657 885.8402 L 430.49067 886.0628 L 430.49067 841.8164 L 492.5259 841.7027 L 496.00786 824.0643 C 501.08597 798.33745 511.1429 773.8116 525.5915 751.86815 L 535.47595 736.8556 L 491.88995 693.7979 L 523.258 662.2477 L 566.92346 705.3873 L 581.78316 695.47224 C 604.5199 680.588 628.6475 670.712 654.09545 665.2184 L 671.6042 661.5836 L 671.44645 600.9768 Z M 694.71935 762.03365 C 640.46225 762.03365 596.0082 806.4889 596.0082 860.7461 C 596.0082 915.0032 640.46225 959.456 694.71935 959.456 C 748.9765 959.456 793.4306 915.0032 793.4306 860.7461 C 793.4306 806.4889 748.9765 762.03365 694.71935 762.03365 Z M 694.71935 805.8667 C 725.2874 805.8667 749.5975 830.1781 749.5975 860.7461 C 749.5975 891.314 725.2874 915.623 694.71935 915.623 C 664.1513 915.623 639.84245 891.314 639.84245 860.7461 C 639.84245 830.1781 664.1513 805.8667 694.71935 805.8667 Z" fill="black"/>
            </g>
          </g>
        </g>
      </g>
    </g>
  </g>
</symbol>,<symbol id="activity-user-task" viewBox="40.000004 210.00002 1920 1580">
  <g id="Canvas_1" stroke-opacity="1" fill="none" fill-opacity="1" stroke="none" stroke-dasharray="none">
    <title>Canvas 1</title>
    <g id="Canvas_1_Layer_1">
      <title>Layer 1</title>
      <g id="Group_2">
        <title>layer1</title>
        <g id="Graphic_5">
          <title>rect4187</title>
          <path d="M 429.65115 270.00002 L 1570.3488 270.00002 C 1752.4102 270.00002 1900 417.58987 1900 599.6512 L 1900 1400.3489 C 1900 1582.4102 1752.4102 1730 1570.3488 1730 L 429.65115 1730 C 247.58985 1730 100 1582.4102 100 1400.3489 L 100 599.6512 C 100 417.58987 247.58985 270.00002 429.65115 270.00002 Z" fill="white"/>
          <path d="M 429.65115 270.00002 L 1570.3488 270.00002 C 1752.4102 270.00002 1900 417.58987 1900 599.6512 L 1900 1400.3489 C 1900 1582.4102 1752.4102 1730 1570.3488 1730 L 429.65115 1730 C 247.58985 1730 100 1582.4102 100 1400.3489 L 100 599.6512 C 100 417.58987 247.58985 270.00002 429.65115 270.00002 Z" stroke="black" stroke-linecap="round" stroke-linejoin="round" stroke-width="119.99999"/>
        </g>
        <g id="Group_3">
          <title>layer9</title>
          <g id="Graphic_4">
            <title>path8979-3</title>
            <path d="M 655.76524 478.0921 C 553.92 478.0921 481.0623 556.3849 480.85795 645.5657 L 480.85795 645.5915 L 480.85795 645.6162 C 480.8644 672.5859 488.16213 701.0493 499.56387 726.7223 C 507.79655 745.2597 518.0322 762.3018 530.5048 775.954 C 456.3781 801.3142 369.53506 843.0525 325.64062 925.3546 L 323.2753 929.7901 L 323.2753 1196.2129 L 988.2552 1196.2129 L 988.2552 929.7901 L 985.8899 925.3546 C 942.6268 844.2363 857.6629 802.556 784.2527 777.09065 C 820.0895 740.6488 830.661 693.613 830.6725 645.6162 L 830.6725 645.5915 L 830.6725 645.5657 C 830.4682 556.3849 757.6105 478.0921 655.76524 478.0921 Z M 586.2276 573.0557 C 590.93526 573.06754 596.10385 573.2248 601.8018 573.5606 C 647.2003 576.2365 662.47956 584.4084 674.2243 592.15884 C 685.96906 599.9093 694.2486 607.28716 725.2872 608.192 L 725.2964 608.192 L 725.3067 608.192 C 749.494 607.2873 761.1261 602.97495 769.4678 598.0901 C 772.8479 596.1107 775.6862 594.05296 778.5946 592.08815 C 786.2822 608.566 790.4104 626.7814 790.4571 645.633 C 790.441 699.314 781.2124 736.9071 731.992 767.6698 L 736.8068 803.9607 C 747.0516 807.0718 757.6414 810.4855 768.3895 814.2287 C 769.89055 820.4908 771.6248 828.7039 772.7914 837.4352 C 774.0134 846.5826 774.494 856.1 773.7406 863.2461 C 772.9872 870.3922 770.7685 874.2499 770.3789 874.6395 C 745.3614 899.657 700.9531 914.2472 655.9093 914.2472 C 610.8656 914.2472 566.4573 899.657 541.43975 874.6395 C 541.0502 874.2499 538.83144 870.3922 538.07804 863.2461 C 537.32465 856.1 537.80527 846.5826 539.0273 837.4352 C 540.2002 828.6557 541.9483 820.3942 543.455 814.1199 C 554.0958 810.4195 564.5791 807.0417 574.72465 803.9607 L 577.5949 765.0745 C 575.25783 762.0773 572.87656 760.0917 570.0344 757.9595 C 559.0493 749.7181 545.7275 731.5879 536.3175 710.3997 C 526.9109 689.219 521.0831 665.009 521.0743 645.62855 C 521.13274 622.3934 527.3856 600.1221 538.8702 580.88434 C 540.92513 580.11946 543.092 579.3111 545.5274 578.51006 C 554.0919 575.69316 565.82816 573.0044 586.22804 573.0557 Z M 499.27887 831.3245 C 499.24273 831.5881 499.202 831.8453 499.16666 832.1099 C 497.6805 843.2342 496.8072 855.3429 498.085 867.4628 C 499.36275 879.5827 502.5607 892.6316 513.00395 903.0748 C 548.65016 938.7211 602.5972 954.462 655.9089 954.462 C 709.2205 954.462 763.1676 938.7211 798.8138 903.0748 C 809.257 892.6316 812.455 879.5827 813.7327 867.4628 C 815.0105 855.3428 814.1372 843.2342 812.6511 832.1099 C 812.6218 831.8907 812.5878 831.6777 812.558 831.4591 C 866.7524 855.2255 919.1356 889.2624 948.0404 940.0817 L 948.0404 1155.9981 L 851.8122 1155.9981 L 851.8122 1003.7565 L 811.5975 1003.7565 L 811.5975 1155.9981 L 499.0713 1155.9981 L 499.0713 1003.7565 L 458.8565 1003.7565 L 458.8565 1155.9981 L 363.49008 1155.9981 L 363.49008 940.0817 C 392.44937 889.1665 444.9755 855.0968 499.27887 831.3245 Z" fill="black"/>
          </g>
        </g>
      </g>
    </g>
  </g>
</symbol>,<symbol id="end-event-atom" viewBox="98.41749 98.97955 1851.7283 1849.2777">
  <g id="Canvas_1" fill="none" stroke-opacity="1" stroke-dasharray="none" fill-opacity="1" stroke="none">
    <title>Canvas 1</title>
    <g id="Canvas_1_Layer_1">
      <title>Layer 1</title>
      <g id="Group_6">
        <title>Group_3</title>
        <g id="Group_7">
          <title>Graphic_4</title>
          <g id="Graphic_8">
            <path d="M 1015.0432 99.00216 C 599.2095 95.90607 209.09827 411.14635 121.60561 817.2473 C 37.220146 1173.9655 188.3103 1571.8715 490.9178 1779.8322 C 784.6393 1990.202 1203.2472 2006.6887 1508.7831 1811.306 C 1816.007 1623.1699 1996.9227 1247.4784 1939.5968 889.9861 C 1887.1027 519.4032 1591.0739 197.09992 1223.4673 120.92637 C 1155.1216 105.67811 1085.0524 98.53775 1015.0432 99.00216 Z M 1037.1232 388.8835 C 1342.6822 387.916 1623.3623 640.799 1654.5065 944.9998 C 1694.2614 1235.7616 1506.8039 1539.914 1224.9695 1627.3302 C 949.893 1720.9387 618.1968 1601.4779 474.8942 1346.3211 C 316.32957 1081.5955 383.79476 704.356 635.0591 520.5642 C 749.0056 432.64484 893.261 385.57456 1037.1232 388.8835 Z" fill="black"/>
          </g>
          <g id="Graphic_5">
            <path d="M 720 646 L 720 671.90354 L 720 1450.1782 L 819.6642 1450.1782 L 1216.8718 1450.1782 L 1316.7184 1450.1782 L 1316.7184 646 Z M 768.0126 697.61776 L 1268.5216 697.61776 L 1268.5216 1398.5504 L 1216.8718 1398.5504 L 819.6642 1398.5504 L 768.0126 1398.5504 Z M 819.6642 776.5243 L 819.6642 827.9506 L 1216.8718 827.9506 L 1216.8718 776.5243 Z M 819.6642 931.7841 L 819.6642 983.4099 L 1216.8718 983.4099 L 1216.8718 931.7841 Z M 819.6642 1111.2018 L 819.6642 1162.6383 L 1216.8718 1162.6383 L 1216.8718 1111.2018 Z M 819.6642 1273.2834 L 819.6642 1324.7218 L 1216.8718 1324.7218 L 1216.8718 1273.2834 Z" fill="black"/>
          </g>
        </g>
      </g>
    </g>
  </g>
</symbol>,<symbol id="end-event-none" viewBox="98.41749 98.97955 1851.7283 1849.2777">
  <g id="Canvas_1" stroke-opacity="1" fill="none" fill-opacity="1" stroke="none" stroke-dasharray="none">
    <title>Canvas 1</title>
    <g id="Canvas_1_Layer_1">
      <title>Layer 1</title>
      <g id="Group_2">
        <title>layer1</title>
        <g id="Group_3">
          <title>layer1-6</title>
          <g id="Graphic_4">
            <title>path4481</title>
            <path d="M 1015.0432 99.00216 C 599.2095 95.90607 209.09827 411.14635 121.60561 817.2473 C 37.220146 1173.9655 188.3103 1571.8715 490.9178 1779.8322 C 784.6393 1990.202 1203.2472 2006.6887 1508.7831 1811.3059 C 1816.007 1623.1699 1996.9227 1247.4784 1939.5968 889.9861 C 1887.1027 519.40317 1591.0739 197.09992 1223.4673 120.92637 C 1155.1216 105.67811 1085.0524 98.53775 1015.0432 99.00216 Z M 1037.1232 388.8835 C 1342.6822 387.916 1623.3623 640.799 1654.5065 944.9998 C 1694.2614 1235.7616 1506.8039 1539.914 1224.9695 1627.3302 C 949.893 1720.9387 618.1968 1601.4779 474.8942 1346.3211 C 316.32957 1081.5955 383.79476 704.356 635.0591 520.5642 C 749.0056 432.64484 893.261 385.57456 1037.1232 388.8835 Z" fill="black"/>
          </g>
        </g>
      </g>
    </g>
  </g>
</symbol>,<symbol id="gateway-exclusive">
  <g transform="translate(0,995.63783)" id="layer1">
    <g id="layer1-6" transform="matrix(96.752895,0,0,96.752895,55.328158,-100816.34)">
      <path id="rect3092" transform="matrix(0.01033561,0,0,0.01033561,-0.57185015,1031.7077)" d="M 1024.0215 99.355469 C 1004.6981 99.338537 985.37559 106.50458 971.04102 120.90625 L 120.9375 971.01758 C 92.26835 999.68546 92.401149 1048.3126 121.07031 1076.9805 L 971.04102 1926.9453 C 999.71017 1955.6229 1048.3348 1955.7486 1077.0039 1926.9453 L 1927.1094 1076.8457 C 1955.7785 1048.1778 1955.6458 999.54874 1926.9746 970.88086 L 1077.002 120.90625 C 1062.6674 106.57231 1043.3449 99.372401 1024.0215 99.355469 z M 1023.957 225.40039 L 1822.6172 1024.0664 L 1023.957 1822.7227 L 225.29688 1024.0664 L 1023.957 225.40039 z M 725.68555 669.78711 C 725.67179 669.78783 716.07376 671.625 716.06641 671.625 C 716.0564 671.625 707.92153 677.13867 707.91602 677.13867 L 677.18359 707.87695 C 677.1736 707.87695 671.57302 716.10247 671.57031 716.19922 C 671.57031 716.20889 669.83331 725.67969 669.83398 725.67969 C 669.83329 725.68936 671.70169 735.06445 671.70508 735.06445 C 671.70508 735.07413 677.04264 743.38672 677.04883 743.38672 L 957.75586 1024.0859 L 677.18359 1304.6602 L 677.18359 1304.5723 C 677.18359 1304.5819 671.57302 1312.8926 671.57031 1312.8926 C 671.57031 1312.9023 669.83398 1322.375 669.83398 1322.375 C 669.83398 1322.3944 671.70227 1331.7598 671.70508 1331.7598 C 671.70508 1331.7598 677.04351 1339.9833 677.04883 1340.0801 L 707.7832 1370.8086 C 707.79321 1370.8183 716.19382 1376.3242 716.20117 1376.3242 C 716.21117 1376.3242 725.54637 1378.1621 725.55469 1378.1621 C 725.56469 1378.1621 735.03347 1376.4219 735.04102 1376.4219 C 735.05101 1376.4219 743.32066 1370.8086 743.32617 1370.8086 L 1023.9023 1090.2266 L 1304.5391 1370.8672 C 1304.5491 1370.8769 1312.9512 1376.3828 1312.957 1376.3828 C 1312.9671 1376.3828 1322.3028 1378.2207 1322.3105 1378.2207 C 1322.3206 1378.2207 1331.7911 1376.4785 1331.7988 1376.4785 C 1331.8089 1376.4785 1340.0743 1370.8672 1340.0801 1370.8672 L 1370.8145 1340.1387 C 1370.8244 1340.129 1376.2901 1332.0117 1376.2949 1332.0117 C 1376.2949 1332.002 1378.166 1322.4327 1378.166 1322.3359 C 1378.166 1322.3263 1376.2968 1312.9512 1376.293 1312.9512 C 1376.293 1312.9512 1370.8212 1304.5332 1370.8145 1304.5332 L 1090.209 1023.9219 L 1370.8164 743.31836 C 1370.8264 743.31836 1376.2901 735.19141 1376.2949 735.19141 C 1376.2949 735.18173 1378.166 725.61328 1378.166 725.61328 C 1378.166 725.59393 1376.2978 716.22852 1376.2949 716.22852 C 1376.2949 716.21884 1370.6894 707.90625 1370.6836 707.90625 L 1339.9492 677.16797 C 1339.9393 677.16797 1331.8056 671.6543 1331.7988 671.6543 C 1331.7889 671.6543 1322.454 669.81445 1322.4453 669.81445 C 1322.4353 669.81445 1312.8329 671.6543 1312.8262 671.6543 C 1312.8162 671.6543 1304.6806 677.16797 1304.6758 677.16797 L 1024.0625 957.78125 L 743.32422 677.0332 L 743.32422 676.94531 C 743.31422 676.94531 735.04603 671.625 735.03906 671.625 C 735.02907 671.625 725.69879 669.78785 725.6875 669.78711 L 725.68555 669.78711 z " style="color:#000000;font-style:normal;font-variant:normal;font-weight:normal;font-stretch:normal;font-size:medium;line-height:normal;font-family:sans-serif;text-indent:0;text-align:start;text-decoration:none;text-decoration-line:none;text-decoration-style:solid;text-decoration-color:#000000;letter-spacing:normal;word-spacing:normal;text-transform:none;direction:ltr;block-progression:tb;writing-mode:lr-tb;baseline-shift:baseline;text-anchor:start;white-space:normal;clip-rule:nonzero;display:inline;overflow:visible;visibility:visible;opacity:1;isolation:auto;mix-blend-mode:normal;color-interpolation:sRGB;color-interpolation-filters:linearRGB;solid-color:#000000;solid-opacity:1;fill:#000000;fill-opacity:1;fill-rule:nonzero;stroke:none;stroke-width:1.14980412;stroke-linecap:butt;stroke-linejoin:miter;stroke-miterlimit:4;stroke-dasharray:none;stroke-dashoffset:0;stroke-opacity:1;color-rendering:auto;image-rendering:auto;shape-rendering:auto;text-rendering:auto;enable-background:accumulate"/>
    </g>
  </g>
</symbol>,<symbol id="gateway-inclusive">
  <g transform="translate(0,995.63783)" id="layer1">
    <g id="layer1-6" transform="matrix(96.752895,0,0,96.752895,55.328158,-100816.34)">
      <path id="rect3092" transform="matrix(0.01033561,0,0,0.01033561,-0.57185015,1031.7077)" d="M 1024.0215 99.355469 C 1004.6981 99.338537 985.37559 106.50458 971.04102 120.90625 L 120.9375 971.01758 C 92.26835 999.68546 92.401149 1048.3126 121.07031 1076.9805 L 971.04102 1926.9453 C 999.71017 1955.6229 1048.3348 1955.7486 1077.0039 1926.9453 L 1927.1094 1076.8457 C 1955.7785 1048.1778 1955.6458 999.54874 1926.9746 970.88086 L 1077.002 120.90625 C 1062.6674 106.57231 1043.3449 99.372401 1024.0215 99.355469 z M 1023.957 225.40039 L 1822.6172 1024.0664 L 1023.957 1822.7227 L 225.29688 1024.0664 L 1023.957 225.40039 z M 1024 594 C 786.76818 594 594 786.77939 594 1024.0078 C 594 1261.2362 786.76818 1454.0078 1024 1454.0078 C 1261.2318 1454.0078 1454 1261.2362 1454 1024.0078 C 1454 786.77939 1261.2318 594 1024 594 z M 1024 641.68945 C 1235.4073 641.68945 1406.3223 812.60274 1406.3223 1024.0078 C 1406.3223 1235.4129 1235.4073 1406.3379 1024 1406.3379 C 812.59279 1406.3379 641.67773 1235.4129 641.67773 1024.0078 C 641.67773 812.60274 812.59279 641.68945 1024 641.68945 z " style="color:#000000;font-style:normal;font-variant:normal;font-weight:normal;font-stretch:normal;font-size:medium;line-height:normal;font-family:sans-serif;text-indent:0;text-align:start;text-decoration:none;text-decoration-line:none;text-decoration-style:solid;text-decoration-color:#000000;letter-spacing:normal;word-spacing:normal;text-transform:none;direction:ltr;block-progression:tb;writing-mode:lr-tb;baseline-shift:baseline;text-anchor:start;white-space:normal;clip-rule:nonzero;display:inline;overflow:visible;visibility:visible;opacity:1;isolation:auto;mix-blend-mode:normal;color-interpolation:sRGB;color-interpolation-filters:linearRGB;solid-color:#000000;solid-opacity:1;fill:#000000;fill-opacity:1;fill-rule:nonzero;stroke:none;stroke-width:1.14980412;stroke-linecap:butt;stroke-linejoin:miter;stroke-miterlimit:4;stroke-dasharray:none;stroke-dashoffset:0;stroke-opacity:1;color-rendering:auto;image-rendering:auto;shape-rendering:auto;text-rendering:auto;enable-background:accumulate"/>
    </g>
  </g>
</symbol>,<symbol id="gateway-parallel">
  <g transform="translate(0,995.63783)" id="layer1">
    <g id="layer1-6" transform="matrix(96.752895,0,0,96.752895,55.328158,-100816.34)">
      <path id="rect3092" transform="matrix(0.01033561,0,0,0.01033561,-0.57185015,1031.7077)" d="M 1024.0215 99.355469 C 1004.6981 99.338537 985.37559 106.50458 971.04102 120.90625 L 120.9375 971.01758 C 92.26835 999.68546 92.401149 1048.3126 121.07031 1076.9805 L 971.04102 1926.9453 C 999.71017 1955.6229 1048.3348 1955.7486 1077.0039 1926.9453 L 1927.1094 1076.8457 C 1955.7785 1048.1778 1955.6458 999.54874 1926.9746 970.88086 L 1077.002 120.90625 C 1062.6674 106.57231 1043.3449 99.372401 1024.0215 99.355469 z M 1023.957 225.40039 L 1822.6172 1024.0664 L 1023.957 1822.7227 L 225.29688 1024.0664 L 1023.957 225.40039 z M 1002.1543 555.2207 C 1002.1543 555.23038 992.49703 557.05859 992.49219 557.05859 C 992.48222 557.05859 984.58393 562.38086 984.57812 562.38086 C 984.56816 562.39053 979.08101 570.50781 979.07617 570.50781 C 979.07617 570.51749 977.21676 580.18359 977.21289 580.18359 L 977.21289 977.03516 L 580.1875 977.03516 L 580.12109 976.95703 C 580.12109 976.96671 570.50288 979.08594 570.49805 979.08594 C 570.48808 979.09561 562.59078 984.4082 562.58594 984.4082 L 562.59375 984.31055 C 562.58378 984.32022 557.09663 992.4375 557.0918 992.4375 C 557.08183 992.4375 555.23043 1002.1133 555.22656 1002.1133 L 555.22656 1045.584 C 555.22656 1045.584 557.07483 1055.3659 557.14062 1055.4336 C 557.14062 1055.4433 562.61914 1063.3672 562.61914 1063.3672 C 562.6292 1063.3769 570.57619 1068.6895 570.57812 1068.6895 C 570.58809 1068.6991 580.23441 1070.8164 580.23828 1070.8164 L 977.2168 1070.8164 L 977.2168 1467.6016 L 977.1543 1467.543 C 977.1543 1467.5526 979.07029 1477.3926 979.06836 1477.3926 C 979.06836 1477.4023 984.54492 1485.3262 984.54492 1485.3262 C 984.55498 1485.3358 992.50392 1490.6465 992.50586 1490.6465 C 992.50586 1490.6465 1002.0964 1492.6786 1002.168 1492.7754 L 1045.6289 1492.7656 C 1045.6399 1492.7656 1055.4752 1490.7344 1055.4805 1490.7344 C 1055.4805 1490.7344 1063.3887 1485.4141 1063.3945 1485.4141 C 1063.4045 1485.4044 1068.8653 1477.4785 1068.8711 1477.4785 C 1068.8711 1477.4785 1070.7578 1467.6582 1070.7617 1467.6582 L 1070.7617 1070.8555 L 1467.6406 1070.8555 C 1467.6517 1070.8651 1477.4873 1068.8242 1477.4922 1068.8242 C 1477.5022 1068.8242 1485.4014 1063.502 1485.4062 1063.502 C 1485.4162 1063.4923 1490.877 1055.5684 1490.8828 1055.5684 C 1490.8828 1055.5684 1492.7686 1045.748 1492.7734 1045.748 L 1492.7734 1002.2871 C 1492.7734 1002.2774 1490.8955 992.70808 1490.8984 992.61133 C 1490.8885 992.60165 1485.4486 984.48438 1485.3809 984.48438 C 1485.3709 984.4747 1477.4228 979.16406 1477.4199 979.16406 C 1477.4199 979.17374 1467.6005 977.03411 1467.5957 977.13086 L 1070.7578 977.13086 L 1070.7578 580.28906 C 1070.7578 580.27939 1068.8799 570.71199 1068.8828 570.61523 C 1068.8728 570.60556 1063.4336 562.48633 1063.4336 562.48633 C 1063.4236 562.47665 1055.4765 557.16602 1055.4746 557.16602 C 1055.4646 557.16602 1045.6272 555.23047 1045.623 555.23047 L 1002.1543 555.2207 z " style="color:#000000;font-style:normal;font-variant:normal;font-weight:normal;font-stretch:normal;font-size:medium;line-height:normal;font-family:sans-serif;text-indent:0;text-align:start;text-decoration:none;text-decoration-line:none;text-decoration-style:solid;text-decoration-color:#000000;letter-spacing:normal;word-spacing:normal;text-transform:none;direction:ltr;block-progression:tb;writing-mode:lr-tb;baseline-shift:baseline;text-anchor:start;white-space:normal;clip-rule:nonzero;display:inline;overflow:visible;visibility:visible;opacity:1;isolation:auto;mix-blend-mode:normal;color-interpolation:sRGB;color-interpolation-filters:linearRGB;solid-color:#000000;solid-opacity:1;fill:#000000;fill-opacity:1;fill-rule:nonzero;stroke:none;stroke-width:1.14980412;stroke-linecap:butt;stroke-linejoin:miter;stroke-miterlimit:4;stroke-dasharray:none;stroke-dashoffset:0;stroke-opacity:1;color-rendering:auto;image-rendering:auto;shape-rendering:auto;text-rendering:auto;enable-background:accumulate"/>
    </g>
  </g>
</symbol>,<symbol id="start-event-atom" viewBox="71.5 95.5 1850 1849.998">
  <g id="Canvas_1" stroke-opacity="1" fill="none" fill-opacity="1" stroke="none" stroke-dasharray="none">
    <title>Canvas 1</title>
    <g id="Canvas_1_Layer_1">
      <title>Layer 1</title>
      <g id="Graphic_2">
        <title>path4481</title>
        <path d="M 996.5 95.5 C 486.22933 95.5 71.5 510.22064 71.5 1020.4941 C 71.5 1530.7677 486.22866 1945.498 996.5 1945.498 C 1506.7712 1945.498 1921.5 1530.7677 1921.5 1020.4941 C 1921.5 510.22065 1506.7706 95.5 996.5 95.5 Z M 996.5 195.5 C 1452.7276 195.5 1821.5 564.2644 1821.5 1020.4941 C 1821.5 1476.724 1452.727 1845.498 996.5 1845.498 C 540.2729 1845.498 171.5 1476.724 171.5 1020.4941 C 171.5 564.2644 540.2722 195.5 996.5 195.5 Z M 686.4941 630.4609 L 686.4941 655.5879 L 686.4941 1410.5313 L 790.0488 1410.5313 L 1202.7617 1410.5313 L 1306.5059 1410.5313 L 1306.5059 630.4609 Z M 736.3809 680.53125 L 1256.4277 680.53125 L 1256.4277 1360.4512 L 1202.7617 1360.4512 L 790.0488 1360.4512 L 736.3809 1360.4512 Z M 790.0488 757.0723 L 790.0488 806.957 L 1202.7617 806.957 L 1202.7617 757.0723 Z M 790.0488 907.6777 L 790.0488 957.7559 L 1202.7617 957.7559 L 1202.7617 907.6777 Z M 790.0488 1081.7168 L 790.0488 1131.6113 L 1202.7617 1131.6113 L 1202.7617 1081.7168 Z M 790.0488 1238.9395 L 790.0488 1288.8359 L 1202.7617 1288.8359 L 1202.7617 1238.9395 Z" fill="black"/>
      </g>
    </g>
  </g>
</symbol>,<symbol id="start-event-none" viewBox="99.08133 98.92314 1850.4658 1850.2586">
  <g id="Canvas_1" stroke-opacity="1" fill="none" fill-opacity="1" stroke="none" stroke-dasharray="none">
    <title>Canvas 1</title>
    <g id="Canvas_1_Layer_1">
      <title>Layer 1</title>
      <g id="Graphic_2">
        <title>path4481</title>
        <path d="M 1015.4766 98.92773 C 654.77914 97.73011 308.6741 330.79447 171.7754 664.1914 C 27.65656 994.3438 102.53842 1404.4752 354.6367 1661.9629 C 597.1004 1922.9548 996.5859 2018.7494 1331.1562 1896.6348 C 1677.896 1778.5613 1933.8798 1438.0411 1947.795 1071.543 C 1971.1343 711.4123 1759.2596 352.12165 1434.8418 195.25 C 1307.8073 131.85595 1165.9493 98.79702 1024 99 C 1021.1581 98.96146 1018.3167 98.93716 1015.4766 98.92773 Z M 1040.8281 198.9004 C 1393.9006 200.83863 1726.4328 456.25906 1817.746 797.9297 C 1914.7762 1124.8373 1783.5324 1503.3352 1501.8398 1696.955 C 1209.2273 1912.0295 775.2993 1896.469 498.97656 1660.7988 C 220.5625 1438.8189 120.90473 1028.2233 263.75 702.6172 C 387.55746 401.60486 698.3378 195.17882 1024 199 C 1029.6138 198.90237 1035.2238 198.86962 1040.8281 198.9004 Z" fill="black"/>
      </g>
    </g>
  </g>
</symbol>,<symbol id="start-event-timer" viewBox="51.5 80 1850 1849.998">
  <g id="Canvas_1" stroke-opacity="1" fill="none" fill-opacity="1" stroke="none" stroke-dasharray="none">
    <title>Canvas 1</title>
    <g id="Canvas_1_Layer_1">
      <title>Layer 1</title>
      <g id="Graphic_2">
        <title>path4481</title>
        <path d="M 976.5 80 C 466.22933 80 51.5 494.72064 51.5 1004.9941 C 51.5 1515.2677 466.22866 1929.998 976.5 1929.998 C 1486.7712 1929.998 1901.5 1515.2677 1901.5 1004.9941 C 1901.5 494.72065 1486.7706 80 976.5 80 Z M 976.5 180 C 1432.7276 180 1801.5 548.7644 1801.5 1004.9941 C 1801.5 1461.224 1432.727 1829.998 976.5 1829.998 C 520.2729 1829.998 151.5 1461.224 151.5 1004.9941 C 151.5 548.7644 520.2722 180 976.5 180 Z M 968.2109 565.9453 C 796.6824 567.15733 633.1106 679.8299 569.8926 839.2305 C 504.1024 995.0313 540.4735 1186.8001 658.77734 1307.6719 C 773.8036 1431.5016 963.3318 1477.136 1122.084 1419.0996 C 1288.4435 1362.4249 1410.6568 1197.8689 1415.0605 1021.9102 C 1423.923 850.965 1321.1862 681.941 1166.502 609.34375 C 1107.4754 580.76485 1041.9568 565.88615 976.3848 565.97265 C 973.6584 565.9355 970.9336 565.9261 968.2109 565.9453 Z M 983.8535 645.918 C 1140.5597 646.619 1287.5681 762.4377 1324.1113 915.0938 C 1364.8101 1064.1123 1296.2408 1234.0297 1162.75 1312.1094 C 1026.4496 1397.6527 834.2796 1374.8541 722.3555 1259 C 604.2415 1145.0565 583.2081 947.9146 673.8242 811.2656 C 738.0027 709.3191 855.8746 644.79905 976.3848 645.97265 C 978.8766 645.9255 981.3661 645.90684 983.8535 645.918 Z M 1089.8047 747.9902 C 1049.8373 820.4993 1009.8697 893.0085 969.9023 965.5176 C 932.8699 969.4554 924.0723 1025.6387 958.2402 1040.6231 C 980.8101 1056.2894 998.4874 1030.2309 1019.0332 1031.1289 L 1202.3262 1031.1289 L 1202.3262 981.1289 L 1018.3887 981.1289 C 1056.7904 911.4609 1095.1921 841.793 1133.5938 772.125 C 1118.9974 764.0801 1104.4011 756.0351 1089.8047 747.9902 Z" fill="black"/>
      </g>
    </g>
  </g>
</symbol>
</svg>