<svg xmlns="http://www.w3.org/2000/svg" xmlns:xlink="http://www.w3.org/1999/xlink">
<symbol id="archive-lock-outline" preserveAspectRatio="xMidYMid meet" viewBox="0 0 24 24">
  <path fill="currentColor" d="M15 12.06c-.21.29-.36.61-.5.94H9v-1.5c0-.28.22-.5.5-.5h5c.28 0 .5.22.5.5v.56M21 9H3V3h18v6m-2-4H5v2h14V5m-6 14H6v-9H4v11h9.03c-.03-.1-.03-.2-.03-.3V19m10-1.7v3.5c0 .6-.6 1.2-1.3 1.2h-5.5c-.6 0-1.2-.6-1.2-1.3v-3.5c0-.6.6-1.2 1.2-1.2v-1.5c0-1.4 1.4-2.5 2.8-2.5s2.8 1.1 2.8 2.5V16c.6 0 1.2.6 1.2 1.3m-2.5-2.8c0-.8-.7-1.3-1.5-1.3s-1.5.5-1.5 1.3V16h3v-1.5Z"/>
</symbol>
<symbol id="archive-outline" preserveAspectRatio="xMidYMid meet" viewBox="0 0 24 24">
  <path fill="currentColor" d="m21.706 5.291l-2.999-2.998A.996.996 0 0 0 18 2H6a.996.996 0 0 0-.707.293L2.294 5.291A.994.994 0 0 0 2 5.999V19c0 1.103.897 2 2 2h16c1.103 0 2-.897 2-2V5.999a.994.994 0 0 0-.294-.708zM6.414 4h11.172l.999.999H5.415L6.414 4zM4 19V6.999h16L20.002 19H4z"/>
  <path fill="currentColor" d="M15 12H9v-2H7v4h10v-4h-2z"/>
</symbol>
<symbol id="build-circle-outline" preserveAspectRatio="xMidYMid meet" viewBox="0 0 24 24">
  <path fill="currentColor" fill-rule="evenodd" d="M12 2C6.48 2 2 6.48 2 12s4.48 10 10 10s10-4.48 10-10S17.52 2 12 2zm0 18c-4.41 0-8-3.59-8-8s3.59-8 8-8s8 3.59 8 8s-3.59 8-8 8z"/>
  <path fill="currentColor" fill-rule="evenodd" d="M13.49 11.38c.43-1.22.17-2.64-.81-3.62a3.468 3.468 0 0 0-4.1-.59l2.35 2.35l-1.41 1.41l-2.35-2.35c-.71 1.32-.52 2.99.59 4.1c.98.98 2.4 1.24 3.62.81l3.41 3.41c.2.2.51.2.71 0l1.4-1.4c.2-.2.2-.51 0-.71l-3.41-3.41z"/>
</symbol>
<symbol id="calendar-today-outline" preserveAspectRatio="xMidYMid meet" viewBox="0 0 24 24">
  <path fill="currentColor" d="M20 3h-1V1h-2v2H7V1H5v2H4c-1.1 0-2 .9-2 2v16c0 1.1.9 2 2 2h16c1.1 0 2-.9 2-2V5c0-1.1-.9-2-2-2zm0 18H4V10h16v11zm0-13H4V5h16v3z"/>
</symbol>
<symbol id="check-circle-outline" preserveAspectRatio="xMidYMid meet" viewBox="0 0 24 24">
  <path fill="currentColor" d="M12 2C6.48 2 2 6.48 2 12s4.48 10 10 10s10-4.48 10-10S17.52 2 12 2zm0 18c-4.41 0-8-3.59-8-8s3.59-8 8-8s8 3.59 8 8s-3.59 8-8 8zm3.88-11.71L10 14.17l-1.88-1.88a.996.996 0 1 0-1.41 1.41l2.59 2.59c.39.39 1.02.39 1.41 0L17.3 9.7a.996.996 0 0 0 0-1.41c-.39-.39-1.03-.39-1.42 0z"/>
</symbol>
<symbol id="checkbox-checked-outline" preserveAspectRatio="xMidYMid meet" viewBox="0 0 24 24">
  <path fill="currentColor" d="M19 3H5a2 2 0 0 0-2 2v14a2 2 0 0 0 2 2h14a2 2 0 0 0 2-2V5a2 2 0 0 0-2-2m0 2v14H5V5h14m-9 12l-4-4l1.41-1.42L10 14.17l6.59-6.59L18 9"/>
</symbol>
<symbol id="checkbox-off-outline" preserveAspectRatio="xMidYMid meet" viewBox="0 0 24 24">
  <path fill="currentColor" d="M22.11 21.46L2.39 1.73L1.11 3L3 4.9V19a2 2 0 0 0 2 2h14.1l1.74 1.73l1.27-1.27M5 19V6.89L17.11 19H5M8.2 5l-2-2H19a2 2 0 0 1 2 2v12.8l-2-2V5H8.2Z"/>
</symbol>
<symbol id="checkbox-outline" preserveAspectRatio="xMidYMid meet" viewBox="0 0 24 24">
  <path fill="currentColor" d="M19 3H5c-1.11 0-2 .89-2 2v14a2 2 0 0 0 2 2h14a2 2 0 0 0 2-2V5a2 2 0 0 0-2-2m0 2v14H5V5h14Z"/>
</symbol>
<symbol id="copy-outline" preserveAspectRatio="xMidYMid meet" viewBox="0 0 24 24">
  <path fill="currentColor" d="M5.503 4.627L5.5 6.75v10.504a3.25 3.25 0 0 0 3.25 3.25h8.616a2.251 2.251 0 0 1-2.122 1.5H8.75A4.75 4.75 0 0 1 4 17.254V6.75c0-.98.627-1.815 1.503-2.123ZM17.75 2A2.25 2.25 0 0 1 20 4.25v13a2.25 2.25 0 0 1-2.25 2.25h-9a2.25 2.25 0 0 1-2.25-2.25v-13A2.25 2.25 0 0 1 8.75 2h9Zm0 1.5h-9a.75.75 0 0 0-.75.75v13c0 .414.336.75.75.75h9a.75.75 0 0 0 .75-.75v-13a.75.75 0 0 0-.75-.75Z"/>
</symbol>
<symbol id="database-lock-outline" preserveAspectRatio="xMidYMid meet" viewBox="0 0 24 24">
  <path fill="currentColor" d="M6 12.45V9.64c1.47.83 3.61 1.36 6 1.36s4.53-.53 6-1.36v1.41c.17-.02.33-.05.5-.05c.53 0 1.03.1 1.5.26V7c0-2.21-3.58-4-8-4S4 4.79 4 7v10c0 2.21 3.59 4 8 4c.34 0 .67 0 1-.03v-2.02c-.32.05-.65.05-1 .05c-3.87 0-6-1.5-6-2v-2.23c1.61.78 3.72 1.23 6 1.23c.41 0 .81-.03 1.21-.06c.19-.48.47-.91.86-1.24c.06-.31.16-.61.27-.9c-.74.13-1.53.2-2.34.2c-2.42 0-4.7-.6-6-1.55M12 5c3.87 0 6 1.5 6 2s-2.13 2-6 2s-6-1.5-6-2s2.13-2 6-2m9 11v-.5a2.5 2.5 0 0 0-5 0v.5c-.55 0-1 .45-1 1v4c0 .55.45 1 1 1h5c.55 0 1-.45 1-1v-4c0-.55-.45-1-1-1m-1 0h-3v-.5c0-.83.67-1.5 1.5-1.5s1.5.67 1.5 1.5v.5Z"/>
</symbol>
<symbol id="delete-forever-outline" preserveAspectRatio="xMidYMid meet" viewBox="0 0 24 24">
  <path fill="currentColor" d="M14.12 10.47L12 12.59l-2.13-2.12l-1.41 1.41L10.59 14l-2.12 2.12l1.41 1.41L12 15.41l2.12 2.12l1.41-1.41L13.41 14l2.12-2.12l-1.41-1.41M15.5 4l-1-1h-5l-1 1H5v2h14V4h-3.5M6 19a2 2 0 0 0 2 2h8a2 2 0 0 0 2-2V7H6v12M8 9h8v10H8V9Z"/>
</symbol>
<symbol id="delete-outline" preserveAspectRatio="xMidYMid meet" viewBox="0 0 24 24">
  <path fill="currentColor" d="M6 19a2 2 0 0 0 2 2h8a2 2 0 0 0 2-2V7H6v12M8 9h8v10H8V9m7.5-5l-1-1h-5l-1 1H5v2h14V4h-3.5Z"/>
</symbol>
<symbol id="draft-outline" preserveAspectRatio="xMidYMid meet" viewBox="0 0 24 24">
  <path fill="currentColor" d="M20 2a1 1 0 0 1 1 1v3.757l-2 2V4H5v16h14v-2.758l2-2V21a1 1 0 0 1-1 1H4a1 1 0 0 1-1-1V3a1 1 0 0 1 1-1h16zm1.778 6.808l1.414 1.414L15.414 18l-1.416-.002l.002-1.412l7.778-7.778zM13 12v2H8v-2h5zm3-4v2H8V8h8z"/>
</symbol>
<symbol id="heart-outline" preserveAspectRatio="xMidYMid meet" viewBox="0 0 24 24">
  <path fill="none" stroke="currentColor" stroke-linecap="round" stroke-linejoin="round" stroke-width="2" d="M7 3C4.239 3 2 5.216 2 7.95c0 2.207.875 7.445 9.488 12.74a.985.985 0 0 0 1.024 0C21.125 15.395 22 10.157 22 7.95C22 5.216 19.761 3 17 3s-5 3-5 3s-2.239-3-5-3Z"/>
</symbol>
<symbol id="label-outline" preserveAspectRatio="xMidYMid meet" viewBox="0 0 24 24">
  <path fill="currentColor" d="M17.63 5.84C17.27 5.33 16.67 5 16 5L5 5.01C3.9 5.01 3 5.9 3 7v10c0 1.1.9 1.99 2 1.99L16 19c.67 0 1.27-.33 1.63-.84L22 12l-4.37-6.16zM16 17H5V7h11l3.55 5L16 17z"/>
</symbol>
<symbol id="layout-outline" preserveAspectRatio="xMidYMid meet" viewBox="0 0 256 256">
  <path fill="currentColor" d="M216 40H40a16 16 0 0 0-16 16v144a16 16 0 0 0 16 16h176a16 16 0 0 0 16-16V56a16 16 0 0 0-16-16ZM40 56h176v40H40Zm0 56h56v88H40Zm176 88H112v-88h104v88Z"/>
</symbol>
<symbol id="log-out-outline" preserveAspectRatio="xMidYMid meet" viewBox="0 0 24 24">
  <path fill="currentColor" d="M6 2h9a2 2 0 0 1 2 2v1a1 1 0 0 1-2 0V4H6v16h9v-1a1 1 0 0 1 2 0v1a2 2 0 0 1-2 2H6a2 2 0 0 1-2-2V4a2 2 0 0 1 2-2z"/>
  <path fill="currentColor" d="M16.795 16.295c.39.39 1.02.39 1.41 0l3.588-3.588a1 1 0 0 0 0-1.414l-3.588-3.588a.999.999 0 0 0-1.411 1.411L18.67 11H10a1 1 0 0 0 0 2h8.67l-1.876 1.884a.999.999 0 0 0 .001 1.411z"/>
</symbol>
<symbol id="mail-outline" preserveAspectRatio="xMidYMid meet" viewBox="0 0 24 24">
  <path fill="currentColor" d="M20 4H4c-1.1 0-1.99.9-1.99 2L2 18c0 1.1.9 2 2 2h16c1.1 0 2-.9 2-2V6c0-1.1-.9-2-2-2zm0 14H4V8l8 5l8-5v10zm-8-7L4 6h16l-8 5z"/>
</symbol>
<symbol id="star-outline" preserveAspectRatio="xMidYMid meet" viewBox="0 0 32 32">
  <path fill="currentColor" d="m16 6.52l2.76 5.58l.46 1l1 .15l6.16.89l-4.38 4.3l-.75.73l.18 1l1.05 6.13l-5.51-2.89L16 23l-.93.49l-5.51 2.85l1-6.13l.18-1l-.74-.77l-4.42-4.35l6.16-.89l1-.15l.46-1L16 6.52M16 2l-4.55 9.22l-10.17 1.47l7.36 7.18L6.9 30l9.1-4.78L25.1 30l-1.74-10.13l7.36-7.17l-10.17-1.48Z"/>
</symbol>
<symbol id="theme-outline" preserveAspectRatio="xMidYMid meet" viewBox="0 0 48 48">
  <path fill="none" stroke="currentColor" stroke-linejoin="round" stroke-width="4" d="M18 6a6 6 0 1 0 12 0h5.455L42 15.818l-5.727 4.91V42H11.727V20.727L6 15.818L12.545 6H18Z"/>
</symbol>
<symbol id="timer-outline" preserveAspectRatio="xMidYMid meet" viewBox="0 0 24 24">
  <path fill="currentColor" d="M12 5a8.5 8.5 0 1 1 0 17a8.5 8.5 0 0 1 0-17Zm0 1.5a7 7 0 1 0 0 14a7 7 0 0 0 0-14ZM12 8a.75.75 0 0 1 .743.648l.007.102v4.5a.75.75 0 0 1-1.493.102l-.007-.102v-4.5A.75.75 0 0 1 12 8Zm7.147-2.886l.083.06l1.158.964a.75.75 0 0 1-.877 1.212l-.082-.06l-1.159-.964a.75.75 0 0 1 .877-1.212ZM14.25 2.5a.75.75 0 0 1 .102 1.493L14.25 4h-4.5a.75.75 0 0 1-.102-1.493L9.75 2.5h4.5Z"/>
</symbol>
<symbol id="work-history-outline" preserveAspectRatio="xMidYMid meet" viewBox="0 0 24 24">
  <path fill="currentColor" d="M4 19V8h16v3.29c.72.22 1.4.54 2 .97V8c0-1.11-.89-2-2-2h-4V4c0-1.11-.89-2-2-2h-4c-1.11 0-2 .89-2 2v2H4c-1.11 0-1.99.89-1.99 2L2 19c0 1.11.89 2 2 2h7.68c-.3-.62-.5-1.29-.6-2H4zm6-15h4v2h-4V4z"/>
  <path fill="currentColor" d="M18 13c-2.76 0-5 2.24-5 5s2.24 5 5 5s5-2.24 5-5s-2.24-5-5-5zm1.65 7.35L17.5 18.2V15h1v2.79l1.85 1.85l-.7.71z"/>
</symbol>
</svg>