<svg xmlns="http://www.w3.org/2000/svg" xmlns:xlink="http://www.w3.org/1999/xlink">
<symbol id="collaboration" viewBox="0 0 32 32">
  <path fill="currentColor" d="M6 21v-1H4v1a7 7 0 0 0 7 7h3v-2h-3a5 5 0 0 1-5-5zm18-10v1h2v-1a7 7 0 0 0-7-7h-3v2h3a5 5 0 0 1 5 5zm-13 0H5a3 3 0 0 0-3 3v2h2v-2a1 1 0 0 1 1-1h6a1 1 0 0 1 1 1v2h2v-2a3 3 0 0 0-3-3zm-3-1a4 4 0 1 0-4-4a4 4 0 0 0 4 4zm0-6a2 2 0 1 1-2 2a2 2 0 0 1 2-2zm19 21h-6a3 3 0 0 0-3 3v2h2v-2a1 1 0 0 1 1-1h6a1 1 0 0 1 1 1v2h2v-2a3 3 0 0 0-3-3zm-7-5a4 4 0 1 0 4-4a4 4 0 0 0-4 4zm6 0a2 2 0 1 1-2-2a2 2 0 0 1 2 2z"/>
</symbol>
<symbol id="level" preserveAspectRatio="xMidYMid meet" viewBox="0 0 48 48">
  <g fill="none" stroke="currentColor" stroke-linecap="round" stroke-width="4">
    <path stroke-linejoin="round" d="M6 8v32M24 8v32M7 24h16"/>
    <path d="M32 24v16m0-8.976C32 28.46 34 26 37 26s5 2.358 5 5.024v8.99"/>
  </g>
</symbol>
<symbol id="organization" preserveAspectRatio="xMidYMid meet" viewBox="0 0 24 24">
  <path fill="currentColor" d="M11.75 1.998a3.752 3.752 0 0 0-.75 7.43V11.5H7.75a2.25 2.25 0 0 0-2.25 2.25v.826a3.754 3.754 0 0 0 .752 7.429A3.752 3.752 0 0 0 7 14.575v-.825a.75.75 0 0 1 .75-.75h8a.75.75 0 0 1 .75.75v.826a3.754 3.754 0 0 0 .752 7.429a3.752 3.752 0 0 0 .748-7.43v-.825a2.25 2.25 0 0 0-2.25-2.25H12.5V9.428a3.754 3.754 0 0 0-.75-7.43ZM9.498 5.75a2.252 2.252 0 1 1 4.504 0a2.252 2.252 0 0 1-4.504 0ZM4 18.253a2.252 2.252 0 1 1 4.505 0a2.252 2.252 0 0 1-4.505 0ZM17.252 16a2.252 2.252 0 1 1 0 4.505a2.252 2.252 0 0 1 0-4.505Z"/>
</symbol>
<symbol id="position" preserveAspectRatio="xMidYMid meet" viewBox="0 0 24 24">
  <path fill="none" stroke="currentColor" stroke-linecap="round" stroke-linejoin="round" stroke-width="1.5" d="m14.73 8.36l-2.25 3a.6.6 0 0 1-.96 0l-2.25-3a.6.6 0 0 1 0-.72l2.25-3a.6.6 0 0 1 .96 0l2.25 3a.6.6 0 0 1 0 .72ZM3 20h18m-9-3v-2"/>
</symbol>
<symbol id="relation" preserveAspectRatio="xMidYMid meet" viewBox="0 0 24 24">
  <path fill="currentColor" d="M21 15v-2h-2v2h-.21a2.5 2.5 0 0 0-4.58 0H13V7H9.79a2.5 2.5 0 0 0-4.58 0H5V5H3v2H2v2h1v2h2V9h.21a2.5 2.5 0 0 0 4.58 0H11v8h3.21a2.5 2.5 0 0 0 4.58 0H19v2h2v-2h1v-2M7.5 9a1 1 0 1 1 1-1a1 1 0 0 1-1 1m9 8a1 1 0 1 1 1-1a1 1 0 0 1-1 1Z"/>
</symbol>
<symbol id="role" preserveAspectRatio="xMidYMid meet" viewBox="0 0 24 24">
  <path fill="currentColor" d="M12 11c1.33 0 4 .67 4 2v.16c-.97 1.12-2.4 1.84-4 1.84s-3.03-.72-4-1.84V13c0-1.33 2.67-2 4-2zm0-1c-1.1 0-2-.9-2-2s.9-2 2-2s2 .9 2 2s-.9 2-2 2zm6 .2C18 6.57 15.35 4 12 4s-6 2.57-6 6.2c0 2.34 1.95 5.44 6 9.14c4.05-3.7 6-6.8 6-9.14zM12 2c4.2 0 8 3.22 8 8.2c0 3.32-2.67 7.25-8 11.8c-5.33-4.55-8-8.48-8-11.8C4 5.22 7.8 2 12 2z"/>
</symbol>
<symbol id="shield-key" preserveAspectRatio="xMidYMid meet" viewBox="0 0 24 24">
  <path fill="currentColor" d="M21 11c0 5.55-3.84 10.74-9 12c-5.16-1.26-9-6.45-9-12V5l9-4l9 4v6m-9 10c3.75-1 7-5.46 7-9.78V6.3l-7-3.12L5 6.3v4.92C5 15.54 8.25 20 12 21m0-15a3 3 0 0 1 3 3c0 1.31-.83 2.42-2 2.83V14h2v2h-2v2h-2v-6.17A2.99 2.99 0 0 1 9 9a3 3 0 0 1 3-3m0 2a1 1 0 0 0-1 1a1 1 0 0 0 1 1a1 1 0 0 0 1-1a1 1 0 0 0-1-1Z"/>
</symbol>
<symbol id="template" preserveAspectRatio="xMidYMid meet" viewBox="0 0 24 24">
  <path fill="currentColor" d="M5 5.5C5 6.33 5.67 7 6.5 7h4v10.5c0 .83.67 1.5 1.5 1.5s1.5-.67 1.5-1.5V7h4c.83 0 1.5-.67 1.5-1.5S18.33 4 17.5 4h-11C5.67 4 5 4.67 5 5.5z"/>
</symbol>
</svg>