<svg xmlns="http://www.w3.org/2000/svg" xmlns:xlink="http://www.w3.org/1999/xlink">
<symbol id="facebook" preserveAspectRatio="xMidYMid meet" viewBox="0 0 24 24">
  <path fill="currentColor" d="M22 12c0-5.52-4.48-10-10-10S2 6.48 2 12c0 4.84 3.44 8.87 8 9.8V15H8v-3h2V9.5C10 7.57 11.57 6 13.5 6H16v3h-2c-.55 0-1 .45-1 1v2h3v3h-3v6.95c5.05-.5 9-4.76 9-9.95z"/>
</symbol>
<symbol id="framework7" viewBox="0 0 141 140">
  <path fill="#EE350F" fill-rule="evenodd" d="M0 70C0 53.1761488 5.9351074 37.7385162 15.8257578 25.6666667L124.174242 25.6666667 46.886533 136.094164C19.5839221 126.547002 0 100.560536 0 70zM129.916933 33.7866337C136.316332 44.3520969 140 56.745865 140 70 140 108.659932 108.659932 140 70 140 65.368347 140 60.8417578 139.550169 56.4615372 138.691811L129.916933 33.7866337zM25.0542491 16.3333333C37.2143113 6.138509 52.8902929 0 70 0 87.1097071 0 102.785689 6.138509 114.945751 16.3333333L25.0542491 16.3333333 25.0542491 16.3333333z" transform="translate(.5)"/>
</symbol>
<symbol id="twitter" preserveAspectRatio="xMidYMid meet" viewBox="0 0 24 24">
  <path fill="currentColor" d="M22.46 6c-.77.35-1.6.58-2.46.69c.88-.53 1.56-1.37 1.88-2.38c-.83.5-1.75.85-2.72 1.05C18.37 4.5 17.26 4 16 4c-2.35 0-4.27 1.92-4.27 4.29c0 .34.04.67.11.98C8.28 9.09 5.11 7.38 3 4.79c-.37.63-.58 1.37-.58 2.15c0 1.49.75 2.81 1.91 3.56c-.71 0-1.37-.2-1.95-.5v.03c0 2.08 1.48 3.82 3.44 4.21a4.22 4.22 0 0 1-1.93.07a4.28 4.28 0 0 0 4 2.98a8.521 8.521 0 0 1-5.33 1.84c-.34 0-.68-.02-1.02-.06C3.44 20.29 5.7 21 8.12 21C16 21 20.33 14.46 20.33 8.79c0-.19 0-.37-.01-.56c.84-.6 1.56-1.36 2.14-2.23Z"/>
</symbol>
</svg>