<svg xmlns="http://www.w3.org/2000/svg" xmlns:xlink="http://www.w3.org/1999/xlink">
<symbol id="pomotodo" viewBox="0 0 48 48">
  <path fill="none" stroke="currentColor" stroke-linecap="round" stroke-linejoin="round" d="M24 2.5a21.515 21.515 0 1 0 18.816 11.11c-11.229 7.287-19.31 19.874-19.31 19.874l-10.8-12.035l2.827-2.676L22.89 24s10.096-8.369 18.492-12.646A21.5 21.5 0 0 0 24 2.5Z"/>
</symbol>
<symbol id="spreadsheet" viewBox="0 0 24 24">
  <path fill="currentColor" d="M21 5c0-1.103-.897-2-2-2H5c-1.103 0-2 .897-2 2v14c0 1.103.897 2 2 2h14c1.103 0 2-.897 2-2V5zM5 19V5h14l.002 14H5z"/>
  <path fill="currentColor" d="M7 7h1.998v2H7zm4 0h6v2h-6zm-4 4h1.998v2H7zm4 0h6v2h-6zm-4 4h1.998v2H7zm4 0h6v2h-6z"/>
</symbol>
</svg>