<svg xmlns="http://www.w3.org/2000/svg" aria-hidden="true" role="img" width="1em" height="1em" preserveAspectRatio="xMidYMid meet" viewBox="0 0 24 24"><path fill="currentColor" fill-rule="evenodd" d="M12 2C6.48 2 2 6.48 2 12s4.48 10 10 10s10-4.48 10-10S17.52 2 12 2zm0 18c-4.41 0-8-3.59-8-8s3.59-8 8-8s8 3.59 8 8s-3.59 8-8 8z"/><path fill="currentColor" fill-rule="evenodd" d="M13.49 11.38c.43-1.22.17-2.64-.81-3.62a3.468 3.468 0 0 0-4.1-.59l2.35 2.35l-1.41 1.41l-2.35-2.35c-.71 1.32-.52 2.99.59 4.1c.98.98 2.4 1.24 3.62.81l3.41 3.41c.2.2.51.2.71 0l1.4-1.4c.2-.2.2-.51 0-.71l-3.41-3.41z"/></svg>