<svg width="32" height="32" viewBox="0 0 32 32" fill="none">
	<path d="M18.5603 12.1845Q18.9558 12.479 19.448 13.1821L22.1638 13.1821L22.1638 10.2114L20.195 10.2114Q19.3074 9.42036 18.5691 9.1523Q17.8308 8.88423 16.7497 8.88423Q15.3962 8.88423 14.2229 9.42476Q13.0495 9.96529 12.1794 10.9013Q11.3093 11.8374 10.8083 13.0898Q10.3074 14.3422 10.3074 15.7749Q10.3074 16.7329 10.5359 17.6162Q10.7644 18.4995 11.1775 19.2685Q11.5906 20.0376 12.175 20.6704Q12.7595 21.3032 13.4758 21.7514Q14.1921 22.1997 15.0183 22.4458Q15.8445 22.6918 16.7497 22.6918Q17.822 22.6918 18.7492 22.3842Q19.6765 22.0766 20.4192 21.5405Q21.1618 21.0043 21.6892 20.2705Q22.2165 19.5366 22.489 18.6752L19.6589 17.8842Q19.5007 18.2797 19.2195 18.6445Q18.9382 19.0092 18.5647 19.2905Q18.1911 19.5717 17.7341 19.7431Q17.2771 19.9145 16.7497 19.9145Q15.9939 19.9145 15.3611 19.5849Q14.7282 19.2553 14.2712 18.6928Q13.8142 18.1303 13.5549 17.3789Q13.2956 16.6274 13.2956 15.7749Q13.2956 14.9311 13.5593 14.1796Q13.823 13.4282 14.2844 12.8613Q14.7458 12.2944 15.3786 11.9648Q16.0115 11.6352 16.7497 11.6352Q17.2507 11.6352 17.7077 11.7626Q18.1648 11.8901 18.5603 12.1845Z" fill="#000000FF"/>
	<path d="M0 5.81818C0 5.04665 0.147629 4.30447 0.442883 3.59166C0.738136 2.87885 1.15855 2.24966 1.70411 1.70411C2.24966 1.15855 2.87885 0.738136 3.59166 0.442886C4.30447 0.147629 5.04664 0 5.81818 0L26.1818 0C26.9534 0 27.6955 0.147629 28.4083 0.442886C29.1211 0.738136 29.7503 1.15855 30.2959 1.70411C30.8414 2.24966 31.2619 2.87885 31.5571 3.59166C31.8524 4.30447 32 5.04665 32 5.81818L32 26.1818C32 26.9534 31.8524 27.6955 31.5571 28.4083C31.2619 29.1211 30.8414 29.7503 30.2959 30.2959C29.7503 30.8414 29.1211 31.2619 28.4083 31.5571C27.6955 31.8524 26.9534 32 26.1818 32L5.81818 32C5.04664 32 4.30447 31.8524 3.59166 31.5571C2.87885 31.2619 2.24966 30.8414 1.70411 30.2959C1.15855 29.7503 0.738136 29.1211 0.442883 28.4083C0.147629 27.6955 0 26.9534 0 26.1818L0 5.81818ZM5.81818 2.90909L26.1818 2.90909C26.9851 2.90909 27.6708 3.19311 28.2389 3.76115C28.8069 4.32918 29.0909 5.01486 29.0909 5.81818L29.0909 26.1818C29.0909 26.9851 28.8069 27.6708 28.2389 28.2389C27.6708 28.8069 26.9851 29.0909 26.1818 29.0909L5.81818 29.0909C5.01486 29.0909 4.32918 28.8069 3.76114 28.2389C3.19311 27.6708 2.90909 26.9851 2.90909 26.1818L2.90909 5.81818C2.90909 5.01486 3.19311 4.32918 3.76114 3.76115C4.32918 3.19311 5.01486 2.90909 5.81818 2.90909Z" fill-rule="evenodd" fill="#000000"/>
</svg>
