<svg xmlns="http://www.w3.org/2000/svg" xmlns:xlink="http://www.w3.org/1999/xlink" aria-hidden="true" role="img" class="iconify iconify--material-symbols" width="32" height="32" preserveAspectRatio="xMidYMid meet" viewBox="0 0 24 24"><path fill="currentColor" d="M16.675 11.5q-.425 0-.712-.288q-.288-.287-.288-.712v-4q0-.425.288-.713q.287-.287.712-.287H20q.425 0 .712.287q.288.288.288.713v4q0 .425-.288.712q-.287.288-.712.288Zm-6.325 0q-.425 0-.713-.288q-.287-.287-.287-.712v-4q0-.425.287-.713q.288-.287.713-.287h3.325q.425 0 .713.287q.287.288.287.713v4q0 .425-.287.712q-.288.288-.713.288Zm-6.325 0q-.425 0-.713-.288q-.287-.287-.287-.712v-4q0-.425.287-.713q.288-.287.713-.287H7.35q.425 0 .712.287q.288.288.288.713v4q0 .425-.288.712q-.287.288-.712.288Zm0 7q-.425 0-.713-.288q-.287-.287-.287-.712v-4q0-.425.287-.713q.288-.287.713-.287H7.35q.425 0 .712.287q.288.288.288.713v4q0 .425-.288.712q-.287.288-.712.288Zm6.325 0q-.425 0-.713-.288q-.287-.287-.287-.712v-4q0-.425.287-.713q.288-.287.713-.287h3.325q.425 0 .713.287q.287.288.287.713v4q0 .425-.287.712q-.288.288-.713.288Zm6.325 0q-.425 0-.712-.288q-.288-.287-.288-.712v-4q0-.425.288-.713q.287-.287.712-.287H20q.425 0 .712.287q.288.288.288.713v4q0 .425-.288.712q-.287.288-.712.288Z"></path></svg>