<svg xmlns="http://www.w3.org/2000/svg" xmlns:xlink="http://www.w3.org/1999/xlink" aria-hidden="true" role="img" class="iconify iconify--ion" width="32" height="32" preserveAspectRatio="xMidYMid meet" viewBox="0 0 512 512"><path fill="currentColor" d="M104 496H72a24 24 0 0 1-24-24V328a24 24 0 0 1 24-24h32a24 24 0 0 1 24 24v144a24 24 0 0 1-24 24Zm224 0h-32a24 24 0 0 1-24-24V232a24 24 0 0 1 24-24h32a24 24 0 0 1 24 24v240a24 24 0 0 1-24 24Zm112 0h-32a24 24 0 0 1-24-24V120a24 24 0 0 1 24-24h32a24 24 0 0 1 24 24v352a24 24 0 0 1-24 24Zm-224 0h-32a24 24 0 0 1-24-24V40a24 24 0 0 1 24-24h32a24 24 0 0 1 24 24v432a24 24 0 0 1-24 24Z"></path></svg>