<svg xmlns="http://www.w3.org/2000/svg" width="32" height="32" viewBox="0 0 32 32"><path fill="currentColor" d="M6 21v-1H4v1a7 7 0 0 0 7 7h3v-2h-3a5 5 0 0 1-5-5zm18-10v1h2v-1a7 7 0 0 0-7-7h-3v2h3a5 5 0 0 1 5 5zm-13 0H5a3 3 0 0 0-3 3v2h2v-2a1 1 0 0 1 1-1h6a1 1 0 0 1 1 1v2h2v-2a3 3 0 0 0-3-3zm-3-1a4 4 0 1 0-4-4a4 4 0 0 0 4 4zm0-6a2 2 0 1 1-2 2a2 2 0 0 1 2-2zm19 21h-6a3 3 0 0 0-3 3v2h2v-2a1 1 0 0 1 1-1h6a1 1 0 0 1 1 1v2h2v-2a3 3 0 0 0-3-3zm-7-5a4 4 0 1 0 4-4a4 4 0 0 0-4 4zm6 0a2 2 0 1 1-2-2a2 2 0 0 1 2 2z"/></svg>