<svg xmlns="http://www.w3.org/2000/svg" xmlns:xlink="http://www.w3.org/1999/xlink" aria-hidden="true" role="img" class="iconify iconify--ic" width="32" height="32" preserveAspectRatio="xMidYMid meet" viewBox="0 0 24 24"><path fill="currentColor" d="M12 7c-.55 0-1 .45-1 1v3H8c-.55 0-1 .45-1 1s.45 1 1 1h3v3c0 .55.45 1 1 1s1-.45 1-1v-3h3c.55 0 1-.45 1-1s-.45-1-1-1h-3V8c0-.55-.45-1-1-1zm0-5C6.48 2 2 6.48 2 12s4.48 10 10 10s10-4.48 10-10S17.52 2 12 2zm0 18c-4.41 0-8-3.59-8-8s3.59-8 8-8s8 3.59 8 8s-3.59 8-8 8z"></path></svg>