<svg xmlns="http://www.w3.org/2000/svg" xmlns:xlink="http://www.w3.org/1999/xlink" aria-hidden="true" role="img" class="iconify iconify--arcticons" width="32" height="32" preserveAspectRatio="xMidYMid meet" viewBox="0 0 48 48"><path fill="none" stroke="currentColor" stroke-linecap="round" stroke-linejoin="round" d="M8.4 6.5v35a2 2 0 0 0 2 2h2.33v-39H10.4a2 2 0 0 0-2 2Zm4.33-2v39H37.6a2 2 0 0 0 2-2v-35a2 2 0 0 0-2-2Z"></path><path fill="none" stroke="currentColor" stroke-linecap="round" stroke-linejoin="round" d="M32.165 26.1a6 6 0 0 0-6-6h0a6 6 0 0 0-6 6V30a6 6 0 0 0 6 6h0a6 6 0 0 0 6-6m0 6V12"></path></svg>