<svg xmlns="http://www.w3.org/2000/svg" xmlns:xlink="http://www.w3.org/1999/xlink" aria-hidden="true" role="img" class="iconify iconify--ic" width="32" height="32" preserveAspectRatio="xMidYMid meet" viewBox="0 0 24 24"><path fill="currentColor" d="M6 2h9a2 2 0 0 1 2 2v1a1 1 0 0 1-2 0V4H6v16h9v-1a1 1 0 0 1 2 0v1a2 2 0 0 1-2 2H6a2 2 0 0 1-2-2V4a2 2 0 0 1 2-2z"></path><path fill="currentColor" d="M16.795 16.295c.39.39 1.02.39 1.41 0l3.588-3.588a1 1 0 0 0 0-1.414l-3.588-3.588a.999.999 0 0 0-1.411 1.411L18.67 11H10a1 1 0 0 0 0 2h8.67l-1.876 1.884a.999.999 0 0 0 .001 1.411z"></path></svg>