<svg xmlns="http://www.w3.org/2000/svg" xmlns:xlink="http://www.w3.org/1999/xlink" aria-hidden="true" role="img" class="iconify iconify--ic" width="32" height="32" preserveAspectRatio="xMidYMid meet" viewBox="0 0 24 24"><path fill="currentColor" d="M19 3h-4.18C14.4 1.84 13.3 1 12 1s-2.4.84-2.82 2H5c-1.1 0-2 .9-2 2v14c0 1.1.9 2 2 2h14c1.1 0 2-.9 2-2V5c0-1.1-.9-2-2-2zm-7-.25c.41 0 .75.34.75.75s-.34.75-.75.75s-.75-.34-.75-.75s.34-.75.75-.75zM19 19H5V5h14v14z"></path><path fill="currentColor" d="m15.08 11.03l-2.12-2.12L7 14.86V17h2.1zm1.77-1.76c.2-.2.2-.51 0-.71l-1.41-1.41c-.2-.2-.51-.2-.71 0l-1.06 1.06l2.12 2.12l1.06-1.06z"></path></svg>