<svg xmlns="http://www.w3.org/2000/svg" xmlns:xlink="http://www.w3.org/1999/xlink" aria-hidden="true" role="img" class="iconify iconify--carbon" width="32" height="32" preserveAspectRatio="xMidYMid meet" viewBox="0 0 32 32"><path fill="currentColor" d="M29.391 14.527L17.473 2.609A2.078 2.078 0 0 0 16 2c-.533 0-1.067.203-1.473.609L2.609 14.527C2.203 14.933 2 15.466 2 16s.203 1.067.609 1.473L14.526 29.39c.407.407.941.61 1.474.61s1.067-.203 1.473-.609L29.39 17.474c.407-.407.61-.94.61-1.474s-.203-1.067-.609-1.473zM16 28.036L3.965 16L16 3.964L28.036 16L16 28.036z"></path></svg>