<?xml version="1.0" encoding="UTF-8" standalone="no"?>
<svg
   xmlns:dc="http://purl.org/dc/elements/1.1/"
   xmlns:cc="http://creativecommons.org/ns#"
   xmlns:rdf="http://www.w3.org/1999/02/22-rdf-syntax-ns#"
   xmlns:svg="http://www.w3.org/2000/svg"
   xmlns="http://www.w3.org/2000/svg"
   width="2048"
   height="2048"
   id="svg3891"
   version="1.1">
  <defs
     id="defs3893" />
  <metadata
     id="metadata3896">
    <rdf:RDF>
      <cc:Work
         rdf:about="">
        <dc:format>image/svg+xml</dc:format>
        <dc:type
           rdf:resource="http://purl.org/dc/dcmitype/StillImage" />
        <dc:title></dc:title>
      </cc:Work>
    </rdf:RDF>
  </metadata>
  <path
     id="path4481"
     d="M 1024 99.003906 C 513.72933 99.003906 99 513.72455 99 1023.998 C 99 1534.2716 513.72866 1949.002 1024 1949.002 C 1534.2712 1949.002 1949 1534.2716 1949 1023.998 C 1949 513.72456 1534.2706 99.003906 1024 99.003906 z M 1024 199.00391 C 1480.2276 199.00391 1849 567.76828 1849 1023.998 C 1849 1480.2279 1480.227 1849.002 1024 1849.002 C 567.77288 1849.002 199 1480.2279 199 1023.998 C 199 567.76828 567.77221 199.00391 1024 199.00391 z M 713.99414 633.96484 L 713.99414 659.0918 L 713.99414 1414.0352 L 817.54883 1414.0352 L 1230.2617 1414.0352 L 1334.0059 1414.0352 L 1334.0059 633.96484 L 713.99414 633.96484 z M 763.88086 684.03516 L 1283.9277 684.03516 L 1283.9277 1363.9551 L 1230.2617 1363.9551 L 817.54883 1363.9551 L 763.88086 1363.9551 L 763.88086 684.03516 z M 817.54883 760.57617 L 817.54883 810.46094 L 1230.2617 810.46094 L 1230.2617 760.57617 L 817.54883 760.57617 z M 817.54883 911.18164 L 817.54883 961.25977 L 1230.2617 961.25977 L 1230.2617 911.18164 L 817.54883 911.18164 z M 817.54883 1085.2207 L 817.54883 1135.1152 L 1230.2617 1135.1152 L 1230.2617 1085.2207 L 817.54883 1085.2207 z M 817.54883 1242.4434 L 817.54883 1292.3398 L 1230.2617 1292.3398 L 1230.2617 1242.4434 L 817.54883 1242.4434 z "
     style="color:#000000;font-style:normal;font-variant:normal;font-weight:normal;font-stretch:normal;font-size:medium;line-height:normal;font-family:sans-serif;text-indent:0;text-align:start;text-decoration:none;text-decoration-line:none;text-decoration-style:solid;text-decoration-color:#000000;letter-spacing:normal;word-spacing:normal;text-transform:none;direction:ltr;block-progression:tb;writing-mode:lr-tb;baseline-shift:baseline;text-anchor:start;white-space:normal;clip-rule:nonzero;display:inline;overflow:visible;visibility:visible;opacity:1;isolation:auto;mix-blend-mode:normal;color-interpolation:sRGB;color-interpolation-filters:linearRGB;solid-color:#000000;solid-opacity:1;fill:#000000;fill-opacity:1;fill-rule:nonzero;stroke:none;stroke-width:99.99999237;stroke-linecap:butt;stroke-linejoin:miter;stroke-miterlimit:4;stroke-dasharray:none;stroke-dashoffset:0;stroke-opacity:1;color-rendering:auto;image-rendering:auto;shape-rendering:auto;text-rendering:auto;enable-background:accumulate" />
</svg>
