<?xml version="1.0" encoding="UTF-8" standalone="no"?>
<svg
   xmlns:dc="http://purl.org/dc/elements/1.1/"
   xmlns:cc="http://creativecommons.org/ns#"
   xmlns:rdf="http://www.w3.org/1999/02/22-rdf-syntax-ns#"
   xmlns:svg="http://www.w3.org/2000/svg"
   xmlns="http://www.w3.org/2000/svg"
   width="2048"
   height="2048"
   id="svg3891"
   version="1.1">
  <defs
     id="defs3893" />
  <metadata
     id="metadata3896">
    <rdf:RDF>
      <cc:Work
         rdf:about="">
        <dc:format>image/svg+xml</dc:format>
        <dc:type
           rdf:resource="http://purl.org/dc/dcmitype/StillImage" />
        <dc:title></dc:title>
      </cc:Work>
    </rdf:RDF>
  </metadata>
  <path
     id="path4481"
     d="M 1015.4766 98.927734 C 654.77914 97.73011 308.67409 330.79447 171.77539 664.19141 C 27.656559 994.34375 102.53842 1404.4752 354.63672 1661.9629 C 597.1004 1922.9548 996.58594 2018.7494 1331.1562 1896.6348 C 1677.896 1778.5613 1933.8798 1438.0411 1947.7949 1071.543 C 1971.1343 711.41229 1759.2596 352.12165 1434.8418 195.25 C 1307.8073 131.85595 1165.9493 98.797018 1024 99 C 1021.1581 98.961456 1018.3167 98.937164 1015.4766 98.927734 z M 1040.8281 198.90039 C 1393.9006 200.83863 1726.4328 456.25906 1817.7461 797.92969 C 1914.7762 1124.8373 1783.5324 1503.3352 1501.8398 1696.9551 C 1209.2273 1912.0295 775.29926 1896.4689 498.97656 1660.7988 C 220.5625 1438.8189 120.90473 1028.2233 263.75 702.61719 C 387.55746 401.60486 698.33782 195.17882 1024 199 C 1029.6138 198.90237 1035.2238 198.86962 1040.8281 198.90039 z "
     style="color:#000000;font-style:normal;font-variant:normal;font-weight:normal;font-stretch:normal;font-size:medium;line-height:normal;font-family:sans-serif;text-indent:0;text-align:start;text-decoration:none;text-decoration-line:none;text-decoration-style:solid;text-decoration-color:#000000;letter-spacing:normal;word-spacing:normal;text-transform:none;direction:ltr;block-progression:tb;writing-mode:lr-tb;baseline-shift:baseline;text-anchor:start;white-space:normal;clip-rule:nonzero;display:inline;overflow:visible;visibility:visible;opacity:1;isolation:auto;mix-blend-mode:normal;color-interpolation:sRGB;color-interpolation-filters:linearRGB;solid-color:#000000;solid-opacity:1;fill:#000000;fill-opacity:1;fill-rule:nonzero;stroke:none;stroke-width:99.99999237;stroke-linecap:butt;stroke-linejoin:miter;stroke-miterlimit:4;stroke-dasharray:none;stroke-dashoffset:0;stroke-opacity:1;color-rendering:auto;image-rendering:auto;shape-rendering:auto;text-rendering:auto;enable-background:accumulate" />
</svg>
