<?xml version="1.0" encoding="UTF-8" standalone="no"?>
<svg
   xmlns:dc="http://purl.org/dc/elements/1.1/"
   xmlns:cc="http://creativecommons.org/ns#"
   xmlns:rdf="http://www.w3.org/1999/02/22-rdf-syntax-ns#"
   xmlns:svg="http://www.w3.org/2000/svg"
   xmlns="http://www.w3.org/2000/svg"
   width="2048"
   height="2048"
   id="svg3891"
   version="1.1">
  <defs
     id="defs3893" />
  <metadata
     id="metadata3896">
    <rdf:RDF>
      <cc:Work
         rdf:about="">
        <dc:format>image/svg+xml</dc:format>
        <dc:type
           rdf:resource="http://purl.org/dc/dcmitype/StillImage" />
        <dc:title></dc:title>
      </cc:Work>
    </rdf:RDF>
  </metadata>
  <path
     id="path4481"
     d="M 1024 99.003906 C 513.72933 99.003906 99 513.72455 99 1023.998 C 99 1534.2716 513.72866 1949.002 1024 1949.002 C 1534.2712 1949.002 1949 1534.2716 1949 1023.998 C 1949 513.72456 1534.2706 99.003906 1024 99.003906 z M 1024 199.00391 C 1480.2276 199.00391 1849 567.76828 1849 1023.998 C 1849 1480.2279 1480.227 1849.002 1024 1849.002 C 567.77288 1849.002 199 1480.2279 199 1023.998 C 199 567.76828 567.77221 199.00391 1024 199.00391 z M 1015.7109 584.94922 C 844.18238 586.16124 680.61062 698.83384 617.39258 858.23438 C 551.60238 1014.0352 587.9735 1205.804 706.27734 1326.6758 C 821.30364 1450.5055 1010.8318 1496.1399 1169.584 1438.1035 C 1335.9435 1381.4288 1458.1568 1216.8728 1462.5605 1040.9141 C 1471.423 869.96886 1368.6862 700.94487 1214.002 628.34766 C 1154.9754 599.76876 1089.4568 584.89006 1023.8848 584.97656 C 1021.1584 584.93938 1018.4336 584.92998 1015.7109 584.94922 z M 1031.3535 664.92188 C 1188.0597 665.62293 1335.0681 781.44157 1371.6113 934.09766 C 1412.3101 1083.1162 1343.7408 1253.0336 1210.25 1331.1133 C 1073.9496 1416.6566 881.77957 1393.858 769.85547 1278.0039 C 651.74153 1164.0604 630.70808 966.91853 721.32422 830.26953 C 785.50272 728.32303 903.37456 663.80296 1023.8848 664.97656 C 1026.3766 664.92937 1028.8661 664.91075 1031.3535 664.92188 z M 1137.3047 766.99414 C 1097.3373 839.50324 1057.3697 912.01238 1017.4023 984.52148 C 980.36993 988.45928 971.57232 1044.6426 1005.7402 1059.627 C 1028.3101 1075.2933 1045.9874 1049.2348 1066.5332 1050.1328 L 1249.8262 1050.1328 L 1249.8262 1000.1328 L 1065.8887 1000.1328 C 1104.2904 930.46481 1142.6921 860.79691 1181.0938 791.12891 C 1166.4974 783.08401 1151.9011 775.03904 1137.3047 766.99414 z "
     style="color:#000000;font-style:normal;font-variant:normal;font-weight:normal;font-stretch:normal;font-size:medium;line-height:normal;font-family:sans-serif;text-indent:0;text-align:start;text-decoration:none;text-decoration-line:none;text-decoration-style:solid;text-decoration-color:#000000;letter-spacing:normal;word-spacing:normal;text-transform:none;direction:ltr;block-progression:tb;writing-mode:lr-tb;baseline-shift:baseline;text-anchor:start;white-space:normal;clip-rule:nonzero;display:inline;overflow:visible;visibility:visible;opacity:1;isolation:auto;mix-blend-mode:normal;color-interpolation:sRGB;color-interpolation-filters:linearRGB;solid-color:#000000;solid-opacity:1;fill:#000000;fill-opacity:1;fill-rule:nonzero;stroke:none;stroke-width:99.99999237;stroke-linecap:butt;stroke-linejoin:miter;stroke-miterlimit:4;stroke-dasharray:none;stroke-dashoffset:0;stroke-opacity:1;color-rendering:auto;image-rendering:auto;shape-rendering:auto;text-rendering:auto;enable-background:accumulate" />
</svg>
