<?xml version="1.0" encoding="UTF-8" standalone="no"?>
<!DOCTYPE svg PUBLIC "-//W3C//DTD SVG 1.1//EN" "http://www.w3.org/Graphics/SVG/1.1/DTD/svg11.dtd">
<svg version="1.1" xmlns="http://www.w3.org/2000/svg" xmlns:xl="http://www.w3.org/1999/xlink" xmlns:dc="http://purl.org/dc/elements/1.1/" viewBox="99.08133 98.92314 1850.4658 1850.2586" width="1850.4658" height="1850.2586">
  <defs/>
  <metadata> Produced by OmniGraffle 7.18.5\n2021-04-09 07:38:50 +0000</metadata>
  <g id="Canvas_1" stroke-opacity="1" fill="none" fill-opacity="1" stroke="none" stroke-dasharray="none">
    <title>Canvas 1</title>
    <g id="Canvas_1_Layer_1">
      <title>Layer 1</title>
      <g id="Graphic_2">
        <title>path4481</title>
        <path d="M 1015.4766 98.92773 C 654.77914 97.73011 308.6741 330.79447 171.7754 664.1914 C 27.65656 994.3438 102.53842 1404.4752 354.6367 1661.9629 C 597.1004 1922.9548 996.5859 2018.7494 1331.1562 1896.6348 C 1677.896 1778.5613 1933.8798 1438.0411 1947.795 1071.543 C 1971.1343 711.4123 1759.2596 352.12165 1434.8418 195.25 C 1307.8073 131.85595 1165.9493 98.79702 1024 99 C 1021.1581 98.96146 1018.3167 98.93716 1015.4766 98.92773 Z M 1040.8281 198.9004 C 1393.9006 200.83863 1726.4328 456.25906 1817.746 797.9297 C 1914.7762 1124.8373 1783.5324 1503.3352 1501.8398 1696.955 C 1209.2273 1912.0295 775.2993 1896.469 498.97656 1660.7988 C 220.5625 1438.8189 120.90473 1028.2233 263.75 702.6172 C 387.55746 401.60486 698.3378 195.17882 1024 199 C 1029.6138 198.90237 1035.2238 198.86962 1040.8281 198.9004 Z" fill="black"/>
      </g>
    </g>
  </g>
</svg>
