<?xml version="1.0" encoding="UTF-8"?>
<svg xmlns="http://www.w3.org/2000/svg" width="1600" height="1560" viewBox="0 0 1600 1560" role="img" aria-labelledby="chart-title chart-desc">
  <title id="chart-title">A-Commerce WBS Delivery Roadmap Gantt Chart</title>
  <desc id="chart-desc">A WBS-level relative-week Gantt chart derived from the A-Commerce Product Delivery Plan and Work Breakdown Structure. It shows the 23 tasks from WBS-10-01 through WBS-80-04, explicit dependencies, their verified status, and illustrative relative timeboxes. The progress record was last reviewed on 2026-08-15. Every WBS item is verified, so there is no next task to execute; any new work requires separately approved scope that reopens the appropriate WBS item.</desc>
  <metadata>
    Source of sequencing and dependencies: repo-specs/a-commerce/pdp-wbs.md, Work Breakdown Structure.
    Current status: repo-specs/a-commerce/progress.md, last reviewed 2026-08-15.
    Acceptance evidence: repo-specs/a-commerce/test-plan.md, Acceptance Scenario Catalogue and Release Gates.
    Relative timeboxes and intra-phase overlap are illustrative only. Specifications provide no effort estimates, durations, start dates, end dates, staffing plan, or calendar commitments.
  </metadata>
  <style>
    :root {
      --surface: #fcfcfb;
      --page: #f9f9f7;
      --ink: #0b0b0b;
      --secondary: #52514e;
      --muted: #898781;
      --grid: #e1e0d9;
      --axis: #c3c2b7;
      --blue: #2a78d6;
      --orange: #eb6834;
      --aqua: #1baf7a;
      --blue-wash: #eaf3fd;
      --aqua-wash: #e7f7f0;
    }
    @media (prefers-color-scheme: dark) {
      :root {
        --surface: #1a1a19;
        --page: #0d0d0d;
        --ink: #ffffff;
        --secondary: #c3c2b7;
        --muted: #a09f99;
        --grid: #2c2c2a;
        --axis: #383835;
        --blue: #3987e5;
        --orange: #d95926;
        --aqua: #199e70;
        --blue-wash: #172435;
        --aqua-wash: #122b23;
      }
    }
    .canvas { fill: var(--page); }
    .card { fill: var(--surface); stroke: var(--grid); stroke-width: 1; }
    .title { fill: var(--ink); font-family: Arial, Helvetica, sans-serif; font-size: 27px; font-weight: 700; letter-spacing: -0.5px; }
    .subtitle { fill: var(--secondary); font-family: Arial, Helvetica, sans-serif; font-size: 14px; }
    .heading { fill: var(--ink); font-family: Arial, Helvetica, sans-serif; font-size: 13px; font-weight: 700; }
    .task { fill: var(--ink); font-family: Arial, Helvetica, sans-serif; font-size: 8.3px; font-weight: 600; }
    .phase { fill: var(--ink); font-family: Arial, Helvetica, sans-serif; font-size: 9.5px; font-weight: 700; }
    .wbs { fill: var(--ink); font-family: Arial, Helvetica, sans-serif; font-size: 9px; font-weight: 700; font-variant-numeric: tabular-nums; }
    .dependency { fill: var(--secondary); font-family: Arial, Helvetica, sans-serif; font-size: 8px; font-variant-numeric: tabular-nums; }
    .caption { fill: var(--secondary); font-family: Arial, Helvetica, sans-serif; font-size: 11px; }
    .small { fill: var(--muted); font-family: Arial, Helvetica, sans-serif; font-size: 8.5px; }
    .week { fill: var(--secondary); font-family: Arial, Helvetica, sans-serif; font-size: 9.5px; font-weight: 600; font-variant-numeric: tabular-nums; }
    .status { fill: var(--secondary); font-family: Arial, Helvetica, sans-serif; font-size: 8.5px; font-weight: 600; }
    /* WBS identifiers stay in the dedicated first column; bar labels are intentionally suppressed when a short planning timebox cannot contain them. */
    .bar-code-light, .bar-code-dark { display: none; }
    .grid { stroke: var(--grid); stroke-width: 1; shape-rendering: crispEdges; }
    .axis { stroke: var(--axis); stroke-width: 1; shape-rendering: crispEdges; }
    .bar { rx: 4; ry: 4; }
    .row:focus { outline: 2px solid var(--ink); outline-offset: 2px; }
  </style>

  <rect class="canvas" width="1600" height="1560"/>
  <rect class="card" x="32" y="28" width="1536" height="1504" rx="14"/>

  <text class="title" x="72" y="84">A-Commerce WBS Delivery Roadmap</text>
  <text class="subtitle" x="72" y="111">WBS-level tasks, dependency gates, illustrative timeboxes, and current verification status</text>

  <g aria-label="Legend" transform="translate(1000 56)">
    <text class="small" x="0" y="0">Work category</text>
    <rect x="0" y="9" width="12" height="12" rx="3" fill="var(--blue)"/>
    <text class="caption" x="19" y="20">Foundation &amp; platform</text>
    <rect x="165" y="9" width="12" height="12" rx="3" fill="var(--orange)"/>
    <text class="caption" x="184" y="20">Commerce lifecycle</text>
    <rect x="0" y="32" width="12" height="12" rx="3" fill="var(--aqua)"/>
    <text class="caption" x="19" y="43">Quality, release &amp; semantic presentation</text>
  </g>

  <rect x="72" y="142" width="1456" height="78" rx="8" fill="var(--aqua-wash)"/>
  <text class="heading" x="96" y="171">Current execution result</text>
  <text class="caption" x="96" y="193">No next WBS item is ready to execute: all 23 WBS items in the progress index are <tspan font-weight="700">verified</tspan> (last reviewed 2026-08-15).</text>
  <text class="caption" x="96" y="212">When new work is approved, select the first non-verified WBS whose dependencies are satisfied; a reopened Phase 80 must follow its serial sequence.</text>
  <g transform="translate(1300 164)" aria-label="VerifiedStatus">
    <circle cx="10" cy="10" r="10" fill="var(--surface)" stroke="var(--axis)"/>
    <path d="M6 10 L9 13 L15 6" fill="none" stroke="var(--ink)" stroke-width="1.8" stroke-linecap="round" stroke-linejoin="round"/>
    <text class="caption" x="26" y="14">23 / 23 verified</text>
  </g>

  <!-- Table header and relative-week axis -->
  <text class="small" x="72" y="261">Phase</text>
  <text class="small" x="235" y="261">WBS</text>
  <text class="small" x="330" y="261">Work package / key deliverable</text>
  <text class="small" x="560" y="261">Dependencies</text>
  <text class="small" x="692" y="261">Status</text>
  <text class="small" x="758" y="261">Relative implementation weeks (illustrative)</text>
  <line class="axis" x1="758" y1="276" x2="1495" y2="276"/>

  <g aria-label="Relative week scale">
    <line class="axis" x1="758" y1="276" x2="758" y2="1196"/>
    <line class="grid" x1="789" y1="276" x2="789" y2="1196"/>
    <line class="grid" x1="820" y1="276" x2="820" y2="1196"/>
    <line class="grid" x1="851" y1="276" x2="851" y2="1196"/>
    <line class="grid" x1="882" y1="276" x2="882" y2="1196"/>
    <line class="grid" x1="913" y1="276" x2="913" y2="1196"/>
    <line class="grid" x1="944" y1="276" x2="944" y2="1196"/>
    <line class="grid" x1="975" y1="276" x2="975" y2="1196"/>
    <line class="grid" x1="1006" y1="276" x2="1006" y2="1196"/>
    <line class="grid" x1="1037" y1="276" x2="1037" y2="1196"/>
    <line class="grid" x1="1068" y1="276" x2="1068" y2="1196"/>
    <line class="grid" x1="1099" y1="276" x2="1099" y2="1196"/>
    <line class="grid" x1="1130" y1="276" x2="1130" y2="1196"/>
    <line class="grid" x1="1161" y1="276" x2="1161" y2="1196"/>
    <line class="grid" x1="1192" y1="276" x2="1192" y2="1196"/>
    <line class="grid" x1="1223" y1="276" x2="1223" y2="1196"/>
    <line class="grid" x1="1254" y1="276" x2="1254" y2="1196"/>
    <line class="grid" x1="1285" y1="276" x2="1285" y2="1196"/>
    <line class="grid" x1="1316" y1="276" x2="1316" y2="1196"/>
    <line class="grid" x1="1347" y1="276" x2="1347" y2="1196"/>
    <line class="grid" x1="1378" y1="276" x2="1378" y2="1196"/>
    <line class="grid" x1="1409" y1="276" x2="1409" y2="1196"/>
    <line class="grid" x1="1440" y1="276" x2="1440" y2="1196"/>
    <line class="axis" x1="1495" y1="276" x2="1495" y2="1196"/>
    <text class="week" x="773.5" y="296" text-anchor="middle">1</text><text class="week" x="804.5" y="296" text-anchor="middle">2</text><text class="week" x="835.5" y="296" text-anchor="middle">3</text><text class="week" x="866.5" y="296" text-anchor="middle">4</text><text class="week" x="897.5" y="296" text-anchor="middle">5</text><text class="week" x="928.5" y="296" text-anchor="middle">6</text><text class="week" x="959.5" y="296" text-anchor="middle">7</text><text class="week" x="990.5" y="296" text-anchor="middle">8</text><text class="week" x="1021.5" y="296" text-anchor="middle">9</text><text class="week" x="1052.5" y="296" text-anchor="middle">10</text><text class="week" x="1083.5" y="296" text-anchor="middle">11</text><text class="week" x="1114.5" y="296" text-anchor="middle">12</text><text class="week" x="1145.5" y="296" text-anchor="middle">13</text><text class="week" x="1176.5" y="296" text-anchor="middle">14</text><text class="week" x="1207.5" y="296" text-anchor="middle">15</text><text class="week" x="1238.5" y="296" text-anchor="middle">16</text><text class="week" x="1269.5" y="296" text-anchor="middle">17</text><text class="week" x="1300.5" y="296" text-anchor="middle">18</text><text class="week" x="1331.5" y="296" text-anchor="middle">19</text><text class="week" x="1362.5" y="296" text-anchor="middle">20</text><text class="week" x="1393.5" y="296" text-anchor="middle">21</text><text class="week" x="1424.5" y="296" text-anchor="middle">22</text><text class="week" x="1477.5" y="296" text-anchor="middle">23</text>
  </g>

  <!-- Row rules -->
  <g class="grid">
    <line x1="72" y1="316" x2="1495" y2="316"/><line x1="72" y1="355" x2="1495" y2="355"/><line x1="72" y1="394" x2="1495" y2="394"/><line x1="72" y1="433" x2="1495" y2="433"/><line x1="72" y1="472" x2="1495" y2="472"/><line x1="72" y1="511" x2="1495" y2="511"/><line x1="72" y1="550" x2="1495" y2="550"/><line x1="72" y1="589" x2="1495" y2="589"/><line x1="72" y1="628" x2="1495" y2="628"/><line x1="72" y1="667" x2="1495" y2="667"/><line x1="72" y1="706" x2="1495" y2="706"/><line x1="72" y1="745" x2="1495" y2="745"/><line x1="72" y1="784" x2="1495" y2="784"/><line x1="72" y1="823" x2="1495" y2="823"/><line x1="72" y1="862" x2="1495" y2="862"/><line x1="72" y1="901" x2="1495" y2="901"/><line x1="72" y1="940" x2="1495" y2="940"/><line x1="72" y1="979" x2="1495" y2="979"/><line x1="72" y1="1018" x2="1495" y2="1018"/><line x1="72" y1="1057" x2="1495" y2="1057"/><line x1="72" y1="1096" x2="1495" y2="1096"/><line x1="72" y1="1135" x2="1495" y2="1135"/><line x1="72" y1="1174" x2="1495" y2="1174"/><line x1="72" y1="1196" x2="1495" y2="1196"/>
  </g>


  <!-- Phase column: labels span their WBS groups rather than repeat per row. -->
  <g aria-label="Phase column">
    <text class="phase" x="72" y="333">Phase 10</text><text class="small" x="72" y="347">Documentation baseline</text>
    <text class="phase" x="72" y="398">Phase 20</text><text class="small" x="72" y="412">Suite, site, flavor,</text><text class="small" x="72" y="426">and contract plumbing</text>
    <text class="phase" x="72" y="505">Phase 30</text><text class="small" x="72" y="519">Tenant-scoped catalogue</text><text class="small" x="72" y="533">and stock foundation</text>
    <text class="phase" x="72" y="613">Phase 40</text><text class="small" x="72" y="627">Checkout, coupon, order,</text><text class="small" x="72" y="641">and reservation lifecycle</text>
    <text class="phase" x="72" y="741">Phase 50</text><text class="small" x="72" y="755">Mock payment and</text><text class="small" x="72" y="769">customer order experience</text>
    <text class="phase" x="72" y="819">Phase 60</text><text class="small" x="72" y="833">Operator shipment and</text><text class="small" x="72" y="847">pre-shipment refunds</text>
    <text class="phase" x="72" y="913">Phase 70</text><text class="small" x="72" y="927">Migrations, integration</text><text class="small" x="72" y="941">hardening &amp; release</text>
    <text class="phase" x="72" y="1059">Phase 80</text><text class="small" x="72" y="1073">Staged semantic-</text><text class="small" x="72" y="1087">presentation rollout</text>
  </g>

  <!-- WBS rows: all widths and overlap are illustrative planning timeboxes, not source estimates. -->
  <g class="row" aria-label="WBS-10-01: freeze product and technical baseline; no dependencies; verified" tabindex="0"><title>WBS-10-01 · Freeze product &amp; technical baseline · no dependencies · Verified</title><text class="wbs" x="235" y="340">WBS-10-01</text><text class="task" x="330" y="340">Freeze product &amp; tech baseline</text><text class="dependency" x="560" y="340">—</text><circle cx="686" cy="336" r="7" fill="var(--surface)" stroke="var(--axis)"/><path d="M683 336 L685 338 L690 332" fill="none" stroke="var(--ink)" stroke-width="1.4" stroke-linecap="round" stroke-linejoin="round"/><text class="status" x="696" y="340">Verified</text><rect class="bar" x="761" y="326" width="25" height="20" fill="var(--blue)"/></g>
  <g class="row" aria-label="WBS-20-01: create A-Commerce suite and capability modules; depends on WBS-10-01; verified" tabindex="0"><title>WBS-20-01 · Create suite &amp; capability modules · Dependencies WBS-10-01 · Verified</title><text class="wbs" x="235" y="379">WBS-20-01</text><text class="task" x="330" y="379">Create suite &amp; capability modules</text><text class="dependency" x="560" y="379">10-01</text><circle cx="686" cy="375" r="7" fill="var(--surface)" stroke="var(--axis)"/><path d="M683 375 L685 377 L690 371" fill="none" stroke="var(--ink)" stroke-width="1.4"/><text class="status" x="696" y="379">Verified</text><rect class="bar" x="792" y="365" width="25" height="20" fill="var(--blue)"/></g>
  <g class="row" aria-label="WBS-20-02: add independent Commerce SSR sites and flavors; depends on WBS-10-01; verified" tabindex="0"><title>WBS-20-02 · add independent Commerce SSR sites and flavors · depends on WBS-10-01 · Verified</title><text class="wbs" x="235" y="418">WBS-20-02</text><text class="task" x="330" y="418">Independent SSR sites &amp; flavors</text><text class="dependency" x="560" y="418">10-01</text><circle cx="686" cy="414" r="7" fill="var(--surface)" stroke="var(--axis)"/><path d="M683 414 L685 416 L690 410" fill="none" stroke="var(--ink)" stroke-width="1.4"/><text class="status" x="696" y="418">Verified</text><rect class="bar" x="792" y="404" width="56" height="20" fill="var(--blue)"/></g>
  <g class="row" aria-label="WBS-20-03: establish Commerce contract loop checks; depends on WBS-10-01; verified" tabindex="0"><title>WBS-20-03 · establish Commerce contract-loop checks · depends on WBS-10-01 · Verified</title><text class="wbs" x="235" y="457">WBS-20-03</text><text class="task" x="330" y="457">Commerce contract-loop checks</text><text class="dependency" x="560" y="457">10-01</text><circle cx="686" cy="453" r="7" fill="var(--surface)" stroke="var(--axis)"/><path d="M683 453 L685 455 L690 449" fill="none" stroke="var(--ink)" stroke-width="1.4"/><text class="status" x="696" y="457">Verified</text><rect class="bar" x="823" y="443" width="25" height="20" fill="var(--blue)"/></g>
  <g class="row" aria-label="WBS-30-01: implement catalogue and SKU lifecycle; depends on WBS-20 star; verified" tabindex="0"><title>WBS-30-01 · Catalogue &amp; SKU lifecycle · Dependencies WBS-20-* · Verified</title><text class="wbs" x="235" y="496">WBS-30-01</text><text class="task" x="330" y="496">Catalogue &amp; SKU lifecycle</text><text class="dependency" x="560" y="496">20-*</text><circle cx="686" cy="492" r="7" fill="var(--surface)" stroke="var(--axis)"/><path d="M683 492 L685 494 L690 488" fill="none" stroke="var(--ink)" stroke-width="1.4"/><text class="status" x="696" y="496">Verified</text><rect class="bar" x="854" y="482" width="56" height="20" fill="var(--blue)"/></g>
  <g class="row" aria-label="WBS-30-02: implement one warehouse stock and audit foundation; depends on WBS-20 star; verified" tabindex="0"><title>WBS-30-02 · Single-warehouse stock &amp; audit foundation · Dependencies WBS-20-* · Verified</title><text class="wbs" x="235" y="535">WBS-30-02</text><text class="task" x="330" y="535">Single-warehouse stock &amp; audit</text><text class="dependency" x="560" y="535">20-*</text><circle cx="686" cy="531" r="7" fill="var(--surface)" stroke="var(--axis)"/><path d="M683 531 L685 533 L690 527" fill="none" stroke="var(--ink)" stroke-width="1.4"/><text class="status" x="696" y="535">Verified</text><rect class="bar" x="854" y="521" width="56" height="20" fill="var(--blue)"/></g>
  <g class="row" aria-label="WBS-40-01: implement authenticated customer cart and address management; depends on WBS-30 star; verified" tabindex="0"><title>WBS-40-01 · implement authenticated customer cart and address management · depends on WBS-30-* · Verified</title><text class="wbs" x="235" y="574">WBS-40-01</text><text class="task" x="330" y="574">Customer cart &amp; addresses</text><text class="dependency" x="560" y="574">30-*</text><circle cx="686" cy="570" r="7" fill="var(--surface)" stroke="var(--axis)"/><path d="M683 570 L685 572 L690 566" fill="none" stroke="var(--ink)" stroke-width="1.4"/><text class="status" x="696" y="574">Verified</text><rect class="bar" x="916" y="560" width="56" height="20" fill="var(--orange)"/></g>
  <g class="row" aria-label="WBS-40-02: implement fixed amount coupon lifecycle; depends on WBS-30 star; verified" tabindex="0"><title>WBS-40-02 · implement fixed-amount coupon lifecycle · depends on WBS-30-* · Verified</title><text class="wbs" x="235" y="613">WBS-40-02</text><text class="task" x="330" y="613">Fixed-amount coupon lifecycle</text><text class="dependency" x="560" y="613">30-*</text><circle cx="686" cy="609" r="7" fill="var(--surface)" stroke="var(--axis)"/><path d="M683 609 L685 611 L690 605" fill="none" stroke="var(--ink)" stroke-width="1.4"/><text class="status" x="696" y="613">Verified</text><rect class="bar" x="916" y="599" width="56" height="20" fill="var(--orange)"/></g>
  <g class="row" aria-label="WBS-40-03: implement atomic order creation and reservation expiry; depends on WBS-30 star; verified" tabindex="0"><title>WBS-40-03 · implement atomic order creation and reservation expiry · depends on WBS-30-* · Verified</title><text class="wbs" x="235" y="652">WBS-40-03</text><text class="task" x="330" y="652">Atomic order &amp; reservation expiry</text><text class="dependency" x="560" y="652">30-*</text><circle cx="686" cy="648" r="7" fill="var(--surface)" stroke="var(--axis)"/><path d="M683 648 L685 650 L690 644" fill="none" stroke="var(--ink)" stroke-width="1.4"/><text class="status" x="696" y="652">Verified</text><rect class="bar" x="978" y="638" width="56" height="20" fill="var(--orange)"/></g>
  <g class="row" aria-label="WBS-40-04: split Address into read only Admin and Web self service contracts; depends on WBS-20-03 and WBS-40-01; verified" tabindex="0"><title>WBS-40-04 · split Address Admin/Web contracts · Dependencies WBS-20-03 and WBS-40-01 · Verified</title><text class="wbs" x="235" y="691">WBS-40-04</text><text class="task" x="330" y="691">Split Address Admin / Web</text><text class="dependency" x="560" y="691">20-03 + 40-01</text><circle cx="686" cy="687" r="7" fill="var(--surface)" stroke="var(--axis)"/><path d="M683 687 L685 689 L690 683" fill="none" stroke="var(--ink)" stroke-width="1.4"/><text class="status" x="696" y="691">Verified</text><rect class="bar" x="978" y="677" width="56" height="20" fill="var(--orange)"/></g>
  <g class="row" aria-label="WBS-50-01: implement Commerce owned mock payment attempts; depends on WBS-40 star; verified" tabindex="0"><title>WBS-50-01 · implement Commerce-owned mock payment attempts · Dependencies WBS-40-* · Verified</title><text class="wbs" x="235" y="730">WBS-50-01</text><text class="task" x="330" y="730">Mock payment attempts</text><text class="dependency" x="560" y="730">40-*</text><circle cx="686" cy="726" r="7" fill="var(--surface)" stroke="var(--axis)"/><path d="M683 726 L685 728 L690 722" fill="none" stroke="var(--ink)" stroke-width="1.4"/><text class="status" x="696" y="730">Verified</text><rect class="bar" x="1040" y="716" width="56" height="20" fill="var(--orange)"/></g>
  <g class="row" aria-label="WBS-50-02: deliver checkout and personal centre order surfaces; depends on WBS-40 star; verified" tabindex="0"><title>WBS-50-02 · Checkout &amp; personal-centre order surfaces · Dependencies WBS-40-* · Verified</title><text class="wbs" x="235" y="769">WBS-50-02</text><text class="task" x="330" y="769">Checkout &amp; customer orders</text><text class="dependency" x="560" y="769">40-*</text><circle cx="686" cy="765" r="7" fill="var(--surface)" stroke="var(--axis)"/><path d="M683 765 L685 767 L690 761" fill="none" stroke="var(--ink)" stroke-width="1.4"/><text class="status" x="696" y="769">Verified</text><rect class="bar" x="1040" y="755" width="56" height="20" fill="var(--orange)"/></g>
  <g class="row" aria-label="WBS-60-01: deliver operator order workbench and manual shipment; depends on WBS-50 star; verified" tabindex="0"><title>WBS-60-01 · deliver operator order workbench and manual shipment · depends on WBS-50-* · Verified</title><text class="wbs" x="235" y="808">WBS-60-01</text><text class="task" x="330" y="808">Order workbench &amp; manual shipment</text><text class="dependency" x="560" y="808">50-*</text><circle cx="686" cy="804" r="7" fill="var(--surface)" stroke="var(--axis)"/><path d="M683 804 L685 806 L690 800" fill="none" stroke="var(--ink)" stroke-width="1.4"/><text class="status" x="696" y="808">Verified</text><rect class="bar" x="1102" y="794" width="56" height="20" fill="var(--orange)"/></g>
  <g class="row" aria-label="WBS-60-02: deliver request approval and mock execution of refunds; depends on WBS-50 star; verified" tabindex="0"><title>WBS-60-02 · deliver refund request, approval, and mock execution · depends on WBS-50-* · Verified</title><text class="wbs" x="235" y="847">WBS-60-02</text><text class="task" x="330" y="847">Refund request, approval &amp; mock execution</text><text class="dependency" x="560" y="847">50-*</text><circle cx="686" cy="843" r="7" fill="var(--surface)" stroke="var(--axis)"/><path d="M683 843 L685 845 L690 839" fill="none" stroke="var(--ink)" stroke-width="1.4"/><text class="status" x="696" y="847">Verified</text><rect class="bar" x="1133" y="833" width="56" height="20" fill="var(--orange)"/></g>
  <g class="row" aria-label="WBS-70-01: complete migrations and contract synchronization; depends on WBS-20 through WBS-60; verified" tabindex="0"><title>WBS-70-01 · Migrations &amp; contract synchronization · Dependencies WBS-20-* through WBS-60-* · Verified</title><text class="wbs" x="235" y="886">WBS-70-01</text><text class="task" x="330" y="886">Migrations &amp; contract sync</text><text class="dependency" x="560" y="886">20–60-*</text><circle cx="686" cy="882" r="7" fill="var(--surface)" stroke="var(--axis)"/><path d="M683 882 L685 884 L690 878" fill="none" stroke="var(--ink)" stroke-width="1.4"/><text class="status" x="696" y="886">Verified</text><rect class="bar" x="1195" y="872" width="25" height="20" fill="var(--aqua)"/></g>
  <g class="row" aria-label="WBS-70-02: run focused and end to end verification; depends on WBS-20 through WBS-60; verified" tabindex="0"><title>WBS-70-02 · Focused &amp; end-to-end verification · Dependencies WBS-20-* through WBS-60-* · Verified</title><text class="wbs" x="235" y="925">WBS-70-02</text><text class="task" x="330" y="925">Focused E2E verification</text><text class="dependency" x="560" y="925">20–60-*</text><circle cx="686" cy="921" r="7" fill="var(--surface)" stroke="var(--axis)"/><path d="M683 921 L685 923 L690 917" fill="none" stroke="var(--ink)" stroke-width="1.4"/><text class="status" x="696" y="925">Verified</text><rect class="bar" x="1195" y="911" width="56" height="20" fill="var(--aqua)"/></g>
  <g class="row" aria-label="WBS-70-03: establish Coupon Template semantic form layout reference; depends on WBS-40-02 and WBS-70-01; verified" tabindex="0"><title>WBS-70-03 · establish Coupon Template semantic form-layout reference · Dependencies WBS-40-02 and WBS-70-01 · Verified</title><text class="wbs" x="235" y="964">WBS-70-03</text><text class="task" x="330" y="964">Coupon Template semantic form</text><text class="dependency" x="560" y="964">40-02 + 70-01</text><circle cx="686" cy="960" r="7" fill="var(--surface)" stroke="var(--axis)"/><path d="M683 960 L685 962 L690 956" fill="none" stroke="var(--ink)" stroke-width="1.4"/><text class="status" x="696" y="964">Verified</text><rect class="bar" x="1226" y="950" width="25" height="20" fill="var(--aqua)"/></g>
  <g class="row" aria-label="WBS-70-04: codify reusable semantic presentation contract; depends on WBS-10-01 and WBS-70-03; verified" tabindex="0"><title>WBS-70-04 · Codify reusable semantic-presentation contract · Dependencies WBS-10-01 and WBS-70-03 · Verified</title><text class="wbs" x="235" y="1003">WBS-70-04</text><text class="task" x="330" y="1003">Reusable semantic-presentation contract</text><text class="dependency" x="560" y="1003">10-01 + 70-03</text><circle cx="686" cy="999" r="7" fill="var(--surface)" stroke="var(--axis)"/><path d="M683 999 L685 1001 L690 995" fill="none" stroke="var(--ink)" stroke-width="1.4"/><text class="status" x="696" y="1003">Verified</text><rect class="bar" x="1226" y="989" width="25" height="20" fill="var(--aqua)"/></g>
  <g class="row" aria-label="WBS-80-00: establish resumable rollout controls; depends on WBS-70-04; verified" tabindex="0"><title>WBS-80-00 · Establish resumable rollout controls · Dependencies WBS-70-04 · Verified</title><text class="wbs" x="235" y="1042">WBS-80-00</text><text class="task" x="330" y="1042">Establish rollout controls</text><text class="dependency" x="560" y="1042">70-04</text><circle cx="686" cy="1038" r="7" fill="var(--surface)" stroke="var(--axis)"/><path d="M683 1038 L685 1040 L690 1034" fill="none" stroke="var(--ink)" stroke-width="1.4"/><text class="status" x="696" y="1042">Verified</text><rect class="bar" x="1257" y="1028" width="25" height="20" fill="var(--aqua)"/></g>
  <g class="row" aria-label="WBS-80-01: deliver Catalogue Admin semantic presentation wave, Category then Product then SKU serially; depends on WBS-80-00 and WBS-70-03/04 retained evidence; verified" tabindex="0"><title>WBS-80-01 · deliver Catalogue Admin semantic-presentation wave · Category, Product, and SKU serially · depends on WBS-80-00 and retained WBS-70-03/04 evidence · Verified</title><text class="wbs" x="235" y="1081">WBS-80-01</text><text class="task" x="330" y="1081">Catalogue Admin: Category → Product → SKU</text><text class="dependency" x="560" y="1081">80-00 + 70-03/04</text><circle cx="686" cy="1077" r="7" fill="var(--surface)" stroke="var(--axis)"/><path d="M683 1077 L685 1079 L690 1073" fill="none" stroke="var(--ink)" stroke-width="1.4"/><text class="status" x="696" y="1081">Verified</text><rect class="bar" x="1288" y="1067" width="87" height="20" fill="var(--aqua)"/></g>
  <g class="row" aria-label="WBS-80-02: deliver Order Admin semantic workbench; depends on WBS-80-01; verified" tabindex="0"><title>WBS-80-02 · deliver Order Admin semantic workbench · depends on WBS-80-01 · Verified</title><text class="wbs" x="235" y="1120">WBS-80-02</text><text class="task" x="330" y="1120">Order Admin semantic workbench</text><text class="dependency" x="560" y="1120">80-01</text><circle cx="686" cy="1116" r="7" fill="var(--surface)" stroke="var(--axis)"/><path d="M683 1116 L685 1118 L690 1112" fill="none" stroke="var(--ink)" stroke-width="1.4"/><text class="status" x="696" y="1120">Verified</text><rect class="bar" x="1381" y="1106" width="25" height="20" fill="var(--aqua)"/></g>
  <g class="row" aria-label="WBS-80-03: deliver Stock Balance and Stock Audit Admin presentation; depends on WBS-80-02; verified" tabindex="0"><title>WBS-80-03 · deliver Stock Balance and Stock Audit Admin presentation · Dependencies WBS-80-02 · Verified</title><text class="wbs" x="235" y="1159">WBS-80-03</text><text class="task" x="330" y="1159">Stock Balance / Audit Admin</text><text class="dependency" x="560" y="1159">80-02</text><circle cx="686" cy="1155" r="7" fill="var(--surface)" stroke="var(--axis)"/><path d="M683 1155 L685 1157 L690 1151" fill="none" stroke="var(--ink)" stroke-width="1.4"/><text class="status" x="696" y="1159">Verified</text><rect class="bar" x="1412" y="1145" width="25" height="20" fill="var(--aqua)"/></g>
  <g class="row" aria-label="WBS-80-04: deliver read only Address Admin presentation; depends on WBS-80-03; verified" tabindex="0"><title>WBS-80-04 · deliver read-only Address Admin presentation · depends on WBS-80-03 · Verified</title><text class="wbs" x="235" y="1193">WBS-80-04</text><text class="task" x="330" y="1193">Read-only Address Admin</text><text class="dependency" x="560" y="1193">80-03</text><circle cx="686" cy="1189" r="7" fill="var(--surface)" stroke="var(--axis)"/><path d="M683 1189 L685 1191 L690 1185" fill="none" stroke="var(--ink)" stroke-width="1.4"/><text class="status" x="696" y="1193">Verified</text><rect class="bar" x="1443" y="1179" width="25" height="20" fill="var(--aqua)"/></g>

  <g aria-label="Execution rules and acceptance milestones">
    <rect x="72" y="1230" width="684" height="218" rx="9" fill="var(--surface)" stroke="var(--grid)"/>
    <text class="heading" x="96" y="1264">How to identify the “next step”</text>
    <text class="caption" x="96" y="1292">1. Skip work packages whose status is verified.</text>
    <text class="caption" x="96" y="1318">2. Among the remainder, choose the earliest item whose explicit dependencies are all verified.</text>
    <text class="caption" x="96" y="1344">3. Bars, overlaps, and weeks are illustrative—not duration, concurrency, or calendar commitments.</text>
    <text class="caption" x="96" y="1380">Current result: no item is ready to execute. When new scope is approved, update the WBS and</text>
    <text class="caption" x="96" y="1398">progress index, then apply this rule again.</text>
    <text class="small" x="96" y="1422">Phase 80: 80-00 → 80-01 (Category → Product → SKU) → 80-02 → 80-03 → 80-04; strictly serial.</text>

    <rect x="780" y="1230" width="715" height="218" rx="9" fill="var(--surface)" stroke="var(--grid)"/>
    <text class="heading" x="804" y="1264">Phase acceptance milestones</text>
    <text class="caption" x="804" y="1294">P20 · ATP-SSR-01 / ATP-SSR-02 / ATP-CTR-01</text>
    <text class="caption" x="804" y="1320">P30–40 · ATP-TEN-01 / ATP-INV-01 / ATP-TXN-01 / ATP-CPN-01 / ATP-EXP-01 / ATP-SNAP-01</text>
    <text class="caption" x="804" y="1346">P50–60 · ATP-PAY-01 / ATP-SHP-01 / ATP-RFD-01 / ATP-RACE-01</text>
    <text class="caption" x="804" y="1372">P70 · ATP-FIA-01 / ATP-SPC-01; P80 · ATP-SPC-02 through ATP-SPC-05</text>
    <text class="small" x="804" y="1414">WBS sequence and dependencies come from the PDP/WBS; status comes from the derived progress index.</text>
    <text class="small" x="804" y="1432">The progress index does not replace authoritative requirements or acceptance evidence.</text>
  </g>

  <line class="grid" x1="72" y1="1480" x2="1495" y2="1480"/>
  <text class="small" x="72" y="1504">Sources: pdp-wbs.md · progress.md (reviewed 2026-08-15) · test-plan.md</text>
  <text class="small" x="1495" y="1504" text-anchor="end">Illustrative timeboxes—not calendar, duration, or concurrency commitments</text>
</svg>
