<?xml version="1.0" encoding="UTF-8"?>
<svg xmlns="http://www.w3.org/2000/svg" width="1600" height="1156" viewBox="0 0 1600 1156" role="img" aria-labelledby="chart-title chart-desc">
  <title id="chart-title">A-Commerce WBS Scope-Count Burndown</title>
  <desc id="chart-desc">WBS Scope-Count Burndown. 23 active WBS items; 23 verified; 0 remaining. No observed intermediate status points are available.</desc>
  <metadata>Derived from pdp-wbs.md, test-plan.md, and progress.md. This SVG is not planning authority.</metadata>
  <style>
    :root { --surface:#fcfcfb;--page:#f9f9f7;--ink:#0b0b0b;--secondary:#52514e;--muted:#898781;--grid:#e1e0d9;--axis:#c3c2b7;--blue:#2a78d6;--orange:#eb6834;--aqua:#1baf7a;--violet:#4a3aa7;--red:#e34948;--yellow:#eda100;--blue-wash:#eaf3fd;--aqua-wash:#e7f7f0; }
    @media (prefers-color-scheme:dark) { :root { --surface:#1a1a19;--page:#0d0d0d;--ink:#fff;--secondary:#c3c2b7;--muted:#a09f99;--grid:#2c2c2a;--axis:#383835;--blue:#3987e5;--orange:#d95926;--aqua:#199e70;--violet:#9085e9;--red:#e66767;--yellow:#c98500;--blue-wash:#172435;--aqua-wash:#122b23; } }
    .canvas{fill:var(--page)}.card{fill:var(--surface);stroke:var(--grid);stroke-width:1}.title{fill:var(--ink);font-family:Arial,Helvetica,sans-serif;font-size:27px;font-weight:700}.subtitle{fill:var(--secondary);font-family:Arial,Helvetica,sans-serif;font-size:14px}.heading{fill:var(--ink);font-family:Arial,Helvetica,sans-serif;font-size:13px;font-weight:700}.phase{fill:var(--ink);font-family:Arial,Helvetica,sans-serif;font-size:10px;font-weight:700}.task{fill:var(--ink);font-family:Arial,Helvetica,sans-serif;font-size:10px}.small{fill:var(--muted);font-family:Arial,Helvetica,sans-serif;font-size:9px}.caption{fill:var(--secondary);font-family:Arial,Helvetica,sans-serif;font-size:11px}.num{fill:var(--ink);font-family:Arial,Helvetica,sans-serif;font-size:11px;font-weight:700;font-variant-numeric:tabular-nums}.grid{stroke:var(--grid);stroke-width:1;shape-rendering:crispEdges}.axis{stroke:var(--axis);stroke-width:1;shape-rendering:crispEdges}.row:focus{outline:2px solid var(--ink);outline-offset:2px}
  </style>
  <rect class="canvas" width="1600" height="1156"/><rect class="card" x="32" y="28" width="1536" height="1100" rx="14"/>
  <text class="title" x="72" y="84">A-Commerce WBS Scope-Count Burndown</text><text class="subtitle" x="72" y="110">Derived WBS scope snapshot — remaining-count reference, not a calendar or historical trend</text><text class="small" x="1500" y="84" text-anchor="end">Last reviewed: 2026-08-15</text>
  <rect x="72" y="142" width="1428" height="116" rx="8" fill="var(--aqua-wash)"/><text class="heading" x="96" y="170">Current reviewed state</text><text x="96" y="231" class="title" style="font-size:52px">0</text><text class="heading" x="155" y="215">WBS items remaining</text><text class="caption" x="155" y="237">23 / 23 verified</text><text class="caption" x="700" y="205">Recorded WBS scope</text><text class="heading" x="700" y="230">23</text><text class="caption" x="1030" y="205">Deferred</text><text class="heading" x="1030" y="230">0</text>
  <text class="heading" x="72" y="300">Scope-count reference</text><text class="caption" x="72" y="321">No observed intermediate status points are available.</text><rect class="card" x="72" y="340" width="940" height="390" rx="9"/><text class="small" x="116" y="372">WBS items remaining</text><text class="small" x="550" y="704" text-anchor="middle">Verified WBS items in recorded scope — not time</text>
  <g class="grid"><line x1="190" y1="410" x2="910" y2="410"/><line x1="190" y1="490" x2="910" y2="490"/><line x1="190" y1="570" x2="910" y2="570"/><line x1="190" y1="650" x2="910" y2="650"/><line x1="190" y1="410" x2="190" y2="650"/><line x1="910" y1="410" x2="910" y2="650"/></g><line class="axis" x1="190" y1="650" x2="910" y2="650"/><line class="axis" x1="190" y1="410" x2="190" y2="650"/>
  <line x1="190" y1="410" x2="910.0" y2="650.0" stroke="var(--blue)" stroke-width="2"/><line x1="910.0" y1="650.0" x2="910" y2="650" stroke="var(--blue)" stroke-width="2" stroke-dasharray="6 5"/><circle cx="190" cy="410" r="7" fill="var(--blue)" stroke="var(--surface)" stroke-width="2"/><text class="heading" x="212" y="428">Logical recorded-scope baseline</text><text class="caption" x="212" y="447">23 remaining</text><circle cx="910.0" cy="650.0" r="14" fill="var(--aqua)" stroke="var(--surface)" stroke-width="3"/><path d="M904.0 650.0 L908.0 654.0 L916.0 645.0" fill="none" stroke="var(--surface)" stroke-width="1.8" stroke-linecap="round"/><text class="heading" x="888" y="601" text-anchor="end">Current snapshot</text><text class="caption" x="888" y="620" text-anchor="end">0 remaining · 23 verified</text>
  <rect x="1040" y="340" width="460" height="390" rx="9" fill="var(--blue-wash)"/><text class="heading" x="1070" y="378">How to read this chart</text><text class="caption" x="1070" y="412">remaining = active scope − verified</text><text class="caption" x="1070" y="448">No observed intermediate status points are available.</text><text class="caption" x="1070" y="484">Derived visualization only — not a schedule, velocity trend, or forecast</text><text class="caption" x="1070" y="520"><tspan x="1070" dy="0">Relative positions and overlap are illustrative; they are not calendar</tspan><tspan x="1070" dy="18">dates, duration, staffing, or concurrency commitments.</tspan></text>
  <rect class="card" x="72" y="758" width="1428" height="298" rx="9"/><text class="heading" x="96" y="786">Scope by phase</text><text class="small" x="96" y="800">Active WBS items: 23; verified: 23; WBS items remaining: 0</text><text class="small" x="730" y="786" text-anchor="end">verified</text><text class="small" x="850" y="786" text-anchor="end">WBS items remaining</text><text class="small" x="930" y="786">Completion</text><g class="row" tabindex="0" aria-label="Phase 10: 1 / 1 verified"><title>Phase 10: 1 / 1 verified · Documentation baseline and implementation gate</title><text class="task" x="96" y="832">Phase 10 · Documentation baseline and implementation gate</text><text class="num" x="730" y="832" text-anchor="end">1 / 1</text><text class="num" x="850" y="832" text-anchor="end">0</text><rect x="930" y="821" width="210" height="12" rx="6" fill="var(--blue-wash)"/><rect x="930" y="821" width="210" height="12" rx="6" fill="var(--aqua)"/><circle cx="1215" cy="827" r="6" fill="var(--surface)" stroke="var(--axis)"/><path d="M1212 827 L1214 829 L1219 824" fill="none" stroke="var(--ink)" stroke-width="1.1" stroke-linecap="round"/><text class="small" x="1228" y="832">Verified</text></g>
<g class="row" tabindex="0" aria-label="Phase 20: 3 / 3 verified"><title>Phase 20: 3 / 3 verified · Suite, site, flavor, and contract plumbing</title><text class="task" x="96" y="860">Phase 20 · Suite, site, flavor, and contract plumbing</text><text class="num" x="730" y="860" text-anchor="end">3 / 3</text><text class="num" x="850" y="860" text-anchor="end">0</text><rect x="930" y="849" width="210" height="12" rx="6" fill="var(--blue-wash)"/><rect x="930" y="849" width="210" height="12" rx="6" fill="var(--aqua)"/><circle cx="1215" cy="855" r="6" fill="var(--surface)" stroke="var(--axis)"/><path d="M1212 855 L1214 857 L1219 852" fill="none" stroke="var(--ink)" stroke-width="1.1" stroke-linecap="round"/><text class="small" x="1228" y="860">Verified</text></g>
<g class="row" tabindex="0" aria-label="Phase 30: 2 / 2 verified"><title>Phase 30: 2 / 2 verified · Tenant-scoped catalogue and stock foundation</title><text class="task" x="96" y="888">Phase 30 · Tenant-scoped catalogue and stock foundation</text><text class="num" x="730" y="888" text-anchor="end">2 / 2</text><text class="num" x="850" y="888" text-anchor="end">0</text><rect x="930" y="877" width="210" height="12" rx="6" fill="var(--blue-wash)"/><rect x="930" y="877" width="210" height="12" rx="6" fill="var(--aqua)"/><circle cx="1215" cy="883" r="6" fill="var(--surface)" stroke="var(--axis)"/><path d="M1212 883 L1214 885 L1219 880" fill="none" stroke="var(--ink)" stroke-width="1.1" stroke-linecap="round"/><text class="small" x="1228" y="888">Verified</text></g>
<g class="row" tabindex="0" aria-label="Phase 40: 4 / 4 verified"><title>Phase 40: 4 / 4 verified · Checkout, coupon, order, and reservation lifecycle</title><text class="task" x="96" y="916">Phase 40 · Checkout, coupon, order, and reservation lifecycle</text><text class="num" x="730" y="916" text-anchor="end">4 / 4</text><text class="num" x="850" y="916" text-anchor="end">0</text><rect x="930" y="905" width="210" height="12" rx="6" fill="var(--blue-wash)"/><rect x="930" y="905" width="210" height="12" rx="6" fill="var(--aqua)"/><circle cx="1215" cy="911" r="6" fill="var(--surface)" stroke="var(--axis)"/><path d="M1212 911 L1214 913 L1219 908" fill="none" stroke="var(--ink)" stroke-width="1.1" stroke-linecap="round"/><text class="small" x="1228" y="916">Verified</text></g>
<g class="row" tabindex="0" aria-label="Phase 50: 2 / 2 verified"><title>Phase 50: 2 / 2 verified · Mock payment and customer order experience</title><text class="task" x="96" y="944">Phase 50 · Mock payment and customer order experience</text><text class="num" x="730" y="944" text-anchor="end">2 / 2</text><text class="num" x="850" y="944" text-anchor="end">0</text><rect x="930" y="933" width="210" height="12" rx="6" fill="var(--blue-wash)"/><rect x="930" y="933" width="210" height="12" rx="6" fill="var(--aqua)"/><circle cx="1215" cy="939" r="6" fill="var(--surface)" stroke="var(--axis)"/><path d="M1212 939 L1214 941 L1219 936" fill="none" stroke="var(--ink)" stroke-width="1.1" stroke-linecap="round"/><text class="small" x="1228" y="944">Verified</text></g>
<g class="row" tabindex="0" aria-label="Phase 60: 2 / 2 verified"><title>Phase 60: 2 / 2 verified · Operator shipment and pre-shipment whole-order refunds</title><text class="task" x="96" y="972">Phase 60 · Operator shipment and pre-shipment whole-order refunds</text><text class="num" x="730" y="972" text-anchor="end">2 / 2</text><text class="num" x="850" y="972" text-anchor="end">0</text><rect x="930" y="961" width="210" height="12" rx="6" fill="var(--blue-wash)"/><rect x="930" y="961" width="210" height="12" rx="6" fill="var(--aqua)"/><circle cx="1215" cy="967" r="6" fill="var(--surface)" stroke="var(--axis)"/><path d="M1212 967 L1214 969 L1219 964" fill="none" stroke="var(--ink)" stroke-width="1.1" stroke-linecap="round"/><text class="small" x="1228" y="972">Verified</text></g>
<g class="row" tabindex="0" aria-label="Phase 70: 4 / 4 verified"><title>Phase 70: 4 / 4 verified · Migrations, integration hardening, and release acceptance</title><text class="task" x="96" y="1000">Phase 70 · Migrations, integration hardening, and release acceptance</text><text class="num" x="730" y="1000" text-anchor="end">4 / 4</text><text class="num" x="850" y="1000" text-anchor="end">0</text><rect x="930" y="989" width="210" height="12" rx="6" fill="var(--blue-wash)"/><rect x="930" y="989" width="210" height="12" rx="6" fill="var(--aqua)"/><circle cx="1215" cy="995" r="6" fill="var(--surface)" stroke="var(--axis)"/><path d="M1212 995 L1214 997 L1219 992" fill="none" stroke="var(--ink)" stroke-width="1.1" stroke-linecap="round"/><text class="small" x="1228" y="1000">Verified</text></g>
<g class="row" tabindex="0" aria-label="Phase 80: 5 / 5 verified"><title>Phase 80: 5 / 5 verified · Staged semantic-presentation rollout</title><text class="task" x="96" y="1028">Phase 80 · Staged semantic-presentation rollout</text><text class="num" x="730" y="1028" text-anchor="end">5 / 5</text><text class="num" x="850" y="1028" text-anchor="end">0</text><rect x="930" y="1017" width="210" height="12" rx="6" fill="var(--blue-wash)"/><rect x="930" y="1017" width="210" height="12" rx="6" fill="var(--aqua)"/><circle cx="1215" cy="1023" r="6" fill="var(--surface)" stroke="var(--axis)"/><path d="M1212 1023 L1214 1025 L1219 1020" fill="none" stroke="var(--ink)" stroke-width="1.1" stroke-linecap="round"/><text class="small" x="1228" y="1028">Verified</text></g>
  <line class="grid" x1="72" y1="1082" x2="1500" y2="1082"/><text class="small" x="72" y="1108">Sources: pdp-wbs.md · progress.md (Last reviewed: 2026-08-15)</text><text class="small" x="1500" y="1108" text-anchor="end">Derived visualization only — not a schedule, velocity trend, or forecast</text>
</svg>
