<?xml version="1.0" encoding="UTF-8" standalone="no"?>
<svg
   xmlns:dc="http://purl.org/dc/elements/1.1/"
   xmlns:cc="http://creativecommons.org/ns#"
   xmlns:rdf="http://www.w3.org/1999/02/22-rdf-syntax-ns#"
   xmlns:svg="http://www.w3.org/2000/svg"
   xmlns="http://www.w3.org/2000/svg"
   xmlns:xlink="http://www.w3.org/1999/xlink"
   xmlns:sodipodi="http://sodipodi.sourceforge.net/DTD/sodipodi-0.dtd"
   xmlns:inkscape="http://www.inkscape.org/namespaces/inkscape"
   version="1.1"
   width="58.57354"
   height="54.890038"
   viewBox="0 0 45.760578 42.882842"
   id="svg31"
   sodipodi:docname="eggborn.svg"
   inkscape:version="0.92.2 5c3e80d, 2017-08-06">
  <metadata
     id="metadata35">
    <rdf:RDF>
      <cc:Work
         rdf:about="">
        <dc:format>image/svg+xml</dc:format>
        <dc:type
           rdf:resource="http://purl.org/dc/dcmitype/StillImage" />
      </cc:Work>
    </rdf:RDF>
  </metadata>
  <sodipodi:namedview
     pagecolor="#ffffff"
     bordercolor="#666666"
     borderopacity="1"
     objecttolerance="10"
     gridtolerance="10"
     guidetolerance="10"
     inkscape:pageopacity="0"
     inkscape:pageshadow="2"
     inkscape:window-width="839"
     inkscape:window-height="504"
     id="namedview33"
     showgrid="false"
     inkscape:zoom="1.84375"
     inkscape:cx="27.050351"
     inkscape:cy="26.653904"
     inkscape:window-x="347"
     inkscape:window-y="0"
     inkscape:window-maximized="0"
     inkscape:current-layer="svg31" />
  <defs
     id="defs21">
    <linearGradient
       inkscape:collect="always"
       id="linearGradient6678">
      <stop
         style="stop-color:#000000;stop-opacity:1;"
         offset="0"
         id="stop6674" />
      <stop
         style="stop-color:#000000;stop-opacity:0;"
         offset="1"
         id="stop6676" />
    </linearGradient>
    <g
       id="background">
      <path
         d="m 90.75,23.05 q -1.25,0 -1.9,1.1 -0.7,1.1 0,2.2 8.4,13.85 6.3,29.8 -2.1,15.5 -13.4,26.45 Q 70.35,93.7 54.9,95.25 32.95,97.55 17.6,81.85 2.2,66.2 4.85,44.2 6.6,30.2 16.15,19.7 25.65,9.1 39.25,5.8 50.55,3 61.7,5.95 62.85,6.3 63.7,5.65 64.6,5 64.6,3.85 64.6,2.25 62.95,1.7 52.55,-1.1 41.6,0.65 25.55,3.3 14.4,14.85 3.1,26.25 0.65,42.4 -2.95,66.9 14,84.5 q 16.85,17.6 41.2,15.2 17.4,-1.8 30,-14.3 12.75,-12.6 14.5,-30.05 1.75,-16.8 -6.95,-31.3 -0.7,-1 -2,-1 z"
         id="path2"
         inkscape:connector-curvature="0"
         style="fill:url(#background-gradient);stroke:none" />
    </g>
    <mask
       id="mask">
      <path
         d="M 82.2,82.15 Q 95.5,68.85 95.5,49.95 95.5,31.1 82.2,17.8 68.85,4.5 50,4.5 31.15,4.5 17.8,17.8 4.5,31.1 4.5,49.95 q 0,18.9 13.3,32.2 13.35,13.3 32.2,13.3 18.85,0 32.2,-13.3 z"
         id="path5"
         inkscape:connector-curvature="0"
         style="fill:#ffffff;stroke:none" />
    </mask>
    <linearGradient
       id="background-gradient"
       x1="0"
       y1="0"
       y2="1"
       x2="0">
      <stop
         stop-color="#ffffff"
         offset="0%"
         id="stop8" />
      <stop
         stop-color="#46eaff"
         offset="100%"
         id="stop10" />
    </linearGradient>
    <g
       transform="scale(2.0833333)"
       id="picture">
      <path
         d="m 25.3,7.9 2.9,3 -5.9,3.5 2.5,9.3 -3.9,12.4 0.8,-4.2 1.7,-8.2 L 20,13.5 25,10.9 21.7,7.4 C 21.1,7.3 20.5,7.3 19.9,7.3 10.6,7.3 0,14.3 0,24 0,33.7 10.6,40.7 19.8,40.7 29.1,40.7 48,33.7 48,24 48,16 35,9.7 25.3,7.9 Z"
         id="path13"
         inkscape:connector-curvature="0" />
    </g>
    <linearGradient
       id="picture-gradient"
       x1="0"
       y1="0"
       y2="1"
       x2="0">
      <stop
         stop-color="#ffffff"
         offset="0%"
         id="stop16" />
      <stop
         stop-color="#e5eff9"
         offset="100%"
         id="stop18" />
    </linearGradient>
    <radialGradient
       inkscape:collect="always"
       xlink:href="#linearGradient6678"
       id="radialGradient6684"
       cx="50"
       cy="49.999996"
       fx="50"
       fy="49.999996"
       r="25.520832"
       gradientTransform="matrix(1,0,0,0.70204087,0,14.897956)"
       gradientUnits="userSpaceOnUse" />
    <radialGradient
       inkscape:collect="always"
       xlink:href="#linearGradient6678"
       id="radialGradient6887"
       gradientUnits="userSpaceOnUse"
       gradientTransform="matrix(1,0,0,0.70204087,0,14.897956)"
       cx="50"
       cy="49.999996"
       fx="50"
       fy="49.999996"
       r="25.520832" />
    <radialGradient
       inkscape:collect="always"
       xlink:href="#linearGradient6678"
       id="radialGradient6889"
       gradientUnits="userSpaceOnUse"
       gradientTransform="matrix(1,0,0,0.70204087,0,14.897956)"
       cx="50"
       cy="49.999996"
       fx="50"
       fy="49.999996"
       r="25.520832" />
  </defs>
  <g
     mask="url(#mask)"
     id="g29"
     style="fill:#113e45;fill-opacity:0.72156863;stroke:url(#radialGradient6684);stroke-width:1;stroke-linecap:butt;stroke-linejoin:round;stroke-miterlimit:4;stroke-dasharray:none;stroke-dashoffset:0;stroke-opacity:1"
     transform="rotate(140,41.147011,31.133799)">
    <g
       transform="matrix(0.5,0,0,0.5,25,25)"
       id="g27"
       style="fill:#113e45;fill-opacity:0.72156863;stroke:url(#radialGradient6889);stroke-width:2;stroke-linecap:butt;stroke-linejoin:round;stroke-miterlimit:4;stroke-dasharray:none;stroke-dashoffset:0;stroke-opacity:1">
      <use
         xlink:href="#picture"
         id="use25"
         style="fill:#113e45;fill-opacity:0.72156863;stroke:url(#radialGradient6887);stroke-width:2;stroke-linecap:butt;stroke-linejoin:round;stroke-miterlimit:4;stroke-dasharray:none;stroke-dashoffset:0;stroke-opacity:1"
         x="0"
         y="0"
         width="100%"
         height="100%" />
    </g>
  </g>
</svg>
